<svg xmlns="http://www.w3.org/2000/svg" viewBox="0 0 335.99 235.19"><defs><style>.cls-1{isolation:isolate;}.cls-2,.cls-9{fill:#c2cbd1;}.cls-2,.cls-8{opacity:0.7;mix-blend-mode:multiply;}.cls-3{fill:#fff;}.cls-4{fill:#747d86;}.cls-5{fill:#d9d9d9;}.cls-6{fill:#404041;}.cls-7{fill:#485182;}.cls-10{fill:#025159;}.cls-11{fill:#ebdeb4;}.cls-12{fill:#8c0303;}.cls-13{fill:#28485d;}</style></defs><title>about-arcae</title><g class="cls-1"><g id="Layer_1" data-name="Layer 1"><path class="cls-2" d="M167.14,178.74,99.36,69.39a1.6,1.6,0,0,0-2.2-.51L21.2,116a1.6,1.6,0,0,0-.52,2.2L88.46,227.51a1.6,1.6,0,0,0,2.2.52l76-47.08A1.61,1.61,0,0,0,167.14,178.74Z"/><path class="cls-3" d="M160.79,176.44a1.6,1.6,0,0,1-.52,2.2l-76,47.09a1.61,1.61,0,0,1-2.2-.52L14.33,115.86a1.61,1.61,0,0,1,.52-2.21l76-47.08a1.6,1.6,0,0,1,2.2.51Z"/><rect class="cls-4" x="69.62" y="169.17" width="61.67" height="0.77" transform="translate(-72.97 75.94) rotate(-30.99)"/><rect class="cls-4" x="71.69" y="172.79" width="61.67" height="0.77" transform="matrix(0.86, -0.51, 0.51, 0.86, -74.48, 77.42)"/><rect class="cls-4" x="73.75" y="176.4" width="61.67" height="0.77" transform="translate(-75.98 78.88) rotate(-30.92)"/><rect class="cls-4" x="75.82" y="180.02" width="61.67" height="0.77" transform="translate(-77.67 80.68) rotate(-30.99)"/><path class="cls-2" d="M286.41,15H50.31c-4.19,0-5.53,3.11-3,6.92L68.93,61.71A5.64,5.64,0,0,0,73,64h56v9.07a5.52,5.52,0,0,0,5.5,5.51h66.24a5.52,5.52,0,0,0,5.5-5.51V64h57.09a5.64,5.64,0,0,0,4.1-2.31l21.91-39.79C291.93,18.11,290.6,15,286.41,15Z"/><path class="cls-5" d="M128.47,50h66.24a5.51,5.51,0,0,1,5.51,5.51V73.09a5.51,5.51,0,0,1-5.51,5.51H128.47a5.5,5.5,0,0,1-5.5-5.5V55.55A5.51,5.51,0,0,1,128.47,50Z"/><path class="cls-6" d="M280.36,15H44.25c-4.19,0-5.53,3.11-3,6.92L62.87,61.71A5.64,5.64,0,0,0,67,64H257.31a5.64,5.64,0,0,0,4.1-2.31l21.91-39.79c2.56-3.81,1.23-6.92-3-6.92"/><polygon class="cls-7" points="48.05 21.52 276.48 21.52 257.01 59.66 67.16 59.66 48.05 21.52"/><g class="cls-8"><polygon class="cls-9" points="211.85 196.05 209.18 198.72 204.64 194.23 181.75 217.13 186.46 221.4 183.6 224.26 195.97 235.01 250.68 235.06 211.85 196.05"/><path class="cls-9" d="M203.48,195.39c-7.73-9.33-8.67-9.81-16.7-19-5.56-6.38-7-8.3-9.83-9.47l19-10.76,0,0,4.47-2.5-2.63-4.69-4.47,2.5,0,0-23.88,13.52-2.48-.61c-12.91-3.25-14.43-.83-14.43-.83l-15,8.51.1.07a4.94,4.94,0,0,0,5.32,7.86l-15.28,8.64h0l-5.89,5.49h0l-2.53,2.35,11.08-3.09h0l32.88-18.6,1.4.27s13.89,2.64,12.07,11.15a9.8,9.8,0,0,1-1.41,2.46,10.76,10.76,0,0,1-1.72,1.87l-.16.13-.44.32-.21.13c-.14.09-.29.17-.44.25l-.21.1a4.87,4.87,0,0,1-.53.21l-.15,0a5.4,5.4,0,0,1-.72.16l-.19,0a5.46,5.46,0,0,1-.58,0h-.28l-.54,0-.32,0a5.86,5.86,0,0,1-.58-.1l-.32-.07-.78-.24-.16,0c-.33-.12-.66-.25-1-.41l-.31-.15c-.25-.12-.51-.24-.77-.38l-.41-.23-.76-.44-.44-.27-.85-.57-.4-.27c-.43-.3-.87-.62-1.33-1-3.45-2.62-8.73-5.09-12.29-2.45s-.13,6.67,4.23,9.06,24.6,18.44,24.6,18.44a20.05,20.05,0,0,0,6.24,2.76ZM194,152.58l0-.08v0Z"/><path class="cls-9" d="M203,152.11a.57.57,0,0,0,.21-.78l-2-3.62a.58.58,0,0,0-.78-.23L197.81,149l2.59,4.63Z"/></g><polygon class="cls-10" points="188.77 235.01 243.48 235.06 204.65 196.05 176.39 224.26 188.77 235.01"/><polygon class="cls-7" points="179.27 221.42 201.97 198.72 197.44 194.23 174.54 217.13 179.27 221.42"/><path class="cls-11" d="M196.28,195.39c-7.74-9.33-8.68-9.81-16.7-19-9.46-10.85-7-8.82-19.87-12.07s-14.43-.83-14.43-.83l-15,8.51.11.07a4.91,4.91,0,0,0-1.08,2.42,5,5,0,0,0,7.86,4.71l11.2-5.95,9,1.74s13.9,2.64,12.07,11.15a9.45,9.45,0,0,1-1.4,2.46,10.42,10.42,0,0,1-1.73,1.87l-.16.13-.44.32-.2.13-.45.25-.21.1a4.87,4.87,0,0,1-.53.21l-.15,0a6.2,6.2,0,0,1-.72.16l-.19,0a5.46,5.46,0,0,1-.58,0h-.29l-.54,0-.32,0c-.19,0-.38-.06-.58-.1l-.31-.07-.78-.24-.17,0c-.32-.12-.66-.25-1-.41l-.32-.15-.77-.38-.41-.23-.75-.44-.44-.27-.86-.57-.4-.27c-.43-.3-.87-.62-1.32-1-3.46-2.62-8.73-5.09-12.29-2.45s-.13,6.67,4.23,9.06S170,212.7,170,212.7a20.05,20.05,0,0,0,6.24,2.76Z"/><path class="cls-3" d="M193.22,147.48,190.6,149l2.6,4.63,2.62-1.47a.57.57,0,0,0,.21-.78l-2-3.62A.58.58,0,0,0,193.22,147.48Z"/><path class="cls-12" d="M120.42,188.58a1.45,1.45,0,0,0,1.66.49h0a1.49,1.49,0,0,0,1.44,2.56v0h0a1.46,1.46,0,0,0-.44,1.67l65.68-37.16-.61-1.08-1.45-2.58-.61-1.09Z"/><path class="cls-11" d="M123.09,193.32a1.44,1.44,0,0,1,.43-1.67h0v0a1.49,1.49,0,0,1-1.44-2.56h0a1.44,1.44,0,0,1-1.66-.5L112,196.41Z"/><rect class="cls-6" x="187.09" y="149.84" width="5.12" height="5.38" transform="translate(-50.36 112.18) rotate(-29.27)"/><path class="cls-6" d="M115.35,195.48a7.51,7.51,0,0,0-.33-.71,5,5,0,0,0-.49-.71L112,196.41Z"/><path class="cls-2" d="M274.1,106.23V106h0c-.1-6.41-5-11.58-11-11.58S252.15,99.6,252,106h0c0,.07,0,.13,0,.19s0,.14,0,.21l0,15v.42c.1,6.41,5,11.57,11,11.58s10.93-5.15,11-11.56v0a1.21,1.21,0,0,0,0-.19v-.21l0-15Z"/><path class="cls-3" d="M269.18,121.48l0-15V106h0c-.1-6.41-5-11.58-11-11.58s-10.93,5.15-11,11.56h0c0,.07,0,.13,0,.19a1.48,1.48,0,0,1,0,.21v15c0,.08,0,.14,0,.21a1.15,1.15,0,0,0,0,.19v0h0c.1,6.41,5,11.57,11,11.58s10.93-5.15,11-11.56h0v0c0-.06,0-.13,0-.19S269.18,121.55,269.18,121.48Z"/><path class="cls-5" d="M259.75,106.32a1.49,1.49,0,0,1-1.49,1.48h0a1.48,1.48,0,0,1-1.48-1.48V99.67a1.48,1.48,0,0,1,1.48-1.48h0a1.49,1.49,0,0,1,1.49,1.48Z"/><polygon class="cls-2" points="74.34 159.55 74.33 110.19 16.88 110.06 17.95 166.95 66.73 166.95 66.73 166.97 74.34 159.55"/><polygon class="cls-12" points="13.41 106.3 70.87 106.44 70.88 155.8 63.31 155.8 63.27 163.21 14.49 163.21 13.41 106.3"/><rect class="cls-3" x="20.59" y="116.26" width="43.29" height="0.95"/><rect class="cls-3" x="20.59" y="121.89" width="43.29" height="0.95"/><rect class="cls-3" x="20.59" y="127.53" width="43.29" height="0.95"/><rect class="cls-3" x="20.59" y="133.16" width="43.29" height="0.95"/><rect class="cls-3" x="20.59" y="138.79" width="27.5" height="0.95"/><polygon class="cls-4" points="63.31 155.8 70.88 155.8 63.27 163.22 63.31 155.8"/><path class="cls-2" d="M314.2,67.24H291.14A4.93,4.93,0,0,0,286.08,72v56.27a4.92,4.92,0,0,0,5.06,4.76H314.2a4.92,4.92,0,0,0,5.06-4.76V72A4.93,4.93,0,0,0,314.2,67.24Z"/><path class="cls-6" d="M287.29,133a4.92,4.92,0,0,1-5.06-4.76V72a4.93,4.93,0,0,1,5.06-4.76h23.06A4.93,4.93,0,0,1,315.41,72v56.27a4.92,4.92,0,0,1-5.06,4.76Z"/><path class="cls-5" d="M298.82,71.13a.5.5,0,1,1,.53-.5.51.51,0,0,1-.53.5"/><path class="cls-5" d="M296.46,73.59a.39.39,0,0,1-.41-.38.4.4,0,0,1,.41-.39h4.71a.4.4,0,0,1,.41.39.39.39,0,0,1-.41.38Z"/><path class="cls-5" d="M298.82,125.9a2.46,2.46,0,1,0,2.62,2.46,2.54,2.54,0,0,0-2.62-2.46"/><rect class="cls-7" x="284.65" y="76.63" width="28.16" height="47.19"/><rect class="cls-2" x="93.55" y="87.06" width="148.17" height="59.84" rx="4.43"/><rect class="cls-5" x="88.93" y="87.06" width="148.18" height="59.84" rx="4.43"/><path class="cls-3" d="M103.23,91.63H96.14a.79.79,0,0,0-.79.8V94a.79.79,0,0,0,.79.8h7.09A.79.79,0,0,0,104,94V92.43A.79.79,0,0,0,103.23,91.63Z"/><path class="cls-3" d="M113.83,91.63h-7.08a.8.8,0,0,0-.8.8V94a.8.8,0,0,0,.8.8h7.08a.8.8,0,0,0,.8-.8V92.43A.8.8,0,0,0,113.83,91.63Z"/><rect class="cls-3" x="116.56" y="91.63" width="8.68" height="3.14" rx="0.8"/><path class="cls-3" d="M135.05,91.63H128a.8.8,0,0,0-.8.8V94a.8.8,0,0,0,.8.8h7.08a.8.8,0,0,0,.8-.8V92.43A.8.8,0,0,0,135.05,91.63Z"/><path class="cls-3" d="M145.65,91.63h-7.07a.8.8,0,0,0-.8.8V94a.8.8,0,0,0,.8.8h7.07a.8.8,0,0,0,.8-.8V92.43A.8.8,0,0,0,145.65,91.63Z"/><path class="cls-3" d="M156.26,91.63h-7.08a.8.8,0,0,0-.8.8V94a.8.8,0,0,0,.8.8h7.08a.8.8,0,0,0,.8-.8V92.43A.8.8,0,0,0,156.26,91.63Z"/><path class="cls-3" d="M166.87,91.63h-7.08a.8.8,0,0,0-.8.8V94a.8.8,0,0,0,.8.8h7.08a.8.8,0,0,0,.8-.8V92.43A.8.8,0,0,0,166.87,91.63Z"/><path class="cls-3" d="M177.48,91.63H170.4a.8.8,0,0,0-.8.8V94a.8.8,0,0,0,.8.8h7.08a.8.8,0,0,0,.8-.8V92.43A.8.8,0,0,0,177.48,91.63Z"/><rect class="cls-3" x="180.21" y="91.63" width="8.68" height="3.14" rx="0.8"/><path class="cls-3" d="M198.69,91.63h-7.08a.79.79,0,0,0-.79.8V94a.79.79,0,0,0,.79.8h7.08a.81.81,0,0,0,.81-.8V92.43A.81.81,0,0,0,198.69,91.63Z"/><path class="cls-3" d="M209.3,91.63h-7.08a.8.8,0,0,0-.8.8V94a.8.8,0,0,0,.8.8h7.08a.8.8,0,0,0,.8-.8V92.43A.8.8,0,0,0,209.3,91.63Z"/><path class="cls-3" d="M219.91,91.63h-7.08a.8.8,0,0,0-.8.8V94a.8.8,0,0,0,.8.8h7.08a.8.8,0,0,0,.8-.8V92.43A.8.8,0,0,0,219.91,91.63Z"/><path class="cls-3" d="M229.9,91.63h-6.46a.8.8,0,0,0-.8.8V94a.8.8,0,0,0,.8.8h6.46a.8.8,0,0,0,.8-.8V92.43A.8.8,0,0,0,229.9,91.63Z"/><rect class="cls-3" x="95.35" y="97.06" width="7.07" height="7.07" rx="0.8"/><rect class="cls-3" x="104.74" y="97.06" width="7.07" height="7.07" rx="0.8"/><rect class="cls-3" x="114.14" y="97.06" width="7.07" height="7.07" rx="0.8"/><rect class="cls-3" x="123.53" y="97.06" width="7.07" height="7.07" rx="0.8"/><rect class="cls-3" x="132.93" y="97.06" width="7.07" height="7.07" rx="0.8"/><rect class="cls-3" x="142.32" y="97.06" width="7.07" height="7.07" rx="0.8"/><rect class="cls-3" x="151.71" y="97.06" width="7.07" height="7.07" rx="0.8"/><rect class="cls-3" x="161.11" y="97.06" width="7.07" height="7.07" rx="0.8"/><rect class="cls-3" x="170.51" y="97.06" width="7.07" height="7.07" rx="0.8"/><rect class="cls-3" x="179.91" y="97.06" width="7.07" height="7.07" rx="0.8"/><rect class="cls-3" x="189.3" y="97.06" width="7.07" height="7.07" rx="0.8"/><rect class="cls-3" x="198.69" y="97.06" width="7.07" height="7.07" rx="0.8"/><path class="cls-3" d="M214.36,97.06h-5.48a.79.79,0,0,0-.79.8v5.47a.79.79,0,0,0,.79.8h5.48a.8.8,0,0,0,.8-.8V97.86A.8.8,0,0,0,214.36,97.06Z"/><rect class="cls-3" x="217.48" y="97.06" width="13.22" height="7.07" rx="0.8"/><rect class="cls-3" x="95.35" y="134.03" width="13.22" height="7.07" rx="0.8"/><rect class="cls-3" x="119.83" y="134.03" width="13.84" height="7.07" rx="0.8"/><rect class="cls-3" x="110.66" y="134.03" width="7.07" height="7.07" rx="0.8"/><rect class="cls-3" x="192.37" y="134.03" width="13.84" height="7.07" rx="0.8"/><rect class="cls-3" x="217.48" y="134.03" width="13.22" height="7.07" rx="0.8"/><path class="cls-3" d="M214.58,134h-5.47a.8.8,0,0,0-.8.8v5.47a.8.8,0,0,0,.8.8h5.47a.8.8,0,0,0,.8-.8v-5.47A.8.8,0,0,0,214.58,134Z"/><rect class="cls-3" x="136" y="134.03" width="54.05" height="7.07" rx="0.36"/><rect class="cls-3" x="223.63" y="106.3" width="7.07" height="7.07" rx="0.8"/><rect class="cls-3" x="214.23" y="106.3" width="7.07" height="7.07" rx="0.8"/><path class="cls-3" d="M211.11,106.3h-5.47a.8.8,0,0,0-.8.8v5.47a.8.8,0,0,0,.8.81h5.47a.8.8,0,0,0,.8-.81V107.1A.8.8,0,0,0,211.11,106.3Z"/><rect class="cls-3" x="195.45" y="106.3" width="7.07" height="7.07" rx="0.8"/><rect class="cls-3" x="186.05" y="106.3" width="7.07" height="7.07" rx="0.8"/><rect class="cls-3" x="176.66" y="106.3" width="7.07" height="7.07" rx="0.8"/><rect class="cls-3" x="167.26" y="106.3" width="7.07" height="7.07" rx="0.8"/><rect class="cls-3" x="157.86" y="106.3" width="7.07" height="7.07" rx="0.8"/><rect class="cls-3" x="148.47" y="106.3" width="7.07" height="7.07" rx="0.8"/><rect class="cls-3" x="139.07" y="106.3" width="7.07" height="7.07" rx="0.8"/><rect class="cls-3" x="129.68" y="106.3" width="7.07" height="7.07" rx="0.8"/><rect class="cls-3" x="120.28" y="106.3" width="7.07" height="7.07" rx="0.8"/><rect class="cls-3" x="110.89" y="106.3" width="7.07" height="7.07" rx="0.8"/><rect class="cls-3" x="95.35" y="106.3" width="13.22" height="7.07" rx="0.8"/><rect class="cls-3" x="206.69" y="115.55" width="7.07" height="7.07" rx="0.8"/><rect class="cls-3" x="197.29" y="115.55" width="7.07" height="7.07" rx="0.8"/><rect class="cls-3" x="187.9" y="115.55" width="7.07" height="7.07" rx="0.8"/><rect class="cls-3" x="178.5" y="115.55" width="7.07" height="7.07" rx="0.8"/><rect class="cls-3" x="169.11" y="115.55" width="7.07" height="7.07" rx="0.8"/><rect class="cls-3" x="159.71" y="115.55" width="7.07" height="7.07" rx="0.8"/><rect class="cls-3" x="150.31" y="115.55" width="7.07" height="7.07" rx="0.8"/><rect class="cls-3" x="140.92" y="115.55" width="7.07" height="7.07" rx="0.8"/><rect class="cls-3" x="131.52" y="115.55" width="7.07" height="7.07" rx="0.8"/><rect class="cls-3" x="122.13" y="115.55" width="7.07" height="7.07" rx="0.8"/><rect class="cls-3" x="112.73" y="115.55" width="7.07" height="7.07" rx="0.8"/><rect class="cls-3" x="95.35" y="115.55" width="15.06" height="7.07" rx="0.8"/><rect class="cls-3" x="216.25" y="115.55" width="14.45" height="7.07" rx="0.8"/><rect class="cls-3" x="201.77" y="124.79" width="7.07" height="7.07" rx="0.8"/><rect class="cls-3" x="192.37" y="124.79" width="7.07" height="7.07" rx="0.8"/><rect class="cls-3" x="182.98" y="124.79" width="7.07" height="7.07" rx="0.8"/><rect class="cls-3" x="173.58" y="124.79" width="7.07" height="7.07" rx="0.8"/><rect class="cls-3" x="164.18" y="124.79" width="7.07" height="7.07" rx="0.8"/><rect class="cls-3" x="154.79" y="124.79" width="7.07" height="7.07" rx="0.8"/><rect class="cls-3" x="145.39" y="124.79" width="7.07" height="7.07" rx="0.8"/><rect class="cls-3" x="136" y="124.79" width="7.07" height="7.07" rx="0.8"/><rect class="cls-3" x="126.61" y="124.79" width="7.07" height="7.07" rx="0.8"/><rect class="cls-3" x="117.21" y="124.79" width="7.07" height="7.07" rx="0.8"/><rect class="cls-3" x="95.35" y="124.79" width="19.37" height="7.07" rx="0.8"/><rect class="cls-3" x="211.33" y="124.79" width="19.37" height="7.07" rx="0.8"/><path class="cls-2" d="M329.15,198.38a4.66,4.66,0,0,0-5.7-.7L319.77,194a1.11,1.11,0,0,0-1.3-.18l-.45-.42a8.68,8.68,0,0,0-6.11-2.49,8.59,8.59,0,0,0-5.11,1.65c-.08.05-5.75,3.49-10.25,5.91a12.35,12.35,0,0,0,3.44-8.56c0-.19,0-.38,0-.57s0-.28,0-.42c0-1.44-.6-8.46-.62-8.73a9.34,9.34,0,0,1,13.36-8.41,4.83,4.83,0,0,0,2.09.55,5.42,5.42,0,0,0,2.81-.81,1.12,1.12,0,0,0,.85-.31l3.68-3.68a4.64,4.64,0,1,0-1.59-1.58l-3.67,3.68a1.11,1.11,0,0,0,0,1.58,1.27,1.27,0,0,0,.34.23,1.08,1.08,0,0,1-.34-.23.61.61,0,0,1-.1-.14,4.68,4.68,0,0,1-2,.46,4.06,4.06,0,0,1-1.72-.46,10,10,0,0,0-4.41-1,10.14,10.14,0,0,0-10.12,10.15c0,.08.59,7.3.62,8.72,0,.15,0,.3,0,.45s0,.35,0,.52a11.63,11.63,0,1,1-23.25,0,39,39,0,0,1,2.74-13.33,45.63,45.63,0,0,0,3.53-16.6,15.28,15.28,0,0,0-29.67-5.13H234.46a2.35,2.35,0,0,0-2.34,2.35V202.7a2.34,2.34,0,0,0,2.34,2.34h28.18A2.35,2.35,0,0,0,265,202.7V157.21a2.35,2.35,0,0,0-2.35-2.35h-9.25a14.48,14.48,0,0,1,28,5.13A44.83,44.83,0,0,1,278,176.26c-2.72,6.09-2.81,13.58-2.81,13.65a12.43,12.43,0,0,0,17.29,11.44c3.57-1.28,14.33-7.83,14.81-8.13a8,8,0,0,1,10.23.76l.47.43a1.09,1.09,0,0,0,.25,1.17l3.68,3.68a4.66,4.66,0,1,0,7.28-.88ZM318,194.31a1,1,0,0,1,.2-.31A1,1,0,0,0,318,194.31Z"/><rect class="cls-3" x="226.93" y="154.86" width="32.87" height="50.19" rx="2.35"/><rect class="cls-7" x="230.7" y="158.19" width="25.33" height="33.26" rx="2.32"/><path class="cls-5" d="M247.28,198.49a3.92,3.92,0,1,1-3.91-3.91A3.91,3.91,0,0,1,247.28,198.49Z"/><path class="cls-5" d="M322.62,160.25a4.65,4.65,0,0,1-5.69,7.28,4.49,4.49,0,0,1-.89-.7,4.77,4.77,0,0,1-.69-.88,4.65,4.65,0,0,1,7.27-5.7Z"/><path class="cls-4" d="M316.93,167.53l-3.68,3.68a1.13,1.13,0,0,1-1.58,0,1.11,1.11,0,0,1,0-1.58l3.68-3.68a4.77,4.77,0,0,0,.69.88A4.49,4.49,0,0,0,316.93,167.53Z"/><path class="cls-5" d="M324,205a4.66,4.66,0,0,1-7.28-5.7,4.44,4.44,0,0,1,.7-.88,4.22,4.22,0,0,1,.89-.7A4.65,4.65,0,0,1,324,205Z"/><path class="cls-4" d="M316.68,199.26,313,195.58a1.13,1.13,0,0,1,0-1.58,1.14,1.14,0,0,1,1.59,0l3.68,3.68a4.22,4.22,0,0,0-.89.7A4.44,4.44,0,0,0,316.68,199.26Z"/><path class="cls-3" d="M313,194a1.27,1.27,0,0,1,.29-.18l-.46-.42a8.74,8.74,0,0,0-11.22-.84c-.08.05-5.74,3.49-10.24,5.91a12.39,12.39,0,0,0,3.43-8.56c0-.19,0-.38,0-.57s0-.28,0-.42c0-1.44-.61-8.46-.63-8.73a9.34,9.34,0,0,1,13.36-8.41,4.83,4.83,0,0,0,2.09.55,5.39,5.39,0,0,0,2.81-.81.83.83,0,0,1-.82-.45,4.76,4.76,0,0,1-2,.46,4.12,4.12,0,0,1-1.72-.46,10,10,0,0,0-4.4-1,10.14,10.14,0,0,0-10.13,10.15c0,.08.6,7.3.63,8.72,0,.15,0,.3,0,.45s0,.35,0,.52a11.63,11.63,0,1,1-23.25,0,38.82,38.82,0,0,1,2.75-13.33A45.84,45.84,0,0,0,277,160a15.29,15.29,0,0,0-29.94-4.36l.77.23A14.48,14.48,0,0,1,276.23,160a45,45,0,0,1-3.46,16.27c-2.72,6.09-2.82,13.58-2.82,13.65a12.44,12.44,0,0,0,12.43,12.43,12.31,12.31,0,0,0,4.86-1c3.57-1.28,14.33-7.83,14.82-8.13a7.94,7.94,0,0,1,10.22.76l.47.43A1.33,1.33,0,0,1,313,194Z"/><path class="cls-3" d="M291.49,53.62a2.72,2.72,0,0,1-.08-3.79L301.25,40a3.47,3.47,0,0,1,4.71.23,3.38,3.38,0,0,1,.15,4.64l-6.49,6.48-.49-.49,6.49-6.49a2.67,2.67,0,0,0-.16-3.65,2.76,2.76,0,0,0-3.72-.22l-9.83,9.83a2,2,0,0,0,2.88,2.89l8.91-8.92a1.33,1.33,0,0,0,0-1.9,1.35,1.35,0,0,0-1.9,0l-5.87,5.88-.49-.5,5.87-5.87a2,2,0,0,1,2.88,2.88l-8.91,8.92a2.72,2.72,0,0,1-3.79-.08"/><path class="cls-10" d="M33.8,87.76a2.73,2.73,0,0,1-2.63,2.74H17.26A3.48,3.48,0,0,1,14.09,87a3.36,3.36,0,0,1,3.17-3.38h9.17v.7H17.26A2.66,2.66,0,0,0,14.79,87a2.77,2.77,0,0,0,2.47,2.8H31.17a2,2,0,0,0,0-4.08H18.57a1.35,1.35,0,1,0,0,2.69h8.3v.69h-8.3a2,2,0,0,1,0-4.08h12.6a2.73,2.73,0,0,1,2.63,2.74"/><path class="cls-6" d="M292.09,219.6a2.72,2.72,0,0,1-2.63,2.73H275.55a3.46,3.46,0,0,1-3.17-3.49,3.36,3.36,0,0,1,3.17-3.38h9.17v.69h-9.17a2.67,2.67,0,0,0-2.47,2.69,2.76,2.76,0,0,0,2.47,2.8h13.91a2,2,0,0,0,0-4.08H276.85a1.35,1.35,0,0,0,0,2.69h8.31v.69h-8.31a2,2,0,0,1,0-4.08h12.61a2.73,2.73,0,0,1,2.63,2.74"/><path class="cls-3" d="M32.65,222.37a2.72,2.72,0,0,1-.08-3.79l9.84-9.83a3.46,3.46,0,0,1,4.71.22,3.38,3.38,0,0,1,.15,4.64l-6.49,6.48-.49-.49,6.49-6.48a2.69,2.69,0,0,0-.15-3.66,2.78,2.78,0,0,0-3.73-.22l-9.84,9.83A2,2,0,0,0,36,222L44.86,213a1.34,1.34,0,1,0-1.9-1.9L37.09,217l-.49-.5,5.87-5.87a2,2,0,0,1,2.88,2.89l-8.91,8.91a2.72,2.72,0,0,1-3.79-.08"/><path class="cls-6" d="M33.64,63.27a2.73,2.73,0,0,1-2.74-2.63V46.73a3.46,3.46,0,0,1,3.49-3.17,3.37,3.37,0,0,1,3.39,3.17V55.9h-.7V46.73a2.67,2.67,0,0,0-2.69-2.48,2.77,2.77,0,0,0-2.79,2.48V60.64a2,2,0,0,0,4.08,0V48A1.35,1.35,0,0,0,33,48v8.31h-.7V48a2,2,0,0,1,4.08,0V60.64a2.73,2.73,0,0,1-2.73,2.63"/><path class="cls-13" d="M39.62,197a2.73,2.73,0,0,1-3.74-.65L28.1,184.83a3.47,3.47,0,0,1,1.12-4.59,3.36,3.36,0,0,1,4.58.74l5.13,7.6-.58.39-5.13-7.6a2.67,2.67,0,0,0-3.61-.55,2.77,2.77,0,0,0-.93,3.62L36.46,196a2,2,0,0,0,3.38-2.28l-7.05-10.45a1.35,1.35,0,1,0-2.23,1.51l4.65,6.88-.58.39L30,185.13a2,2,0,1,1,3.38-2.29l7.06,10.45a2.73,2.73,0,0,1-.8,3.71"/></g></g></svg>