<svg id="Layer_1" data-name="Layer 1" xmlns="http://www.w3.org/2000/svg" xmlns:xlink="http://www.w3.org/1999/xlink" viewBox="0 0 800 600"><defs><style>.cls-1{fill:url(#linear-gradient);}.cls-2{fill:url(#linear-gradient-2);}.cls-3{fill:url(#linear-gradient-3);}.cls-4{fill:#8c0303;}.cls-5{fill:url(#linear-gradient-4);}.cls-6{fill:url(#linear-gradient-5);}.cls-7{fill:url(#linear-gradient-6);}.cls-8{fill:url(#linear-gradient-7);}.cls-9{fill:#d1d3d4;}.cls-10{fill:url(#linear-gradient-8);}.cls-11{fill:url(#linear-gradient-9);}.cls-12{fill:url(#linear-gradient-10);}.cls-13{fill:#030a8c;}.cls-14,.cls-16{fill:#f1f2f2;}.cls-14,.cls-15{opacity:0.5;}.cls-14{isolation:isolate;}.cls-17{fill:#fff;}.cls-18{fill:url(#linear-gradient-11);}.cls-19{fill:url(#linear-gradient-12);}.cls-20{fill:url(#linear-gradient-13);}.cls-21{fill:url(#linear-gradient-14);}.cls-22{fill:url(#linear-gradient-15);}.cls-23{fill:url(#linear-gradient-16);}.cls-24{fill:url(#linear-gradient-17);}.cls-25{fill:url(#linear-gradient-18);}.cls-26{fill:url(#linear-gradient-19);}.cls-27{fill:url(#linear-gradient-20);}.cls-28{fill:url(#linear-gradient-21);}.cls-29{fill:url(#linear-gradient-22);}.cls-30{fill:url(#linear-gradient-23);}.cls-31{fill:url(#linear-gradient-24);}.cls-32{fill:url(#linear-gradient-25);}.cls-33{fill:url(#linear-gradient-26);}.cls-34{fill:url(#linear-gradient-27);}.cls-35{fill:url(#linear-gradient-28);}.cls-36{fill:url(#linear-gradient-29);}.cls-37{fill:url(#linear-gradient-30);}.cls-38{fill:url(#linear-gradient-31);}.cls-39{fill:url(#linear-gradient-32);}.cls-40{fill:url(#linear-gradient-33);}.cls-41{fill:url(#linear-gradient-34);}.cls-42{fill:url(#linear-gradient-35);}.cls-43{fill:url(#linear-gradient-36);}.cls-44{fill:url(#linear-gradient-37);}.cls-45{fill:url(#linear-gradient-38);}.cls-46{fill:url(#linear-gradient-39);}.cls-47{fill:url(#linear-gradient-40);}.cls-48{fill:url(#linear-gradient-41);}.cls-49{fill:url(#linear-gradient-42);}.cls-50{fill:url(#linear-gradient-43);}.cls-51{fill:url(#linear-gradient-44);}.cls-52{fill:url(#linear-gradient-45);}.cls-53{fill:url(#linear-gradient-46);}.cls-54{fill:url(#linear-gradient-47);}.cls-55{fill:url(#linear-gradient-48);}.cls-56{fill:url(#linear-gradient-49);}.cls-57{fill:url(#linear-gradient-50);}.cls-58{fill:url(#linear-gradient-51);}.cls-59{fill:url(#linear-gradient-52);}.cls-60{fill:url(#linear-gradient-53);}.cls-61{fill:url(#linear-gradient-54);}.cls-62{fill:#58595b;}.cls-63{fill:url(#linear-gradient-55);}.cls-64{fill:#b7516c;}.cls-65{fill:#bf213e;}.cls-66{fill:url(#linear-gradient-56);}</style><linearGradient id="linear-gradient" x1="632.01" y1="253.43" x2="650.01" y2="236.43" gradientTransform="matrix(1, 0, 0, -1, 0, 599.28)" gradientUnits="userSpaceOnUse"><stop offset="0" stop-color="#d1d3d4"/><stop offset="1" stop-color="#f1f2f2"/></linearGradient><linearGradient id="linear-gradient-2" x1="425.21" y1="373.94" x2="443.21" y2="356.94" xlink:href="#linear-gradient"/><linearGradient id="linear-gradient-3" x1="583.69" y1="391.28" x2="601.69" y2="374.28" xlink:href="#linear-gradient"/><linearGradient id="linear-gradient-4" x1="468.4" y1="126.66" x2="503.59" y2="72.53" gradientTransform="matrix(1, 0, 0, -1, 0, 599.28)" gradientUnits="userSpaceOnUse"><stop offset="0" stop-color="#a7a9ac"/><stop offset="1" stop-color="#fff" stop-opacity="0"/></linearGradient><linearGradient id="linear-gradient-5" x1="405.1" y1="250.81" x2="556.4" y2="250.81" gradientTransform="matrix(1, 0, 0, -1, 0, 599.28)" gradientUnits="userSpaceOnUse"><stop offset="0" stop-color="#d1d3d4"/><stop offset="1" stop-color="#a7a9ac"/></linearGradient><linearGradient id="linear-gradient-6" x1="307.54" y1="160.29" x2="556.76" y2="160.29" xlink:href="#linear-gradient-5"/><linearGradient id="linear-gradient-7" x1="307.99" y1="163.64" x2="555.85" y2="163.64" gradientTransform="matrix(1, 0, 0, -1, 0, 599.28)" gradientUnits="userSpaceOnUse"><stop offset="0" stop-color="#f1f2f2"/><stop offset="1" stop-color="#d1d3d4"/></linearGradient><linearGradient id="linear-gradient-8" x1="352.33" y1="187.01" x2="535.74" y2="187.01" gradientTransform="matrix(1, 0, 0, -1, 0, 599.28)" gradientUnits="userSpaceOnUse"><stop offset="0" stop-color="#a7a9ac"/><stop offset="1" stop-color="#d1d3d4"/></linearGradient><linearGradient id="linear-gradient-9" x1="367.03" y1="154" x2="430.18" y2="154" xlink:href="#linear-gradient-8"/><linearGradient id="linear-gradient-10" x1="405.1" y1="250.21" x2="555.1" y2="250.21" xlink:href="#linear-gradient-7"/><linearGradient id="linear-gradient-11" x1="652.45" y1="328.36" x2="605.11" y2="328.36" xlink:href="#linear-gradient-8"/><linearGradient id="linear-gradient-12" x1="616.92" y1="334.11" x2="664.81" y2="334.11" gradientTransform="matrix(1, 0, 0, -1, 0, 599.28)" gradientUnits="userSpaceOnUse"><stop offset="0" stop-color="#92278f"/><stop offset="1" stop-color="#662d91"/></linearGradient><linearGradient id="linear-gradient-13" x1="669.98" y1="336.53" x2="621.36" y2="336.53" xlink:href="#linear-gradient"/><linearGradient id="linear-gradient-14" x1="611.97" y1="343.38" x2="669.83" y2="343.38" gradientTransform="matrix(1, 0, 0, -1, 0, 599.28)" gradientUnits="userSpaceOnUse"><stop offset="0" stop-color="#025159"/><stop offset="1" stop-color="#030a8c"/></linearGradient><linearGradient id="linear-gradient-15" x1="652.45" y1="350.66" x2="605.11" y2="350.66" xlink:href="#linear-gradient-8"/><linearGradient id="linear-gradient-16" x1="616.92" y1="356.31" x2="664.81" y2="356.31" xlink:href="#linear-gradient-12"/><linearGradient id="linear-gradient-17" x1="669.98" y1="358.73" x2="621.08" y2="358.73" xlink:href="#linear-gradient"/><linearGradient id="linear-gradient-18" x1="611.97" y1="365.51" x2="669.83" y2="365.51" gradientTransform="matrix(1, 0, 0, -1, 0, 599.28)" gradientUnits="userSpaceOnUse"><stop offset="0" stop-color="#92278f"/><stop offset="0" stop-color="#024f5b"/><stop offset="0.03" stop-color="#025159"/><stop offset="1" stop-color="#030a8c"/><stop offset="1" stop-color="#662d91"/></linearGradient><linearGradient id="linear-gradient-19" x1="652.45" y1="372.76" x2="605.11" y2="372.76" xlink:href="#linear-gradient-8"/><linearGradient id="linear-gradient-20" x1="616.92" y1="378.41" x2="664.81" y2="378.41" xlink:href="#linear-gradient-12"/><linearGradient id="linear-gradient-21" x1="670.54" y1="380.83" x2="621.7" y2="380.83" xlink:href="#linear-gradient"/><linearGradient id="linear-gradient-22" x1="611.97" y1="211.6" x2="669.92" y2="211.6" gradientUnits="userSpaceOnUse"><stop offset="0" stop-color="#92278f"/><stop offset="0.03" stop-color="#025159"/><stop offset="1" stop-color="#030a8c"/></linearGradient><linearGradient id="linear-gradient-23" x1="610.26" y1="455.14" x2="562.92" y2="455.14" xlink:href="#linear-gradient-8"/><linearGradient id="linear-gradient-24" x1="574.73" y1="460.89" x2="622.62" y2="460.89" xlink:href="#linear-gradient-12"/><linearGradient id="linear-gradient-25" x1="627.79" y1="463.3" x2="579.17" y2="463.3" xlink:href="#linear-gradient"/><linearGradient id="linear-gradient-26" x1="569.78" y1="470.15" x2="627.64" y2="470.15" xlink:href="#linear-gradient-14"/><linearGradient id="linear-gradient-27" x1="610.26" y1="477.44" x2="562.92" y2="477.44" xlink:href="#linear-gradient-8"/><linearGradient id="linear-gradient-28" x1="574.73" y1="483.09" x2="622.62" y2="483.09" xlink:href="#linear-gradient-12"/><linearGradient id="linear-gradient-29" x1="627.79" y1="485.5" x2="578.89" y2="485.5" xlink:href="#linear-gradient"/><linearGradient id="linear-gradient-30" x1="569.78" y1="492.29" x2="627.64" y2="492.29" xlink:href="#linear-gradient-18"/><linearGradient id="linear-gradient-31" x1="610.26" y1="499.54" x2="562.92" y2="499.54" xlink:href="#linear-gradient-8"/><linearGradient id="linear-gradient-32" x1="574.73" y1="505.19" x2="622.62" y2="505.19" xlink:href="#linear-gradient-12"/><linearGradient id="linear-gradient-33" x1="628.35" y1="507.6" x2="579.51" y2="507.6" xlink:href="#linear-gradient"/><linearGradient id="linear-gradient-34" x1="569.78" y1="84.83" x2="627.73" y2="84.83" xlink:href="#linear-gradient-22"/><linearGradient id="linear-gradient-35" x1="452.48" y1="434.96" x2="405.14" y2="434.96" xlink:href="#linear-gradient-8"/><linearGradient id="linear-gradient-36" x1="416.94" y1="440.71" x2="464.84" y2="440.71" xlink:href="#linear-gradient-12"/><linearGradient id="linear-gradient-37" x1="470" y1="443.13" x2="421.39" y2="443.13" xlink:href="#linear-gradient"/><linearGradient id="linear-gradient-38" x1="412" y1="449.98" x2="469.86" y2="449.98" xlink:href="#linear-gradient-14"/><linearGradient id="linear-gradient-39" x1="452.48" y1="457.26" x2="405.14" y2="457.26" xlink:href="#linear-gradient-8"/><linearGradient id="linear-gradient-40" x1="416.94" y1="462.91" x2="464.84" y2="462.91" xlink:href="#linear-gradient-12"/><linearGradient id="linear-gradient-41" x1="470" y1="465.33" x2="421.11" y2="465.33" xlink:href="#linear-gradient"/><linearGradient id="linear-gradient-42" x1="412" y1="472.11" x2="469.86" y2="472.11" xlink:href="#linear-gradient-18"/><linearGradient id="linear-gradient-43" x1="452.48" y1="479.36" x2="405.14" y2="479.36" xlink:href="#linear-gradient-8"/><linearGradient id="linear-gradient-44" x1="416.94" y1="485.01" x2="464.84" y2="485.01" xlink:href="#linear-gradient-12"/><linearGradient id="linear-gradient-45" x1="470.57" y1="487.43" x2="421.72" y2="487.43" xlink:href="#linear-gradient"/><linearGradient id="linear-gradient-46" x1="412" y1="105" x2="469.95" y2="105" xlink:href="#linear-gradient-22"/><linearGradient id="linear-gradient-47" x1="557.06" y1="339.66" x2="496.48" y2="339.66" xlink:href="#linear-gradient-8"/><linearGradient id="linear-gradient-48" x1="562.49" y1="363.43" x2="490.79" y2="363.43" xlink:href="#linear-gradient"/><linearGradient id="linear-gradient-49" x1="563" y1="363.43" x2="491" y2="363.43" xlink:href="#linear-gradient-7"/><linearGradient id="linear-gradient-50" x1="535.52" y1="349.43" x2="518.35" y2="349.43" xlink:href="#linear-gradient-8"/><linearGradient id="linear-gradient-51" x1="574.21" y1="77.22" x2="584.4" y2="62.64" xlink:href="#linear-gradient-4"/><linearGradient id="linear-gradient-52" x1="524.09" y1="82.68" x2="607.1" y2="82.68" xlink:href="#linear-gradient-5"/><linearGradient id="linear-gradient-53" x1="524.01" y1="83.83" x2="607" y2="83.83" xlink:href="#linear-gradient-7"/><linearGradient id="linear-gradient-54" x1="525.72" y1="515.45" x2="605.45" y2="515.45" gradientUnits="userSpaceOnUse"><stop offset="0" stop-color="#030a8c"/><stop offset="1" stop-color="#025159"/></linearGradient><linearGradient id="linear-gradient-55" x1="565.6" y1="94.45" x2="565.6" y2="76.81" gradientTransform="matrix(1, 0, 0, -1, 0, 599.28)" gradientUnits="userSpaceOnUse"><stop offset="0" stop-color="#bf213e"/><stop offset="1" stop-color="#92278f" stop-opacity="0"/></linearGradient><linearGradient id="linear-gradient-56" x1="130.2" y1="266.79" x2="330.8" y2="266.79" xlink:href="#linear-gradient-54"/></defs><title>arcae-data</title><path class="cls-1" d="M650.7,348.5c-5.5-3.2-14.3-3.2-19.7,0s-5.4,8.3.1,11.4,14.3,3.2,19.7,0,5.3-8.2-.1-11.4"/><path class="cls-2" d="M443.9,228c-5.5-3.2-14.3-3.2-19.7,0s-5.4,8.3.1,11.4,14.3,3.2,19.7,0,5.3-8.2-.1-11.4"/><path class="cls-3" d="M602.4,210.7c-5.5-3.2-14.3-3.2-19.7,0s-5.4,8.3.1,11.4,14.3,3.2,19.7,0,5.3-8.3-.1-11.4"/><path class="cls-4" d="M530.3,266.6h0c-.6.4-1.1.7-1.6,1s-1.2.7-1.9,1.1A3.54,3.54,0,0,0,525,271c-.3,1.8-.7,4.2-.8,5.2s.6.7,1.2.4a2.18,2.18,0,0,0,.5-.4,4.82,4.82,0,0,1,1-.8c1.4-.8,1.5.8,1.2,2.4a4.45,4.45,0,0,1-1.7,3.3h0c-.9.5-1.4,0-1.2-1.3.1-.6-.6-.5-1.3-.2a1.94,1.94,0,0,0-.9,1.1c-.4,2.5.6,4,3.3,2.5h0a10.47,10.47,0,0,0,4.6-7c.5-2.9-.3-5.2-3-3.7a7.7,7.7,0,0,0-1.3.9c.1-.8.4-2.2.5-2.9.4-.2.8-.5,1.2-.7s.6-.3.9-.5a10.54,10.54,0,0,0,1.1-.7c.7-.3,1.1-2.6,0-2"/><path class="cls-5" d="M582.5,466.7l-150-86.6-96.4,55.7a3.75,3.75,0,0,0-2,3.3c-.1,1.4,0,5.9,0,7.2a4,4,0,0,0,2.1,3.5l136.9,79a13.45,13.45,0,0,0,13.7,0l92.3-53.3a6.89,6.89,0,0,0,3.4-6v-2.8Z"/><path class="cls-6" d="M556.4,335.9a9.53,9.53,0,0,0-4.8-8.3l-139-80.2a4,4,0,0,0-4.8.5l-1.5,1.5a4.07,4.07,0,0,0-1.2,2.9V363.5l150,86.6h0a4.63,4.63,0,0,0,1.3-3.2Z"/><path class="cls-7" d="M555.1,450.3l-150-86.6-96.4,55.7a3.75,3.75,0,0,0-2,3.3c-.1,1.4,0,5.9,0,7.2a4,4,0,0,0,2.1,3.5l136.9,79a13.45,13.45,0,0,0,13.7,0l92.3-53.3a6.89,6.89,0,0,0,3.4-6v-2.8Z"/><path class="cls-8" d="M405.1,363.8l-96.4,55.7a4.12,4.12,0,0,0,0,7.1l136.9,79a13.45,13.45,0,0,0,13.7,0L555,450.3Z"/><path class="cls-9" d="M534.4,452.7a2.81,2.81,0,0,0,0-4.8L406.4,374a2.62,2.62,0,0,0-2.7,0L353,403.2a1.4,1.4,0,0,0,0,2.4l129.4,74.6a4.26,4.26,0,0,0,4.1,0Z"/><path class="cls-10" d="M353,404.1l50.7-29.2a2.62,2.62,0,0,1,2.7,0l128,73.9a2.51,2.51,0,0,1,1.3,2,2.69,2.69,0,0,0-1.3-2.8l-128-73.9a2.62,2.62,0,0,0-2.7,0L353,403.2a1.3,1.3,0,0,0-.6,1.6A1.34,1.34,0,0,1,353,404.1Z"/><path class="cls-9" d="M429.5,454.8,394,434.3a1.7,1.7,0,0,0-1.4,0l-24.9,14.3a1.4,1.4,0,0,0,0,2.4l34.8,20.1a2.62,2.62,0,0,0,2.7,0l24.2-13.9A1.37,1.37,0,0,0,429.5,454.8Z"/><path class="cls-11" d="M367.7,449.4l24.9-14.3a1.7,1.7,0,0,1,1.4,0l35.5,20.5a1.56,1.56,0,0,1,.6.8,1.3,1.3,0,0,0-.6-1.6L394,434.3a1.7,1.7,0,0,0-1.4,0l-24.9,14.3a1.3,1.3,0,0,0-.6,1.6A1.56,1.56,0,0,1,367.7,449.4Z"/><path class="cls-12" d="M555.1,450V337.2a9.53,9.53,0,0,0-4.8-8.3l-139-80.2a4.14,4.14,0,0,0-6.2,3.6V363.5Z"/><polygon class="cls-13" points="412 359.5 412 257 548.2 335.7 548.2 438.1 412 359.5"/><polygon class="cls-14" points="407.2 364.3 407.2 261.8 543.4 340.5 543.4 442.9 407.2 364.3"/><g class="cls-15"><path class="cls-16" d="M484.2,325.6l-.2-.1c-4.8-2.5-7.6,3.5-10.5,10-2.6,5.6-5.2,11.4-8.6,9.6h-.1c-1.6-.9-3.9-5.4-5.9-9.3-2.5-4.9-4.9-9.6-7.5-11.1l-.6-.3c-4.2-1.6-6.6,3.8-8.9,9-1.7,3.8-3.4,7.7-5.6,8.2-1.1.2-4.4-1.4-7.5-3.2-1.3-.8-2.6-1.6-3.7-2.2l-.1,2.4c.6.4,2.1,1.4,3.9,2.4,3.1,1.8,6.9,3.7,8.6,3.4,2.6-.6,4.4-4.6,6.3-8.8,2-4.5,4.3-9.6,7.3-8.5a.35.35,0,0,1,.2.1c1.6.9,3.9,5.4,5.9,9.3,2.5,4.9,4.9,9.7,7.5,11.2a.1.1,0,0,1,.1.1c4.8,2.6,7.6-3.5,10.5-10,2.6-5.6,5.2-11.4,8.6-9.6a.1.1,0,0,1,.1.1c4.4,2.5,6.4,14,8.4,25.1,2.3,12.6,4.4,24.5,10.2,28.9a2.19,2.19,0,0,1,.5.3c3.3,1.9,4.6-2.9,6-8,1.1-3.8,2.4-8.6,4.3-7.8.1,0,.1.1.2.1,2.1,1.2,3.5,7.5,4.8,13.1s2.5,10.7,4.6,13.7c1.5,2.2,5.2,4.7,8.2,6.4,1.8,1,3.3,1.8,3.8,2.1l-.1-2.6c-1.1-.5-2.3-1.2-3.6-1.9-3-1.7-6.1-3.8-7-5.2-1.6-2.3-2.7-7.3-3.9-12.1-1.6-6.9-3.3-14-6.9-16-.2-.1-.3-.2-.5-.2-3.3-1.4-4.7,3.4-6.1,8.5-1,3.7-2.3,8.3-4,7.3l-.1-.1c-4.4-3.3-6.6-15.3-8.5-26-1.9-12.7-4.1-24.8-10.1-28.3"/></g><path class="cls-4" d="M474.4,335.4l-.2-.1c-4.8-2.5-7.6,3.5-10.5,10-2.6,5.6-5.2,11.4-8.6,9.6H455c-1.6-.9-3.9-5.4-5.9-9.3-2.5-4.9-4.9-9.6-7.5-11.1l-.6-.3c-4.2-1.6-6.6,3.8-8.9,9-1.7,3.8-3.4,7.7-5.6,8.2-1.1.2-4.4-1.4-7.5-3.2-1.3-.8-2.6-1.6-3.7-2.2l-.1,2.4c.6.4,2.1,1.4,3.9,2.4,3.1,1.8,6.9,3.7,8.6,3.4,2.6-.6,4.4-4.6,6.3-8.8,2-4.5,4.3-9.6,7.3-8.5a.35.35,0,0,1,.2.1c1.6.9,3.9,5.4,5.9,9.3,2.5,4.9,4.9,9.7,7.5,11.2a.1.1,0,0,1,.1.1c4.8,2.6,7.6-3.5,10.5-10,2.6-5.6,5.2-11.4,8.6-9.6a.1.1,0,0,1,.1.1c4.4,2.5,6.4,14,8.4,25.1,2.3,12.6,4.4,24.5,10.2,28.9a2.19,2.19,0,0,1,.5.3c3.3,1.9,4.6-2.9,6-8,1.1-3.8,2.4-8.6,4.3-7.8.1,0,.1.1.2.1,2.1,1.2,3.5,7.5,4.8,13.1s2.5,10.7,4.6,13.7c1.5,2.2,5.2,4.7,8.2,6.4,1.8,1,3.3,1.8,3.8,2.1l-.1-2.6c-1.1-.5-2.3-1.2-3.6-1.9-3-1.7-6.1-3.8-7-5.2-1.6-2.3-2.7-7.3-3.9-12.1-1.6-6.9-3.3-14-6.9-16-.2-.1-.3-.2-.5-.2-3.3-1.4-4.7,3.4-6.1,8.5-1,3.7-2.3,8.3-4,7.3l-.1-.1c-4.4-3.3-6.6-15.3-8.5-26-1.9-12.8-4-24.8-10.1-28.3"/><polyline class="cls-17" points="461.7 299.2 425 278.1 425 280.3 461.7 301.5 461.7 299.2"/><polyline class="cls-17" points="461.6 305.1 425 283.9 425 286.2 461.6 307.3 461.6 305.1"/><polyline class="cls-17" points="449.1 303.7 425 289.8 425 292 449.1 306 449.1 303.7"/><path class="cls-18" d="M664.8,265.4a1.8,1.8,0,0,0-.9-1.6l-21.7-12.5a2.8,2.8,0,0,0-2.8,0l-21.5,12.5a1.92,1.92,0,0,0-.9,1.6v11.3h0a1.8,1.8,0,0,0,.9,1.6l20.7,12a4.9,4.9,0,0,0,4.7,0l20.6-12a1.92,1.92,0,0,0,.9-1.6h0V265.4Z"/><path class="cls-19" d="M639.4,251.2l-21.5,12.5a1.87,1.87,0,0,0,0,3.2l20.7,12a4.9,4.9,0,0,0,4.7,0l20.6-12a1.87,1.87,0,0,0,0-3.2l-21.7-12.5A2.8,2.8,0,0,0,639.4,251.2Z"/><path class="cls-20" d="M669.8,256.1a2.43,2.43,0,0,0-1.1-2L642.5,239a3.44,3.44,0,0,0-3.4,0l-26,15.1a2.11,2.11,0,0,0-1.1,2v13.6h0a2.43,2.43,0,0,0,1.1,2l25.1,14.5a5.79,5.79,0,0,0,5.7,0l24.9-14.5a2.11,2.11,0,0,0,1.1-2h0l-.1-13.6Z"/><path class="cls-21" d="M639.1,239l-26,15.1a2.25,2.25,0,0,0,0,3.9l25.1,14.5a5.79,5.79,0,0,0,5.7,0L668.8,258a2.25,2.25,0,0,0,0-3.9L642.5,239A3.43,3.43,0,0,0,639.1,239Z"/><path class="cls-22" d="M664.8,243.2a1.8,1.8,0,0,0-.9-1.6L642.2,229a2.8,2.8,0,0,0-2.8,0l-21.5,12.5a1.92,1.92,0,0,0-.9,1.6v11.3h0a1.8,1.8,0,0,0,.9,1.6l20.7,12a4.9,4.9,0,0,0,4.7,0l20.6-12a1.92,1.92,0,0,0,.9-1.6h0V243.2Z"/><path class="cls-23" d="M639.4,229l-21.5,12.5a1.87,1.87,0,0,0,0,3.2l20.7,12a4.9,4.9,0,0,0,4.7,0l20.6-12a1.87,1.87,0,0,0,0-3.2L642.2,229A2.8,2.8,0,0,0,639.4,229Z"/><path class="cls-24" d="M669.8,233.9a2.43,2.43,0,0,0-1.1-2l-26.2-15.1a3.44,3.44,0,0,0-3.4,0l-26,15.1a2.11,2.11,0,0,0-1.1,2v13.6h0a2.43,2.43,0,0,0,1.1,2L638.2,264a5.79,5.79,0,0,0,5.7,0l24.9-14.5a2.11,2.11,0,0,0,1.1-2h0l-.1-13.6Z"/><path class="cls-25" d="M639.1,216.9l-26,15.1a2.25,2.25,0,0,0,0,3.9l25.1,14.5a5.79,5.79,0,0,0,5.7,0l24.9-14.5a2.25,2.25,0,0,0,0-3.9l-26.2-15.1A3.17,3.17,0,0,0,639.1,216.9Z"/><path class="cls-26" d="M664.8,221a1.8,1.8,0,0,0-.9-1.6l-21.7-12.5a2.8,2.8,0,0,0-2.8,0l-21.5,12.5a1.92,1.92,0,0,0-.9,1.6v11.3h0a1.8,1.8,0,0,0,.9,1.6l20.7,12a4.9,4.9,0,0,0,4.7,0l20.6-12a1.92,1.92,0,0,0,.9-1.6h0V221Z"/><path class="cls-27" d="M639.4,206.9l-21.5,12.5a1.87,1.87,0,0,0,0,3.2l20.7,12a4.9,4.9,0,0,0,4.7,0l20.6-12a1.87,1.87,0,0,0,0-3.2l-21.7-12.5A2.8,2.8,0,0,0,639.4,206.9Z"/><path class="cls-28" d="M669.8,211.8a2.43,2.43,0,0,0-1.1-2l-26.2-15.1a3.44,3.44,0,0,0-3.4,0l-26,15.1a2.11,2.11,0,0,0-1.1,2v13.6h0a2.43,2.43,0,0,0,1.1,2l25.1,14.5a5.79,5.79,0,0,0,5.7,0l24.9-14.5a2.11,2.11,0,0,0,1.1-2h0l-.1-13.6Z"/><path class="cls-29" d="M639.1,194.7l-26,15.1a2.25,2.25,0,0,0,0,3.9l25.1,14.5a5.79,5.79,0,0,0,5.7,0l24.9-14.5a2.25,2.25,0,0,0,0-3.9l-26.2-15.1A3.62,3.62,0,0,0,639.1,194.7Z"/><path class="cls-30" d="M622.61,138.63a1.8,1.8,0,0,0-.9-1.6L600,124.53a2.8,2.8,0,0,0-2.8,0L575.71,137a1.91,1.91,0,0,0-.9,1.6v11.29h0a1.82,1.82,0,0,0,.9,1.61l20.7,12a5,5,0,0,0,4.7,0l20.6-12a1.93,1.93,0,0,0,.9-1.61h0V138.63Z"/><path class="cls-31" d="M597.21,124.43l-21.5,12.5a1.87,1.87,0,0,0,0,3.2l20.7,12a4.9,4.9,0,0,0,4.7,0l20.6-12a1.87,1.87,0,0,0,0-3.2L600,124.43A2.8,2.8,0,0,0,597.21,124.43Z"/><path class="cls-32" d="M627.61,129.33a2.43,2.43,0,0,0-1.1-2l-26.2-15.1a3.44,3.44,0,0,0-3.4,0l-26,15.1a2.11,2.11,0,0,0-1.1,2v13.6h0a2.43,2.43,0,0,0,1.1,2l25.1,14.5a5.79,5.79,0,0,0,5.7,0l24.9-14.5a2.11,2.11,0,0,0,1.1-2h0l-.1-13.6Z"/><path class="cls-33" d="M596.91,112.23l-26,15.1a2.25,2.25,0,0,0,0,3.9l25.1,14.5a5.79,5.79,0,0,0,5.7,0l24.9-14.5a2.25,2.25,0,0,0,0-3.9l-26.3-15.1A3.43,3.43,0,0,0,596.91,112.23Z"/><path class="cls-34" d="M622.61,116.43a1.8,1.8,0,0,0-.9-1.6L600,102.23a2.8,2.8,0,0,0-2.8,0l-21.5,12.5a1.92,1.92,0,0,0-.9,1.6v11.3h0a1.8,1.8,0,0,0,.9,1.6l20.7,12a4.9,4.9,0,0,0,4.7,0l20.6-12a1.92,1.92,0,0,0,.9-1.6h0v-11.2Z"/><path class="cls-35" d="M597.21,102.23l-21.5,12.5a1.87,1.87,0,0,0,0,3.2l20.7,12a4.9,4.9,0,0,0,4.7,0l20.6-12a1.87,1.87,0,0,0,0-3.2L600,102.23A2.8,2.8,0,0,0,597.21,102.23Z"/><path class="cls-36" d="M627.61,107.13a2.43,2.43,0,0,0-1.1-2L600.31,90a3.39,3.39,0,0,0-3.4,0l-26,15.1a2.11,2.11,0,0,0-1.1,2v13.6h0a2.43,2.43,0,0,0,1.1,2l25.1,14.5a5.79,5.79,0,0,0,5.7,0l24.9-14.5a2.11,2.11,0,0,0,1.1-2h0l-.1-13.6Z"/><path class="cls-37" d="M596.91,90.13l-26,15.1a2.25,2.25,0,0,0,0,3.9l25.1,14.5a5.79,5.79,0,0,0,5.7,0l24.9-14.5a2.25,2.25,0,0,0,0-3.9l-26.2-15.1A3.17,3.17,0,0,0,596.91,90.13Z"/><path class="cls-38" d="M622.61,94.23a1.8,1.8,0,0,0-.9-1.6L600,80.13a2.8,2.8,0,0,0-2.8,0l-21.5,12.5a1.92,1.92,0,0,0-.9,1.6v11.3h0a1.8,1.8,0,0,0,.9,1.6l20.7,12a4.9,4.9,0,0,0,4.7,0l20.6-12a1.92,1.92,0,0,0,.9-1.6h0V94.23Z"/><path class="cls-39" d="M597.21,80.13l-21.5,12.5a1.87,1.87,0,0,0,0,3.2l20.7,12a4.9,4.9,0,0,0,4.7,0l20.6-12a1.87,1.87,0,0,0,0-3.2L600,80.13A2.8,2.8,0,0,0,597.21,80.13Z"/><path class="cls-40" d="M627.61,85a2.43,2.43,0,0,0-1.1-2l-26.2-15.1a3.44,3.44,0,0,0-3.4,0l-26,15.1a2.11,2.11,0,0,0-1.1,2v13.6h0a2.43,2.43,0,0,0,1.1,2l25.1,14.5a5.79,5.79,0,0,0,5.7,0l24.9-14.5a2.11,2.11,0,0,0,1.1-2h0l-.1-13.6Z"/><path class="cls-41" d="M596.91,67.93l-26,15.1a2.25,2.25,0,0,0,0,3.9l25.1,14.5a5.79,5.79,0,0,0,5.7,0l24.9-14.5a2.25,2.25,0,0,0,0-3.9l-26.2-15.1A3.62,3.62,0,0,0,596.91,67.93Z"/><path class="cls-42" d="M464.83,158.8a1.79,1.79,0,0,0-.91-1.6l-21.7-12.5a2.8,2.8,0,0,0-2.8,0l-21.5,12.5a2,2,0,0,0-.9,1.6v11.3h0a1.8,1.8,0,0,0,.9,1.6l20.7,12a4.92,4.92,0,0,0,4.71,0l20.59-12a1.93,1.93,0,0,0,.91-1.6h0V158.8Z"/><path class="cls-43" d="M439.43,144.6l-21.5,12.5a1.87,1.87,0,0,0,0,3.2l20.7,12a4.9,4.9,0,0,0,4.7,0l20.6-12a1.87,1.87,0,0,0,0-3.2l-21.7-12.5A2.8,2.8,0,0,0,439.43,144.6Z"/><path class="cls-44" d="M469.83,149.5a2.46,2.46,0,0,0-1.1-2l-26.2-15.1a3.46,3.46,0,0,0-3.41,0l-26,15.1a2.12,2.12,0,0,0-1.09,2v13.6h0a2.45,2.45,0,0,0,1.09,2l25.1,14.5a5.79,5.79,0,0,0,5.7,0l24.91-14.5a2.12,2.12,0,0,0,1.09-2h0l-.09-13.6Z"/><path class="cls-45" d="M439.12,132.4l-26,15.1a2.25,2.25,0,0,0,0,3.9l25.1,14.5a5.79,5.79,0,0,0,5.7,0l24.91-14.5a2.25,2.25,0,0,0,0-3.9l-26.3-15.1A3.45,3.45,0,0,0,439.12,132.4Z"/><path class="cls-46" d="M464.83,136.6a1.79,1.79,0,0,0-.91-1.6l-21.69-12.6a2.8,2.8,0,0,0-2.8,0l-21.5,12.5a1.92,1.92,0,0,0-.9,1.6v11.3h0a1.8,1.8,0,0,0,.9,1.6l20.7,12a4.9,4.9,0,0,0,4.7,0l20.6-12a1.92,1.92,0,0,0,.9-1.6h0V136.6Z"/><path class="cls-47" d="M439.43,122.4l-21.5,12.5a1.87,1.87,0,0,0,0,3.2l20.7,12a4.9,4.9,0,0,0,4.7,0l20.6-12a1.87,1.87,0,0,0,0-3.2l-21.7-12.5A2.8,2.8,0,0,0,439.43,122.4Z"/><path class="cls-48" d="M469.83,127.3a2.46,2.46,0,0,0-1.1-2l-26.2-15.1a3.46,3.46,0,0,0-3.41,0l-26,15.1a2.12,2.12,0,0,0-1.09,2v13.6h0a2.45,2.45,0,0,0,1.09,2l25.1,14.5a5.79,5.79,0,0,0,5.7,0l24.91-14.5a2.12,2.12,0,0,0,1.09-2h0l-.09-13.6Z"/><path class="cls-49" d="M439.12,110.3l-26,15.1a2.25,2.25,0,0,0,0,3.9l25.1,14.5a5.79,5.79,0,0,0,5.7,0l24.91-14.5a2.25,2.25,0,0,0,0-3.9l-26.21-15.1A3.18,3.18,0,0,0,439.12,110.3Z"/><path class="cls-50" d="M464.83,114.4a1.79,1.79,0,0,0-.91-1.6l-21.7-12.5a2.8,2.8,0,0,0-2.8,0l-21.5,12.5a2,2,0,0,0-.9,1.6v11.3h0a1.8,1.8,0,0,0,.9,1.6l20.7,12a4.92,4.92,0,0,0,4.71,0l20.59-12a1.93,1.93,0,0,0,.91-1.6h0V114.4Z"/><path class="cls-51" d="M439.43,100.3l-21.5,12.5a1.87,1.87,0,0,0,0,3.2l20.7,12a4.9,4.9,0,0,0,4.7,0l20.6-12a1.87,1.87,0,0,0,0-3.2l-21.7-12.5A2.8,2.8,0,0,0,439.43,100.3Z"/><path class="cls-52" d="M469.83,105.2a2.46,2.46,0,0,0-1.1-2l-26.2-15.1a3.46,3.46,0,0,0-3.41,0l-26,15.1a2.12,2.12,0,0,0-1.09,2v13.6h0a2.45,2.45,0,0,0,1.09,2l25.1,14.5a5.79,5.79,0,0,0,5.7,0l24.91-14.5a2.12,2.12,0,0,0,1.09-2h0l-.09-13.6Z"/><path class="cls-53" d="M439.12,88.1l-26,15.1a2.25,2.25,0,0,0,0,3.9l25.1,14.5a5.79,5.79,0,0,0,5.7,0l24.91-14.5a2.25,2.25,0,0,0,0-3.9L442.62,88.1A3.62,3.62,0,0,0,439.12,88.1Z"/><path class="cls-54" d="M527.1,246.8H497.3l23.2,15.8,2,7.7h0a2.93,2.93,0,0,0,1.2,1.3,7.21,7.21,0,0,0,6.7,0,2.93,2.93,0,0,0,1.2-1.3h0l2-7.7,23.2-15.8Z"/><path class="cls-55" d="M551.9,221.4c-13.8-8-36.2-8-49.9,0s-13.7,20.9.2,28.9,36.2,8,50,0c13.6-8,13.6-20.9-.3-28.9"/><path class="cls-56" d="M527.1,257h0c-9.6,0-18.6-2.2-25.3-6.1-6.9-4-10.8-9.4-10.8-15.1s3.8-11,10.6-15,15.7-6.1,25.3-6.1,18.6,2.2,25.3,6.1c6.9,4,10.8,9.4,10.8,15.1s-3.8,11-10.6,15S536.7,257,527.1,257Zm-.2-40.9c-9.3,0-18,2.1-24.6,5.9-6.4,3.7-9.9,8.6-9.9,13.8s3.6,10.2,10.1,13.9,15.3,5.9,24.7,5.9,18.1-2.1,24.6-5.9,9.9-8.6,9.9-13.8-3.6-10.2-10.1-13.9S536.2,216.1,526.9,216.1Z"/><path class="cls-57" d="M533,246.4a13.34,13.34,0,0,0-12,0c-3.3,1.9-3.3,5,0,6.9a13.34,13.34,0,0,0,12,0c3.3-1.9,3.3-5,0-6.9"/><path class="cls-58" d="M614.3,512.4,588,497.3a6.46,6.46,0,0,0-5.9,0l-48.4,28.1a2.13,2.13,0,0,0-1.2,1.7v2.2a2.27,2.27,0,0,0,1.2,1.8L560,546.3a6.46,6.46,0,0,0,5.9,0l48.4-28.1a2.13,2.13,0,0,0,1.2-1.7v-2.2A2.28,2.28,0,0,0,614.3,512.4Z"/><path class="cls-59" d="M605.8,507.3l-26.3-15.2a6.46,6.46,0,0,0-5.9,0l-48.4,28.1a2.13,2.13,0,0,0-1.2,1.7v2.2a2.27,2.27,0,0,0,1.2,1.8l26.3,15.2a6.46,6.46,0,0,0,5.9,0L605.8,513a2.13,2.13,0,0,0,1.2-1.7v-2.2Q607.15,508.05,605.8,507.3Z"/><path class="cls-60" d="M605.8,507.3l-26.3-15.2a6.46,6.46,0,0,0-5.9,0l-48.4,28.1c-1.6.9-1.6,2.5.1,3.4l26.3,15.2a6.46,6.46,0,0,0,5.9,0l48.4-28.1c1.6-.9,1.6-2.5-.1-3.4"/><path class="cls-61" d="M605,508.9l-9.7-5.6-2.6.7-7.5-4.3,1.3-1.5-9.7-5.6a2.12,2.12,0,0,0-1.9,0l-48.8,28.3a.59.59,0,0,0,0,1.1l28.2,16.3a2.12,2.12,0,0,0,1.9,0L605,510c.6-.3.6-.8,0-1.1"/><path class="cls-62" d="M538.4,531.9l-1.4-.8c-.2-.1-.3,0-.3.2a1.14,1.14,0,0,0,.3.6l1.4.8c.2.1.3,0,.3-.2a.71.71,0,0,0-.3-.6"/><path class="cls-62" d="M542,534.2c-.2-.1-.3,0-.3.2a.55.55,0,0,0,.3.5c.2.1.3,0,.3-.2a.55.55,0,0,0-.3-.5"/><path class="cls-62" d="M543.2,534.9c-.2-.1-.3,0-.3.2a.55.55,0,0,0,.3.5c.2.1.3,0,.3-.2a.55.55,0,0,0-.3-.5"/><path class="cls-62" d="M544.4,535.5c-.2-.1-.3,0-.3.2a.55.55,0,0,0,.3.5c.2.1.3,0,.3-.2a.68.68,0,0,0-.3-.5"/><path class="cls-62" d="M545.6,536.2c-.2-.1-.3,0-.3.2a.55.55,0,0,0,.3.5c.2.1.3,0,.3-.2a2.19,2.19,0,0,0-.3-.5"/><path class="cls-62" d="M546.7,536.9c-.2-.1-.3,0-.3.2a.55.55,0,0,0,.3.5c.2.1.3,0,.3-.2a.55.55,0,0,0-.3-.5"/><path class="cls-63" d="M577.5,493.1c-6.6-3.8-17.3-3.8-23.9,0-3.3,1.9-4.9,4.4-4.9,6.9v12.3c-.1,2.6,1.5,5.2,5,7.2,6.6,3.8,17.3,3.8,23.9,0,3.4-2,5-4.5,4.9-7.1V500.2C582.5,497.6,580.9,495,577.5,493.1Z"/><path class="cls-4" d="M577.5,493.1c-6.6-3.8-17.3-3.8-23.9,0s-6.6,10,.1,13.9,17.3,3.8,23.9,0,6.5-10.1-.1-13.9"/><path class="cls-64" d="M577.5,493.1,565.6,500h16.9c0-2.5-1.7-5-5-6.9"/><path class="cls-65" d="M582.5,500H565.6v9.8a24.77,24.77,0,0,0,12-2.9c3.3-1.9,4.9-4.4,4.9-6.9"/><path class="cls-66" d="M328.3,135.4,133.6,247.8a6.89,6.89,0,0,0-3.4,6l.4,141.8a2.77,2.77,0,0,0,4.1,2.4L329.4,285.6a2.69,2.69,0,0,0,1.4-2.4l-.4-146.5A1.43,1.43,0,0,0,328.3,135.4Z"/><path d="M486.5,186.1a3.23,3.23,0,0,0-1.2,1.1,32.47,32.47,0,0,1-4.4,7c-.4.5.1,1.8,1,1.3a1.38,1.38,0,0,1,.4-.3,16,16,0,0,0,2.3-3.8c-1,3.1-1.8,7.6-2.5,11-.1.5.5.4,1.1,0s1.5-1.1,1.6-1.7c.5-3.3,2.1-11.1,3.1-14.9.1-.3-.6-.1-1.4.3"/><path d="M519.4,172.1c-2,1.2-4.2,3.9-3.8,6.6,0,.2.4.1.8-.1.6-.4,1.4-1,1.3-1.4a3.31,3.31,0,0,1,1.3-3h0c.9-.5,1.2.2.8,2.1a28.78,28.78,0,0,1-5.1,10.4c-.8,1.1-.5,2.6.3,2.1h.1a13.77,13.77,0,0,1,2.4-1.4c1.3-.7,2.6-1.4,3.6-2h0c.6-.3,1.2-2.9.3-2.4-.4.2-.9.5-1.4.8-.7.4-1.5.9-2.1,1.3,2.1-3.1,4.4-7.1,4.7-9.9.6-4.1-1-4.3-3.2-3.1"/><path d="M497.9,158a7.48,7.48,0,0,0-3.7,6.5c0,.4.4.3.7.1.6-.4,1.4-1.2,1.4-1.5a3.46,3.46,0,0,1,1.4-3c.6-.3,1.1-.1,1,1.1a4.78,4.78,0,0,1-2.1,3.8.1.1,0,0,0-.1.1h0c-.5.3-.8,2.3,0,1.9,1.6-.8,1.8.1,1.5,1.7a3.36,3.36,0,0,1-1.5,2.4c-.7.4-1.3.1-1.1-1.2.1-.7-.6-.7-1.2-.4a2.12,2.12,0,0,0-1,1.3c-.5,3.1,1.5,3.4,3.5,2.2a8.5,8.5,0,0,0,4.1-5.8c.3-2.1-.4-3.2-1.9-2.7a7,7,0,0,0,2.6-4.5c.3-2.8-1.6-3.1-3.6-2"/><path d="M525.2,216.1c1-2.1,2.6-5.4,3.4-7.3-.3,1.6-.7,3.8-1.1,5.9-.8.5-1.5,1-2.3,1.4m4.7-12.1a3.06,3.06,0,0,0-1.3,1.2c-1.4,3.1-4.3,8.8-6.1,12.7-.6,1.2.1,1.8.9,1.4s2.2-1.3,3.9-2.4l-.3,2.4c-.1.5.4.4.9.1a3.65,3.65,0,0,0,1.6-1.7c.1-.6.1-1.4.2-2.3.3-.2,1.3-.7,1.5-.9h0c.8-.5.7-2.3.1-2-.4.2-.9.5-1.3.7.4-3.2,1-7.1,1.4-9.5.2-.4-.7-.2-1.5.3"/><path d="M545.7,219.7h0c-.6.4-1.1.7-1.6,1s-1.2.7-1.9,1.1a3.54,3.54,0,0,0-1.8,2.3c-.3,1.8-.7,4.2-.8,5.2s.6.7,1.2.4a2.18,2.18,0,0,0,.5-.4,4.82,4.82,0,0,1,1-.8c1.4-.8,1.5.8,1.2,2.4a4.45,4.45,0,0,1-1.7,3.3h0c-.9.5-1.4,0-1.2-1.3.1-.6-.6-.5-1.3-.2a1.94,1.94,0,0,0-.9,1.1c-.4,2.5.6,4,3.3,2.5h0a10.47,10.47,0,0,0,4.6-7c.5-2.9-.3-5.2-3-3.7a7.7,7.7,0,0,0-1.3.9c.1-.8.4-2.2.5-2.9.4-.2.8-.5,1.2-.7s.6-.3.9-.5a10.54,10.54,0,0,0,1.1-.7c.7-.3,1.1-2.6,0-2"/><path d="M542.5,187.8h0c-.8.4-1-.5-.8-2.4a5.24,5.24,0,0,1,1.9-3.6c.7-.4.9.6.7,2.1-.3,1.9-1,3.4-1.8,3.9m2.1-13.5h0c-4,2.4-5.4,9-5.6,12.6-.1,2.6.6,4.6,3.3,3a.1.1,0,0,0,.1-.1,10.38,10.38,0,0,0,4.6-7.4c.3-2.5-.5-4.4-2.6-3.2h-.1a7.61,7.61,0,0,0-2.2,2.2c.5-2.2,1.4-4.5,2.4-5.1h.1c.5-.3.9-.2,1.1.9,0,.3.5.2.9-.1.6-.3,1.2-.9,1.2-1.4,0-1.6-1-2.6-3.2-1.4"/><path d="M581.1,202.9c-.1.1-.2.1-.3.2a23.64,23.64,0,0,1-2.8,2,15.63,15.63,0,0,1-2.6,1.1h0c-.4.2-1.2,2.5-.6,2.6a4.21,4.21,0,0,0,2.2-.8q.75-.45,1.8-1.2c-1.6,4.5-3.5,11-4.1,13.1-.1.6.7.5,1.4.1s1.2-.9,1.3-1.4c.9-3.1,3.4-11.6,4.9-15.5.3-.4-.4-.6-1.2-.2"/><path d="M496,231.2c-.8.4-1.2-.2-1.1-1.2a8.61,8.61,0,0,1,1.7-3.8c.7.2,1.1,1.1,1.1,2.1a3.85,3.85,0,0,1-1.7,2.9h0m1-7.7a1.67,1.67,0,0,1-.6-1.7,2.37,2.37,0,0,1,1-1.7c.5-.3.9-.1.7.9a7.66,7.66,0,0,1-1.1,2.5m.3-5.4a7.21,7.21,0,0,0-3.5,4.9,2.23,2.23,0,0,0,1.3,2.7c-1.6,2-2.9,4-3,5.9-.2,2.3,1.1,3.1,3.6,1.7a.1.1,0,0,0,.1-.1,9.27,9.27,0,0,0,4.6-6.4,2.24,2.24,0,0,0-2-2.8,8.72,8.72,0,0,0,2.3-4.2c.4-2.6-1.5-2.8-3.4-1.7"/><path d="M522.7,245.3c-.7.4-1.1-.6-.9-2.1.3-1.9,1-3.5,1.8-3.9.1,0,.1-.1.2-.1.8-.3,1,.4.8,2.4-.3,1.8-.8,3.1-1.9,3.7m1.1-8.1a10.51,10.51,0,0,0-4.7,7.4c-.3,2.5.6,4.5,3.2,3a5.5,5.5,0,0,0,1.8-1.9c-.3,2.1-1.4,4.4-2.4,5h-.1c-.5.3-1,.3-1.2-.8,0-.2-.2-.2-.5,0a3.79,3.79,0,0,0-1.4,1.7c-.1,1.3.8,2.4,3,1.2h0c4.1-2.4,5.5-9,5.7-12.6.2-2.8-.6-4.6-3.4-3h0"/><polyline class="cls-65" points="185.1 330.7 165.3 342.2 165.3 354.1 185.2 342.6 185.1 330.7"/><polyline class="cls-4" points="185.2 342.6 165.3 354.1 165.3 366.1 185.2 354.6 185.2 342.6"/><polyline class="cls-65" points="221.9 254.5 202.1 266 202.1 278.4 221.9 266.9 221.9 254.5"/><polyline class="cls-4" points="221.9 266.9 202.1 278.4 202.3 344.7 222.1 333.3 221.9 266.9"/><polyline class="cls-65" points="258.9 258.8 239.1 270.3 239.1 290.2 259 278.8 258.9 258.8"/><polyline class="cls-4" points="259 278.8 239.1 290.2 239.2 323.4 259.1 312 259 278.8"/><polyline class="cls-65" points="295.7 202.1 275.9 213.6 276.1 278.2 295.9 266.7 295.7 202.1"/><polyline class="cls-4" points="295.9 266.7 276.1 278.2 276.1 302.1 296 290.6 295.9 266.7"/><path class="cls-9" d="M233.1,250.4a2.66,2.66,0,0,1-.3,1.2l13.4-5.6v-.4a1.7,1.7,0,0,1,.1-.7l-13.2,5.5m-43,21.9-13.9,45.2a1.08,1.08,0,0,1,.8.2l14-45.6a1.49,1.49,0,0,1-.9.2m24.3-29.8a3.79,3.79,0,0,1-.6,1.3l14.3,7.8.6-1.2-14.3-7.9m-5.1,2.2-16.1,20.8a1.47,1.47,0,0,1,.6.5l15.9-20.5a2,2,0,0,1-.4-.8m55.6-36.6-14.7,32.5a1.33,1.33,0,0,1,.8.3l14.8-32.6a2,2,0,0,1-.9-.2m18.2-17.2-13.9,11.3a3,3,0,0,1,.2,1l13.9-11.3a3,3,0,0,1-.2-1"/><path class="cls-9" d="M175.2,317.9a5.9,5.9,0,0,0-2.7,4.6c0,1.7,1.2,2.4,2.7,1.5a5.9,5.9,0,0,0,2.7-4.6,1.6,1.6,0,0,0-1.6-1.9,1.5,1.5,0,0,0-1.1.4"/><path class="cls-9" d="M191.4,265.8a5.9,5.9,0,0,0-2.7,4.6,1.72,1.72,0,0,0,1.4,1.9,1.49,1.49,0,0,0,.9-.2c.1-.1.3-.1.4-.2a5.9,5.9,0,0,0,2.7-4.6,2.77,2.77,0,0,0-.3-1.3,2.65,2.65,0,0,0-.6-.5,2.06,2.06,0,0,0-1.8.3"/><path class="cls-9" d="M211.9,239.5a5.9,5.9,0,0,0-2.7,4.6v.5a3.55,3.55,0,0,0,.4.9c.5.6,1.3.7,2.3.1a4.72,4.72,0,0,0,1.8-1.9c.2-.4.4-.8.6-1.3a2.4,2.4,0,0,0,.2-1.4c.1-1.7-1.1-2.3-2.6-1.5"/><path class="cls-9" d="M230.4,248.6a4.62,4.62,0,0,0-1.7,1.7,6.72,6.72,0,0,0-.6,1.2,5.08,5.08,0,0,0-.3,1.7c0,1.7,1.2,2.4,2.7,1.5a5.74,5.74,0,0,0,2.4-3.1l.3-1.2v-.3c-.1-1.7-1.3-2.4-2.8-1.5"/><path class="cls-9" d="M248.9,241a6,6,0,0,0-2.6,3.9c0,.3-.1.5-.1.7v.4c.2,1.4,1.3,1.9,2.7,1.1a5.9,5.9,0,0,0,2.7-4.6,1.87,1.87,0,0,0-.7-1.6c-.2-.2-.5-.2-.8-.3a2.38,2.38,0,0,0-1.2.4"/><path class="cls-9" d="M266.7,201.7a5.9,5.9,0,0,0-2.7,4.6,1.81,1.81,0,0,0,.9,1.8,1.06,1.06,0,0,0,.8.1,2.6,2.6,0,0,0,1-.4,5.9,5.9,0,0,0,2.7-4.6v-.1a3,3,0,0,0-.2-1c-.4-.8-1.4-1-2.5-.4"/><path class="cls-9" d="M285.7,186.2a5.9,5.9,0,0,0-2.7,4.6v.1a3,3,0,0,0,.2,1c.4.9,1.4,1.1,2.5.5a5.9,5.9,0,0,0,2.7-4.6c0-1.7-1.2-2.4-2.7-1.6"/></svg>