<svg id="OBJECTS" xmlns="http://www.w3.org/2000/svg" xmlns:xlink="http://www.w3.org/1999/xlink" viewBox="0 0 500 557.69"><defs><style>.cls-1{fill:none;}.cls-2{clip-path:url(#clip-path);}.cls-3{fill:#fbe273;}.cls-4{fill:#fbedb0;}.cls-5{fill:#fbf1c4;}.cls-6{fill:#add6e2;}.cls-7{fill:#72a2af;}.cls-8{fill:#89b4c2;}.cls-9{fill:#025159;opacity:0.14;}.cls-10{fill:#d19c6f;}.cls-11{fill:#16466e;}.cls-12,.cls-19,.cls-21{fill:#231f20;}.cls-12{opacity:0.45;}.cls-13{fill:#bcbec0;}.cls-14{fill:#543e36;}.cls-15{fill:#323133;}.cls-16{fill:#343435;}.cls-17{fill:#58595b;}.cls-18{fill:#9c7761;}.cls-19{opacity:0.3;}.cls-20{fill:#a7a9ac;}.cls-22{fill:#e6e7e8;}.cls-23{fill:#1c6ea0;}.cls-24{fill:#6d6e71;}.cls-25{fill:#f15a29;}.cls-26{fill:#00aeef;}</style><clipPath id="clip-path"><rect class="cls-1" y="13.07" width="500" height="553.64"/></clipPath></defs><title>arcae-partner</title><g class="cls-2"><circle class="cls-3" cx="252" cy="197.19" r="166.48"/><path class="cls-4" d="M285.74,245.7v-2.53a4.11,4.11,0,0,0-4.11-4.11h-24a4.11,4.11,0,0,1-4.11-4.11v-.54a4.11,4.11,0,0,1,4.11-4.11h39.53a7,7,0,0,0,7-7h0a7,7,0,0,0-7-7H116.42a4.11,4.11,0,0,0-4.11,4.11v2.46a4.11,4.11,0,0,1-4.11,4.11H69a7.33,7.33,0,0,0-7.33,7.33h0A7.34,7.34,0,0,0,69,241.59h63.66a4.11,4.11,0,0,1,4.11,4.11h0a4.11,4.11,0,0,1-4.11,4.11h-8.58a7.34,7.34,0,0,0-7.34,7.33h0a7.34,7.34,0,0,0,7.34,7.33h177.2a7.33,7.33,0,0,0,7.33-7.33h0a7.33,7.33,0,0,0-7.33-7.33h-11.4A4.11,4.11,0,0,1,285.74,245.7Z"/><path class="cls-5" d="M301.25,249.81h-11.4a4.11,4.11,0,0,1-4.11-4.11v-2.53a4.11,4.11,0,0,0-4.11-4.11h-24a4.11,4.11,0,0,1-4.11-4.11v-.54a4.11,4.11,0,0,1,4.11-4.11h39.53a7,7,0,0,0,6.13-3.6h-3.62a4.11,4.11,0,0,1-4.11-4.11v-.54a4.11,4.11,0,0,1,4.11-4.11h2.06a7,7,0,0,0-4.57-1.7H116.42a4.11,4.11,0,0,0-4.11,4.11v2.46a4.11,4.11,0,0,1-4.11,4.11h-2.51a7.3,7.3,0,0,0,5.32,2.3h63.66a4.11,4.11,0,0,1,0,8.22h-8.58a7.34,7.34,0,0,0,0,14.67H306.58A7.3,7.3,0,0,0,301.25,249.81Z"/><path class="cls-4" d="M385.13,289.7v-2.2a3.57,3.57,0,0,0-3.58-3.57H360.66a3.57,3.57,0,0,1-3.57-3.58v-.47a3.57,3.57,0,0,1,3.57-3.57h34.39a6.12,6.12,0,0,0,6.12-6.12h0a6.11,6.11,0,0,0-6.12-6.11H237.82a3.57,3.57,0,0,0-3.57,3.57v2.14a3.57,3.57,0,0,1-3.58,3.57H196.55a6.38,6.38,0,0,0-6.38,6.38h0a6.38,6.38,0,0,0,6.38,6.38h55.38a3.58,3.58,0,0,1,3.58,3.58h0a3.58,3.58,0,0,1-3.58,3.57h-7.47a6.38,6.38,0,0,0-6.38,6.38h0a6.38,6.38,0,0,0,6.38,6.38H398.62a6.38,6.38,0,0,0,6.38-6.38h0a6.38,6.38,0,0,0-6.38-6.38H388.7A3.57,3.57,0,0,1,385.13,289.7Z"/><path class="cls-5" d="M398.62,293.27H388.7a3.57,3.57,0,0,1-3.57-3.57v-2.2a3.57,3.57,0,0,0-3.58-3.57H360.66a3.57,3.57,0,0,1-3.57-3.58v-.47a3.57,3.57,0,0,1,3.57-3.57h34.39a6.12,6.12,0,0,0,5.34-3.14h-3.15a3.57,3.57,0,0,1-3.58-3.57v-.48a3.57,3.57,0,0,1,3.58-3.57H399a6.08,6.08,0,0,0-4-1.47H237.82a3.57,3.57,0,0,0-3.57,3.57v2.14a3.57,3.57,0,0,1-3.58,3.57h-2.18a6.39,6.39,0,0,0,4.64,2h55.38a3.58,3.58,0,0,1,0,7.15H281a6.38,6.38,0,0,0,0,12.76H403.25A6.35,6.35,0,0,0,398.62,293.27Z"/><path class="cls-4" d="M301.93,159v-2.65a4.3,4.3,0,0,0-4.31-4.3H272.45a4.31,4.31,0,0,1-4.31-4.31v-.57a4.31,4.31,0,0,1,4.31-4.31h41.44a7.37,7.37,0,0,0,7.37-7.37h0a7.37,7.37,0,0,0-7.37-7.37H124.43a4.31,4.31,0,0,0-4.31,4.31V135a4.31,4.31,0,0,1-4.31,4.31H74.69A7.69,7.69,0,0,0,67,147h0a7.69,7.69,0,0,0,7.69,7.69h66.73a4.31,4.31,0,0,1,4.31,4.31h0a4.31,4.31,0,0,1-4.31,4.31h-9a7.68,7.68,0,0,0-7.68,7.69h0a7.68,7.68,0,0,0,7.68,7.68H318.19a7.68,7.68,0,0,0,7.69-7.68h0a7.69,7.69,0,0,0-7.69-7.69H306.24A4.31,4.31,0,0,1,301.93,159Z"/><path class="cls-5" d="M318.19,163.32H306.24a4.31,4.31,0,0,1-4.31-4.31v-2.65a4.3,4.3,0,0,0-4.31-4.3H272.45a4.31,4.31,0,0,1-4.31-4.31v-.57a4.31,4.31,0,0,1,4.31-4.31h41.44a7.35,7.35,0,0,0,6.43-3.78h-3.79a4.31,4.31,0,0,1-4.31-4.31v-.56a4.31,4.31,0,0,1,4.31-4.31h2.15a7.31,7.31,0,0,0-4.79-1.78H124.43a4.31,4.31,0,0,0-4.31,4.31V135a4.31,4.31,0,0,1-4.31,4.31h-2.63a7.63,7.63,0,0,0,5.58,2.42H185.5a4.31,4.31,0,1,1,0,8.61h-9a7.69,7.69,0,0,0,0,15.38H323.77A7.66,7.66,0,0,0,318.19,163.32Z"/><path class="cls-4" d="M457,212.58v-2.87a4.67,4.67,0,0,0-4.67-4.67h-27.3a4.67,4.67,0,0,1-4.67-4.67v-.62a4.67,4.67,0,0,1,4.67-4.67H470a8,8,0,0,0,8-8h0a8,8,0,0,0-8-8H264.54a4.67,4.67,0,0,0-4.67,4.67v2.79a4.67,4.67,0,0,1-4.67,4.67H210.61a8.34,8.34,0,0,0-8.34,8.34h0a8.33,8.33,0,0,0,8.34,8.34H283a4.67,4.67,0,0,1,4.67,4.67h0a4.67,4.67,0,0,1-4.67,4.67h-9.76a8.34,8.34,0,0,0-8.34,8.34h0a8.33,8.33,0,0,0,8.34,8.34H474.66a8.33,8.33,0,0,0,8.34-8.34h0a8.34,8.34,0,0,0-8.34-8.34h-13A4.67,4.67,0,0,1,457,212.58Z"/><path class="cls-5" d="M474.66,217.25h-13a4.67,4.67,0,0,1-4.67-4.67v-2.87a4.67,4.67,0,0,0-4.67-4.67h-27.3a4.67,4.67,0,0,1-4.67-4.67v-.62a4.67,4.67,0,0,1,4.67-4.67H470a8,8,0,0,0,7-4.1h-4.11a4.67,4.67,0,0,1-4.67-4.67v-.61a4.68,4.68,0,0,1,4.67-4.68h2.33A8,8,0,0,0,470,179.1H264.54a4.67,4.67,0,0,0-4.67,4.67v2.79a4.67,4.67,0,0,1-4.67,4.67h-2.85a8.3,8.3,0,0,0,6,2.62h72.37a4.68,4.68,0,0,1,0,9.35H321a8.34,8.34,0,0,0,0,16.67H480.72A8.31,8.31,0,0,0,474.66,217.25Z"/><polygon class="cls-6" points="250 445.8 250 436.74 370.01 436.74 355.97 445.8 250 445.8"/><polygon class="cls-7" points="355.97 445.8 370.01 436.74 370.82 457.74 356.79 466.8 355.97 445.8"/><polygon class="cls-6" points="356.79 466.8 370.82 457.74 398.3 457.74 384.26 466.8 356.79 466.8"/><polygon class="cls-7" points="384.26 466.8 398.3 457.74 399.11 478.73 385.07 487.79 384.26 466.8"/><polygon class="cls-6" points="385.07 487.79 399.11 478.73 426.59 478.73 412.55 487.79 385.07 487.79"/><polygon class="cls-7" points="412.55 487.79 426.59 478.73 427.41 499.73 413.37 508.79 412.55 487.79"/><polygon class="cls-6" points="413.37 508.79 427.41 499.73 454.88 499.73 440.84 508.79 413.37 508.79"/><polygon class="cls-7" points="440.84 508.79 454.88 499.73 455.7 520.73 441.66 529.8 440.84 508.79"/><polygon class="cls-6" points="441.66 529.8 455.7 520.73 483.18 520.73 469.14 529.8 441.66 529.8"/><polygon class="cls-7" points="469.14 529.8 483.18 520.73 483.99 541.72 469.95 550.79 469.14 529.8"/><polygon class="cls-6" points="469.95 550.79 483.99 541.72 511.47 541.72 497.43 550.79 469.95 550.79"/><polygon class="cls-7" points="497.43 550.79 511.47 541.72 512.29 562.73 498.25 571.79 497.43 550.79"/><polygon class="cls-8" points="653.75 676.78 653.75 655.78 611.42 655.78 610.6 634.78 583.12 634.78 582.3 613.78 554.83 613.78 554.02 592.79 526.54 592.79 525.72 571.79 498.25 571.79 497.43 550.79 469.95 550.79 469.14 529.8 441.66 529.8 440.84 508.79 413.37 508.79 412.55 487.79 385.07 487.79 384.26 466.8 356.79 466.8 355.97 445.8 250 445.8 250 697.78 475.67 697.78 503.14 697.78 653.75 697.78 653.75 676.78"/><polygon class="cls-6" points="250 445.8 250 436.74 129.99 436.74 144.03 445.8 250 445.8"/><polygon class="cls-7" points="144.03 445.8 129.99 436.74 129.18 457.74 143.21 466.8 144.03 445.8"/><polygon class="cls-6" points="143.21 466.8 129.18 457.74 101.7 457.74 115.74 466.8 143.21 466.8"/><polygon class="cls-7" points="115.74 466.8 101.7 457.74 100.89 478.73 114.92 487.79 115.74 466.8"/><polygon class="cls-6" points="114.92 487.79 100.89 478.73 73.41 478.73 87.44 487.79 114.92 487.79"/><polygon class="cls-7" points="87.44 487.79 73.41 478.73 72.59 499.73 86.63 508.79 87.44 487.79"/><polygon class="cls-6" points="86.63 508.79 72.59 499.73 45.12 499.73 59.16 508.79 86.63 508.79"/><polygon class="cls-7" points="59.16 508.79 45.12 499.73 44.3 520.73 58.34 529.8 59.16 508.79"/><polygon class="cls-6" points="58.34 529.8 44.3 520.73 16.82 520.73 30.86 529.8 58.34 529.8"/><polygon class="cls-7" points="30.86 529.8 16.82 520.73 16.01 541.72 30.05 550.79 30.86 529.8"/><polygon class="cls-6" points="30.05 550.79 16.01 541.72 -11.47 541.72 2.57 550.79 30.05 550.79"/><polygon class="cls-7" points="2.57 550.79 -11.47 541.72 -12.29 562.73 1.75 571.79 2.57 550.79"/><polygon class="cls-8" points="-153.75 676.78 -153.75 655.78 -111.42 655.78 -110.6 634.78 -83.12 634.78 -82.31 613.78 -54.83 613.78 -54.02 592.79 -26.54 592.79 -25.72 571.79 1.75 571.79 2.57 550.79 30.05 550.79 30.86 529.8 58.34 529.8 59.16 508.79 86.63 508.79 87.44 487.79 114.92 487.79 115.74 466.8 143.21 466.8 144.03 445.8 250 445.8 250 697.78 24.34 697.78 -3.15 697.78 -153.75 697.78 -153.75 676.78"/><path class="cls-9" d="M130,436.74l-.82,21H101.7l-.81,21H73.41l-.82,21H45.12l-.82,21H16.82l-.81,21H-11.47l-.82,21H-39.76l-.82,21H-68.06l-.81,21H-96.34l-.82,21h-27.48l-.81,21h-27.48l-.36,9.07h-.46v42H250v-261Zm-241.41,219,.82-21h0l-.82,21Zm56.59-42h0l.81-21Zm56.58-42,.82-21h0Z"/><path class="cls-10" d="M228.94,281a1,1,0,0,1,.8-1.21l4.5-1c-5.48,1.24-5.05.9-5.27-.19-.18-.92,1.16-1.06,3.17-1.52,0-.22-.3-.61,0-.92a27.89,27.89,0,0,1,3.4-.83c.79-.2,1.76-.65,2.61-.79,1.88-.33,4.37.54,5.51.67a22.88,22.88,0,0,0,4.68-.32,1,1,0,0,1,1.16.71l1.53,5a1,1,0,0,1-.71,1.24l-1.2.31a13.45,13.45,0,0,0-4.22,1.46c-1.38.89-4.12,1.11-5.84,1.21-.92.06-1.83,0-2.41,0a10.38,10.38,0,0,0-1.25,0c-.83.08-1.76.15-2.89.35-1.42.25-1.64-1.21-.74-1.43l3.69-.9a39.89,39.89,0,0,1-4.21.8c-1.34.14-1.49-1.57-.63-1.79l4.38-1s-2.41.43-4.44.87C229.34,282,229.09,281.65,228.94,281Z"/><path class="cls-11" d="M283.71,259.68c1.09-1.27,3.65-6.38,6.38-12.85,3.89-9.2,6-16.65,11.48-22,2-2,3.74-3.56,5.07-3.53,5,.12,7.51,10,5.78,14.7-5.06,13.88-14.24,31.43-21,35.37-8.77,5.09-44,12.08-44,12.08L245.94,275S278.64,265.6,283.71,259.68Z"/><path class="cls-12" d="M304.61,221.22c-.2,0-.14.06-.35.11-2.27,1.82-5.63,6-8.6,11.7-1.16,2.66-2.48,5.72-3.64,8.62a49.43,49.43,0,0,0-2.26,12.58A70.63,70.63,0,0,0,290.93,272a5.22,5.22,0,0,0,.47-.26,13.51,13.51,0,0,0,2.44-2C292.52,255.77,293.29,235.85,304.61,221.22Z"/><path class="cls-13" d="M186.54,222.31l-.82-.47h-.14a10.81,10.81,0,0,0,0,1.14c0,.06,1.15.74,1.15.74l1.06.1-.44-1.14Z"/><path class="cls-14" d="M206.89,305.19a20.52,20.52,0,0,0,3.23,4c.81.68,2.68,1.47,3.59,3s.82,1.64.54,1.85a14.3,14.3,0,0,1,.75,3,1.07,1.07,0,0,1-1.36.76s0,.44-.75.85-1,0-1,0a1.57,1.57,0,0,1-.82,1.1c-.71.34-1,.08-1,.08a2,2,0,0,1-1,1,1,1,0,0,1-1.07-.38,9,9,0,0,1-1.91-1.37c-1.2-1.05-3-3.32-3.23-4.83a14.44,14.44,0,0,0-1.06-4c-.52-.88-1-1.87-1-1.87Z"/><path class="cls-15" d="M200.39,248.62c-3.48-5.85-7.66-11.26-11-17-6.23,13.47-11.83,30.78-10.11,38,2.38,10,21.93,40.18,21.93,40.18l7.31-5.17s-16-30.18-15.14-38.11C193.58,264.47,197,256.78,200.39,248.62Z"/><path class="cls-16" d="M203.63,324.33l-.75-5.27a2,2,0,0,1,1.28-2.21l10.77-4.28a2.06,2.06,0,0,1,2.5.8l2.93,4.57-1.61,1-2.93-4.57a.16.16,0,0,0-.18-.06l-10.78,4.29a.15.15,0,0,0-.09.16l.75,5.27Z"/><path class="cls-17" d="M238.27,312.49a3.63,3.63,0,0,0-4-1.48l.58,1.59-46.07,16.88a1.41,1.41,0,0,0-.84,1.81l10.61,29-1.73.65a3.65,3.65,0,0,0,3.81,1.87,1.14,1.14,0,0,0,.32-.07l47.81-17.52a1.42,1.42,0,0,0,.85-1.82L238.44,312.8A1.17,1.17,0,0,0,238.27,312.49Z"/><rect class="cls-16" x="189.62" y="318.69" width="53.75" height="35.39" rx="1.41" transform="translate(-102.52 95.02) rotate(-20.12)"/><path class="cls-18" d="M173.17,212.74c-.91-2.86-4.31-11.89-1.87-17s19.47-3.17,19.47-3.17,1.94,5,1.4,6.12,4.4,4.58,4.23,6.11-2.08,1.42-2.52,2.18.46,2.9,0,3.33.31.89.3,1.53-.35,1-.41,1.74,1.17,2.25,0,3.32-6.2.44-8.14,1.18c-.83.31.1,4.07.45,4.83l4.18,3L172.54,224l.52-2.47S175.22,219.19,173.17,212.74Z"/><path class="cls-18" d="M191.68,199.66s.21.88-.24,1.06a4.17,4.17,0,0,1-2.8-.23S191.47,200.18,191.68,199.66Z"/><path class="cls-19" d="M185.59,218.07c1.94-.74,6.95-.11,8.14-1.18-1.27.48-5.16.06-8.54-.2S179,212.3,179,212.3s1.94,3.63,3.8,4.65,2,1.86,2,2.78a12,12,0,0,0,.76,3.72,14.74,14.74,0,0,0,1.9,2l2.08,0L186,222.9C185.69,222.14,184.76,218.38,185.59,218.07Z"/><polygon class="cls-20" points="154.62 415.02 153.92 430.97 162.07 431.97 163.63 414.57 154.62 415.02"/><path class="cls-21" d="M165.31,428.27c-.5-1.87-1.93-2.54-3.06-1.56a4.72,4.72,0,0,1-2.56,1.27c-1.94.18-4.1-1.51-5.12-2.43-.37-.33-.83-.19-1.07.36a17.81,17.81,0,0,0-1.16,8.31l.55,5.5,5.82.33h0c.47-1.19,1.38-1.73,2.24-1.32,1.51.73,3.94,2.73,5.8,3.13,2.93.63,9.75.35,9.75.35.74-6.31-3-5.4-4.66-6.3-2.15-1.14-5.18-3.17-5.92-5A17.12,17.12,0,0,1,165.31,428.27Z"/><polygon class="cls-20" points="176.26 412.23 175.56 428.18 183.71 429.19 185.26 411.78 176.26 412.23"/><polygon class="cls-12" points="176.26 412.23 175.56 428.18 183.71 429.19 185.26 411.78 176.26 412.23"/><path class="cls-21" d="M187,425.48c-.5-1.87-1.94-2.54-3.06-1.56a4.71,4.71,0,0,1-2.57,1.27c-1.93.18-4.1-1.51-5.12-2.43-.36-.33-.83-.19-1.06.36a17.91,17.91,0,0,0-1.17,8.31l.56,5.5,5.81.33h0c.47-1.19,1.39-1.73,2.24-1.32,1.52.74,3.94,2.73,5.81,3.13,2.92.63,9.75.35,9.75.35.73-6.3-3-5.39-4.67-6.3-2.15-1.14-5.18-3.17-5.91-5A16.06,16.06,0,0,1,187,425.48Z"/><path class="cls-11" d="M198,277.51c-1.67,12.43,2.84,19.9,4,39.26l-13.26-7.53-22.95,5s-3.11-14.58-2.63-16,16-25.34,16-25.34Z"/><path class="cls-12" d="M197.64,283.29c-.38,12.81,1.52,26.75,2,32.08l-10.87-6.13-22.95,5s-3.11-14.58-2.63-16,16-25.34,16-25.34Z"/><path class="cls-22" d="M161.76,272.83c.16-1.23,9.78-49.09,9.78-49.09l.57-1.58.69-1.54a.6.6,0,0,1,1-.2c1.51,1.46,5.9,4.89,13.47,4.48a13,13,0,0,1,.29-2.39h0c19.48,23.43,11.41,54.71,9,62.44a12.26,12.26,0,0,0-.54,3.9l.31,12.22-37.49,2.69S161.61,274.05,161.76,272.83Z"/><path class="cls-23" d="M189.32,227.81l-.08-1.42-1.81-.94-.2,2.59,1,.38a86,86,0,0,1,3.27,24.27c-.42,11.39-5.83,43.84-5.83,43.84l2.67,5.82,4.31-5.78S201.21,252.07,189.32,227.81Z"/><path class="cls-13" d="M175.52,225a29,29,0,0,0,3.75,2,23,23,0,0,0,3.83,1.64,23.31,23.31,0,0,0,3.75,1c.1-1.41.22-2.82.34-4.23l0-.32s2.39,1.51,3.06,1.8.54.34-.11.08-2-.9-2.68-1.23c-.05,1.41-.1,2.82-.19,4.22v.27l-.26,0a26.55,26.55,0,0,1-4.09-1,25.37,25.37,0,0,1-3.88-1.73,23.67,23.67,0,0,1-3.72-2.15,20.32,20.32,0,0,1-3.33-2.94A26.05,26.05,0,0,0,175.52,225Z"/><path class="cls-11" d="M201.66,255.71c-1.27-22-14.13-33.2-14.13-33.2,18.26,24,8.61,64.08,8.61,64.08S202.91,277.19,201.66,255.71Z"/><path class="cls-12" d="M196.93,282.6c-.44,2.53-.79,4-.79,4a21.41,21.41,0,0,0,2-3.81C197.7,282.73,197.31,282.68,196.93,282.6Z"/><path class="cls-11" d="M156.5,301.33s-.49,57.43-1.65,61.33-3,61.86-3,61.86,12.61.61,12.84-.16S176.72,345,176.72,345L175,367.39l-1.24,52.46L187.81,421l5.58-55.28,2.9-64.63Z"/><path class="cls-12" d="M157,320.58l-.17-2,4.69-.47c-.06-2,.87-6.47,2.35-11.12l.37-7-7.84,11.45c-.2,16.68-.69,48.32-1.54,51.18-1.17,3.89-3,61.86-3,61.86s3.05,0,4.56,0c.46-12,1.32-40.91,1.86-47.33a156.7,156.7,0,0,1,2.87-17.91l2.1-39.68Z"/><path class="cls-11" d="M172,222.4s-9,4.79-9.93,5.32-5.17,1.88-5.83,8.5c-1.36,13.62,1.24,38.44,1.13,46.17-.17,11.47-4.6,21.19-3,36.43l7.17-.72c-.12-3.82,3.47-17.15,7.65-22.59,7.67-10,18.52-25.41,16.11-45.94S172,222.4,172,222.4Z"/><path class="cls-22" d="M187.24,224.9a4.07,4.07,0,0,0-1.52-3.06,2.73,2.73,0,0,1,1.81.67Z"/><path class="cls-11" d="M192,198.41c.1-.54-.63-.67-1.9-.59A7.62,7.62,0,0,0,187.2,199a21.57,21.57,0,0,1,3.17-.25C191.25,198.8,191.91,198.75,192,198.41Z"/><path class="cls-21" d="M190.85,186.6s.34,2.18-2.74,1.82a24.38,24.38,0,0,0-6.39-.89c-7.46.51-13,3.51-14.53,7.61-2.54,6.68,6,20.58,6,20.58,1.39.72,1-2.81,2.69-5.44s-1.27-6.33.64-7.68c3.09-2.18,3.41,3.27,4.75,1.8s-2.83-6.74-1.64-9.69,7.78-.74,11.5-1.47A4.91,4.91,0,0,0,190.85,186.6Z"/><path class="cls-12" d="M200.17,276.17,169.68,255.4l-9-22.69-3.36-.52a11.39,11.39,0,0,0-1.12,4c-.19,1.88-.3,4-.35,6.22,1.88,4.94,5.45,13.63,9.27,19.17,5.58,8.12,9.51,15.09,15.46,17.12,4.76,1.62,13.95,3.4,17.5,4.06A46.48,46.48,0,0,0,200.17,276.17Z"/><path class="cls-12" d="M185.61,270.53a56.91,56.91,0,0,0,6.76-1.94c.26-.26-1.69-2.62-3.88-5s-9.47-17.16-13.27-24.26-8.12-9.63-8.9-10.21-4,4.72-4.37,5.14l3,11.41,12.09,18S185.19,270.53,185.61,270.53Z"/><path class="cls-12" d="M185.49,258.87c.26.47.51.91.76,1.33a53.41,53.41,0,0,0-1.51-14.29c.2,1.17.39,2.39.53,3.66A49.51,49.51,0,0,1,185.49,258.87Z"/><path class="cls-12" d="M183.67,269.12c-3.15,11.05-9.5,19.89-14.51,26.39-4.18,5.44-7.77,18.77-7.65,22.59l-4.69.47.17,2,8.11-1.28s2.39-18.17,7.41-23.91,7.41-10.52,12-24.62c.09-.28.16-.56.25-.84Z"/><path class="cls-18" d="M245.08,279.91a1,1,0,0,0-.93-1.15l-4.6-.57c5.59.67,5.13.37,5.22-.79.07-1-1.28-1-3.33-1.22,0-.24.23-.66-.06-1a26.92,26.92,0,0,0-3.47-.48c-.81-.12-1.83-.47-2.68-.53-1.92-.13-4.29,1.06-5.4,1.31a21.68,21.68,0,0,1-4.69.2,1,1,0,0,0-1.08.86l-.93,5.36a1,1,0,0,0,.85,1.21c.37.07.8.13,1.23.19a13,13,0,0,1,4.36,1c1.47.77,4.23.69,6,.6a23,23,0,0,0,2.4-.24,10.34,10.34,0,0,1,1.24-.09c.83,0,1.77,0,2.92,0,1.44.1,1.48-1.44.56-1.57l-3.77-.52a39.13,39.13,0,0,0,4.27.36c1.36,0,1.3-1.8.42-1.92s-4.47-.58-4.47-.58,2.45.18,4.52.41C244.8,281,245,280.61,245.08,279.91Z"/><path class="cls-11" d="M188.17,264c-1.23-1.2-4.37-6.2-7.84-12.6-4.94-9.11-10.71-20.41-14-22.22-7.86-4.31-12.31,7.55-9.44,13.51,6.65,13.83,17.81,31,25,34.31,9.31,4.3,45.14,7.61,45.14,7.61l.46-8.94S193.9,269.52,188.17,264Z"/><path class="cls-14" d="M214,312.9a4.28,4.28,0,0,0-1.23-1.72s-1.62,1.65-1.34,2.06c.16.22.44.91.75,1.51a.75.75,0,0,0-.43.81.7.7,0,0,0-1-.36c-.68.27-.46.8-.46.8s-.64-.59-1.25-.27a.86.86,0,0,0-.49.91.74.74,0,0,0-1.12-.32c-.55.27-.31.84-.06,1.37s.87,2.47.87,2.47,1.64-.78,1.73-.88,2.32-2.2,2.43-2.28.84-.58.87-.81a2.38,2.38,0,0,0-.08-.43,2.69,2.69,0,0,0,1.33-.68C215,314.73,214.28,313.5,214,312.9Z"/><path class="cls-12" d="M176.59,346.67,175,367.39l-1.24,52.46,2.68.11c.64-11.83,2.74-48.06,3-55.44.25-8.62,1.25-49.1,1.25-49.1l-3.83,29.66Z"/><path class="cls-24" d="M176.78,345.08c.37-2.47.67-4.94,1-7.42l.91-7.41.93-7.42q.48-3.7,1-7.41c-.16,2.48-.36,5-.61,7.45s-.53,5-.82,7.44-.64,4.95-1,7.41S177.33,342.64,176.78,345.08Z"/><path class="cls-13" d="M306.91,219.42l.84-.49h.15s0,1.1,0,1.17-1.18.76-1.18.76l-1.08.09.45-1.16Z"/><path class="cls-10" d="M320.55,209.66c.93-2.92,4.39-12.12,1.9-17.34s-19.84-3.23-19.84-3.23-2,5.06-1.43,6.23-4.49,4.67-4.32,6.24,2.13,1.44,2.57,2.22-.46,2.95,0,3.39-.31.91-.3,1.56.35,1,.42,1.78-1.2,2.29,0,3.38,6.33.45,8.3,1.2c.85.32-.09,4.16-.45,4.93l-4.26,3.06,18-1.93-.53-2.51S318.46,216.23,320.55,209.66Z"/><path class="cls-11" d="M301.68,196.32s-.22.9.24,1.09a4.32,4.32,0,0,0,2.86-.24S301.9,196.85,301.68,196.32Z"/><path class="cls-19" d="M307.88,215.09c-2-.75-7.08-.11-8.3-1.2,1.3.49,5.27.06,8.71-.2s6.29-4.48,6.29-4.48-2,3.7-3.87,4.74-2,1.89-2,2.84a12.42,12.42,0,0,1-.77,3.79,15.78,15.78,0,0,1-1.94,2l-2.12-.05,3.54-2.54C307.79,219.25,308.73,215.41,307.88,215.09Z"/><polygon class="cls-20" points="339.46 415.89 340.18 432.15 331.86 433.17 330.28 415.42 339.46 415.89"/><path class="cls-21" d="M328.56,429.4c.51-1.92,2-2.6,3.12-1.6a4.79,4.79,0,0,0,2.61,1.29c2,.19,4.18-1.54,5.22-2.48.38-.33.85-.18,1.09.37a18.28,18.28,0,0,1,1.19,8.48l-.57,5.61-5.93.33h0c-.47-1.21-1.41-1.77-2.28-1.34-1.55.74-4,2.78-5.92,3.19-3,.64-9.94.36-9.94.36-.75-6.43,3-5.51,4.76-6.43,2.19-1.16,5.28-3.23,6-5.07A16.78,16.78,0,0,0,328.56,429.4Z"/><polygon class="cls-20" points="317.4 413.04 318.12 429.3 309.8 430.32 308.22 412.58 317.4 413.04"/><polygon class="cls-12" points="317.4 413.04 318.12 429.3 309.8 430.32 308.22 412.58 317.4 413.04"/><path class="cls-21" d="M306.5,426.55c.51-1.91,2-2.6,3.12-1.6a4.73,4.73,0,0,0,2.62,1.3c2,.19,4.18-1.54,5.22-2.48.37-.33.84-.19,1.08.37a18.23,18.23,0,0,1,1.19,8.47l-.57,5.61-5.93.34h0c-.47-1.22-1.41-1.77-2.28-1.35-1.54.75-4,2.79-5.92,3.2-3,.64-9.94.35-9.94.35-.75-6.43,3-5.5,4.76-6.42,2.19-1.17,5.28-3.24,6-5.07A16.66,16.66,0,0,0,306.5,426.55Z"/><path class="cls-11" d="M295.28,275.69c1.71,12.67-2.89,20.29-4.11,40l13.52-3.12,23.39.56s3.17-14.87,2.68-16.33S314.44,271,314.44,271Z"/><path class="cls-12" d="M295.6,281.59c.39,13.05-1.66,28.18-2.11,33.61l11.2-2.6,23.39.56s3.17-14.87,2.68-16.33S314.44,271,314.44,271Z"/><path class="cls-22" d="M332.18,270.92c-.16-1.25-10-50.05-10-50.05l-.59-1.61-.69-1.57a.62.62,0,0,0-1-.2c-1.54,1.49-6,5-13.72,4.56a13.72,13.72,0,0,0-.31-2.44h0c-19.85,23.9-11.63,55.79-9.16,63.66a12.26,12.26,0,0,1,.55,4L297,299.71l38.22,2.75S332.34,272.17,332.18,270.92Z"/><path class="cls-25" d="M304.08,225l.09-1.46,1.84-1,.2,2.64-1,.4a88.18,88.18,0,0,0-3.33,24.73c.43,11.62,5.95,44.71,5.95,44.71L305.13,301l-4.39-5.89S292,249.75,304.08,225Z"/><path class="cls-13" d="M318.15,222.1a29,29,0,0,1-3.82,2,24.74,24.74,0,0,1-3.9,1.67,25.76,25.76,0,0,1-3.83,1c-.1-1.44-.23-2.88-.35-4.32l0-.32s-2.44,1.53-3.13,1.84-.55.34.12.07,2-.91,2.73-1.25c.05,1.43.1,2.87.19,4.3l0,.28.25-.05a26.27,26.27,0,0,0,4.18-1,25,25,0,0,0,4-1.77,23.87,23.87,0,0,0,3.8-2.19,20.64,20.64,0,0,0,3.4-3A27,27,0,0,1,318.15,222.1Z"/><path class="cls-11" d="M291.5,253.47c1.3-22.47,14.4-33.86,14.4-33.86-18.61,24.44-8.77,65.34-8.77,65.34S290.23,275.36,291.5,253.47Z"/><path class="cls-11" d="M337.54,300s.5,58.55,1.69,62.52,3.1,63.07,3.1,63.07-12.86.63-13.1-.17-12.3-80.91-12.3-80.91l1.79,22.83L320,420.81,305.62,422l-5.69-56.35L297,299.71Z"/><path class="cls-12" d="M337.05,319.6l.17-2.05-4.79-.48c.07-2-.88-6.6-2.39-11.33l-.38-7.09,8,11.68c.21,17,.71,49.26,1.58,52.17,1.18,4,3.1,63.07,3.1,63.07s-3.12-.05-4.65,0c-.48-12.23-1.35-41.71-1.9-48.25a161.37,161.37,0,0,0-2.93-18.27l-2.13-40.45Z"/><path class="cls-11" d="M321.78,219.5s9.17,4.89,10.13,5.43,5.26,1.92,5.94,8.66c1.39,13.89-1.26,39.19-1.15,47.07.17,11.7,6.16,21,4.51,36.57l-8.78-.16c.13-3.89-3.53-17.48-7.8-23-7.82-10.16-18.87-25.91-16.42-46.83S321.78,219.5,321.78,219.5Z"/><path class="cls-22" d="M306.21,222.05a4.13,4.13,0,0,1,1.54-3.12,2.81,2.81,0,0,0-1.85.68Z"/><path class="cls-11" d="M301.38,195.05c-.11-.55.64-.69,1.94-.6a7.82,7.82,0,0,1,2.93,1.16,21.08,21.08,0,0,0-3.23-.25C302.11,195.44,301.44,195.4,301.38,195.05Z"/><path class="cls-21" d="M300.68,186.82a3,3,0,0,1,3-2.77c2.32-.09,6.45-.21,8.15-.09,7.61.51,12.2,4.63,13.79,8.81,2.58,6.81-5.07,19.93-5.07,19.93-1.42.73-1-2.86-2.74-5.55s1.29-6.45-.66-7.83c-3.15-2.22-3.47,3.33-4.84,1.83s-.52-3.22-1.74-6.22-4.51-4.4-8.31-5.15A3.72,3.72,0,0,1,300.68,186.82Z"/><path class="cls-12" d="M317.06,346.2l1.66,21.12L320,420.81l-2.74.11c-.65-12.06-2.79-49-3-56.53-.26-8.78-2-49.89-2-49.89l4.66,30.08Z"/><path class="cls-24" d="M317,344.61c-.46-2.5-.83-5-1.23-7.52l-1.16-7.53L313.45,322c-.39-2.51-.81-5-1.24-7.53q.36,3.79.85,7.58c.32,2.52.69,5,1.06,7.55s.8,5,1.28,7.53S316.38,342.15,317,344.61Z"/><path class="cls-12" d="M308.75,243.56a.19.19,0,0,1,0-.08c-.1.53-.18,1.07-.27,1.62C308.57,244.58,308.66,244.06,308.75,243.56Z"/><path class="cls-12" d="M332.12,314A67,67,0,0,0,329,302.74c-.42-1.14-.87-2.25-1.34-3.31s-1-2.06-1.47-3a20.69,20.69,0,0,0-1.57-2.42l-.87-1.15a2.35,2.35,0,0,1-.19-.25c-.25-.33-.51-.66-.76-1a2,2,0,0,1-.17-.23c-7.57-10.17-16.68-25-14.43-44.19-.39,3.29-1.06,6.54-.68,11.19.3,3.59,1,8.24,1.26,9.56.08.29.16.57.25.86,4.63,14.38,7.07,19.25,12.18,25.1s7.56,24.37,7.56,24.37l8.27,1.31.17-2.05-4.79-.48A15.58,15.58,0,0,0,332.12,314Z"/><path class="cls-12" d="M308.21,247.21c.07-.66.16-1.29.25-1.92C308.37,245.92,308.28,246.55,308.21,247.21Z"/><polygon class="cls-26" points="297.82 288.55 334.87 318.92 354.54 293.24 317.01 263.66 297.82 288.55"/><path class="cls-12" d="M324.54,230.57c-2.35,4.88-3.31,12.35,3.2,21.34s9,14,10,17,8-6.89,8-7.65-6.7-17.24-6.7-17.24L328.89,233Z"/><path class="cls-10" d="M321.34,289.79a25.61,25.61,0,0,1-4.8,4.16c-1.14.63-3.57,1.18-5,2.81s-1.35,1.8-1.06,2.12a17.28,17.28,0,0,0-1.57,3.48,1.3,1.3,0,0,0,1.46,1.22s0,.54.73,1.19,1.24.18,1.24.18a1.93,1.93,0,0,0,.75,1.51c.78.57,1.21.32,1.21.32a2.51,2.51,0,0,0,.94,1.42,1.22,1.22,0,0,0,1.37-.22,11.49,11.49,0,0,0,2.63-1.24c1.68-1,4.3-3.36,5-5.12a17.27,17.27,0,0,1,2.18-4.59c.81-.95,1.61-2,1.61-2Z"/><path class="cls-11" d="M330.12,225.11c10.73-1.61,20,27.84,22.92,37.52,3.24,10.8-26.06,34.28-26.06,34.28l-8-6.7s18-21.32,18.4-25.2c.45-4.35-4.47-9.39-8.21-15.95-3.28-5.73-6.32-12.12-4.59-18.49C325.26,227.89,328.4,225.36,330.12,225.11Z"/><path class="cls-21" d="M307.87,215a26.54,26.54,0,0,0,2.53-1.56s-1.69-.38-2.62-.64-4-1.27-4.1-2.24a19.52,19.52,0,0,0-.38-4c-.4-1.26-2.4-1.47-3.76-1.78,0,.57-.19,1.23-.22,1.73,1.18.33,2.95.6,3.1,1.06.21.68.5,3.17.21,3.43s-2,.21-2.37-.34a.89.89,0,0,0-.77-.51,3.73,3.73,0,0,1,.08.41c.06.74-1.2,2.29,0,3.38s5.91.51,8,1.12Z"/><path class="cls-10" d="M237.38,274.67c-1.14.43-2.43.71-2.43,1.05s.1,1,1.1.9a37.37,37.37,0,0,1,4.61-.81c.81.1,1.67.29,1.67.29l.47-.24-1.14-.67-.95-.28-1.86-.24Z"/></g><path class="cls-21" d="M169.35,236.31c.78-.25.88,1.44.4,1.65a33.64,33.64,0,0,1-4,1.5C165.13,239.54,168.93,236.45,169.35,236.31Z"/></svg>