<svg id="Layer_1" data-name="Layer 1" xmlns="http://www.w3.org/2000/svg" viewBox="0 0 1854.3 1400"><defs><style>.cls-1{fill:#f1f2f2;}.cls-2{fill:#bf213e;}.cls-3{fill:#025159;}.cls-4{fill:#fff;}.cls-5{fill:#58595b;}.cls-6{fill:#d1d3d4;}.cls-7{fill:#6ddfff;}.cls-8{fill:#69d4f5;}.cls-9{fill:#404142;}.cls-10{fill:#007491;}.cls-11{fill:#595959;}.cls-12{fill:#f7b690;}.cls-13{fill:#f4a086;}.cls-14{fill:none;}.cls-15{fill:#db8f78;}.cls-16{fill:#e8ac87;}.cls-17{fill:#e0927b;}.cls-18{fill:#e7e8e8;}.cls-19{fill:#4e97c4;}.cls-20{fill:#e6e6e6;}.cls-21{fill:#f0f0f0;}.cls-22{fill:#8c0303;}</style></defs><title>contact</title><path class="cls-1" d="M1578.5,1128.4a86.79,86.79,0,0,1-86.8,86.8H199.4a86.79,86.79,0,0,1-86.8-86.8V1015.1a86.79,86.79,0,0,1,86.8-86.8H1491.7a86.79,86.79,0,0,1,86.8,86.8v113.3Z"/><path class="cls-1" d="M565.7,318c0,129.6-105.1,234.7-234.7,234.7S96.3,447.7,96.3,318,201.3,83.4,331,83.4,565.7,188.4,565.7,318Z"/><path class="cls-1" d="M1105.5,356c0,129.6-105.1,234.7-234.7,234.7S636.1,485.6,636.1,356,741.2,121.3,870.8,121.3,1105.5,226.3,1105.5,356Z"/><path class="cls-1" d="M1609.6,338c0,119.7-97,216.7-216.7,216.7s-216.7-97-216.7-216.7,97-216.7,216.7-216.7S1609.6,218.3,1609.6,338Z"/><path class="cls-1" d="M1826.5,1126.1c0,129.6-105.1,234.7-234.7,234.7s-234.7-105.1-234.7-234.7,105.1-234.7,234.7-234.7S1826.5,996.4,1826.5,1126.1Z"/><path class="cls-2" d="M1147.1,441.9a86.63,86.63,0,0,1-52.3-124.4,87.4,87.4,0,0,1,42.7-38.7l6.7-2.9-2.6-6.9a309.13,309.13,0,0,0-39.8-71.9l-4.5-6-6.1,4.4a86,86,0,0,1-26.6,13.2A86.74,86.74,0,0,1,957,101.1l2.1-7.1L952,91.8a302.91,302.91,0,0,0-80.7-13.4l-7.4-.2-.4,7.4a88.47,88.47,0,0,1-10.4,36.9,86,86,0,0,1-51.8,41.9,86.89,86.89,0,0,1-94.8-32.7l-4.3-6-6.1,4.1A306.47,306.47,0,0,0,636,184.2l-4.8,5.7,5.7,4.9a87,87,0,0,1,26.6,41.3,86.78,86.78,0,0,1-58.8,107.6,88.3,88.3,0,0,1-30.3,3.3l-7.5-.5-.5,7.5a307.28,307.28,0,0,0,5.2,82.3l1.5,7.2,7.3-1.3a86.62,86.62,0,0,1,80.1,142.4l-4.8,5.5,5.4,5a301.06,301.06,0,0,0,66.2,46.3l6.5,3.4,3.6-6.4a86.76,86.76,0,0,1,51.5-41.3c45.8-13.5,94.2,12.9,107.8,58.8q1.2,4.5,2.1,9.3l1.3,7.3,7.3-1.1a317.86,317.86,0,0,0,40.3-8.8,298,298,0,0,0,38.7-14.4l6.7-3-2.8-6.8a79.63,79.63,0,0,1-3.3-9,86.78,86.78,0,0,1,58.8-107.6,84.79,84.79,0,0,1,65.6,7l6.5,3.5,3.7-6.4a301.07,301.07,0,0,0,30.8-74.8l1.9-7.2ZM977,440.2a127.61,127.61,0,1,1-51.4-173A127.56,127.56,0,0,1,977,440.2Z"/><path class="cls-3" d="M1566,398.6a59.21,59.21,0,0,1-35.7-85,59.58,59.58,0,0,1,29.2-26.4l4.6-1.9-1.8-4.7a209.26,209.26,0,0,0-27.2-49.1l-3.1-4.1-4.2,3a58.4,58.4,0,0,1-18.2,9,59.36,59.36,0,0,1-73.5-40.2,60.78,60.78,0,0,1,0-33.3l1.4-4.8-4.8-1.5a207.11,207.11,0,0,0-55.2-9.2l-5-.1-.3,5.1a60.34,60.34,0,0,1-7.1,25.2,58.75,58.75,0,0,1-35.4,28.6,59.53,59.53,0,0,1-64.8-22.3l-2.9-4.1-4.2,2.8a198.23,198.23,0,0,0-41.1,37.1l-3.3,3.9,3.9,3.3a59.29,59.29,0,0,1,18.2,28.2,59.28,59.28,0,0,1-40.2,73.5,62.78,62.78,0,0,1-20.7,2.3l-5.1-.3-.3,5.1a207.84,207.84,0,0,0,3.5,56.2l1,4.9,5-.9a59.05,59.05,0,0,1,62.2,86.5,57.86,57.86,0,0,1-7.5,10.8l-3.3,3.8,3.7,3.4A201.21,201.21,0,0,0,1279,535l4.5,2.3,2.4-4.4a59.31,59.31,0,0,1,108.8,12c.6,2.1,1,4.2,1.4,6.4l.8,5,5-.8a202.46,202.46,0,0,0,54-15.8l4.6-2-1.9-4.7c-.8-1.9-1.6-4-2.3-6.2a59.07,59.07,0,0,1,4.8-44.9,59.1,59.1,0,0,1,80.2-23.8l4.4,2.4,2.5-4.4a207.21,207.21,0,0,0,21.1-51.1l1.3-4.9Zm-124.1-5.4a78.26,78.26,0,1,1-31.5-106.1A78.26,78.26,0,0,1,1441.9,393.2Z"/><path class="cls-4" d="M1373,457.4a100.72,100.72,0,0,1-48.2-12.3c-49.1-26.6-67.5-88.3-40.9-137.4a101.21,101.21,0,0,1,137.4-40.8c49.1,26.6,67.5,88.3,40.9,137.4A101.37,101.37,0,0,1,1373,457.4Zm.2-199.2a97.75,97.75,0,1,0,46.6,11.8A99.2,99.2,0,0,0,1373.2,258.2Z"/><path class="cls-4" d="M1490.4,419.5l-3.2-1.7a128.59,128.59,0,0,0,14-82.5l3.6-.6A131.5,131.5,0,0,1,1490.4,419.5Z"/><path class="cls-4" d="M1485.6,291.1a128.55,128.55,0,0,0-50.7-49.3l1.7-3.2a133,133,0,0,1,52.1,50.7Z"/><path class="cls-4" d="M864.7,540.7A161.29,161.29,0,0,1,788,521.2c-78.2-42.4-107.3-140.5-65-218.6a161.27,161.27,0,0,1,218.7-65c78.2,42.4,107.3,140.4,65,218.6A161.3,161.3,0,0,1,864.7,540.7Zm.3-318.9a157.6,157.6,0,0,0-138.8,82.6c-41.4,76.4-12.9,172.3,63.5,213.7a157.68,157.68,0,0,0,213.7-63.6c41.4-76.4,12.9-172.3-63.5-213.7A158.41,158.41,0,0,0,865,221.8Z"/><path class="cls-4" d="M957.4,208.5A193.84,193.84,0,0,0,823,189.6l-.8-3.5a198.1,198.1,0,0,1,136.9,19.3Z"/><path class="cls-4" d="M693.9,286.8l-3.2-1.7a197.75,197.75,0,0,1,75.8-77.6l1.8,3.1A194.66,194.66,0,0,0,693.9,286.8Z"/><path class="cls-4" d="M896.1,575l-.6-3.6a193.49,193.49,0,0,0,140.2-99.3l3.2,1.7A197,197,0,0,1,896.1,575Z"/><path class="cls-5" d="M1249.7,978.7V436.2c0-33.6-27.5-60.8-61.5-60.8H297.8c-34,0-61.5,27.2-61.5,60.8V978.7Z"/><path class="cls-6" d="M192.8,1070H1293.2a61.57,61.57,0,0,0,44.9-19.4H147.9A61.41,61.41,0,0,0,192.8,1070Z"/><path class="cls-4" d="M1354.6,978.7H131.4v30.4a60.26,60.26,0,0,0,16.6,41.5H1338.2a60.53,60.53,0,0,0,16.6-41.5V978.7Z"/><rect class="cls-6" x="605.8" y="978.7" width="274.4" height="23.7"/><polygon class="cls-7" points="287.4 430.3 287.4 940.7 540.1 940.7 964.7 430.3 287.4 430.3"/><polygon class="cls-8" points="1198.6 430.3 964.7 430.3 540.1 940.7 1198.6 940.7 1198.6 430.3"/><path class="cls-5" d="M1730.3,460.9a18.1,18.1,0,0,0-18.1-18.1H1471a18.1,18.1,0,0,0-18.1,18.1v34h277.4Z"/><rect class="cls-7" x="1452.9" y="494.9" width="277.4" height="360.6"/><path class="cls-5" d="M1452.9,855.5v54.7a18.1,18.1,0,0,0,18.1,18.1h241.2a18.1,18.1,0,0,0,18.1-18.1V855.5Z"/><path class="cls-9" d="M1635.4,886.9a11.61,11.61,0,0,1-11.6,11.6h-64.5a11.61,11.61,0,0,1-11.6-11.6h0a11.61,11.61,0,0,1,11.6-11.6h64.5a11.61,11.61,0,0,1,11.6,11.6Z"/><polygon class="cls-10" points="833.4 734.3 364.6 430.3 287.4 430.3 287.4 628.8 721.6 910.4 833.4 734.3"/><polygon class="cls-11" points="1566.3 494.9 1188.4 734.3 1300.2 910.4 1730.3 637.9 1730.3 494.9 1566.3 494.9"/><path class="cls-12" d="M1177,786.7c-45.2,40-87.8,6.5-87.8,6.5-63.8-36.2-101.3,2.4-101.3,2.4l-99,94.1a32.5,32.5,0,0,0,22.4,56,31.38,31.38,0,0,0,10.9-2l228.1,62.8L1246.4,896Z"/><path class="cls-13" d="M1168.5,989.4,1023.7,851.1l-12.4-69.3c-17.3-6-43.9-8-77.9,11.3,0,0-42.6,33.5-87.8-6.5L776.2,896l105.7,121.6,32.8,48.7c1.3,3.1,96.1,8.3,98.6,10.7l38.4,5.1,16.1,15.7a24.45,24.45,0,0,0,17.1,6.8,24.75,24.75,0,0,0,17.1-42.7l1.4,1.3a24.45,24.45,0,0,0,17.1,6.8,24.71,24.71,0,0,0,18.2-41.5,24.3,24.3,0,0,0,12.8,3.6,24.7,24.7,0,0,0,17-42.7Z"/><polygon class="cls-4" points="765 913.6 732.6 893 822.2 751.8 854.7 772.4 765 913.6"/><path class="cls-4" d="M1032.6,842.7l-99,94.1a32.39,32.39,0,0,1-45.8-1.2,32.51,32.51,0,0,1,1.1-45.9l99-94.1s12-10.7,23.4-13.7"/><path class="cls-12" d="M1032.6,842.7l-99,94.1a32.39,32.39,0,0,1-45.8-1.2,32.51,32.51,0,0,1,1.1-45.9l99-94.1s12-10.7,23.4-13.7"/><path class="cls-14" d="M1023.7,851.2l144.8,138.3a24.75,24.75,0,0,1-17.1,42.7,25.08,25.08,0,0,1-17.1-6.8l-75.6-71.9"/><path class="cls-14" d="M1027.4,991.4l75.6,71.9a24.45,24.45,0,0,0,17.1,6.8,24.75,24.75,0,0,0,17.1-42.7l-78.4-73.9"/><path class="cls-12" d="M1009.9,789a97.56,97.56,0,0,1,12.4-3.7l5.2,39-11.3-14.1Z"/><path class="cls-4" d="M764.9,744.6A21.9,21.9,0,1,1,743,722.7,21.89,21.89,0,0,1,764.9,744.6Z"/><polygon class="cls-4" points="1256.8 913.6 1289.2 893 1199.6 751.8 1167.1 772.4 1256.8 913.6"/><path class="cls-4" d="M1256.9,744.6a21.9,21.9,0,1,0,21.9-21.9A21.89,21.89,0,0,0,1256.9,744.6Z"/><polygon class="cls-15" points="1138.6 1028.6 1058.8 953.5 1061.4 950.1 1147.5 1031.7 1138.6 1028.6"/><polygon class="cls-15" points="1107 1066.5 1027.1 991.4 1029.7 988.1 1115.8 1069.7 1107 1066.5"/><polygon class="cls-15" points="1071.7 1101.5 991.9 1026.4 994.5 1023.1 1080.6 1104.7 1071.7 1101.5"/><polygon class="cls-16" points="1237.3 906.5 1245.9 896.5 1176.2 787.4 1165.8 795.2 1237.3 906.5"/><polygon class="cls-17" points="776.2 896 783.7 904.7 854.7 793.8 845.6 786.7 776.2 896"/><polygon class="cls-17" points="929.5 940.3 1032.6 859.7 1023.7 851.7 929.5 940.3"/><polygon class="cls-16" points="1166.4 988.1 1023.7 851.7 1032.6 842.7 1166.4 988.1"/><path class="cls-15" d="M1065.8,1092.9a24.76,24.76,0,1,0-34.1-35.9l-17.6,17.5a24.77,24.77,0,0,0-36.5-33.3l-14.7,14.7a24.74,24.74,0,0,0-37.8-31.4l-13.2,12.7a24.77,24.77,0,0,0-36.5-33.3L854.6,1024l205.2,66,4.8,4.4Z"/><path class="cls-12" d="M845.9,1085.6a24.75,24.75,0,0,1-17.1-42.7l40.4-38.9a24.76,24.76,0,0,1,34.1,35.9l-40.4,38.9A24.84,24.84,0,0,1,845.9,1085.6Z"/><path class="cls-12" d="M895.6,1106.1a24.75,24.75,0,0,1-17.1-42.7l40.4-38.9a24.76,24.76,0,1,1,34.1,35.9l-40.4,38.9A24.66,24.66,0,0,1,895.6,1106.1Z"/><path class="cls-12" d="M955.6,1116.9a24.75,24.75,0,0,1-17.1-42.7l32.9-33a24.76,24.76,0,0,1,34.1,35.9l-32.9,33A24,24,0,0,1,955.6,1116.9Z"/><path class="cls-12" d="M1012.4,1129.8a24.75,24.75,0,0,1-17.1-42.7l30.3-30.1a24.76,24.76,0,1,1,34.1,35.9l-30.3,30.1A24.66,24.66,0,0,1,1012.4,1129.8Z"/><path class="cls-18" d="M1546.7,1024.1a102.61,102.61,0,0,1,57.9,29.1l90.2,90.2a103,103,0,0,1-57.9,174.8,103,103,0,0,0,87.8-174.8l-90.2-90.2A103,103,0,0,0,1546.7,1024.1Z"/><path class="cls-4" d="M1694.8,1143.4l-90.2-90.2a102.61,102.61,0,0,0-57.9-29.1,103,103,0,0,0-57.9,174.8l90.2,90.2a102.65,102.65,0,0,0,57.8,29.1,103.1,103.1,0,0,0,58-174.8Z"/><polygon class="cls-1" points="1637.3 1056 1491.7 1201.7 1486.1 1196.1 1631.8 1050.5 1637.3 1056"/><path class="cls-1" d="M1574.2,1117.8a14.79,14.79,0,0,1,0,20.8h0a14.79,14.79,0,0,1-20.8,0l-34.1-34.1a14.79,14.79,0,0,1,0-20.8h0a14.79,14.79,0,0,1,20.8,0Z"/><path class="cls-19" d="M291.3,1294.7a169.77,169.77,0,0,1-42.2-5.5,5.42,5.42,0,0,1,2.7-10.5,151.57,151.57,0,0,0,62.3,3.3,5.42,5.42,0,1,1,1.7,10.7A151.88,151.88,0,0,1,291.3,1294.7Zm88.8-31.4a5.86,5.86,0,0,1-4.2-1.9,5.39,5.39,0,0,1,.7-7.6,136.22,136.22,0,0,0,23.2-25.2,117.84,117.84,0,0,0,13.4-24.6,5.45,5.45,0,0,1,10.1,4.1,127.13,127.13,0,0,1-14.6,26.8,145.45,145.45,0,0,1-25.1,27.3A6.3,6.3,0,0,1,380.1,1263.3ZM186.4,1257a5.43,5.43,0,0,1-3.4-1.2,171.55,171.55,0,0,1-25.3-25.1c-6.3-8.2-12.2-16.8-17.8-25.6a5.44,5.44,0,0,1,9.2-5.8c5.4,8.6,11.2,16.9,17.1,24.7a168.48,168.48,0,0,0,23.6,23.4,5.41,5.41,0,0,1,.8,7.6A5.61,5.61,0,0,1,186.4,1257Zm-74.5-113.9a5.3,5.3,0,0,1-5-3.4,468.84,468.84,0,0,1-19.8-62.8,5.4,5.4,0,0,1,10.5-2.5,460.88,460.88,0,0,0,19.3,61.3,5.43,5.43,0,0,1-3,7A4.48,4.48,0,0,1,111.9,1143.1Zm317.7-2.7a5.38,5.38,0,0,1-5.4-5.4v-65.1a5.4,5.4,0,1,1,10.8,0V1135A5.38,5.38,0,0,1,429.6,1140.4Zm-349-130.7a5.43,5.43,0,0,1-5.4-4.9c-1.6-16.9-2.4-34.1-2.4-51.2,0-4.8.1-9.6.2-14.5a5.4,5.4,0,0,1,5.6-5.3,5.46,5.46,0,0,1,5.3,5.6c-.1,4.7-.2,9.5-.2,14.2,0,16.8.8,33.7,2.4,50.2a5.4,5.4,0,0,1-4.9,5.9ZM85,872.6a2.77,2.77,0,0,1-.9-.1,5.41,5.41,0,0,1-4.5-6.2,551.55,551.55,0,0,1,14.1-64.2,5.41,5.41,0,0,1,10.4,3A555,555,0,0,0,90.2,868,5.06,5.06,0,0,1,85,872.6ZM123.5,741a4.42,4.42,0,0,1-2.2-.5,5.43,5.43,0,0,1-2.8-7.1,520.5,520.5,0,0,1,30.1-58.5,5.4,5.4,0,1,1,9.3,5.5,498.11,498.11,0,0,0-29.5,57.2A5.13,5.13,0,0,1,123.5,741Zm428.4-36.5h-.2c-23.7-.8-45.7-4.7-65.4-11.7a5.41,5.41,0,1,1,3.6-10.2c18.7,6.6,39.6,10.3,62.2,11.1a5.4,5.4,0,0,1-.2,10.8Zm69.2-17a5.32,5.32,0,0,1-4.6-2.6,5.49,5.49,0,0,1,1.8-7.5c17.3-10.5,31.5-26.2,41.2-45.3a5.43,5.43,0,0,1,9.7,4.9,123.17,123.17,0,0,1-45.3,49.7A4.79,4.79,0,0,1,621.1,687.5Zm-194-32.2a5.54,5.54,0,0,1-3.8-1.5c-15.2-14.9-28.2-33.1-38.6-54.2a5.46,5.46,0,1,1,9.8-4.8c9.9,20,22.1,37.2,36.5,51.3a5.49,5.49,0,0,1,.1,7.7A6.23,6.23,0,0,1,427.1,655.3ZM194.8,624a5.4,5.4,0,0,1-4.2-8.8A521.71,521.71,0,0,1,235.3,567a5.45,5.45,0,0,1,7.5,7.9A488.6,488.6,0,0,0,199,622.1,5.69,5.69,0,0,1,194.8,624Zm484.3-54a5.4,5.4,0,0,1-5.4-5.2A132.28,132.28,0,0,0,657,505.2a5.42,5.42,0,0,1,9.4-5.4,143.07,143.07,0,0,1,18.2,64.6,5.53,5.53,0,0,1-5.2,5.7A.37.37,0,0,0,679.1,570ZM366.8,534.1a5.45,5.45,0,0,1-5.3-4.3c-.9-4.3-1.7-8.7-2.4-13.1-1.5-8.1-3.1-16-4.8-23.9a5.16,5.16,0,0,1-1.8,1.8c-4.7,2.9-9.4,5.9-14.1,8.9q-21,12.3-40.4,26a5.54,5.54,0,0,1-7.6-1.3,5.47,5.47,0,0,1,1.3-7.6c13.1-9.3,26.9-18.2,41-26.4,4.5-2.9,9.3-6,14.1-8.9a5.68,5.68,0,0,1,5.9.1q-2.1-9.75-4.5-19.2a5.46,5.46,0,1,1,10.6-2.6c4,16.3,7.7,33.5,11,51.2.7,4.4,1.5,8.6,2.4,12.8A5.45,5.45,0,0,1,368,534,5.28,5.28,0,0,1,366.8,534.1Zm46.9-72.4a5.43,5.43,0,0,1-2.2-10.4c21.7-9.3,42.9-16.1,63.1-20a5.45,5.45,0,1,1,2.1,10.7c-19.4,3.8-39.8,10.3-60.8,19.3A6,6,0,0,1,413.7,461.7Zm195.6-1.9a5,5,0,0,1-2.4-.6l-2-1a193,193,0,0,0-58-18.4,5.46,5.46,0,0,1,1.6-10.8,204.5,204.5,0,0,1,61.3,19.4l2,1a5.38,5.38,0,0,1,2.4,7.3A5.45,5.45,0,0,1,609.3,459.8ZM332.8,401.1a5.53,5.53,0,0,1-5.1-3.5c-8.9-24.2-18.3-43.4-28-57a5.45,5.45,0,0,1,8.9-6.3c10.2,14.4,20.1,34.5,29.3,59.5a5.52,5.52,0,0,1-3.2,7A6.28,6.28,0,0,1,332.8,401.1Z"/><polygon class="cls-4" points="439.6 229.2 129.6 59.5 335.6 288.8 439.6 229.2"/><polygon class="cls-20" points="129.6 59.5 289.5 315.2 322.6 368.2 335.6 288.8 129.6 59.5"/><polygon class="cls-21" points="289.5 315.2 129.6 59.5 254.1 335.5 322.6 368.2 289.5 315.2"/><polygon class="cls-4" points="129.6 59.5 168.8 384.4 254.1 335.5 254.1 335.5 129.6 59.5"/><polygon class="cls-22" points="736.1 949.1 651.8 962.8 669.1 980.3 533.2 1116.2 461.7 1044.8 289.8 1131.7 312.7 1176.9 451.9 1106.5 533.2 1187.9 704.6 1016.5 721.3 1033.4 736.1 949.1"/><path class="cls-2" d="M350.1,1163.3a65.5,65.5,0,1,1-65.5-65.5A65.47,65.47,0,0,1,350.1,1163.3Z"/><path class="cls-4" d="M317.5,1163.3a33,33,0,1,1-33-32.9A33,33,0,0,1,317.5,1163.3Z"/><rect class="cls-1" x="626" y="1201.7" width="117" height="78.6"/><rect class="cls-1" x="795.8" y="1201.7" width="117" height="78.6"/><rect class="cls-1" x="960.1" y="1201.7" width="259.3" height="78.6"/></svg>