<svg id="Layer_1" data-name="Layer 1" xmlns="http://www.w3.org/2000/svg" viewBox="0 0 1400 1400"><defs><style>.cls-1{fill:#848ab9;}.cls-2{fill:#72739d;}.cls-3{fill:#c1d6ef;}.cls-4{fill:#dbc8d2;}.cls-5{fill:#1f2354;}.cls-6{fill:#22356b;}.cls-7{fill:#324085;}.cls-8{fill:#252a61;}.cls-9{fill:#5a73b8;}.cls-10{fill:#cfdb39;}.cls-11{fill:#7e8fbc;}.cls-12{fill:#515870;}.cls-13{fill:#f5eef6;}.cls-14{fill:#d96a38;}.cls-15{fill:#f68c62;}.cls-16{fill:#e67c50;}.cls-17{fill:#363137;}.cls-18{fill:#3c4256;}.cls-19{fill:#fff;}.cls-20{fill:#eed9e1;}.cls-21{fill:#f58a68;}.cls-22{fill:#0d0d0d;}.cls-23{fill:#025159;}</style></defs><title>hosting</title><ellipse class="cls-1" cx="717.3" cy="1219.4" rx="615.1" ry="47.4"/><ellipse class="cls-2" cx="383.1" cy="1212" rx="240.4" ry="19.7"/><ellipse class="cls-2" cx="884.4" cy="1212" rx="361.9" ry="29.6"/><path class="cls-3" d="M1312.2,526.8h-335c-24.6,0-45.2-19.5-45.6-44.1a44.84,44.84,0,0,1,44.8-45.6h251.8c24.6,0,45.2-19.5,45.6-44.1a44.84,44.84,0,0,0-44.8-45.6h-60.3c-24.6,0-45.2-19.5-45.6-44.1a44.84,44.84,0,0,1,44.8-45.6h151.7c24.8-.6,44.8-20.7,44.8-45.4h0a44.79,44.79,0,0,0-44.8-44.8H262.1a44.79,44.79,0,0,0-44.8,44.8h0c0,24.8,20.1,44.8,44.8,45.4H463.5c24.6,0,45.2,19.5,45.6,44.1a44.84,44.84,0,0,1-44.8,45.6H81.2c-24.6,0-45.2,19.5-45.6,44.1a44.84,44.84,0,0,0,44.8,45.6H587.6c24.6,0,45.2,19.5,45.6,44.1a44.84,44.84,0,0,1-44.8,45.6H236.1c-24.6,0-45.2,19.5-45.6,44.1a44.84,44.84,0,0,0,44.8,45.6H421c24.9,0,45.6,19.9,45.6,44.8v1.6c-.5,15.5-13.6,27.6-29.1,27.6H265a44.79,44.79,0,0,0-44.8,44.8h0A44.79,44.79,0,0,0,265,780.1h832.3a44.79,44.79,0,0,0,44.8-44.8h0a44.79,44.79,0,0,0-44.8-44.8H794.1A29,29,0,0,1,765,662.9v-1.6c0-24.9,20.7-44.8,45.6-44.8h500.9c24.6,0,45.2-19.5,45.6-44.1A45,45,0,0,0,1312.2,526.8Z"/><path class="cls-4" d="M517.1,864.4a259.49,259.49,0,0,1-144-43.5,21.54,21.54,0,0,1,24.1-35.7,216,216,0,0,0,182,26.9,21.48,21.48,0,0,1,12.8,41A251.77,251.77,0,0,1,517.1,864.4Z"/><rect class="cls-5" x="805.9" y="1155.1" width="400.2" height="47"/><path class="cls-6" d="M1202.3,1155.1H786.6a66.75,66.75,0,0,1-66.7-66.7V382.8a66.75,66.75,0,0,1,66.7-66.7h415.7a66.75,66.75,0,0,1,66.7,66.7v705.6A66.68,66.68,0,0,1,1202.3,1155.1Z"/><path class="cls-7" d="M989.8,1155.1H574.1a66.75,66.75,0,0,1-66.7-66.7V382.8a66.75,66.75,0,0,1,66.7-66.7H989.8a66.75,66.75,0,0,1,66.7,66.7v705.6A66.68,66.68,0,0,1,989.8,1155.1Z"/><path class="cls-5" d="M574.1,1129.1a40.8,40.8,0,0,1-40.7-40.7V382.8a40.8,40.8,0,0,1,40.7-40.7H989.8a40.8,40.8,0,0,1,40.7,40.7v705.6a40.8,40.8,0,0,1-40.7,40.7Z"/><rect class="cls-8" x="581.9" y="1155.1" width="400.2" height="47"/><rect class="cls-9" x="577.6" y="390.3" width="408.7" height="73.9"/><path class="cls-10" d="M802.3,406.4H604.2a8.6,8.6,0,0,0,0,17.2H802.4A8.6,8.6,0,0,0,811,415,8.75,8.75,0,0,0,802.3,406.4Z"/><path class="cls-10" d="M802.3,430.9H604.2a8.6,8.6,0,0,0,0,17.2H802.4a8.6,8.6,0,0,0,8.6-8.6A8.75,8.75,0,0,0,802.3,430.9Z"/><path class="cls-6" d="M850.6,409.8h-9.2v2.6a17.52,17.52,0,0,0,0,29.8v2.6h9.2a17.5,17.5,0,0,0,0-35Z"/><circle class="cls-7" cx="841.4" cy="427.3" r="17.5"/><rect class="cls-10" x="875.5" y="406.4" width="7.2" height="17.2"/><rect class="cls-10" x="885.7" y="406.4" width="7.2" height="17.2"/><rect class="cls-10" x="896" y="406.4" width="7.2" height="17.2"/><rect class="cls-10" x="906.2" y="406.4" width="7.2" height="17.2"/><rect class="cls-10" x="916.5" y="406.4" width="7.2" height="17.2"/><rect class="cls-10" x="926.7" y="406.4" width="7.2" height="17.2"/><rect class="cls-10" x="937" y="406.4" width="7.2" height="17.2"/><rect class="cls-10" x="947.2" y="406.4" width="7.2" height="17.2"/><rect class="cls-10" x="957.5" y="406.4" width="7.2" height="17.2"/><rect class="cls-10" x="967.7" y="406.4" width="7.2" height="17.2"/><rect class="cls-10" x="875.5" y="430.9" width="7.2" height="17.2"/><rect class="cls-10" x="885.7" y="430.9" width="7.2" height="17.2"/><rect class="cls-10" x="896" y="430.9" width="7.2" height="17.2"/><rect class="cls-10" x="906.2" y="430.9" width="7.2" height="17.2"/><rect class="cls-10" x="916.5" y="430.9" width="7.2" height="17.2"/><rect class="cls-10" x="926.7" y="430.9" width="7.2" height="17.2"/><rect class="cls-10" x="937" y="430.9" width="7.2" height="17.2"/><rect class="cls-10" x="947.2" y="430.9" width="7.2" height="17.2"/><rect class="cls-10" x="957.5" y="430.9" width="7.2" height="17.2"/><rect class="cls-10" x="967.7" y="430.9" width="7.2" height="17.2"/><rect class="cls-9" x="577.6" y="490.3" width="408.7" height="73.9"/><path class="cls-10" d="M802.3,506.4H604.2a8.6,8.6,0,0,0,0,17.2H802.4A8.6,8.6,0,0,0,811,515,8.75,8.75,0,0,0,802.3,506.4Z"/><path class="cls-10" d="M802.3,530.9H604.2a8.6,8.6,0,0,0,0,17.2H802.4a8.6,8.6,0,0,0,8.6-8.6A8.75,8.75,0,0,0,802.3,530.9Z"/><path class="cls-6" d="M850.6,509.8h-9.2v2.6a17.52,17.52,0,0,0,0,29.8v2.6h9.2a17.5,17.5,0,1,0,0-35Z"/><circle class="cls-7" cx="841.4" cy="527.3" r="17.5"/><rect class="cls-10" x="875.5" y="506.4" width="7.2" height="17.2"/><rect class="cls-10" x="885.7" y="506.4" width="7.2" height="17.2"/><rect class="cls-10" x="896" y="506.4" width="7.2" height="17.2"/><rect class="cls-10" x="906.2" y="506.4" width="7.2" height="17.2"/><rect class="cls-10" x="916.5" y="506.4" width="7.2" height="17.2"/><rect class="cls-10" x="926.7" y="506.4" width="7.2" height="17.2"/><rect class="cls-10" x="937" y="506.4" width="7.2" height="17.2"/><rect class="cls-10" x="947.2" y="506.4" width="7.2" height="17.2"/><rect class="cls-10" x="957.5" y="506.4" width="7.2" height="17.2"/><rect class="cls-10" x="967.7" y="506.4" width="7.2" height="17.2"/><rect class="cls-10" x="875.5" y="530.9" width="7.2" height="17.2"/><rect class="cls-10" x="885.7" y="530.9" width="7.2" height="17.2"/><rect class="cls-10" x="896" y="530.9" width="7.2" height="17.2"/><rect class="cls-10" x="906.2" y="530.9" width="7.2" height="17.2"/><rect class="cls-10" x="916.5" y="530.9" width="7.2" height="17.2"/><rect class="cls-10" x="926.7" y="530.9" width="7.2" height="17.2"/><rect class="cls-10" x="937" y="530.9" width="7.2" height="17.2"/><rect class="cls-10" x="947.2" y="530.9" width="7.2" height="17.2"/><rect class="cls-10" x="957.5" y="530.9" width="7.2" height="17.2"/><rect class="cls-10" x="967.7" y="530.9" width="7.2" height="17.2"/><rect class="cls-9" x="577.6" y="590.3" width="408.7" height="73.9"/><path class="cls-10" d="M802.3,606.4H604.2a8.6,8.6,0,0,0,0,17.2H802.4A8.6,8.6,0,0,0,811,615,8.75,8.75,0,0,0,802.3,606.4Z"/><path class="cls-10" d="M802.3,630.9H604.2a8.6,8.6,0,0,0,0,17.2H802.4a8.6,8.6,0,0,0,8.6-8.6A8.75,8.75,0,0,0,802.3,630.9Z"/><path class="cls-6" d="M850.6,609.8h-9.2v2.6a17.52,17.52,0,0,0,0,29.8v2.6h9.2a17.5,17.5,0,1,0,0-35Z"/><circle class="cls-7" cx="841.4" cy="627.3" r="17.5"/><rect class="cls-10" x="875.5" y="606.4" width="7.2" height="17.2"/><rect class="cls-10" x="885.7" y="606.4" width="7.2" height="17.2"/><rect class="cls-10" x="896" y="606.4" width="7.2" height="17.2"/><rect class="cls-10" x="906.2" y="606.4" width="7.2" height="17.2"/><rect class="cls-10" x="916.5" y="606.4" width="7.2" height="17.2"/><rect class="cls-10" x="926.7" y="606.4" width="7.2" height="17.2"/><rect class="cls-10" x="937" y="606.4" width="7.2" height="17.2"/><rect class="cls-10" x="947.2" y="606.4" width="7.2" height="17.2"/><rect class="cls-10" x="957.5" y="606.4" width="7.2" height="17.2"/><rect class="cls-10" x="967.7" y="606.4" width="7.2" height="17.2"/><rect class="cls-10" x="875.5" y="630.9" width="7.2" height="17.2"/><rect class="cls-10" x="885.7" y="630.9" width="7.2" height="17.2"/><rect class="cls-10" x="896" y="630.9" width="7.2" height="17.2"/><rect class="cls-10" x="906.2" y="630.9" width="7.2" height="17.2"/><rect class="cls-10" x="916.5" y="630.9" width="7.2" height="17.2"/><rect class="cls-10" x="926.7" y="630.9" width="7.2" height="17.2"/><rect class="cls-10" x="937" y="630.9" width="7.2" height="17.2"/><rect class="cls-10" x="947.2" y="630.9" width="7.2" height="17.2"/><rect class="cls-10" x="957.5" y="630.9" width="7.2" height="17.2"/><rect class="cls-10" x="967.7" y="630.9" width="7.2" height="17.2"/><rect class="cls-9" x="577.6" y="690.3" width="408.7" height="73.9"/><path class="cls-10" d="M802.3,706.4H604.2a8.6,8.6,0,0,0,0,17.2H802.4A8.6,8.6,0,0,0,811,715,8.75,8.75,0,0,0,802.3,706.4Z"/><path class="cls-10" d="M802.3,730.9H604.2a8.6,8.6,0,0,0,0,17.2H802.4a8.6,8.6,0,0,0,8.6-8.6A8.75,8.75,0,0,0,802.3,730.9Z"/><path class="cls-6" d="M850.6,709.8h-9.2v2.6a17.52,17.52,0,0,0,0,29.8v2.6h9.2a17.5,17.5,0,1,0,0-35Z"/><circle class="cls-7" cx="841.4" cy="727.3" r="17.5"/><rect class="cls-10" x="875.5" y="706.4" width="7.2" height="17.2"/><rect class="cls-10" x="885.7" y="706.4" width="7.2" height="17.2"/><rect class="cls-10" x="896" y="706.4" width="7.2" height="17.2"/><rect class="cls-10" x="906.2" y="706.4" width="7.2" height="17.2"/><rect class="cls-10" x="916.5" y="706.4" width="7.2" height="17.2"/><rect class="cls-10" x="926.7" y="706.4" width="7.2" height="17.2"/><rect class="cls-10" x="937" y="706.4" width="7.2" height="17.2"/><rect class="cls-10" x="947.2" y="706.4" width="7.2" height="17.2"/><rect class="cls-10" x="957.5" y="706.4" width="7.2" height="17.2"/><rect class="cls-10" x="967.7" y="706.4" width="7.2" height="17.2"/><rect class="cls-10" x="875.5" y="730.9" width="7.2" height="17.2"/><rect class="cls-10" x="885.7" y="730.9" width="7.2" height="17.2"/><rect class="cls-10" x="896" y="730.9" width="7.2" height="17.2"/><rect class="cls-10" x="906.2" y="730.9" width="7.2" height="17.2"/><rect class="cls-10" x="916.5" y="730.9" width="7.2" height="17.2"/><rect class="cls-10" x="926.7" y="730.9" width="7.2" height="17.2"/><rect class="cls-10" x="937" y="730.9" width="7.2" height="17.2"/><rect class="cls-10" x="947.2" y="730.9" width="7.2" height="17.2"/><rect class="cls-10" x="957.5" y="730.9" width="7.2" height="17.2"/><rect class="cls-10" x="967.7" y="730.9" width="7.2" height="17.2"/><rect class="cls-9" x="577.6" y="790.3" width="408.7" height="73.9"/><path class="cls-10" d="M802.3,806.4H604.2a8.6,8.6,0,0,0,0,17.2H802.4A8.6,8.6,0,0,0,811,815,8.75,8.75,0,0,0,802.3,806.4Z"/><path class="cls-10" d="M802.3,830.9H604.2a8.6,8.6,0,0,0,0,17.2H802.4a8.6,8.6,0,0,0,8.6-8.6A8.75,8.75,0,0,0,802.3,830.9Z"/><path class="cls-6" d="M850.6,809.8h-9.2v2.6a17.52,17.52,0,0,0,0,29.8v2.6h9.2a17.5,17.5,0,1,0,0-35Z"/><circle class="cls-7" cx="841.4" cy="827.3" r="17.5"/><rect class="cls-10" x="875.5" y="806.4" width="7.2" height="17.2"/><rect class="cls-10" x="885.7" y="806.4" width="7.2" height="17.2"/><rect class="cls-10" x="896" y="806.4" width="7.2" height="17.2"/><rect class="cls-10" x="906.2" y="806.4" width="7.2" height="17.2"/><rect class="cls-10" x="916.5" y="806.4" width="7.2" height="17.2"/><rect class="cls-10" x="926.7" y="806.4" width="7.2" height="17.2"/><rect class="cls-10" x="937" y="806.4" width="7.2" height="17.2"/><rect class="cls-10" x="947.2" y="806.4" width="7.2" height="17.2"/><rect class="cls-10" x="957.5" y="806.4" width="7.2" height="17.2"/><rect class="cls-10" x="967.7" y="806.4" width="7.2" height="17.2"/><rect class="cls-10" x="875.5" y="830.9" width="7.2" height="17.2"/><rect class="cls-10" x="885.7" y="830.9" width="7.2" height="17.2"/><rect class="cls-10" x="896" y="830.9" width="7.2" height="17.2"/><rect class="cls-10" x="906.2" y="830.9" width="7.2" height="17.2"/><rect class="cls-10" x="916.5" y="830.9" width="7.2" height="17.2"/><rect class="cls-10" x="926.7" y="830.9" width="7.2" height="17.2"/><rect class="cls-10" x="937" y="830.9" width="7.2" height="17.2"/><rect class="cls-10" x="947.2" y="830.9" width="7.2" height="17.2"/><rect class="cls-10" x="957.5" y="830.9" width="7.2" height="17.2"/><rect class="cls-10" x="967.7" y="830.9" width="7.2" height="17.2"/><rect class="cls-9" x="577.6" y="894.3" width="408.7" height="195"/><rect class="cls-10" x="589.5" y="904.5" width="34" height="32.6"/><rect class="cls-10" x="589.5" y="950.8" width="34" height="32.6"/><rect class="cls-10" x="589.5" y="997" width="34" height="32.6"/><rect class="cls-10" x="589.5" y="1043.3" width="34" height="32.6"/><rect class="cls-10" x="637.5" y="904.5" width="34" height="32.6"/><rect class="cls-10" x="637.5" y="950.8" width="34" height="32.6"/><rect class="cls-10" x="637.5" y="997" width="34" height="32.6"/><rect class="cls-10" x="637.5" y="1043.3" width="34" height="32.6"/><rect class="cls-10" x="685.4" y="904.5" width="34" height="32.6"/><rect class="cls-10" x="685.4" y="950.8" width="34" height="32.6"/><rect class="cls-10" x="685.4" y="997" width="34" height="32.6"/><rect class="cls-10" x="685.4" y="1043.3" width="34" height="32.6"/><rect class="cls-10" x="733.4" y="904.5" width="34" height="32.6"/><rect class="cls-10" x="733.4" y="950.8" width="34" height="32.6"/><rect class="cls-10" x="733.4" y="997" width="34" height="32.6"/><rect class="cls-10" x="733.4" y="1043.3" width="34" height="32.6"/><rect class="cls-10" x="781.4" y="904.5" width="34" height="32.6"/><rect class="cls-10" x="781.4" y="950.8" width="34" height="32.6"/><rect class="cls-10" x="781.4" y="997" width="34" height="32.6"/><rect class="cls-10" x="781.4" y="1043.3" width="34" height="32.6"/><rect class="cls-10" x="829.3" y="904.5" width="34" height="32.6"/><rect class="cls-10" x="829.3" y="950.8" width="34" height="32.6"/><rect class="cls-10" x="829.3" y="997" width="34" height="32.6"/><rect class="cls-10" x="829.3" y="1043.3" width="34" height="32.6"/><rect class="cls-10" x="877.3" y="904.5" width="34" height="32.6"/><rect class="cls-10" x="877.3" y="950.8" width="34" height="32.6"/><rect class="cls-10" x="877.3" y="997" width="34" height="32.6"/><rect class="cls-10" x="877.3" y="1043.3" width="34" height="32.6"/><path class="cls-10" d="M936.1,904.5a8.61,8.61,0,0,0-8.8,8.4v92a8.81,8.81,0,0,0,17.6,0v-92A8.61,8.61,0,0,0,936.1,904.5Z"/><path class="cls-10" d="M962.5,904.5a8.61,8.61,0,0,0-8.8,8.4v92a8.81,8.81,0,0,0,17.6,0v-92A8.61,8.61,0,0,0,962.5,904.5Z"/><path class="cls-10" d="M936.1,1023.3a8.61,8.61,0,0,0-8.8,8.4v35.7a8.81,8.81,0,0,0,17.6,0v-35.7A8.61,8.61,0,0,0,936.1,1023.3Z"/><path class="cls-10" d="M962.5,1023.3a8.61,8.61,0,0,0-8.8,8.4v35.7a8.81,8.81,0,0,0,17.6,0v-35.7A8.61,8.61,0,0,0,962.5,1023.3Z"/><path class="cls-11" d="M247.1,1160h-42a905,905,0,0,0-35.9-252.3L161,879l40.3-11.7,8.3,28.7A946.76,946.76,0,0,1,247.1,1160Z"/><path class="cls-12" d="M342.8,1160h-42a905,905,0,0,0-35.9-252.3L256.6,879l40.3-11.7,8.3,28.7A943.19,943.19,0,0,1,342.8,1160Z"/><path class="cls-11" d="M304.4,800.8h-115A58.4,58.4,0,0,0,131,859.2h0a58.4,58.4,0,0,0,58.4,58.4h115a58.4,58.4,0,0,0,58.4-58.4h0A58.47,58.47,0,0,0,304.4,800.8Z"/><path class="cls-13" d="M340.3,740.6H248.4a88.64,88.64,0,0,0-88.6,88.6h0a88.64,88.64,0,0,0,88.6,88.6h91.9a88.64,88.64,0,0,0,88.6-88.6h0A88.64,88.64,0,0,0,340.3,740.6Z"/><circle class="cls-14" cx="370.9" cy="780.2" r="34.3"/><path class="cls-15" d="M468,637.4H388.9a32.35,32.35,0,0,0-32.3,32.3v65a71.81,71.81,0,0,0,71.8,71.8h0a71.81,71.81,0,0,0,71.8-71.8v-65A32.14,32.14,0,0,0,468,637.4Z"/><path class="cls-15" d="M343.7,704.8a19.89,19.89,0,0,0-19.9,19.9h0a19.89,19.89,0,0,0,19.9,19.9h18.7V704.9H343.7Z"/><path class="cls-16" d="M343.7,731.7a7,7,0,0,1,0-14h5.9v14Z"/><path class="cls-17" d="M487.1,615.5H381.4a21.89,21.89,0,0,0-21.9,21.9h0a15.88,15.88,0,0,0-15.9,15.9v51.6h18.7v19.9h0a12.08,12.08,0,0,0,12.1-12.1V699.4h4.7a14.51,14.51,0,0,0,14.5-14.5h79.1a21,21,0,0,0,21-21h0a13.61,13.61,0,0,0,13.6-13.6V635.9A20.19,20.19,0,0,0,487.1,615.5Z"/><path class="cls-12" d="M299.7,1202.6H205.1V1160h52a42.57,42.57,0,0,1,42.6,42.6Z"/><path class="cls-18" d="M395.3,1202.6H300.7V1160h52a42.57,42.57,0,0,1,42.6,42.6Z"/><path class="cls-19" d="M380.2,750.5a37.3,37.3,0,0,0,37.3,37.3h0a37.3,37.3,0,0,0,37.3-37.3Z"/><path class="cls-20" d="M458.3,960.4c-3.5,0-7-.1-10.6-.2-40-1.7-78.1-13-110.2-32.8-48.2-29.7-77-74.9-77-120.9a21.5,21.5,0,0,1,43,0c0,31,21.1,62.5,56.6,84.3,25.9,16,56.8,25.1,89.5,26.5,37.3,1.6,74.6-6.9,110.8-25.1a21.51,21.51,0,1,1,19.4,38.4C540.2,950.3,499.5,960.4,458.3,960.4Z"/><path class="cls-21" d="M596.1,878.6a8.09,8.09,0,0,0-9-13.3l-15.5,7.9-.9.6a33.17,33.17,0,1,0,25.4,4.8Z"/><rect class="cls-12" x="1116.9" y="839.7" width="50.5" height="320.2"/><path class="cls-18" d="M1167.5,1202.2H1062.3a42.21,42.21,0,0,1,42.2-42.2h63Z"/><path class="cls-15" d="M1038.2,350.2h79.1a32.35,32.35,0,0,1,32.3,32.3v65a71.81,71.81,0,0,1-71.8,71.8h0a71.81,71.81,0,0,1-71.8-71.8v-65A32.26,32.26,0,0,1,1038.2,350.2Z"/><rect class="cls-15" x="1077.8" y="437.5" width="52.5" height="108.3"/><path class="cls-22" d="M975,326.2h130.4a44.21,44.21,0,0,1,44.2,44.2V464a32.14,32.14,0,0,1-32.1,32.1h0a46,46,0,0,1-46.1-46.1V417.6h-12.9v25.7h0a12.5,12.5,0,0,1-12.5-12.5V417.6h0a23.26,23.26,0,0,1-23.3-23.3V382.8h0A47.69,47.69,0,0,1,975,335.1Z"/><path class="cls-15" d="M1077.2,417.7a19.89,19.89,0,0,1,19.9,19.9h0a19.89,19.89,0,0,1-19.9,19.9h-18.7V417.8h18.7Z"/><path class="cls-16" d="M1077.2,444.5a7,7,0,0,0,0-14h-5.9v14Z"/><rect class="cls-13" x="1069.7" y="545.8" width="68.7" height="19"/><path class="cls-13" d="M1183.9,802.2H1006v-178a59.41,59.41,0,0,1,59.4-59.4h80a38.62,38.62,0,0,1,38.6,38.6V802.2Z"/><rect class="cls-20" x="1069.7" y="545.8" width="22.3" height="19"/><path class="cls-11" d="M1128.4,880.8H1006V802.2h177.9v23.2A55.48,55.48,0,0,1,1128.4,880.8Z"/><rect class="cls-11" x="1006" y="872.7" width="50.5" height="287.3"/><path class="cls-12" d="M1056.5,1202.2H951.3a42.21,42.21,0,0,1,42.2-42.2h63Z"/><path class="cls-21" d="M769.9,718a8.07,8.07,0,0,1-6.9-7.1,8.17,8.17,0,0,1,7.1-9l17.2-1.9h1.1a33.22,33.22,0,1,1-18.5,18Z"/><path class="cls-20" d="M844,757.3c-6.4,0-12.8-.3-19.1-.8a23.49,23.49,0,1,1,4-46.8A185,185,0,0,0,1015,597.2a23.5,23.5,0,0,1,43.3,18.3A231.52,231.52,0,0,1,844,757.3Z"/><circle class="cls-23" cx="310" cy="210" r="161"/><path class="cls-19" d="M437.1,220.2h0a40.21,40.21,0,0,0-31.9-39.3,63.7,63.7,0,0,0-120.5-27.2h-13a53.3,53.3,0,0,0-52.1,42.2h-4.5A32.07,32.07,0,0,0,183,228h0a32.07,32.07,0,0,0,32.1,32.1H397.9A39.93,39.93,0,0,0,437.1,220.2Z"/><polygon class="cls-23" points="294.3 338.8 342.8 490.3 356.7 326.2 294.3 338.8"/><circle class="cls-23" cx="850.6" cy="186.5" r="127.2"/><path class="cls-19" d="M951,194.5h0a31.65,31.65,0,0,0-25.2-31,50.32,50.32,0,0,0-95.2-21.4H820.3a42.14,42.14,0,0,0-41.2,33.4h-3.6a25.44,25.44,0,0,0-25.4,25.4h0a25.44,25.44,0,0,0,25.4,25.4H919.9A31.87,31.87,0,0,0,951,194.5Z"/><path class="cls-23" d="M791.7,283.3c0,65.3,75.2,65.6,75.2,65.6s-33.5-9.2-33.5-63.4Z"/></svg>