<svg id="Layer_1" data-name="Layer 1" xmlns="http://www.w3.org/2000/svg" viewBox="0 0 335.99 235.19"><defs><style>.cls-1,.cls-4{fill:#fff;}.cls-1{stroke:#34525c;stroke-miterlimit:10;stroke-width:2px;}.cls-2{fill:#025159;}.cls-3{fill:#edeef1;}.cls-5{fill:#34525c;}</style></defs><title>multipage-website</title><path class="cls-1" d="M263.86,182.53V59.72a3.44,3.44,0,0,0-3.54-3.31H78.12a3.45,3.45,0,0,0-3.54,3.31V182.53Z"/><circle class="cls-1" cx="80.82" cy="61.89" r="1.97"/><circle class="cls-1" cx="94.1" cy="61.89" r="1.98"/><circle class="cls-1" cx="87.46" cy="61.89" r="1.98"/><path class="cls-1" d="M242,66.6H103.69a1.42,1.42,0,0,1-1.41-1.41v-1.7a1.42,1.42,0,0,1,1.41-1.41H242a1.42,1.42,0,0,1,1.42,1.41v1.7A1.42,1.42,0,0,1,242,66.6Z"/><rect class="cls-1" x="78.73" y="72.01" width="180.98" height="106.97"/><rect class="cls-1" x="175.95" y="96.68" width="76.81" height="31.1"/><rect class="cls-2" x="132.33" y="96.68" width="34.37" height="31.1"/><rect class="cls-1" x="132.33" y="137.48" width="34.37" height="31.1"/><rect class="cls-1" x="86.6" y="96.68" width="37.38" height="1.43"/><rect class="cls-1" x="86.6" y="102.18" width="37.38" height="1.43"/><rect class="cls-1" x="86.6" y="107.68" width="37.38" height="1.43"/><rect class="cls-1" x="86.6" y="113.18" width="37.38" height="1.43"/><rect class="cls-1" x="86.6" y="124.18" width="37.38" height="1.43"/><rect class="cls-1" x="86.6" y="129.68" width="37.38" height="1.43"/><rect class="cls-1" x="86.6" y="135.18" width="37.38" height="1.43"/><rect class="cls-1" x="86.6" y="146.18" width="37.38" height="1.43"/><rect class="cls-1" x="175.95" y="135.34" width="76.4" height="1.43"/><rect class="cls-1" x="175.95" y="140.84" width="76.4" height="1.43"/><rect class="cls-1" x="175.95" y="151.84" width="76.4" height="1.43"/><rect class="cls-1" x="175.95" y="157.34" width="76.4" height="1.43"/><rect class="cls-1" x="175.95" y="168.34" width="76.4" height="1.43"/><rect class="cls-3" x="213.5" y="78.26" width="37.58" height="9.38"/><rect class="cls-1" x="85.68" y="80.13" width="120.85" height="5.64"/><rect class="cls-2" x="242.61" y="78.26" width="9.85" height="9.38"/><path class="cls-4" d="M249.94,83.26a1.92,1.92,0,1,0-3-.33l-1.84,1.83a.42.42,0,0,0,0,.59h0a.42.42,0,0,0,.6,0l1.83-1.83A1.92,1.92,0,0,0,249.94,83.26Zm-2.25-.46a1.27,1.27,0,1,1,1.79,0A1.26,1.26,0,0,1,247.69,82.8Z"/><rect class="cls-5" x="185.99" y="204.8" width="15.76" height="2.06"/><rect class="cls-5" x="159" y="209.43" width="50.63" height="2.06"/><rect class="cls-1" x="135.57" y="194.1" width="9.71" height="9.71"/><rect class="cls-1" x="276.95" y="123.14" width="9.71" height="9.71"/><rect class="cls-1" x="190.93" y="33.9" width="9.71" height="9.71"/><path class="cls-2" d="M155.15,151.84l-9.8-5.65a1.28,1.28,0,0,0-.65-.18,1.32,1.32,0,0,0-1.32,1.32v11.31A1.32,1.32,0,0,0,144.7,160a1.28,1.28,0,0,0,.65-.18l9.8-5.65a1.32,1.32,0,0,0,0-2.28Z"/><rect class="cls-5" x="25.07" y="108.36" width="1.29" height="3.87"/><rect class="cls-5" x="27.02" y="113.3" width="3.87" height="1.29"/><rect class="cls-5" x="25.07" y="115.66" width="1.29" height="3.87"/><rect class="cls-5" x="20.55" y="113.3" width="3.87" height="1.29"/><rect class="cls-5" x="213.71" y="191.46" width="1.29" height="3.87"/><rect class="cls-5" x="215.66" y="196.41" width="3.87" height="1.29"/><rect class="cls-5" x="213.71" y="198.77" width="1.29" height="3.87"/><rect class="cls-5" x="209.19" y="196.41" width="3.87" height="1.29"/><rect class="cls-5" x="29.3" y="81.93" width="28.44" height="2.06"/><rect class="cls-5" x="29.3" y="91.29" width="20.72" height="2.06"/><rect class="cls-5" x="20.08" y="86.56" width="44.99" height="2.06"/><rect class="cls-5" x="22.48" y="205.79" width="28.44" height="2.06"/><rect class="cls-5" x="22.48" y="215.14" width="20.72" height="2.06"/><rect class="cls-5" x="13.26" y="210.41" width="44.99" height="2.06"/><rect class="cls-5" x="311.24" y="122.83" width="1.29" height="3.87"/><rect class="cls-5" x="313.19" y="127.77" width="3.87" height="1.29"/><rect class="cls-5" x="311.24" y="130.14" width="1.29" height="3.87"/><rect class="cls-5" x="306.72" y="127.77" width="3.87" height="1.29"/><rect class="cls-5" x="177.72" y="18.91" width="1.29" height="3.87"/><rect class="cls-5" x="179.67" y="23.85" width="3.87" height="1.29"/><rect class="cls-5" x="177.72" y="26.21" width="1.29" height="3.87"/><rect class="cls-5" x="173.19" y="23.85" width="3.87" height="1.29"/><path class="cls-1" d="M67.53,43A25,25,0,1,1,55,21.33C50.1,30,42.58,43,42.58,43L67.1,38.42A23,23,0,0,1,67.53,43Z"/><path class="cls-2" d="M74,33.81,49.52,38.35s7.52-13,12.42-21.63A24.64,24.64,0,0,1,74,33.81Z"/><path class="cls-1" d="M318.2,221V151.79a3.43,3.43,0,0,0-3.54-3.3h-83a3.43,3.43,0,0,0-3.54,3.3V221Z"/><circle class="cls-1" cx="234.35" cy="153.96" r="1.98"/><circle class="cls-1" cx="247.62" cy="153.96" r="1.98"/><circle class="cls-1" cx="240.99" cy="153.96" r="1.98"/><path class="cls-1" d="M306.39,158.67H257.22a1.41,1.41,0,0,1-1.41-1.41v-1.69a1.41,1.41,0,0,1,1.41-1.41h49.17a1.41,1.41,0,0,1,1.41,1.41v1.69A1.41,1.41,0,0,1,306.39,158.67Z"/><rect class="cls-1" x="232.26" y="164.08" width="81.8" height="53.35"/><path class="cls-1" d="M125.85,195V125.82a3.44,3.44,0,0,0-3.54-3.3h-83a3.44,3.44,0,0,0-3.54,3.3V195Z"/><circle class="cls-1" cx="42" cy="128" r="1.97"/><circle class="cls-1" cx="55.27" cy="128" r="1.98"/><circle class="cls-1" cx="48.63" cy="128" r="1.98"/><path class="cls-1" d="M114,132.71H64.87a1.43,1.43,0,0,1-1.42-1.42V129.6a1.42,1.42,0,0,1,1.42-1.41H114a1.41,1.41,0,0,1,1.41,1.41v1.69A1.42,1.42,0,0,1,114,132.71Z"/><rect class="cls-1" x="39.9" y="138.12" width="81.8" height="53.35"/><path class="cls-2" d="M297.45,207.15H289a.34.34,0,0,1-.35-.36V176.28a.34.34,0,0,1,.35-.35h8.42a.34.34,0,0,1,.36.35v30.51A.36.36,0,0,1,297.45,207.15Z"/><path class="cls-2" d="M284.07,207.15h-8.42a.35.35,0,0,1-.36-.36V185.25a.35.35,0,0,1,.36-.36h8.42a.34.34,0,0,1,.35.36v21.54A.38.38,0,0,1,284.07,207.15Z"/><path class="cls-2" d="M270.66,207.15h-8.42a.34.34,0,0,1-.35-.36V174.34a.34.34,0,0,1,.35-.36h8.42a.35.35,0,0,1,.36.36V206.8A.36.36,0,0,1,270.66,207.15Z"/><path class="cls-2" d="M257.28,207.15h-8.42a.35.35,0,0,1-.36-.36v-16a.35.35,0,0,1,.36-.36h8.42a.34.34,0,0,1,.35.36v16A.37.37,0,0,1,257.28,207.15Z"/><rect class="cls-1" x="242.56" y="207.53" width="61.19" height="3.97"/><path class="cls-1" d="M60,155.9a4.32,4.32,0,0,1,0,.5,12.92,12.92,0,0,1-9,0c0-.17,0-.34,0-.5a4.51,4.51,0,1,1,9,0Z"/><path class="cls-1" d="M57.38,147.88c0,1.27-.83,2.83-1.85,2.83s-1.85-1.56-1.85-2.83a1.85,1.85,0,0,1,3.7,0Z"/><path class="cls-1" d="M60,169.67a4.36,4.36,0,0,1,0,.51,13.07,13.07,0,0,1-9,0c0-.17,0-.34,0-.51a4.51,4.51,0,1,1,9,0Z"/><path class="cls-1" d="M57.38,161.66c0,1.27-.83,2.82-1.85,2.82s-1.85-1.55-1.85-2.82a1.85,1.85,0,0,1,3.7,0Z"/><path class="cls-1" d="M60,183.45a4.19,4.19,0,0,1,0,.5,12.92,12.92,0,0,1-9,0c0-.17,0-.33,0-.5a4.51,4.51,0,1,1,9,0Z"/><path class="cls-1" d="M57.38,175.43c0,1.28-.83,2.83-1.85,2.83s-1.85-1.55-1.85-2.83a1.85,1.85,0,0,1,3.7,0Z"/><rect class="cls-1" x="63.47" y="147.15" width="29.95" height="8.98"/><rect class="cls-2" x="64.97" y="148.65" width="21.46" height="5.97"/><rect class="cls-1" x="63.47" y="160.93" width="29.95" height="8.98"/><rect class="cls-2" x="64.97" y="162.43" width="13.2" height="5.97"/><rect class="cls-1" x="63.47" y="174.71" width="29.95" height="8.98"/><rect class="cls-2" x="64.97" y="176.2" width="17.01" height="5.97"/><polygon class="cls-1" points="280.58 23.93 290.51 24.71 295.44 18.09 302.2 20.46 301.54 29.1 307.92 35.93 317.44 34.08 319.84 41.84 311.04 47.13 311.87 56.42 318.75 62.13 315.96 68.49 309.43 66.07 300.24 72.75 301.65 82.76 294.27 85.32 289.67 77.5 280.16 77.79 275.23 85.45 267.93 82.24 269.3 73.02 262.49 65.12 254.2 67.73 251.25 60.19 258.76 56.32 259.25 46.05 252.08 40 255.04 33.26 264.14 35.92 270.93 28.61 268.91 19.47 276.02 17.01 280.58 23.93"/><path class="cls-2" d="M272,45.77a14.62,14.62,0,1,0,19.34-7.34A14.63,14.63,0,0,0,272,45.77Z"/><polygon class="cls-1" points="223.94 19.48 228.38 17.48 228.94 13.48 232.39 12.91 234.14 16.77 238.47 18.2 242.12 15.17 244.97 17.93 242.44 22.26 244.98 26.05 249.26 26.87 249.56 30.25 246.2 30.75 243.83 35.77 246.78 39.73 244.23 42.56 240.42 40.29 236.41 42.65 236.1 47.08 232.22 47.42 230.64 43.15 225.87 41.37 222.93 44.43 219.9 41.89 222.21 38.48 220 33.96 215.51 33.05 215.19 29.47 219.72 28.47 220.91 23.75 217.9 20.31 220.37 17.58 223.94 19.48"/><path class="cls-2" d="M225.42,30.84A7.14,7.14,0,1,0,232,23.15,7.15,7.15,0,0,0,225.42,30.84Z"/><rect class="cls-1" x="92.97" y="16.84" width="65.74" height="8.66"/><rect class="cls-2" x="108.62" y="18.79" width="47.91" height="4.76"/><rect class="cls-1" x="92.97" y="32.81" width="65.74" height="8.66"/><rect class="cls-2" x="125.84" y="34.76" width="30.68" height="4.76"/><path class="cls-2" d="M83.34,215.66c0,2.94,2.68,5.32,6,5.32h29.56a4,4,0,0,0,4.2-3.73,3.91,3.91,0,0,0-3.8-3.7c0-.15,0-.29,0-.44,0-4.34-4-7.86-8.84-7.86a9.27,9.27,0,0,0-1.31.1,11.4,11.4,0,0,0-8.65-3.79,11.59,11.59,0,0,0-7.37,2.55,9.36,9.36,0,0,0-3.5,6.25C86.33,210.36,83.34,212.73,83.34,215.66Z"/><path class="cls-2" d="M319.88,108.32c0,2.94-2.68,5.32-6,5.32H284.34a4,4,0,0,1-4.2-3.73,3.91,3.91,0,0,1,3.8-3.7c0-.15,0-.29,0-.44,0-4.34,4-7.86,8.84-7.86a9.39,9.39,0,0,1,1.31.1,11.4,11.4,0,0,1,8.65-3.79,11.59,11.59,0,0,1,7.37,2.55,9.36,9.36,0,0,1,3.5,6.25C316.89,103,319.88,105.39,319.88,108.32Z"/></svg>