<svg id="Layer_1" data-name="Layer 1" xmlns="http://www.w3.org/2000/svg" xmlns:xlink="http://www.w3.org/1999/xlink" viewBox="0 0 2800 2000"><defs><style>.cls-1{fill:#4b5375;}.cls-2{fill:#61688e;}.cls-3{fill:#6069a0;}.cls-4{fill:url(#linear-gradient);}.cls-5{fill:#eff2f9;}.cls-6{fill:#98a1d8;}.cls-7{fill:#dae1f2;}.cls-8{fill:url(#linear-gradient-2);}.cls-9{fill:#a3aae5;}.cls-10{fill:#7f84ad;}.cls-11{fill:#e2e8f7;}.cls-12{fill:#d375ad;}.cls-13{fill:#94c474;}.cls-14{fill:#ccc16d;}.cls-15{fill:#025159;}.cls-16{fill:#8c0303;}.cls-17{fill:#bf213e;}.cls-18{fill:#a1a6c6;}.cls-19{fill:#444b6b;}.cls-20{fill:#ced4ed;}.cls-21{fill:#727ba0;}.cls-22{fill:#a9b0c9;}.cls-23{fill:#f59898;}.cls-24{fill:#fff;}.cls-25{fill:#d1d5e5;}.cls-26{fill:#2f324c;}.cls-27{fill:#7a3b25;}.cls-28{fill:#0d0d0d;}.cls-29{fill:#404263;}.cls-30{fill:#964d2d;}.cls-31{fill:#646884;}.cls-32{fill:#505372;}.cls-33{fill:#a8afc6;}.cls-34{fill:#eff1f9;}</style><linearGradient id="linear-gradient" x1="1878.82" y1="1695.32" x2="854.65" y2="958.18" gradientTransform="matrix(1, 0, 0, -1, 0, 1999.28)" gradientUnits="userSpaceOnUse"><stop offset="0" stop-color="#a9afeb"/><stop offset="1" stop-color="#bec3e3"/></linearGradient><linearGradient id="linear-gradient-2" x1="1030.22" y1="1025.62" x2="1030.22" y2="776.96" gradientTransform="matrix(1, 0, 0, -1, 0, 1999.28)" gradientUnits="userSpaceOnUse"><stop offset="0" stop-color="#c2c7f5"/><stop offset="0.04" stop-color="#c5caf6"/><stop offset="0.29" stop-color="#d4d9fb"/><stop offset="0.58" stop-color="#dde2fe"/><stop offset="1" stop-color="#e0e5ff"/></linearGradient></defs><title>seo</title><ellipse class="cls-1" cx="1399.75" cy="1725.93" rx="88.12" ry="802.37" transform="translate(-353.15 3091.76) rotate(-88.88)"/><ellipse class="cls-2" cx="1400.1" cy="1707.98" rx="802.37" ry="97.85"/><path class="cls-2" d="M2129.5,432.29H2006.36A17.4,17.4,0,0,1,1989,414.91v-76.1a17.39,17.39,0,0,1,17.37-17.38H2129.5a17.4,17.4,0,0,1,17.38,17.38v76.1A17.4,17.4,0,0,1,2129.5,432.29ZM2006.36,329a9.78,9.78,0,0,0-9.76,9.77v76.1a9.78,9.78,0,0,0,9.76,9.77H2129.5a9.78,9.78,0,0,0,9.77-9.77v-76.1a9.78,9.78,0,0,0-9.77-9.77Z"/><rect class="cls-2" x="2105.9" y="340.56" width="7.61" height="36.33" transform="translate(364.26 1596.86) rotate(-45)"/><rect class="cls-2" x="2091.58" y="354.98" width="36.33" height="7.61" transform="translate(364.06 1596.65) rotate(-44.99)"/><path class="cls-3" d="M820.53,969V372.63a67.9,67.9,0,0,1,67.9-67.9h-42a67.9,67.9,0,0,0-67.9,67.9V969a67.9,67.9,0,0,0,67.9,67.9h42A67.9,67.9,0,0,1,820.53,969Z"/><path class="cls-4" d="M1861.6,1036.89h-985a67.9,67.9,0,0,1-67.9-67.9V372.63a67.9,67.9,0,0,1,67.9-67.9h985a67.9,67.9,0,0,1,67.9,67.9V969A67.9,67.9,0,0,1,1861.6,1036.89Z"/><polygon class="cls-5" points="1902.94 721.58 1644.6 721.58 1644.6 717.23 1898.6 717.23 1898.6 398.44 2020.24 398.44 2020.24 402.79 1902.94 402.79 1902.94 721.58"/><path class="cls-6" d="M1556.23,659.08h-60.12l-6.71-11.14h-40.69v79a10.13,10.13,0,0,0,10.13,10.13h97.39A10.13,10.13,0,0,0,1566.36,727V669.21A10.13,10.13,0,0,0,1556.23,659.08Z"/><path class="cls-5" d="M1575.37,653.56a17.9,17.9,0,1,1,17.89-17.89A17.91,17.91,0,0,1,1575.37,653.56Zm0-32.52A14.63,14.63,0,1,0,1590,635.67,14.64,14.64,0,0,0,1575.37,621Z"/><rect class="cls-5" x="1565.44" y="634.04" width="19.84" height="3.26" transform="translate(11.92 1300.13) rotate(-45)"/><rect class="cls-5" x="1573.71" y="625.72" width="3.26" height="19.84" transform="translate(11.94 1300.11) rotate(-45)"/><path class="cls-5" d="M1218.1,696.55a26.44,26.44,0,1,1,26.43-26.44A26.46,26.46,0,0,1,1218.1,696.55Zm0-48.52a22.09,22.09,0,1,0,22.08,22.08A22.1,22.1,0,0,0,1218.1,648Z"/><path class="cls-5" d="M1218.1,721.58a51.47,51.47,0,1,1,51.46-51.47A51.53,51.53,0,0,1,1218.1,721.58Zm0-98.58a47.12,47.12,0,1,0,47.12,47.11A47.17,47.17,0,0,0,1218.1,623Z"/><path class="cls-5" d="M1218.1,751.27a81.16,81.16,0,1,1,81.16-81.16A81.25,81.25,0,0,1,1218.1,751.27Zm0-158a76.81,76.81,0,1,0,76.81,76.81A76.9,76.9,0,0,0,1218.1,593.3Z"/><path class="cls-5" d="M1195,1110.94H1162v-2.18H1195A22.08,22.08,0,0,0,1217,1086.7V769.55h2.18V1086.7A24.28,24.28,0,0,1,1195,1110.94Z"/><circle class="cls-5" cx="1218.1" cy="769.55" r="6.43"/><circle class="cls-5" cx="1162.92" cy="1109.85" r="6.43"/><rect class="cls-7" x="856.63" y="404.75" width="358.05" height="11.58"/><rect class="cls-7" x="1232.53" y="404.75" width="12.1" height="11.58"/><rect class="cls-6" x="1252.66" y="926.55" width="61.95" height="12.57"/><rect class="cls-6" x="1252.66" y="948.36" width="109.67" height="12.57"/><rect class="cls-6" x="1252.66" y="970.16" width="83.75" height="12.57"/><rect class="cls-6" x="1252.66" y="991.97" width="43.3" height="12.57"/><path class="cls-5" d="M989.77,489.41l26.75-13.78v4L994,490.91V491l22.54,11.29v4l-26.75-13.78Z"/><path class="cls-5" d="M1020.27,508.61l16.09-41.8h3.92l-16.15,41.8Z"/><path class="cls-5" d="M1070.66,492.58l-26.75,13.72v-4L1066.62,491v-.12l-22.71-11.3v-4l26.75,13.72Z"/><path class="cls-2" d="M770.45,1054H741a3.79,3.79,0,0,0-3.79,3.79v9a3.8,3.8,0,0,0,3.79,3.8h29.44a3.79,3.79,0,0,0,3.79-3.8v-9A3.79,3.79,0,0,0,770.45,1054Z"/><path class="cls-2" d="M829,1083.16H741a3.79,3.79,0,0,0-3.79,3.79v9a3.79,3.79,0,0,0,3.79,3.79h88a3.78,3.78,0,0,0,3.79-3.79v-9A3.79,3.79,0,0,0,829,1083.16Z"/><path class="cls-2" d="M829,1112.34H741a3.79,3.79,0,0,0-3.79,3.79v9a3.79,3.79,0,0,0,3.79,3.79h88a3.79,3.79,0,0,0,3.79-3.79v-9A3.79,3.79,0,0,0,829,1112.34Z"/><path class="cls-2" d="M861,1112.34h-12.9a3.79,3.79,0,0,0-3.79,3.79v9a3.79,3.79,0,0,0,3.79,3.79H861a3.79,3.79,0,0,0,3.79-3.79v-9A3.79,3.79,0,0,0,861,1112.34Z"/><path class="cls-2" d="M815.18,1141.52H741a3.79,3.79,0,0,0-3.79,3.79v9a3.79,3.79,0,0,0,3.79,3.79h74.17a3.79,3.79,0,0,0,3.79-3.79v-9A3.79,3.79,0,0,0,815.18,1141.52Z"/><path class="cls-2" d="M1957.67,1166.94h-48.55a3.8,3.8,0,0,0-3.8,3.79v9a3.8,3.8,0,0,0,3.8,3.79h48.55a3.79,3.79,0,0,0,3.79-3.79v-9A3.79,3.79,0,0,0,1957.67,1166.94Z"/><path class="cls-2" d="M1997.07,1196.12h-88a3.79,3.79,0,0,0-3.8,3.79v9a3.8,3.8,0,0,0,3.8,3.79h88a3.79,3.79,0,0,0,3.79-3.79v-9A3.79,3.79,0,0,0,1997.07,1196.12Z"/><path class="cls-2" d="M1942.35,1225.29h-33.23a3.8,3.8,0,0,0-3.8,3.8v9a3.8,3.8,0,0,0,3.8,3.79h33.23a3.79,3.79,0,0,0,3.79-3.79v-9A3.8,3.8,0,0,0,1942.35,1225.29Z"/><path class="cls-2" d="M1974.36,1225.29h-12.9a3.8,3.8,0,0,0-3.79,3.8v9a3.79,3.79,0,0,0,3.79,3.79h12.9a3.79,3.79,0,0,0,3.79-3.79v-9A3.8,3.8,0,0,0,1974.36,1225.29Z"/><path class="cls-2" d="M1983.28,1254.47h-74.16a3.8,3.8,0,0,0-3.8,3.79v9a3.79,3.79,0,0,0,3.8,3.79h74.16a3.78,3.78,0,0,0,3.79-3.79v-9A3.79,3.79,0,0,0,1983.28,1254.47Z"/><path class="cls-2" d="M2030.33,1254.47h-25.68a3.79,3.79,0,0,0-3.79,3.79v9a3.79,3.79,0,0,0,3.79,3.79h25.68a3.79,3.79,0,0,0,3.79-3.79v-9A3.79,3.79,0,0,0,2030.33,1254.47Z"/><path class="cls-5" d="M1445.16,540.62a119.54,119.54,0,0,1-20.38-1.66c-14.32-2.51-22.53-7.31-22.53-13.19,0-9.74,21.58-14.85,42.91-14.85s42.91,5.11,42.91,14.85c0,5.88-8.22,10.68-22.54,13.19A119.42,119.42,0,0,1,1445.16,540.62Zm0-25.35c-23.89,0-38.56,6.12-38.56,10.5,0,2.78,6.5,6.73,18.94,8.91a121.79,121.79,0,0,0,39.23,0c12.44-2.18,19-6.13,19-8.91C1483.72,521.39,1469.05,515.27,1445.16,515.27Z"/><path class="cls-5" d="M1445.16,562.71a119.62,119.62,0,0,1-20.38-1.66c-14.32-2.52-22.53-7.33-22.53-13.19V525.77h4.35c0,2.78,6.5,6.73,18.94,8.91a121.79,121.79,0,0,0,39.23,0c12.44-2.18,19-6.13,19-8.91h4.35v22.09c0,5.86-8.22,10.67-22.54,13.19A119.5,119.5,0,0,1,1445.16,562.71Zm-38.56-30.08v15.23c0,2.77,6.5,6.72,18.94,8.91a121.79,121.79,0,0,0,39.23,0c12.44-2.19,19-6.14,19-8.91V532.63c-3.8,2.71-10,4.9-18.19,6.33a125.87,125.87,0,0,1-40.75,0C1416.59,537.53,1410.4,535.34,1406.6,532.63Z"/><path class="cls-5" d="M1445.16,584.79a119.37,119.37,0,0,1-20.18-1.63l-.18,0c-14.33-2.51-22.55-7.32-22.55-13.19V547.86h4.35c0,2.77,6.5,6.72,18.94,8.91a121.79,121.79,0,0,0,39.23,0c12.44-2.19,19-6.14,19-8.91h4.35v22.08c0,5.87-8.22,10.68-22.55,13.19l-.2,0A119.21,119.21,0,0,1,1445.16,584.79Zm-19.8-6,.2,0a120.85,120.85,0,0,0,39.2,0l.19,0c12.33-2.18,18.77-6.11,18.77-8.87V554.71c-3.8,2.71-10,4.9-18.19,6.34a125.87,125.87,0,0,1-40.75,0c-8.19-1.44-14.38-3.63-18.18-6.34v15.23C1406.6,572.7,1413,576.63,1425.36,578.81Z"/><path class="cls-5" d="M1445.16,606.88c-21.33,0-42.91-5.1-42.91-14.85V569.94h4.35c0,2.76,6.44,6.69,18.76,8.87l.2,0a120.85,120.85,0,0,0,39.2,0l.19,0c12.33-2.18,18.77-6.11,18.77-8.87h4.35V592C1488.07,601.78,1466.48,606.88,1445.16,606.88ZM1406.6,576.8V592c0,4.38,14.67,10.5,38.56,10.5s38.56-6.12,38.56-10.5V576.8c-3.8,2.71-10,4.89-18.2,6.33l-.2,0a125.61,125.61,0,0,1-40.34,0l-.18,0C1416.6,581.69,1410.4,579.51,1406.6,576.8Z"/><path class="cls-6" d="M1432,380.57h-6a26.74,26.74,0,0,0-16.68-22.11h0c.1-1.15.16-2.31.16-3.48a39.19,39.19,0,0,0-78-5.67h0a39.21,39.21,0,0,0-31.31,31.26h-7.66a12.23,12.23,0,0,0,0,24.46H1432a12.23,12.23,0,0,0,0-24.46Z"/><circle class="cls-5" cx="1444.19" cy="494.14" r="6.43"/><circle class="cls-5" cx="1360.67" cy="422.76" r="6.43"/><polygon class="cls-5" points="1445.28 494.14 1443.1 494.14 1443.1 460.23 1359.58 460.23 1359.58 422.76 1361.75 422.76 1361.75 458.06 1445.28 458.06 1445.28 494.14"/><path class="cls-3" d="M1091.38,1229.16H932.08A24.18,24.18,0,0,1,907.9,1205V998.41a24.18,24.18,0,0,1,24.18-24.18h159.3a24.17,24.17,0,0,1,24.18,24.18V1205A24.17,24.17,0,0,1,1091.38,1229.16Z"/><path class="cls-8" d="M1109.87,1229.16H950.57A24.17,24.17,0,0,1,926.39,1205V998.41a24.17,24.17,0,0,1,24.18-24.18h159.3a24.18,24.18,0,0,1,24.18,24.18V1205A24.18,24.18,0,0,1,1109.87,1229.16Z"/><path class="cls-9" d="M1062.54,1005.75H953.81a4.35,4.35,0,0,0-4.35,4.35v11.41a4.35,4.35,0,0,0,4.35,4.35h108.73a4.35,4.35,0,0,0,4.35-4.35V1010.1A4.35,4.35,0,0,0,1062.54,1005.75Z"/><path class="cls-9" d="M1054.93,1048.69H953.81a4.35,4.35,0,0,0-4.35,4.35v11.42a4.35,4.35,0,0,0,4.35,4.35h101.12a4.34,4.34,0,0,0,4.34-4.35V1053A4.34,4.34,0,0,0,1054.93,1048.69Z"/><path class="cls-9" d="M1034.81,1091.64h-81a4.35,4.35,0,0,0-4.35,4.35v11.41a4.35,4.35,0,0,0,4.35,4.35h81a4.35,4.35,0,0,0,4.35-4.35V1096A4.35,4.35,0,0,0,1034.81,1091.64Z"/><path class="cls-9" d="M1002.2,1134.58H953.81a4.35,4.35,0,0,0-4.35,4.35v11.42a4.35,4.35,0,0,0,4.35,4.35h48.39a4.34,4.34,0,0,0,4.34-4.35v-11.42A4.34,4.34,0,0,0,1002.2,1134.58Z"/><path class="cls-9" d="M1062.54,1177.53H953.81a4.35,4.35,0,0,0-4.35,4.35v11.41a4.35,4.35,0,0,0,4.35,4.35h108.73a4.35,4.35,0,0,0,4.35-4.35v-11.41A4.35,4.35,0,0,0,1062.54,1177.53Z"/><rect class="cls-5" x="986.95" y="654.1" width="2.29" height="246.09"/><path class="cls-10" d="M1017.7,633.67H958.49a4.89,4.89,0,0,0-4.89,4.89v19.3a4.89,4.89,0,0,0,4.89,4.9h59.21a4.89,4.89,0,0,0,4.89-4.9v-19.3A4.89,4.89,0,0,0,1017.7,633.67Z"/><path class="cls-10" d="M1017.7,892.44H958.49a4.89,4.89,0,0,0-4.89,4.9v19.3a4.89,4.89,0,0,0,4.89,4.89h59.21a4.89,4.89,0,0,0,4.89-4.89v-19.3A4.89,4.89,0,0,0,1017.7,892.44Z"/><path class="cls-7" d="M1017.7,804.66H958.49a4.89,4.89,0,0,0-4.89,4.9v19.3a4.89,4.89,0,0,0,4.89,4.89h59.21a4.89,4.89,0,0,0,4.89-4.89v-19.3A4.89,4.89,0,0,0,1017.7,804.66Z"/><polygon class="cls-5" points="1079.82 871.36 988.1 871.36 988.1 869.07 1077.53 869.07 1077.53 729.13 927.09 729.13 927.09 726.84 1079.82 726.84 1079.82 871.36"/><path class="cls-7" d="M1104.08,715.5h-50.81a4.2,4.2,0,0,0-4.2,4.2v16.57a4.2,4.2,0,0,0,4.2,4.2h50.81a4.2,4.2,0,0,0,4.2-4.2V719.7A4.2,4.2,0,0,0,1104.08,715.5Z"/><path class="cls-7" d="M935.35,715.5h-50.8a4.2,4.2,0,0,0-4.2,4.2v16.57a4.2,4.2,0,0,0,4.2,4.2h50.8a4.2,4.2,0,0,0,4.2-4.2V719.7A4.2,4.2,0,0,0,935.35,715.5Z"/><rect class="cls-9" x="967.18" y="707.08" width="41.81" height="41.81" transform="translate(-225.36 911.9) rotate(-45)"/><path class="cls-11" d="M812.71,584.42H655.28a23.9,23.9,0,0,1-23.9-23.89V356.38a23.9,23.9,0,0,1,23.9-23.9H812.71a23.9,23.9,0,0,1,23.89,23.9V560.53A23.89,23.89,0,0,1,812.71,584.42Z"/><path class="cls-3" d="M647.5,371.22V560.53a7.79,7.79,0,0,0,7.78,7.78H812.71a7.79,7.79,0,0,0,7.78-7.78V371.22Z"/><circle class="cls-12" cx="662.67" cy="352.96" r="7.52"/><circle class="cls-13" cx="688.19" cy="352.96" r="7.52"/><circle class="cls-14" cx="713.71" cy="352.96" r="7.52"/><rect class="cls-7" x="662.27" y="393.33" width="42.22" height="10.03"/><rect class="cls-7" x="662.27" y="413.74" width="89.85" height="10.03"/><rect class="cls-15" x="762.91" y="413.74" width="35.41" height="10.03"/><rect class="cls-16" x="662.27" y="434.14" width="25.92" height="10.03"/><rect class="cls-9" x="699.47" y="434.14" width="29.37" height="10.03"/><rect class="cls-7" x="733.99" y="434.14" width="55.29" height="10.03"/><rect class="cls-15" x="662.27" y="454.55" width="42.22" height="10.03"/><rect class="cls-7" x="686.09" y="474.95" width="23.41" height="10.03"/><rect class="cls-9" x="716.6" y="474.95" width="52.72" height="10.03"/><rect class="cls-15" x="778.56" y="474.95" width="23.71" height="10.03"/><rect class="cls-16" x="686.09" y="495.36" width="35.14" height="10.03"/><rect class="cls-15" x="725.93" y="495.36" width="13.84" height="10.03"/><rect class="cls-7" x="747.04" y="495.36" width="27.29" height="10.03"/><rect class="cls-7" x="781.69" y="495.36" width="17.44" height="10.03"/><rect class="cls-7" x="686.09" y="515.76" width="23.41" height="10.03"/><rect class="cls-16" x="717.14" y="515.76" width="23.41" height="10.03"/><rect class="cls-17" x="662.27" y="536.17" width="42.22" height="10.03"/><path class="cls-18" d="M2146.76,768.84H1993.05a23.33,23.33,0,0,1-23.33-23.33V546.19a23.34,23.34,0,0,1,23.33-23.33h153.71a23.34,23.34,0,0,1,23.33,23.33V745.51A23.33,23.33,0,0,1,2146.76,768.84Z"/><path class="cls-2" d="M1985.46,560.68V745.51a7.6,7.6,0,0,0,7.59,7.6h153.71a7.6,7.6,0,0,0,7.59-7.6V560.68Z"/><circle class="cls-19" cx="2000.27" cy="542.85" r="7.34"/><circle class="cls-10" cx="2025.19" cy="542.85" r="7.34"/><path class="cls-20" d="M2050.1,535.51a7.34,7.34,0,1,1-7.34,7.34A7.34,7.34,0,0,1,2050.1,535.51Z"/><rect class="cls-20" x="1999.88" y="582.27" width="41.22" height="9.79"/><rect class="cls-20" x="1999.88" y="602.19" width="87.73" height="9.79"/><rect class="cls-10" x="2098.14" y="602.19" width="34.58" height="9.79"/><rect class="cls-19" x="1999.88" y="622.12" width="25.31" height="9.79"/><rect class="cls-21" x="2036.2" y="622.12" width="28.67" height="9.79"/><rect class="cls-20" x="2069.91" y="622.12" width="53.98" height="9.79"/><rect class="cls-10" x="1999.88" y="642.04" width="41.22" height="9.79"/><rect class="cls-10" x="2023.13" y="661.96" width="22.86" height="9.79"/><rect class="cls-21" x="2052.92" y="661.96" width="51.47" height="9.79"/><rect class="cls-10" x="2113.42" y="661.96" width="23.14" height="9.79"/><rect class="cls-19" x="2023.13" y="681.89" width="34.31" height="9.79"/><rect class="cls-21" x="2062.03" y="681.89" width="13.51" height="9.79"/><rect class="cls-20" x="2082.64" y="681.89" width="26.65" height="9.79"/><rect class="cls-21" x="2116.47" y="681.89" width="17.03" height="9.79"/><rect class="cls-20" x="2023.13" y="701.81" width="22.86" height="9.79"/><rect class="cls-19" x="2053.45" y="701.81" width="22.86" height="9.79"/><rect class="cls-10" x="1999.88" y="721.73" width="41.22" height="9.79"/><path class="cls-5" d="M858.78,362.45l16.59-8.55v2.47l-14,7v.07l14,7v2.47l-16.59-8.55Z"/><path class="cls-5" d="M880.34,347.54h3.15v10.8h.07a5.86,5.86,0,0,1,2.25-2.22,6.44,6.44,0,0,1,3.22-.89c2.32,0,6,1.43,6,7.4v10.3h-3.14V363c0-2.79-1-5.15-4-5.15A4.52,4.52,0,0,0,883.7,361a3.81,3.81,0,0,0-.21,1.5v10.45h-3.15Z"/><path class="cls-5" d="M903.83,350.65v5h4.51V358h-4.51v9.34c0,2.14.61,3.36,2.36,3.36a7,7,0,0,0,1.83-.22l.14,2.36a7.7,7.7,0,0,1-2.79.43A4.35,4.35,0,0,1,902,372c-.89-.93-1.21-2.47-1.21-4.51V358h-2.68v-2.39h2.68v-4.15Z"/><path class="cls-5" d="M911.88,360.3c0-1.79,0-3.25-.15-4.68h2.76l.14,2.79h.11a5.94,5.94,0,0,1,5.43-3.18,5.12,5.12,0,0,1,4.9,3.46h.07a7.33,7.33,0,0,1,1.93-2.25,6,6,0,0,1,3.83-1.21c2.29,0,5.69,1.5,5.69,7.5v10.2h-3.08v-9.8c0-3.33-1.22-5.33-3.75-5.33a4.06,4.06,0,0,0-3.72,2.86,5,5,0,0,0-.25,1.57v10.7h-3.08V362.56c0-2.76-1.21-4.76-3.61-4.76a4.69,4.69,0,0,0-4.15,4.68v10.45h-3.07V360.3Z"/><path class="cls-5" d="M941.7,347.54h3.15v25.39H941.7Z"/><path class="cls-5" d="M966.48,364.42l-16.59,8.51v-2.47l14.08-7v-.07l-14.08-7V353.9l16.59,8.51v2Z"/><path class="cls-2" d="M1344.22,1181.2a42.5,42.5,0,0,0-.32-5.08l8-12.67-9.74-16.87-15,.56a42.62,42.62,0,0,0-8.79-5.08l-7-13.23H1291.9l-7,13.23a42.62,42.62,0,0,0-8.79,5.08l-15-.56-9.74,16.87,8,12.67a41.78,41.78,0,0,0,0,10.16l-8,12.66,9.74,16.88,15-.57a42.66,42.66,0,0,0,8.79,5.09l7,13.23h19.49l7-13.23a42.66,42.66,0,0,0,8.79-5.09l15,.57,9.74-16.88-8-12.66A42.63,42.63,0,0,0,1344.22,1181.2Zm-42.57,26.35A26.36,26.36,0,1,1,1328,1181.2,26.38,26.38,0,0,1,1301.65,1207.55Z"/><path class="cls-22" d="M1425.07,1118.46a31,31,0,0,0-2.87-2.54l-2.51-11-14.19-3.81-7.68,8.29a31.63,31.63,0,0,0-7.4,2l-10.77-3.33-10.39,10.39,3.33,10.77a31.63,31.63,0,0,0-2,7.4l-8.29,7.68,3.81,14.19,11,2.51a31.07,31.07,0,0,0,5.42,5.41l2.5,11,14.19,3.8,7.68-8.28a32,32,0,0,0,7.4-2l10.77,3.33,10.39-10.39-3.33-10.77a32.15,32.15,0,0,0,2-7.4l8.28-7.68-3.8-14.19-11-2.51A34.22,34.22,0,0,0,1425.07,1118.46Zm-8.64,36.75a19.87,19.87,0,1,1,0-28.11A19.91,19.91,0,0,1,1416.43,1155.21Z"/><path class="cls-5" d="M1864.75,350.23a31.15,31.15,0,0,0-2.88-2.54l-2.5-11-14.19-3.81-7.68,8.28a32,32,0,0,0-7.4,2l-10.77-3.33-10.39,10.39,3.33,10.77a32.15,32.15,0,0,0-2,7.4l-8.28,7.68,3.8,14.19,11,2.51a32.71,32.71,0,0,0,2.55,2.87,31,31,0,0,0,2.87,2.54l2.51,11,14.19,3.81,7.68-8.28a32.15,32.15,0,0,0,7.4-2l10.77,3.33,10.39-10.39-3.33-10.77a31.63,31.63,0,0,0,2-7.4l8.29-7.68-3.81-14.19-11-2.51A32.4,32.4,0,0,0,1864.75,350.23ZM1856.1,387a19.87,19.87,0,1,1,0-28.11A19.91,19.91,0,0,1,1856.1,387Z"/><rect class="cls-18" x="2113.42" y="762.7" width="27.63" height="17.72"/><path class="cls-18" d="M1941,1086.47H1689.83v-7.61H1941a48.07,48.07,0,0,0,48-48V967.09a55.69,55.69,0,0,1,55.63-55.63h43.84a35,35,0,0,0,35-35V771.56H2131V876.5a42.62,42.62,0,0,1-42.58,42.57h-43.84a48.07,48.07,0,0,0-48,48v63.76A55.69,55.69,0,0,1,1941,1086.47Z"/><path class="cls-11" d="M1695.17,1160.12h-140.6a21.33,21.33,0,0,1-21.34-21.34V956.45a21.33,21.33,0,0,1,21.34-21.34h140.6a21.34,21.34,0,0,1,21.35,21.34v182.33A21.34,21.34,0,0,1,1695.17,1160.12Z"/><path class="cls-3" d="M1547.62,969.71v169.07a7,7,0,0,0,7,7h140.6a7,7,0,0,0,6.95-7V969.71Z"/><circle class="cls-12" cx="1561.17" cy="953.39" r="6.72"/><circle class="cls-13" cx="1583.97" cy="953.39" r="6.72"/><circle class="cls-14" cx="1606.76" cy="953.39" r="6.72"/><path class="cls-12" d="M1572.32,1062.74a.84.84,0,0,1-.22-1.64c6.45-1.77,12-7.22,16.52-16.2,1.15-2.28,2.21-4.68,3.23-7,2.26-5.1,4.59-10.38,8.07-14.9,5-6.44,13.74-11.76,22.18-9.13,4.79,1.49,8.91,5.29,12.57,11.62.95,1.64,1.83,3.34,2.68,5a55.3,55.3,0,0,0,5.73,9.52c3,3.78,8.23,7.53,13.77,6.68,5.19-.8,8.62-5,12.26-9.44,3.08-3.76,6.26-7.64,10.69-9.55a.84.84,0,1,1,.66,1.54c-4,1.74-7.1,5.47-10,9.07-3.68,4.49-7.48,9.14-13.31,10-6.22,1-12-3.13-15.33-7.28a57.49,57.49,0,0,1-5.91-9.8c-.84-1.63-1.71-3.31-2.64-4.91-3.44-5.95-7.24-9.5-11.61-10.86-7.68-2.39-15.76,2.57-20.36,8.55-3.36,4.36-5.65,9.55-7.86,14.56-1,2.34-2.1,4.75-3.27,7.07-4.74,9.42-10.65,15.16-17.57,17.06A.61.61,0,0,1,1572.32,1062.74Z"/><polygon class="cls-7" points="1689.83 1078.45 1559.92 1078.45 1559.92 992.61 1562.43 992.61 1562.43 1075.94 1689.83 1075.94 1689.83 1078.45"/><rect class="cls-7" x="1561.17" y="1093.11" width="32.31" height="9.29"/><rect class="cls-9" x="1600.04" y="1093.11" width="32.31" height="9.29"/><rect class="cls-14" x="1639.41" y="1093.11" width="16.16" height="9.29"/><rect class="cls-7" x="1561.17" y="1106.02" width="32.31" height="9.29"/><rect class="cls-12" x="1600.04" y="1106.02" width="32.31" height="9.29"/><rect class="cls-14" x="1639.41" y="1106.02" width="16.16" height="9.29"/><rect class="cls-7" x="1561.17" y="1118.93" width="32.31" height="9.29"/><rect class="cls-9" x="1600.04" y="1118.93" width="32.31" height="9.29"/><rect class="cls-14" x="1639.41" y="1118.93" width="16.16" height="9.29"/><ellipse class="cls-1" cx="1680.78" cy="1729.1" rx="253.72" ry="35.79"/><path class="cls-23" d="M1490.87,898.37a38.48,38.48,0,0,1-27.08-11.09L1318.65,744.34a38.6,38.6,0,0,1,54.16-55L1518,832.28a38.6,38.6,0,0,1-27.09,66.09Z"/><path class="cls-23" d="M1490.84,898.38a38.6,38.6,0,0,1-31-61.51l40.87-55.4a38.6,38.6,0,0,1,62.12,45.82l-40.87,55.4A38.53,38.53,0,0,1,1490.84,898.38Z"/><circle class="cls-24" cx="1531.74" cy="804.38" r="50.94"/><path class="cls-25" d="M1531.71,843a38.6,38.6,0,0,1-30.91-61.67l111.89-150.06a38.59,38.59,0,0,1,61.88,46.14L1562.68,827.45A38.55,38.55,0,0,1,1531.71,843Z"/><polygon class="cls-26" points="1598.51 1008.22 1600.68 1665.16 1686.57 1665.16 1711.58 1015.83 1598.51 1008.22"/><path class="cls-27" d="M1686.57,1729.1h-162v-16.9a47,47,0,0,1,47-47h115Z"/><path class="cls-24" d="M1829.25,690.36V987.59H1593.91V690.36a88.52,88.52,0,0,1,88.51-88.53h58.32A88.52,88.52,0,0,1,1829.25,690.36Z"/><circle class="cls-25" cx="1706.63" cy="619.98" r="55.41"/><path class="cls-25" d="M1710.29,672.2l25.28,14.1a18.92,18.92,0,0,0,28.1-17.64c-1.5-25.48-3.29-55.69-3.29-55.07C1760.38,614.65,1710.29,672.2,1710.29,672.2Z"/><path class="cls-25" d="M1703,672.2l-25.28,14.1a18.92,18.92,0,0,1-28.1-17.64c1.5-25.48,3.29-55.69,3.29-55.07C1652.88,614.65,1703,672.2,1703,672.2Z"/><path class="cls-23" d="M1660,470.74V609.36a47.3,47.3,0,0,0,47.3,47.29h0a47.29,47.29,0,0,0,47.29-47.29V470.74Z"/><path class="cls-28" d="M1553.48,394.44h76.31v93.27h-11.66a64.65,64.65,0,0,1-64.65-64.65Z"/><path class="cls-28" d="M1629.79,565.63h-73.22V531.34A20.37,20.37,0,0,1,1576.94,511h52.85Z"/><path class="cls-23" d="M1561.73,403V521.8a64.45,64.45,0,0,0,64.45,64.45h125.3V403a42.63,42.63,0,0,0-42.63-42.62h-104.5A42.62,42.62,0,0,0,1561.73,403Z"/><path class="cls-28" d="M1713.32,344.94h23.46a34.29,34.29,0,0,1,34.29,34.29V538A12.12,12.12,0,0,1,1759,550.16h-1.8a43.83,43.83,0,0,1-43.83-43.83Z"/><rect class="cls-28" x="1682.38" y="378.97" width="66" height="126.84"/><circle class="cls-23" cx="1703.01" cy="502.72" r="30.94"/><path class="cls-28" d="M1657.89,601.72h-61.36a40,40,0,0,1-40-40V541.22a22,22,0,0,1,22-22h79.32a40,40,0,0,1,40,40v2.58A40,40,0,0,1,1657.89,601.72Z"/><path class="cls-23" d="M1632.5,579h-40.25a13,13,0,0,1-13-13V551.76a13,13,0,0,1,13-13h40.25a13,13,0,0,1,13,13V566A13,13,0,0,1,1632.5,579Z"/><path class="cls-28" d="M1662.79,385.16v2.49a42.27,42.27,0,0,1,0,71.34v93.23h25.78V385.16Z"/><rect class="cls-28" x="1558.63" y="344.94" width="173.25" height="59.81"/><path class="cls-28" d="M1558.63,404.75c-14.43,0-59.81-48.46-2.06-93.84-1,14.44,14.44,22.69,20.63,24.75-6.19-9.28-7.22-38.15,30.93-53.62-1,19.59,16.5,42.28,26.82,47.43,0-7.22,6.18-23.72,34-26.81,0,13.41,8.25,30.94,56.71,47.44-2.06,24.75-155.71,40.22-155.71,40.22Z"/><path class="cls-29" d="M1829.25,974.51v28.56a117.67,117.67,0,0,1-235.34,0V974.51Z"/><polygon class="cls-29" points="1713.32 1007.67 1740.39 1665.16 1826.28 1665.16 1826.28 1007.67 1713.32 1007.67"/><path class="cls-30" d="M1826.28,1729.1h-162v-16.9a47,47,0,0,1,47-47h115Z"/><ellipse class="cls-23" cx="1312.93" cy="701.98" rx="62.88" ry="51.46"/><path class="cls-23" d="M1305.5,689.84h-76.1a19,19,0,1,1,0-38.05h76.1a19,19,0,1,1,0,38.05Z"/><path class="cls-25" d="M1853,852.24a38.61,38.61,0,0,1-36.79-27l-49.59-157a38.59,38.59,0,0,1,73.6-23.26l49.6,157A38.62,38.62,0,0,1,1853,852.24Z"/><circle class="cls-24" cx="1853.05" cy="813.64" r="50.94"/><path class="cls-23" d="M1870.84,915.27a38.61,38.61,0,0,1-37.12-28.11L1818.4,833a38.6,38.6,0,0,1,74.29-21L1908,866.16a38.64,38.64,0,0,1-37.16,49.11Z"/><path class="cls-23" d="M1792.17,921.78a38.6,38.6,0,0,1-3.14-77.06l78.64-6.52a38.6,38.6,0,0,1,6.38,76.93l-78.64,6.52C1794.32,921.74,1793.24,921.78,1792.17,921.78Z"/><ellipse class="cls-23" cx="1780.26" cy="879.92" rx="67.05" ry="44.04"/><path class="cls-31" d="M1800,744h-176a9.67,9.67,0,0,0-4.56.44,9.77,9.77,0,0,0-6,12.44l37.45,108.4a9.79,9.79,0,0,0,9.25,6.59,10,10,0,0,0,3.2-.54h178.69Z"/><path class="cls-32" d="M1838.86,871.89a9.79,9.79,0,0,1-9.25-6.59l-37.46-108.4a9.79,9.79,0,0,1,18.5-6.39l37.46,108.39a9.8,9.8,0,0,1-9.25,13Z"/><path class="cls-25" d="M1843.87,880.57H1655.19a12.06,12.06,0,0,1-12.07-12.07h0a12.07,12.07,0,0,1,12.07-12.07h188.68a12.08,12.08,0,0,1,12.07,12.07h0A12.07,12.07,0,0,1,1843.87,880.57Z"/><path class="cls-33" d="M1892.2,880.57h-47.58a12.07,12.07,0,0,1-12.07-12.07h0a12.08,12.08,0,0,1,12.07-12.07h47.58a12.07,12.07,0,0,1,12.07,12.07h0A12.06,12.06,0,0,1,1892.2,880.57Z"/><circle class="cls-32" cx="1715.63" cy="807.91" r="13.45"/><path class="cls-32" d="M1892.21,871.89H1880a3.66,3.66,0,0,1-3.66-3.66h0a3.66,3.66,0,0,1,3.66-3.66h12.26a3.65,3.65,0,0,1,3.65,3.66h0A3.65,3.65,0,0,1,1892.21,871.89Z"/><path class="cls-32" d="M1865.3,871.89h-12.25a3.66,3.66,0,0,1-3.66-3.66h0a3.66,3.66,0,0,1,3.66-3.66h12.25a3.66,3.66,0,0,1,3.66,3.66h0A3.66,3.66,0,0,1,1865.3,871.89Z"/><rect class="cls-30" x="1593.91" y="982.85" width="235.34" height="20.22"/><rect class="cls-34" x="1657.4" y="974.51" width="46.75" height="33.7"/><rect class="cls-29" x="1720.82" y="977.77" width="15.22" height="36.42"/><rect class="cls-29" x="1625.15" y="977.77" width="15.22" height="36.42"/><rect class="cls-29" x="1780.26" y="977.77" width="15.22" height="36.42"/><path class="cls-2" d="M1195.62,1431.77H1072.48a17.4,17.4,0,0,1-17.38-17.38v-76.1a17.4,17.4,0,0,1,17.38-17.38h123.14a17.4,17.4,0,0,1,17.37,17.38v76.1A17.39,17.39,0,0,1,1195.62,1431.77Zm-123.14-103.25a9.78,9.78,0,0,0-9.77,9.77v76.1a9.78,9.78,0,0,0,9.77,9.77h123.14a9.78,9.78,0,0,0,9.76-9.77v-76.1a9.78,9.78,0,0,0-9.76-9.77Z"/><rect class="cls-2" x="1172" y="1340.03" width="7.61" height="36.33" transform="translate(-616.01 1229.23) rotate(-45)"/><rect class="cls-2" x="1157.64" y="1354.45" width="36.33" height="7.61" transform="translate(-616.03 1228.99) rotate(-44.99)"/></svg>