<svg id="Layer_1" data-name="Layer 1" xmlns="http://www.w3.org/2000/svg" viewBox="0 0 3000 2000"><defs><style>.cls-1{fill:#8c0303;}.cls-2{fill:#bf213e;}.cls-3{fill:#bf1035;}.cls-4{fill:#bc2b4a;}.cls-5{fill:#4c3d47;}.cls-6{fill:#ec7a82;}.cls-7{fill:#fff;}.cls-8{fill:#dd6873;}.cls-9{fill:#fb9e9e;}.cls-10{fill:#fae1e1;}.cls-11{fill:#d53d4d;}.cls-12{fill:#f7f6f5;}.cls-13{fill:#ffc54e;}.cls-14{fill:#f9d698;}.cls-15{fill:#564e53;}.cls-16{fill:#fceedb;}.cls-17{fill:#efcaca;}.cls-18{fill:#666164;}.cls-19{fill:#757274;}.cls-20{fill:#ad515a;}.cls-21{fill:#994450;}.cls-22{fill:#70696d;}.cls-23{fill:#3f313b;}.cls-24{fill:#6d6169;}.cls-25{fill:#564b53;}.cls-26{fill:#efedef;}.cls-27{fill:#dbd7db;}.cls-28{fill:#025159;}.cls-29{fill:#1d6868;}.cls-30{fill:#1c878c;}.cls-31{fill:#ffc587;}</style></defs><title>services</title><path class="cls-1" d="M1478.9,506.9c-478.3,0-866,387.7-866,866a866.64,866.64,0,0,0,31.8,233.2H2313.1a866.64,866.64,0,0,0,31.8-233.2C2344.9,894.6,1957.2,506.9,1478.9,506.9Z"/><circle class="cls-1" cx="2365" cy="1056.5" r="204.6"/><circle class="cls-1" cx="2202.4" cy="412.2" r="142.5"/><circle class="cls-1" cx="1110.4" cy="386.6" r="122.5"/><circle class="cls-1" cx="635.4" cy="583.4" r="185"/><circle class="cls-1" cx="592.8" cy="1111.9" r="162.5"/><rect class="cls-2" x="856.86" y="657.41" width="34" height="412" transform="translate(-354.57 870.8) rotate(-45)"/><rect class="cls-2" x="1123.83" y="511.7" width="34" height="412.01" transform="translate(-82.48 151.93) rotate(-7.35)"/><rect class="cls-2" x="1793.16" y="664.84" width="412.01" height="34" transform="translate(223.56 1825.87) rotate(-51.63)"/><path class="cls-3" d="M1478.9,548.6c-478.3,0-866,387.7-866,866a866.64,866.64,0,0,0,31.8,233.2H2313.1a866.64,866.64,0,0,0,31.8-233.2C2344.9,936.3,1957.2,548.6,1478.9,548.6Z"/><path class="cls-2" d="M1482.3,710.8c-386.1,0-699.1,313-699.1,699.1a699,699,0,0,0,47,252.6H2134.3a696.45,696.45,0,0,0,47-252.6C2181.4,1023.8,1868.4,710.8,1482.3,710.8Z"/><path class="cls-4" d="M1482.3,895.8c-283.9,0-514.1,230.2-514.1,514.1A511.68,511.68,0,0,0,1070.7,1718h823.2a511.68,511.68,0,0,0,102.5-308.1C1996.4,1125.9,1766.3,895.8,1482.3,895.8Z"/><path class="cls-5" d="M1864.5,1224.6a69.92,69.92,0,0,1-11.5-14.5c1.7-31-12.5-65.1-45.4-94.1-31.3-27.6-50.6-73.1-62.4-117.3a126.71,126.71,0,0,0,19.8,29.8,80,80,0,0,0,6.6,6.4,78.5,78.5,0,0,0,7.3,5.6,79.79,79.79,0,0,0,8,4.7c1.4.7,2.8,1.3,4.2,1.9s3,1.1,4.3,1.6a148.78,148.78,0,0,1,16,6.5l3.9,1.9,3.8,2.1c1.3.7,2.5,1.4,3.7,2.1l1.9,1.1,1.8,1.2a116.8,116.8,0,0,1,26,22.6,101.15,101.15,0,0,1,10.2,14.1c1.5,2.5,2.9,5.1,4.2,7.7a57.73,57.73,0,0,1,3.4,8.1,66.44,66.44,0,0,0-5.9-16.7,103.45,103.45,0,0,0-9.2-15.3,116.41,116.41,0,0,0-11.8-13.5,117.86,117.86,0,0,0-13.9-11.5,142,142,0,0,0-31.8-16.7l-4-1.6c-1.3-.6-2.6-1.1-3.8-1.8a52.65,52.65,0,0,1-7.2-4.3,65.54,65.54,0,0,1-6.6-5.2,83.51,83.51,0,0,1-6-5.9,105.05,105.05,0,0,1-10.5-13.4,147.46,147.46,0,0,1-8.6-14.9,173.55,173.55,0,0,1-7.2-15.8c-2.2-5.4-4.2-10.8-6.1-16.3-.4-1.3-.9-2.6-1.3-3.9a609.88,609.88,0,0,1-10.1-87.6v-141c0-136.6-110.7-247.3-247.3-247.3h0c-136.6,0-247.3,110.7-247.3,247.3V871.8s-.4,15.2-2.9,38.4c-2.4,7-4.9,13.8-7.6,20.7-5.9,15.1-12.4,29.9-20.9,43.4a111.35,111.35,0,0,1-6.9,9.6,53,53,0,0,1-3.8,4.3c-.7.7-1.4,1.3-2.1,2l-1,1-1.1.9-1.1.9a7.63,7.63,0,0,1-1.1.8l-2.3,1.5-2.8,1.7c-.9.6-1.8,1.2-2.7,1.9a31.34,31.34,0,0,0-9,9.8,23.53,23.53,0,0,0-2.9,13.1,80.26,80.26,0,0,0,2,12.4c.8,3.9,1.5,7.8.7,11.6a13.2,13.2,0,0,1-2.5,5.2,21.45,21.45,0,0,1-4.3,4.2,19.1,19.1,0,0,0,2.7-1.6l1.3-.9,1.2-1a14.43,14.43,0,0,0,3.5-5.3,19.63,19.63,0,0,0,1.2-6.4,44.31,44.31,0,0,0-.3-6.3,99.79,99.79,0,0,1-.9-11.9,20,20,0,0,1,3-10.3,27.33,27.33,0,0,1,7.9-7.6c.8-.5,1.6-1.1,2.4-1.5l2.5-1.4,2.9-1.7c.5-.3.9-.6,1.4-.9l1.3-1,1.3-1c.4-.4.8-.7,1.2-1.1.8-.7,1.6-1.4,2.4-2.2,1.5-1.5,3-3.1,4.4-4.7a92.14,92.14,0,0,0,7.5-10.2,160,160,0,0,0,11.5-22.1c3-7,5.6-14.1,8-21.3-4.8,33.2-13.5,74.7-29.1,111.9l-.3.3c-2.4,2.7-4.9,5.3-7.5,7.9s-5.1,5.1-7.8,7.5-5.4,4.8-8.1,7.1-5.6,4.5-8.5,6.5a125.17,125.17,0,0,1-18.2,10.9c-1.6.8-3.2,1.4-4.8,2.2-1.6.6-3.3,1.3-4.9,1.8l-5.1,1.7-2.7.9-2.7,1.1a55.46,55.46,0,0,0-19,12.8,47.07,47.07,0,0,0-6.9,9.2,48.3,48.3,0,0,0-6.4,21.6,46,46,0,0,0,.6,11.1c.4-14.6,6.2-28.7,16.5-37.9a55.73,55.73,0,0,1,17.7-10.5l2.5-.9c.8-.3,1.7-.5,2.5-.8l5.3-1.6c1.8-.6,3.6-1.3,5.3-2l2.6-1.1c.9-.4,1.7-.8,2.6-1.2a107.18,107.18,0,0,0,19.1-11.9,146.88,146.88,0,0,0,16.5-15c2-2.1,4-4.3,5.9-6.6-10.6,22-23.8,41.8-40.5,56.5-77,68-51.6,164,40.7,182,63.7,12.4,106.2-97.4,126.5-166.8h322.9c20.3,69.4,62.9,179.2,126.5,166.8,48.6-9.5,78.6-40.5,84.9-77.8a53.62,53.62,0,0,0,9.2,8.6,48.94,48.94,0,0,0,10.6,5.6,35.7,35.7,0,0,0,11.6,1.9,73,73,0,0,1-10.1-5A78.19,78.19,0,0,1,1864.5,1224.6Z"/><path class="cls-5" d="M1864.5,1224.6a69.92,69.92,0,0,1-11.5-14.5c1.7-31-12.5-65.1-45.4-94.1-31.3-27.6-50.6-73.1-62.4-117.3a126.71,126.71,0,0,0,19.8,29.8,80,80,0,0,0,6.6,6.4,78.5,78.5,0,0,0,7.3,5.6,79.79,79.79,0,0,0,8,4.7c1.4.7,2.8,1.3,4.2,1.9s3,1.1,4.3,1.6a148.78,148.78,0,0,1,16,6.5l3.9,1.9,3.8,2.1c1.3.7,2.5,1.4,3.7,2.1l1.9,1.1,1.8,1.2a116.8,116.8,0,0,1,26,22.6,101.15,101.15,0,0,1,10.2,14.1c1.5,2.5,2.9,5.1,4.2,7.7a57.73,57.73,0,0,1,3.4,8.1,66.44,66.44,0,0,0-5.9-16.7,103.45,103.45,0,0,0-9.2-15.3,116.41,116.41,0,0,0-11.8-13.5,117.86,117.86,0,0,0-13.9-11.5,142,142,0,0,0-31.8-16.7l-4-1.6c-1.3-.6-2.6-1.1-3.8-1.8a52.65,52.65,0,0,1-7.2-4.3,65.54,65.54,0,0,1-6.6-5.2,83.51,83.51,0,0,1-6-5.9,105.05,105.05,0,0,1-10.5-13.4,147.46,147.46,0,0,1-8.6-14.9,173.55,173.55,0,0,1-7.2-15.8c-2.2-5.4-4.2-10.8-6.1-16.3-.4-1.3-.9-2.6-1.3-3.9a609.88,609.88,0,0,1-10.1-87.6v-141c0-136.6-110.7-247.3-247.3-247.3h0c-136.6,0-247.3,110.7-247.3,247.3V871.8s-.4,15.2-2.9,38.4c-2.4,7-4.9,13.8-7.6,20.7-5.9,15.1-12.4,29.9-20.9,43.4a111.35,111.35,0,0,1-6.9,9.6,53,53,0,0,1-3.8,4.3c-.7.7-1.4,1.3-2.1,2l-1,1-1.1.9-1.1.9a7.63,7.63,0,0,1-1.1.8l-2.3,1.5-2.8,1.7c-.9.6-1.8,1.2-2.7,1.9a31.34,31.34,0,0,0-9,9.8,23.53,23.53,0,0,0-2.9,13.1,80.26,80.26,0,0,0,2,12.4c.8,3.9,1.5,7.8.7,11.6a13.2,13.2,0,0,1-2.5,5.2,21.45,21.45,0,0,1-4.3,4.2,19.1,19.1,0,0,0,2.7-1.6l1.3-.9,1.2-1a14.43,14.43,0,0,0,3.5-5.3,19.63,19.63,0,0,0,1.2-6.4,44.31,44.31,0,0,0-.3-6.3,99.79,99.79,0,0,1-.9-11.9,20,20,0,0,1,3-10.3,27.33,27.33,0,0,1,7.9-7.6c.8-.5,1.6-1.1,2.4-1.5l2.5-1.4,2.9-1.7c.5-.3.9-.6,1.4-.9l1.3-1,1.3-1c.4-.4.8-.7,1.2-1.1.8-.7,1.6-1.4,2.4-2.2,1.5-1.5,3-3.1,4.4-4.7a92.14,92.14,0,0,0,7.5-10.2,160,160,0,0,0,11.5-22.1c3-7,5.6-14.1,8-21.3-4.8,33.2-13.5,74.7-29.1,111.9l-.3.3c-2.4,2.7-4.9,5.3-7.5,7.9s-5.1,5.1-7.8,7.5-5.4,4.8-8.1,7.1-5.6,4.5-8.5,6.5a125.17,125.17,0,0,1-18.2,10.9c-1.6.8-3.2,1.4-4.8,2.2-1.6.6-3.3,1.3-4.9,1.8l-5.1,1.7-2.7.9-2.7,1.1a55.46,55.46,0,0,0-19,12.8,47.07,47.07,0,0,0-6.9,9.2,48.3,48.3,0,0,0-6.4,21.6,46,46,0,0,0,.6,11.1c.4-14.6,6.2-28.7,16.5-37.9a55.73,55.73,0,0,1,17.7-10.5l2.5-.9c.8-.3,1.7-.5,2.5-.8l5.3-1.6c1.8-.6,3.6-1.3,5.3-2l2.6-1.1c.9-.4,1.7-.8,2.6-1.2a107.18,107.18,0,0,0,19.1-11.9,146.88,146.88,0,0,0,16.5-15c2-2.1,4-4.3,5.9-6.6-10.6,22-23.8,41.8-40.5,56.5-77,68-51.6,164,40.7,182,63.7,12.4,106.2-97.4,126.5-166.8h322.9c20.3,69.4,62.9,179.2,126.5,166.8,48.6-9.5,78.6-40.5,84.9-77.8a53.62,53.62,0,0,0,9.2,8.6,48.94,48.94,0,0,0,10.6,5.6,35.7,35.7,0,0,0,11.6,1.9,73,73,0,0,1-10.1-5A78.19,78.19,0,0,1,1864.5,1224.6Z"/><rect class="cls-6" x="1421.3" y="1006.9" width="109" height="148.4"/><path class="cls-7" d="M1530.3,1081.1c-27,36.8-82,36.8-109,0h0l-179.1,48.7V1559h467.2V1129.8l-179.1-48.7Z"/><path class="cls-8" d="M1421.3,1042.3a196.14,196.14,0,0,0,109,1.8v-37.2h-109Z"/><circle class="cls-9" cx="1692.2" cy="828.2" r="55.3"/><circle class="cls-9" cx="1265.6" cy="828.2" r="55.3"/><path class="cls-6" d="M1250,1153.1h0a82,82,0,0,0-112,30L940.8,1524.6a82,82,0,0,0,30,112h0a82,82,0,0,0,112-30L1280,1265.1A82,82,0,0,0,1250,1153.1Z"/><path class="cls-7" d="M1274.4,1110.9h0a82,82,0,0,0-112,30l-114,197.4,142,82,114-197.4A82,82,0,0,0,1274.4,1110.9Z"/><path class="cls-6" d="M1819.8,1183.1a81.94,81.94,0,0,0-112-30h0a81.94,81.94,0,0,0-30,112L1875,1606.6a81.94,81.94,0,0,0,112,30h0a81.94,81.94,0,0,0,30-112Z"/><path class="cls-7" d="M1683.4,1110.9h0a81.94,81.94,0,0,0-30,112l114,197.4,142-82-114-197.4A81.83,81.83,0,0,0,1683.4,1110.9Z"/><path class="cls-10" d="M1461.1,1107.1v421.3h29.4V1107.1A69.39,69.39,0,0,1,1461.1,1107.1Z"/><circle class="cls-11" cx="1475.8" cy="1199.3" r="6.3"/><circle class="cls-11" cx="1475.8" cy="1291.8" r="6.3"/><circle class="cls-11" cx="1475.8" cy="1384.3" r="6.3"/><circle class="cls-11" cx="1475.8" cy="1476.8" r="6.3"/><path class="cls-9" d="M1406,1483.9H1011.7a82,82,0,0,0-82,82h0a82,82,0,0,0,82,82H1406a82,82,0,0,0,82-82h0A82,82,0,0,0,1406,1483.9Z"/><path class="cls-9" d="M1946.1,1483.9H1551.8a82,82,0,0,0-82,82h0a82,82,0,0,0,82,82h394.3a82,82,0,0,0,82-82h0A82,82,0,0,0,1946.1,1483.9Z"/><path class="cls-12" d="M1535.7,1083.1a73.69,73.69,0,0,1-56.6,30.2h-6.8a73.69,73.69,0,0,1-56.6-30.2h0l-60,16.3s46.2,98.4,119.9,17.7c73.7,80.7,119.9-17.7,119.9-17.7l-59.8-16.3Z"/><path class="cls-13" d="M1402.3,1200.8h-91.4a10.29,10.29,0,0,0-10.3,10.3v105.6a10.29,10.29,0,0,0,10.3,10.3h91.4a10.29,10.29,0,0,0,10.3-10.3V1211.1A10.29,10.29,0,0,0,1402.3,1200.8Z"/><path class="cls-14" d="M1397.6,1211.5h-81.9a5.59,5.59,0,0,0-5.6,5.6v93.7a5.59,5.59,0,0,0,5.6,5.6h81.9a5.59,5.59,0,0,0,5.6-5.6v-93.7A5.59,5.59,0,0,0,1397.6,1211.5Z"/><path class="cls-15" d="M1364.3,1184.3H1349a4.8,4.8,0,0,0-4.8,4.8v27.8a4.8,4.8,0,0,0,4.8,4.8h15.3a4.8,4.8,0,0,0,4.8-4.8v-27.8A4.8,4.8,0,0,0,1364.3,1184.3Z"/><path class="cls-16" d="M1383.9,1229.1h-54.7a5.7,5.7,0,0,0-5.7,5.7v33.7a5.7,5.7,0,0,0,5.7,5.7h54.7a5.7,5.7,0,0,0,5.7-5.7v-33.7A5.63,5.63,0,0,0,1383.9,1229.1Z"/><path class="cls-16" d="M1387.3,1280.4H1326a2.3,2.3,0,1,0,0,4.6h61.3a2.26,2.26,0,0,0,2.3-2.3A2.4,2.4,0,0,0,1387.3,1280.4Z"/><path class="cls-16" d="M1387.3,1289.6H1326a2.3,2.3,0,0,0,0,4.6h61.3a2.26,2.26,0,0,0,2.3-2.3A2.33,2.33,0,0,0,1387.3,1289.6Z"/><path class="cls-16" d="M1387.3,1298.8H1326a2.3,2.3,0,1,0,0,4.6h61.3a2.26,2.26,0,0,0,2.3-2.3A2.33,2.33,0,0,0,1387.3,1298.8Z"/><path class="cls-17" d="M1477.6,1113.4h-5.2a74,74,0,0,1-11.4-1.4v19.3a136,136,0,0,0,14.7-14.1,136,136,0,0,0,14.7,14.1V1112a74,74,0,0,1-11.4,1.4Z"/><path class="cls-11" d="M1530.3,1081.1a67.26,67.26,0,0,1-57.6,27.5h0c68.8,79.6,112.1-12.7,112.1-12.7l-54.5-14.8Z"/><path class="cls-11" d="M1421.3,1081.1h0l-54.6,14.8s43.3,92.2,112.1,12.7h0A67.45,67.45,0,0,1,1421.3,1081.1Z"/><path class="cls-18" d="M1478.9,500h0c-124.6,0-225.5,104.5-225.5,233.3v8.5h0c1.8-127.2,102.1-229.8,225.5-229.8h0c123.4,0,223.6,102.6,225.5,229.8h0v-8.5C1704.4,604.5,1603.4,500,1478.9,500Z"/><path class="cls-19" d="M1193.8,817.7a64.11,64.11,0,0,0,.7,9.9c15.9-2.6,33.9-13.3,48.3-30.4,15.8-18.7,23.3-40.4,21.5-57.3A78.18,78.18,0,0,0,1193.8,817.7Z"/><path class="cls-9" d="M1478.9,563.6c-115.5,0-221.5,75.4-221.5,210.8,0,71.4,34.5,142,81.4,194.5,72.9,81.7,207.3,81.7,280.3,0,46.9-52.5,81.4-123.1,81.4-194.5C1700.4,639,1594.4,563.6,1478.9,563.6Z"/><path class="cls-11" d="M1692,757.3c-13-2.9-54.3-10.8-99.6-5.1-54.8,6.8-92,16.2-113.5,14.1-21.5,2.1-58.7-7.3-113.5-14.1-45.3-5.6-86.6,2.2-99.6,5.1a5.36,5.36,0,0,0-4.2,5.3v17.8a5.23,5.23,0,0,0,3.2,4.9c16.1,7,17.6,45.9,21.8,74,4.5,29.9,41.6,35.6,80.2,35.8,25.1.1,44.5-3.8,58.5-10.3,28.6-13.2,33.4-82.1,36.2-88.3s17.4-4.9,17.4-4.9,14.6-1.4,17.4,4.9,7.6,75.1,36.2,88.3c14,6.5,33.4,10.4,58.5,10.3,38.6-.2,75.7-5.9,80.2-35.8,4.3-28.1,5.7-67,21.8-74a5.39,5.39,0,0,0,3.2-4.9V762.6A5.28,5.28,0,0,0,1692,757.3Z"/><path class="cls-9" d="M1413.3,770.3c-31.8-5.4-60.1-7.4-67.7-7.9-1-.1-1.9-.1-2.9-.2-6.6-.5-49-2-48.1,44.7,1,50.7,4.9,70.1,38.2,75s57.3,3.8,74.6-4.5,26.4-15.3,35.1-51.4S1447.4,776.1,1413.3,770.3Z"/><path class="cls-9" d="M1615.1,762.2c-1,.1-1.9.1-2.9.2-7.7.5-35.9,2.5-67.7,7.9-34.1,5.8-37.8,19.6-29.2,55.7s17.7,43,35.1,51.4,41.3,9.4,74.6,4.5,37.1-24.3,38.2-75C1664.2,760.1,1621.8,761.6,1615.1,762.2Z"/><path class="cls-20" d="M1370.5,830.9a30,30,0,0,1-28.8-21.7,31.23,31.23,0,0,0-1.1,8.2,29.9,29.9,0,0,0,59.8,0,31.81,31.81,0,0,0-1.1-8.2A30,30,0,0,1,1370.5,830.9Z"/><path class="cls-20" d="M1587.3,830.9a30,30,0,0,1-28.8-21.7,31.23,31.23,0,0,0-1.1,8.2,29.9,29.9,0,0,0,59.8,0,31.81,31.81,0,0,0-1.1-8.2A30,30,0,0,1,1587.3,830.9Z"/><path class="cls-5" d="M1697.8,708.7l-6.5.2c-28.2-94-117-145.3-212.3-145.3-99.8,0-192.4,56.2-215.9,158.7h0l-17.2,8.7s-10.1,36.6,11.5,42.6c34,9.4,41-47.6,41-47.7l8.2-38.9,6,51.1h8.9l3.1-32.5,6.3,32.5h61.8l16.6-67.1v67.1h9.4l4.2-32.5,7.7,32.5h60.3l2.9-59.8,11.1,59.8h108.8l13.5-67.1v67.1h6.7l4.7-22.8,3.8,22.8s10,52,58.1,36.3S1697.8,708.7,1697.8,708.7Z"/><ellipse class="cls-21" cx="1478.9" cy="958.8" rx="27" ry="34.4"/><path class="cls-7" d="M1478.9,924.4c-11.1,0-20.6,8.5-24.7,20.7h49.4C1499.5,932.9,1490,924.4,1478.9,924.4Z"/><path class="cls-15" d="M1478.9,500h0c-124.6,0-225.5,104.5-225.5,233.3v41.5c0-128.9,101-233.3,225.5-233.3h0c124.6,0,225.5,104.5,225.5,233.3V733.3C1704.4,604.5,1603.4,500,1478.9,500Z"/><path class="cls-15" d="M1400.4,952.8h-78.6a58.47,58.47,0,0,1-58.4-58.4,6,6,0,0,0-12,0,70.5,70.5,0,0,0,70.4,70.4h78.6a6,6,0,0,0,0-12Z"/><path class="cls-22" d="M1425.5,945.1h-79.3a13.72,13.72,0,0,0-13.7,13.7h0a13.72,13.72,0,0,0,13.7,13.7h79.3a13.72,13.72,0,0,0,13.7-13.7h0A13.72,13.72,0,0,0,1425.5,945.1Z"/><path class="cls-15" d="M1345.3,951.1a13.26,13.26,0,0,1,1.4-6h-.5a13.7,13.7,0,0,0,0,27.4h79.3a13.7,13.7,0,0,0,12.3-7.7h-78.9A13.64,13.64,0,0,1,1345.3,951.1Z"/><path class="cls-23" d="M1478.9,518.5h0c-124.6,0-225.5,104.5-225.5,233.3v41.5c0-128.9,101-233.3,225.5-233.3h0c124.6,0,225.5,104.5,225.5,233.3V751.8C1704.4,623,1603.4,518.5,1478.9,518.5Z"/><path class="cls-15" d="M1279.1,733.4a7.13,7.13,0,0,0-7.1,7.1V894.9a7.1,7.1,0,0,0,14.2,0V740.5A7.13,7.13,0,0,0,1279.1,733.4Z"/><path class="cls-15" d="M1678.7,733.4a7.13,7.13,0,0,0-7.1,7.1V894.9a7.1,7.1,0,1,0,14.2,0V740.5A7,7,0,0,0,1678.7,733.4Z"/><path class="cls-18" d="M1685.9,739.6V895.8a78.1,78.1,0,0,0,0-156.2Z"/><path class="cls-15" d="M1478.9,500h0c-124.6,0-225.5,104.5-225.5,233.3v41.5c0-128.9,101-233.3,225.5-233.3h0c124.6,0,225.5,104.5,225.5,233.3V733.3C1704.4,604.5,1603.4,500,1478.9,500Z"/><path class="cls-18" d="M1193.8,817.7a78.14,78.14,0,0,0,78.1,78.1V739.6A78.08,78.08,0,0,0,1193.8,817.7Z"/><path class="cls-19" d="M1693.6,740c-1.8,16.9,5.7,38.6,21.5,57.3,14.4,17.1,32.3,27.8,48.3,30.4a82.36,82.36,0,0,0,.7-9.9A78.19,78.19,0,0,0,1693.6,740Z"/><path class="cls-19" d="M1193.8,817.7a64.11,64.11,0,0,0,.7,9.9c15.9-2.6,33.9-13.3,48.3-30.4,15.8-18.7,23.3-40.4,21.5-57.3A78.18,78.18,0,0,0,1193.8,817.7Z"/><path class="cls-24" d="M1769.7,1255.7H1188a35.55,35.55,0,0,0-35.6,35.6v371.2h652.9V1291.3A35.55,35.55,0,0,0,1769.7,1255.7Z"/><path class="cls-25" d="M1769.7,1255.7h-15.8c0,197.7-160.3,357.9-357.9,357.9H1152.5v48.8h652.9V1291.2A35.68,35.68,0,0,0,1769.7,1255.7Z"/><circle class="cls-26" cx="1478.9" cy="1459.1" r="32"/><path class="cls-27" d="M1505.7,1445.1a32,32,0,0,1-58.6,17.8,32,32,0,0,0,63.7-3.8,31.62,31.62,0,0,0-5.4-17.7A22.18,22.18,0,0,1,1505.7,1445.1Z"/><path class="cls-28" d="M2367.8,1647.9H590a44,44,0,0,0-44,44h0a44,44,0,0,0,44,44H2367.7a44,44,0,0,0,44-44h0A43.85,43.85,0,0,0,2367.8,1647.9Z"/><path class="cls-29" d="M2202.8,1647.9h-1193a44,44,0,0,0-44,44h0a44,44,0,0,0,44,44h1193a44,44,0,0,0,44-44h0A44,44,0,0,0,2202.8,1647.9Z"/><path class="cls-30" d="M2031.5,1647.9H1601.4a44,44,0,0,0-44,44h0a44,44,0,0,0,44,44h430.1a44,44,0,0,0,44-44h0A43.94,43.94,0,0,0,2031.5,1647.9Z"/><circle class="cls-2" cx="644.6" cy="620.9" r="185"/><circle class="cls-2" cx="2185.3" cy="435.4" r="142.5"/><circle class="cls-2" cx="612.9" cy="1131.3" r="162.5"/><circle class="cls-2" cx="1110.4" cy="412.2" r="122.5"/><circle class="cls-2" cx="2344.9" cy="1081.1" r="204.6"/><polygon class="cls-7" points="2260.5 1115.8 2197.5 1152 2334.2 1133.1 2297.5 1093.4 2260.5 1115.8"/><path class="cls-7" d="M2325.5,973.5c-59.6,0-108,37.2-108,83.1s48.4,83.1,108,83.1a135.14,135.14,0,0,0,15.7-.9,54.68,54.68,0,0,1-1-10c0-34.3,34.2-62.1,76.3-62.1a93.35,93.35,0,0,1,16,1.4,63,63,0,0,0,1-11.5C2433.5,1010.7,2385.1,973.5,2325.5,973.5Z"/><ellipse class="cls-7" cx="2416.5" cy="1128.8" rx="64" ry="52.1"/><polygon class="cls-7" points="2433.1 1151.9 2411.3 1176.8 2492.3 1188.7 2454.9 1166 2433.1 1151.9"/><circle class="cls-31" cx="2286" cy="1051.7" r="10.5"/><circle class="cls-31" cx="2325.5" cy="1051.7" r="10.5"/><circle class="cls-31" cx="2365" cy="1051.7" r="10.5"/><circle class="cls-31" cx="2387" cy="1132.7" r="7.8"/><circle class="cls-31" cx="2416.5" cy="1132.7" r="7.8"/><circle class="cls-31" cx="2446" cy="1132.7" r="7.8"/><circle class="cls-31" cx="2185.3" cy="436" r="95.3"/><circle class="cls-7" cx="2185.3" cy="436" r="90.3"/><path class="cls-31" d="M2185.3,383.4a5.12,5.12,0,0,0-5.1,5.1v40.6l-38.7-11.5a5.06,5.06,0,1,0-2.9,9.7l45.2,13.4a7.72,7.72,0,0,0,1.5.2,5,5,0,0,0,3.1-1,5.21,5.21,0,0,0,2.1-4.1V388.4A5.26,5.26,0,0,0,2185.3,383.4Z"/><path class="cls-31" d="M2185.3,341.8a4.48,4.48,0,0,0-4.5,4.5v10.8a4.5,4.5,0,0,0,9,0V346.3A4.48,4.48,0,0,0,2185.3,341.8Z"/><path class="cls-31" d="M2185.3,509.8a4.48,4.48,0,0,0-4.5,4.5v10.8a4.5,4.5,0,0,0,9,0V514.3A4.48,4.48,0,0,0,2185.3,509.8Z"/><path class="cls-31" d="M2274.7,431.2h-10.8a4.5,4.5,0,0,0,0,9h10.8a4.5,4.5,0,0,0,0-9Z"/><path class="cls-31" d="M2106.7,431.2h-10.8a4.5,4.5,0,0,0,0,9h10.8a4.5,4.5,0,0,0,0-9Z"/><path class="cls-7" d="M1130.4,321.8c-.2,0-.4-.1-.6-.1a96.26,96.26,0,0,0-19.5-2.1,89.63,89.63,0,0,0-19.5,2.1c-.2,0-.3.1-.5.1a92.69,92.69,0,0,0-.1,181c.1,0,.2.1.4.1a93.45,93.45,0,0,0,39.4,0,.76.76,0,0,0,.4-.1,92.71,92.71,0,0,0,0-181Zm-34.5,11.1a81.52,81.52,0,0,1,29,0,196.31,196.31,0,0,1,16.4,48.9,175.37,175.37,0,0,1-61.8.5A198.31,198.31,0,0,1,1095.9,332.9Zm47.3,60.9a162.28,162.28,0,0,1-1.6,54.5,185.71,185.71,0,0,1-62.2.6,160.11,160.11,0,0,1-1.8-54.6,187.75,187.75,0,0,0,31.2,2.6A196.78,196.78,0,0,0,1143.2,393.8Zm-62.6-56.4a215.31,215.31,0,0,0-13,42.6,158,158,0,0,1-26.4-9A80.4,80.4,0,0,1,1080.6,337.4Zm-47.9,96.4a81.08,81.08,0,0,1,3.1-52.1,166.65,166.65,0,0,0,29.8,10.2,176.5,176.5,0,0,0,1,54.4c-20.7-5-33.2-12.1-33.5-12.2C1033,433.9,1032.9,433.9,1032.7,433.8Zm6.6,16.4a173.39,173.39,0,0,0,30.3,9.1,159,159,0,0,0,10.1,27.5A81,81,0,0,1,1039.3,450.2Zm85.7,41.3a77.75,77.75,0,0,1-14.6,1.3,87.11,87.11,0,0,1-14.6-1.3,147.57,147.57,0,0,1-13.1-30,185.1,185.1,0,0,0,26,1.8,198.12,198.12,0,0,0,29.7-2.2A152,152,0,0,1,1125,491.5Zm16.1-4.8a162.87,162.87,0,0,0,10.3-28.1,197.68,197.68,0,0,0,30.5-9.2A80.27,80.27,0,0,1,1141.1,486.7Zm49.9-74.5a79.73,79.73,0,0,1-2.9,21.5,198.12,198.12,0,0,1-33.8,11.8,179.12,179.12,0,0,0,.8-54.3,207.82,207.82,0,0,0,29.8-9.9A81.84,81.84,0,0,1,1191,412.2Zm-37.9-32.9a211.44,211.44,0,0,0-12.9-41.9,81.13,81.13,0,0,1,39.2,33.2A212.43,212.43,0,0,1,1153.1,379.3Z"/><path class="cls-7" d="M685.3,644.5l-24.4-2.1a2.35,2.35,0,0,1-.2-.8l20.1-14.1a3.47,3.47,0,0,0,1-4.6l-5-8.7-5-8.7a3.43,3.43,0,0,0-4.5-1.4L645,614.5l-.6-.6,10.4-22.3a3.53,3.53,0,0,0-1.4-4.5l-8.7-5-8.7-5a3.45,3.45,0,0,0-4.6,1l-14.1,20.1a2.35,2.35,0,0,0-.8-.2l-2.1-24.4a3.56,3.56,0,0,0-3.5-3.2h-20a3.56,3.56,0,0,0-3.5,3.2L585.3,598a2.35,2.35,0,0,1-.8.2L570.2,578a3.47,3.47,0,0,0-4.6-1l-8.7,5-8.7,5a3.43,3.43,0,0,0-1.4,4.5l10.4,22.3-.6.6L534.3,604a3.53,3.53,0,0,0-4.5,1.4l-5,8.7-5,8.7a3.45,3.45,0,0,0,1,4.6l20.1,14.1a2.35,2.35,0,0,0-.2.8l-24.4,2.1a3.56,3.56,0,0,0-3.2,3.5v20a3.56,3.56,0,0,0,3.2,3.5l24.4,2.1a2.35,2.35,0,0,1,.2.8l-20.1,14.1a3.47,3.47,0,0,0-1,4.6l5,8.7,5,8.7a3.43,3.43,0,0,0,4.5,1.4l22.3-10.4.6.6-10.4,22.3a3.53,3.53,0,0,0,1.4,4.5l8.7,5,8.7,5a3.45,3.45,0,0,0,4.6-1l14.1-20.1a2.35,2.35,0,0,0,.8.2l2.1,24.4a3.56,3.56,0,0,0,3.5,3.2h20a3.56,3.56,0,0,0,3.5-3.2l2.1-24.4a2.35,2.35,0,0,1,.8-.2l14.1,20.1a3.47,3.47,0,0,0,4.6,1l8.7-5,8.7-5a3.43,3.43,0,0,0,1.4-4.5L644.2,702l.6-.6,22.3,10.4a3.53,3.53,0,0,0,4.5-1.4l5-8.7,5-8.7a3.45,3.45,0,0,0-1-4.6l-20.1-14.1a2.35,2.35,0,0,0,.2-.8l24.4-2.1a3.56,3.56,0,0,0,3.2-3.5v-20A3.16,3.16,0,0,0,685.3,644.5Zm-84.5,59.9A46.4,46.4,0,1,1,647.2,658,46.43,46.43,0,0,1,600.8,704.4Z"/><path class="cls-31" d="M754.2,543l-16.7-1.6a34.78,34.78,0,0,0-4.7-11.4l10.7-13a1.12,1.12,0,0,0-.1-1.6l-3.5-3.5-3.5-3.5a1.22,1.22,0,0,0-1.6-.1l-13,10.7a35.7,35.7,0,0,0-11.4-4.7l-1.6-16.7a1.28,1.28,0,0,0-1.2-1.1h-9.8a1.2,1.2,0,0,0-1.2,1.1L695,514.3a34.78,34.78,0,0,0-11.4,4.7l-13-10.7a1.12,1.12,0,0,0-1.6.1l-3.5,3.5-3.5,3.5a1.22,1.22,0,0,0-.1,1.6l10.7,13a35.7,35.7,0,0,0-4.7,11.4L651.2,543a1.28,1.28,0,0,0-1.1,1.2V554a1.2,1.2,0,0,0,1.1,1.2l16.7,1.6a34.78,34.78,0,0,0,4.7,11.4l-10.7,13a1.12,1.12,0,0,0,.1,1.6l3.5,3.5,3.5,3.5a1.22,1.22,0,0,0,1.6.1l13-10.7a35.7,35.7,0,0,0,11.4,4.7l1.6,16.7a1.28,1.28,0,0,0,1.2,1.1h9.8a1.2,1.2,0,0,0,1.2-1.1l1.6-16.7a34.78,34.78,0,0,0,11.4-4.7l13,10.7a1.12,1.12,0,0,0,1.6-.1l3.5-3.5,3.5-3.5a1.22,1.22,0,0,0,.1-1.6l-10.7-13a35.7,35.7,0,0,0,4.7-11.4l16.7-1.6a1.28,1.28,0,0,0,1.1-1.2v-9.8A1.08,1.08,0,0,0,754.2,543Zm-51.6,21.4a15.3,15.3,0,1,1,15.3-15.3A15.3,15.3,0,0,1,702.6,564.4Z"/><path class="cls-7" d="M613.2,1133.7a34,34,0,0,1-12.6-2.4L519,1099.4v73.9a12.5,12.5,0,0,0,12.5,12.5H694.4a12.5,12.5,0,0,0,12.5-12.5v-72.1l-81.6,30.3A36.39,36.39,0,0,1,613.2,1133.7Z"/><path class="cls-7" d="M694.4,1076.8h-163a12.5,12.5,0,0,0-12.5,12.5v.4l84.9,33.2a25.65,25.65,0,0,0,18.3.2l84.7-31.5v-2.3A12.36,12.36,0,0,0,694.4,1076.8Z"/><ellipse class="cls-7" cx="518.94" cy="1476.37" rx="29.2" ry="48.8" transform="translate(-960.65 966.7) rotate(-51.63)"/><ellipse class="cls-7" cx="1894.66" cy="523.16" rx="34.8" ry="20.8" transform="translate(308.34 1683.77) rotate(-51.63)"/><ellipse class="cls-7" cx="1879.57" cy="463.32" rx="18.9" ry="11.3" transform="translate(997.42 2186.48) rotate(-76.74)"/><ellipse class="cls-7" cx="1932.03" cy="463.29" rx="18.9" ry="11.3" transform="translate(88.29 1203.57) rotate(-35.36)"/><ellipse class="cls-7" cx="546.02" cy="1408.93" rx="17.5" ry="29.3" transform="translate(-583.42 405.15) rotate(-27.19)"/><ellipse class="cls-7" cx="492.57" cy="1383.98" rx="11" ry="18.3" transform="translate(-939.51 1056.63) rotate(-57.53)"/></svg>