<svg id="Layer_1" data-name="Layer 1" xmlns="http://www.w3.org/2000/svg" viewBox="0 0 335.99 235.19"><defs><style>.cls-1{fill:#fff;}.cls-2{fill:#34525c;}.cls-3{fill:#e6e6e6;}.cls-4{fill:#030a8c;}.cls-5{fill:#4e4e4e;}</style></defs><title>single-page</title><rect class="cls-1" x="104.45" y="33.34" width="127.19" height="175.15"/><path class="cls-2" d="M232.64,209.49H103.45V32.34H232.64Zm-127.19-2H230.64V34.34H105.45Z"/><rect class="cls-3" x="105.44" y="34.37" width="125.21" height="14.13"/><path class="cls-1" d="M116,41.41a2.69,2.69,0,1,1-2.68-2.68A2.69,2.69,0,0,1,116,41.41Z"/><path class="cls-2" d="M113.32,45.1A3.69,3.69,0,1,1,117,41.41,3.7,3.7,0,0,1,113.32,45.1Zm0-5.37A1.69,1.69,0,1,0,115,41.41,1.69,1.69,0,0,0,113.32,39.73Z"/><path class="cls-1" d="M126.13,41.41a2.69,2.69,0,1,1-2.69-2.68A2.7,2.7,0,0,1,126.13,41.41Z"/><path class="cls-2" d="M123.44,45.1a3.69,3.69,0,1,1,3.69-3.69A3.7,3.7,0,0,1,123.44,45.1Zm0-5.37a1.69,1.69,0,1,0,1.69,1.68A1.69,1.69,0,0,0,123.44,39.73Z"/><path class="cls-1" d="M136.25,41.41a2.69,2.69,0,1,1-2.69-2.68A2.69,2.69,0,0,1,136.25,41.41Z"/><path class="cls-2" d="M133.56,45.1a3.69,3.69,0,1,1,3.69-3.69A3.69,3.69,0,0,1,133.56,45.1Zm0-5.37a1.69,1.69,0,0,0,0,3.37,1.69,1.69,0,1,0,0-3.37Z"/><rect class="cls-4" x="110.63" y="64.75" width="115.26" height="30.75"/><rect class="cls-1" x="111.25" y="103.37" width="29.76" height="29.76"/><path class="cls-2" d="M142,134.13H110.25V102.37H142Zm-29.75-2H140V104.37H112.25Z"/><line class="cls-1" x1="111.25" y1="103.37" x2="141" y2="133.13"/><rect class="cls-2" x="125.12" y="97.21" width="2" height="42.08" transform="translate(-46.67 123.82) rotate(-45)"/><line class="cls-1" x1="111.25" y1="133.13" x2="141" y2="103.37"/><rect class="cls-2" x="105.08" y="117.25" width="42.08" height="2" transform="translate(-46.67 123.82) rotate(-45)"/><rect class="cls-1" x="153.36" y="103.37" width="29.76" height="29.76"/><path class="cls-2" d="M184.12,134.13H152.36V102.37h31.76Zm-29.76-2h27.76V104.37H154.36Z"/><line class="cls-1" x1="153.36" y1="103.37" x2="183.12" y2="133.13"/><rect class="cls-2" x="167.24" y="97.21" width="2" height="42.08" transform="translate(-34.34 153.6) rotate(-45)"/><line class="cls-1" x1="153.36" y1="133.13" x2="183.12" y2="103.37"/><rect class="cls-2" x="147.2" y="117.25" width="42.08" height="2" transform="translate(-34.34 153.59) rotate(-45)"/><rect class="cls-1" x="195.47" y="103.37" width="29.76" height="29.76"/><path class="cls-2" d="M226.23,134.13H194.47V102.37h31.76Zm-29.76-2h27.76V104.37H196.47Z"/><line class="cls-1" x1="195.47" y1="103.37" x2="225.23" y2="133.13"/><rect class="cls-2" x="209.35" y="97.21" width="2" height="42.08" transform="translate(-22 183.38) rotate(-45)"/><line class="cls-1" x1="195.47" y1="133.13" x2="225.23" y2="103.37"/><rect class="cls-2" x="189.31" y="117.25" width="42.08" height="2" transform="translate(-22 183.38) rotate(-45)"/><rect class="cls-2" x="110.63" y="138.47" width="25.62" height="2.06"/><rect class="cls-2" x="110.63" y="143.1" width="31.51" height="2.06"/><rect class="cls-2" x="152.24" y="138.47" width="31.51" height="2.06"/><rect class="cls-2" x="152.24" y="143.1" width="23.24" height="2.06"/><rect class="cls-2" x="168.26" y="75.06" width="49.14" height="2.06"/><rect class="cls-2" x="168.26" y="79.69" width="36.24" height="2.06"/><rect class="cls-2" x="193.84" y="138.47" width="25.06" height="2.06"/><rect class="cls-2" x="193.84" y="143.1" width="31.51" height="2.06"/><rect class="cls-2" x="17.42" y="16.54" width="25.06" height="2.06"/><rect class="cls-2" x="17.42" y="25.9" width="18.25" height="2.06"/><rect class="cls-2" x="17.42" y="21.17" width="31.51" height="2.06"/><rect class="cls-2" x="279.87" y="73.93" width="15.76" height="2.06"/><rect class="cls-2" x="279.87" y="83.28" width="26.98" height="2.06"/><rect class="cls-2" x="287.75" y="88.12" width="19.11" height="2.06"/><rect class="cls-2" x="279.87" y="78.56" width="31.51" height="2.06"/><rect class="cls-2" x="141" y="218.8" width="15.76" height="2.06"/><rect class="cls-2" x="133.12" y="223.43" width="50.63" height="2.06"/><rect class="cls-2" x="192.18" y="19.22" width="15.76" height="2.06"/><rect class="cls-2" x="165.19" y="14.59" width="50.63" height="2.06"/><rect class="cls-2" x="60.79" y="102.62" width="15.76" height="2.06"/><rect class="cls-2" x="53.67" y="111.98" width="34.11" height="2.06"/><rect class="cls-2" x="68.67" y="116.81" width="19.11" height="2.06"/><rect class="cls-2" x="60.79" y="107.25" width="26.98" height="2.06"/><rect class="cls-2" x="306.86" y="200.78" width="14.52" height="2.06"/><rect class="cls-2" x="306.86" y="210.14" width="10.57" height="2.06"/><rect class="cls-2" x="306.86" y="205.41" width="18.25" height="2.06"/><rect class="cls-1" x="111.25" y="156.59" width="29.76" height="29.76"/><path class="cls-2" d="M142,187.34H110.25V155.59H142Zm-29.75-2H140V157.59H112.25Z"/><line class="cls-1" x1="111.25" y1="156.59" x2="141" y2="186.34"/><rect class="cls-2" x="125.12" y="150.42" width="2" height="42.08" transform="translate(-84.3 139.4) rotate(-45)"/><line class="cls-1" x1="111.25" y1="186.34" x2="141" y2="156.59"/><rect class="cls-2" x="105.08" y="170.46" width="42.08" height="2" transform="translate(-84.3 139.41) rotate(-45)"/><rect class="cls-1" x="153.36" y="156.59" width="29.76" height="29.76"/><path class="cls-2" d="M184.12,187.34H152.36V155.59h31.76Zm-29.76-2h27.76V157.59H154.36Z"/><line class="cls-1" x1="153.36" y1="156.59" x2="183.12" y2="186.34"/><rect class="cls-2" x="167.24" y="150.42" width="2" height="42.08" transform="translate(-71.97 169.19) rotate(-45)"/><line class="cls-1" x1="153.36" y1="186.34" x2="183.12" y2="156.59"/><rect class="cls-2" x="147.2" y="170.46" width="42.08" height="2" transform="translate(-71.97 169.18) rotate(-45)"/><rect class="cls-1" x="195.47" y="156.59" width="29.76" height="29.76"/><path class="cls-2" d="M226.23,187.34H194.47V155.59h31.76Zm-29.76-2h27.76V157.59H196.47Z"/><line class="cls-1" x1="195.47" y1="156.59" x2="225.23" y2="186.34"/><rect class="cls-2" x="209.35" y="150.42" width="2" height="42.08" transform="translate(-59.63 198.96) rotate(-45)"/><line class="cls-1" x1="195.47" y1="186.34" x2="225.23" y2="156.59"/><rect class="cls-2" x="189.31" y="170.46" width="42.08" height="2" transform="translate(-59.63 198.97) rotate(-45)"/><rect class="cls-2" x="110.63" y="191.69" width="31.51" height="2.06"/><rect class="cls-2" x="110.63" y="196.32" width="25.62" height="2.06"/><rect class="cls-2" x="152.24" y="191.69" width="25.91" height="2.06"/><rect class="cls-2" x="152.24" y="196.32" width="31.51" height="2.06"/><rect class="cls-2" x="193.84" y="191.69" width="31.51" height="2.06"/><rect class="cls-2" x="193.84" y="196.32" width="25.06" height="2.06"/><rect class="cls-1" x="111.25" y="52.5" width="114.65" height="7.57"/><path class="cls-2" d="M226.9,61.07H110.25V51.5H226.9Zm-114.65-2H224.9V53.5H112.25Z"/><rect class="cls-2" x="201.65" y="55.25" width="20.71" height="2.06"/><polygon class="cls-1" points="265.01 102.95 276.63 98.42 244.18 82.63 254.76 117.5 261.43 105.87 270.07 115.77 271.84 114.23 271.83 114.23 273.55 112.74 265.01 102.95"/><path class="cls-2" d="M254.48,120,242.56,80.73l36.57,17.8-12.43,4.84,8.26,9.47-5,4.34-8.37-9.6ZM245.8,84.54,255,115l6.22-10.84,8.9,10.21,2-1.72-8.82-10.1,10.82-4.22Z"/><path class="cls-2" d="M290.78,143.06v1.5a37,37,0,1,0,0,74.08v1.5a38.54,38.54,0,1,1,0-77.08Z"/><rect class="cls-4" x="285.92" y="214.53" width="9.71" height="9.71"/><path class="cls-4" d="M296.63,225.25H284.92V213.53h11.71Zm-9.71-2h7.71v-7.72h-7.71Z"/><rect class="cls-1" x="285.92" y="138.95" width="9.71" height="9.71"/><path class="cls-2" d="M296.63,149.66H284.92V138h11.71Zm-9.71-2h7.71V140h-7.71Z"/><rect class="cls-4" x="248.13" y="146.24" width="9.71" height="9.71"/><path class="cls-4" d="M258.84,157H247.13V145.24h11.71Zm-9.71-2h7.71v-7.71h-7.71Z"/><rect class="cls-1" x="248.13" y="207.24" width="9.71" height="9.71"/><path class="cls-2" d="M258.84,218H247.13V206.24h11.71Zm-9.71-2h7.71v-7.71h-7.71Z"/><rect class="cls-2" x="252.23" y="151.1" width="1.5" height="61"/><path class="cls-1" d="M255.28,181.68l24.79,12.52s1.37-8.26,7.91-8.26v-8.52c-6.54,0-7.91-8.26-7.91-8.26Z"/><path class="cls-2" d="M280.83,195.71l-27.77-14,27.77-14,.22,1.34c.05.3,1.33,7.43,6.93,7.43h1v10.52h-1c-5.63,0-6.91,7.35-6.93,7.43Zm-23.33-14,21.88,11.06c.85-3,3.15-7.19,7.6-7.74v-6.64c-4.45-.55-6.75-4.71-7.6-7.73Z"/><polygon class="cls-1" points="291.95 177.4 291.95 173.12 287.98 173.12 287.98 177.4 287.98 181.6 287.98 181.68 287.98 185.96 287.98 190.25 291.95 190.25 291.95 185.96 297.99 185.96 297.99 181.68 297.99 181.6 297.99 177.4 291.95 177.4"/><path class="cls-2" d="M293,191.25h-6V172.12h6v4.28h6V187h-6Zm-4-2h2V185h6V178.4h-6v-4.28h-2Z"/><circle class="cls-5" cx="270.41" cy="181.6" r="1.62"/><rect class="cls-2" x="255.28" y="180.6" width="15.13" height="2"/><path class="cls-2" d="M258.84,187.45H247.13V175.74h11.71Zm-9.71-2h7.71v-7.71h-7.71Z"/><path class="cls-2" d="M82.62,55.07A38.58,38.58,0,0,1,44.08,93.61v-1.5a37.09,37.09,0,0,0,37-37"/><rect class="cls-1" x="39.22" y="88.01" width="9.71" height="9.71"/><path class="cls-2" d="M49.94,98.72H38.22V87H49.94Zm-9.72-2h7.72V89H40.22Z"/><path class="cls-2" d="M81.12,55A38.58,38.58,0,0,1,119.66,16.5V18a37.08,37.08,0,0,0-37,37"/><rect class="cls-4" x="114.81" y="12.39" width="9.71" height="9.71"/><path class="cls-4" d="M125.52,23.1H113.81V11.39h11.71Zm-9.71-2h7.71V13.39h-7.71Z"/><rect class="cls-4" x="77.02" y="80.71" width="9.71" height="9.71"/><path class="cls-4" d="M87.73,91.43H76V79.71H87.73Zm-9.71-2h7.71V81.71H78Z"/><rect class="cls-1" x="77.02" y="19.71" width="9.71" height="9.71"/><path class="cls-2" d="M87.73,30.42H76V18.71H87.73Zm-9.71-2h7.71V20.71H78Z"/><rect class="cls-2" x="81.12" y="24.57" width="1.5" height="61"/><polygon class="cls-4" points="83.09 202.12 65.97 203.7 73.06 216.16 65.18 216.18 53.05 205.54 23.01 202.12 23.01 164.95 83.09 164.95 83.09 202.12"/><path class="cls-1" d="M79.58,55,54.79,42.46s-1.38,8.27-7.92,8.27v8.52c6.54,0,7.92,8.26,7.92,8.26Z"/><path class="cls-2" d="M54,69l-.23-1.33c0-.31-1.32-7.43-6.93-7.43h-1V49.73h1c5.63,0,6.92-7.36,6.93-7.43L54,41,81.79,55Zm-6.16-10.7c4.45.55,6.75,4.7,7.61,7.73L77.36,55,55.48,43.93c-.86,3-3.16,7.19-7.61,7.74Z"/><polygon class="cls-1" points="42.9 59.27 42.9 63.55 46.87 63.55 46.87 59.27 46.87 55.07 46.87 54.99 46.87 50.7 46.87 46.42 42.9 46.42 42.9 50.7 36.87 50.7 36.87 54.99 36.87 55.07 36.87 59.27 42.9 59.27"/><path class="cls-2" d="M47.87,64.55h-6V60.27h-6V49.7h6V45.42h6Zm-4-2h2V47.42h-2V51.7h-6v6.57h6Z"/><path class="cls-5" d="M64.45,56.69a1.62,1.62,0,1,1,1.62-1.62A1.63,1.63,0,0,1,64.45,56.69Z"/><rect class="cls-2" x="64.45" y="54.07" width="15.13" height="2"/><path class="cls-2" d="M87.73,60.93H76V49.21H87.73Zm-9.71-2h7.71V51.21H78Z"/><path class="cls-1" d="M76.74,160.41H30.6c-6.31,0-11.45,4.66-11.45,10.38v25.85c0,5.72,5.14,10.38,11.45,10.38H50.79a24.39,24.39,0,0,0,10.61,9.81,36.4,36.4,0,0,0,11,3.2,5.34,5.34,0,0,0,.69.05,4.39,4.39,0,0,0,3.86-2.15,3.65,3.65,0,0,0-.82-4.56A16.64,16.64,0,0,1,71.45,207h5.29c6.32,0,11.45-4.66,11.45-10.38V170.79C88.19,165.07,83.06,160.41,76.74,160.41Zm7.13,36.23c0,3.55-3.21,6.46-7.13,6.46H66a1.73,1.73,0,0,0,0,.6c1.14,5,2.77,8.59,7.09,12.46-4.23-.62-14.84-2.42-19.49-13.06h-23c-3.92,0-7.13-2.91-7.13-6.46V170.79c0-3.56,3.21-6.46,7.13-6.46H76.74c3.92,0,7.13,2.9,7.13,6.46Z"/><path class="cls-2" d="M73.06,221.08a5.93,5.93,0,0,1-.84-.06A37.07,37.07,0,0,1,61,217.72,25.36,25.36,0,0,1,50.22,208H30.6c-6.87,0-12.45-5.1-12.45-11.38V170.79c0-6.28,5.58-11.38,12.45-11.38H76.74c6.87,0,12.45,5.1,12.45,11.38v25.85c0,6.28-5.58,11.38-12.45,11.38H73a16.48,16.48,0,0,0,3.75,4.61,4.68,4.68,0,0,1,1,5.79A5.38,5.38,0,0,1,73.06,221.08ZM30.6,161.41c-5.76,0-10.45,4.21-10.45,9.38v25.85c0,5.17,4.69,9.38,10.45,9.38H51.37l.29.5a23.35,23.35,0,0,0,10.18,9.41A35.4,35.4,0,0,0,72.52,219,3.5,3.5,0,0,0,76,217.59l-3-.44c-3.71-.55-14.88-2.18-20-13.05H30.6c-4.48,0-8.13-3.35-8.13-7.46V170.79c0-4.11,3.65-7.46,8.13-7.46H76.74c4.48,0,8.13,3.35,8.13,7.46v25.85c0,4.11-3.65,7.46-8.13,7.46H67.08a20,20,0,0,0,6.65,11.31l2.3,2.06,0,0a2.66,2.66,0,0,0-.61-3.32,17.75,17.75,0,0,1-4.92-6.72L70,206h6.78c5.76,0,10.45-4.21,10.45-9.38V170.79c0-5.17-4.69-9.38-10.45-9.38Zm0,3.92c-3.38,0-6.13,2.45-6.13,5.46v25.85c0,3,2.75,5.46,6.13,5.46H54.22l.27.6c3.57,8.18,10.94,10.89,15.63,11.92A22.55,22.55,0,0,1,65,203.93a2.34,2.34,0,0,1,0-.79l.08-1H76.74c3.38,0,6.13-2.45,6.13-5.46V170.79c0-3-2.75-5.46-6.13-5.46Z"/><path class="cls-1" d="M75.64,193.23H65a1.31,1.31,0,1,0,0,2.61H75.64a1.31,1.31,0,1,0,0-2.61Z"/><path class="cls-1" d="M57.82,193.23H31.56a1.31,1.31,0,1,0,0,2.61H57.82a1.31,1.31,0,1,0,0-2.61Z"/><path class="cls-1" d="M75.64,185.94H45.94a1.31,1.31,0,1,0,0,2.61h29.7a1.31,1.31,0,1,0,0-2.61Z"/><path class="cls-1" d="M31.56,188.55H39a1.31,1.31,0,1,0,0-2.61H31.56a1.31,1.31,0,1,0,0,2.61Z"/><path class="cls-1" d="M75.64,178.65H59a1.31,1.31,0,1,0,0,2.61H75.64a1.31,1.31,0,1,0,0-2.61Z"/><path class="cls-1" d="M31.56,181.26h18a1.31,1.31,0,1,0,0-2.61H31.56a1.31,1.31,0,1,0,0,2.61Z"/><rect class="cls-4" x="253.89" y="28" width="60.22" height="32.14"/><rect class="cls-1" x="253.89" y="19.69" width="60.22" height="7.64"/><path class="cls-1" d="M75.64,171.35H65A1.31,1.31,0,1,0,65,174H75.64a1.31,1.31,0,1,0,0-2.61Z"/><path class="cls-1" d="M31.56,174H56.63a1.31,1.31,0,1,0,0-2.61H31.56a1.31,1.31,0,1,0,0,2.61Z"/><path class="cls-1" d="M314.12,16.05H253.89A4.13,4.13,0,0,0,249.57,20V57.76a4.13,4.13,0,0,0,4.32,3.91h60.23a4.12,4.12,0,0,0,4.31-3.91V20A4.13,4.13,0,0,0,314.12,16.05ZM253.89,20h60.23v6.5H253.89Zm60.23,37.79H253.89V30.38h60.23Z"/><path class="cls-2" d="M314.12,62.67H253.89a5.13,5.13,0,0,1-5.32-4.91V20a5.14,5.14,0,0,1,5.32-4.92h60.23A5.13,5.13,0,0,1,319.43,20V57.76A5.12,5.12,0,0,1,314.12,62.67ZM253.89,17.05A3.14,3.14,0,0,0,250.57,20V57.76a3.14,3.14,0,0,0,3.32,2.91h60.23a3.13,3.13,0,0,0,3.31-2.91V20a3.14,3.14,0,0,0-3.31-2.92Zm61.23,41.71H252.89V29.38h62.23Zm-60.23-2h58.23V31.38H254.89Zm60.23-29.29H252.89V19h62.23Zm-60.23-2h58.23V21H254.89Z"/><path class="cls-1" d="M260.37,38.37H300a1.31,1.31,0,1,0,0-2.61H260.37a1.31,1.31,0,1,0,0,2.61Z"/><path class="cls-1" d="M307.84,39.52a2.47,2.47,0,1,0-2.7-2.45A2.59,2.59,0,0,0,307.84,39.52Z"/><path class="cls-1" d="M260.16,53.54a1.39,1.39,0,0,0,1.44-1.31V47.07H300a1.31,1.31,0,1,0,0-2.61H260.16a1.38,1.38,0,0,0-1.44,1.3v6.47A1.39,1.39,0,0,0,260.16,53.54Z"/><path class="cls-1" d="M307.84,44.46a1.37,1.37,0,0,0-1.43,1.3v5.16H267.52a1.32,1.32,0,1,0,0,2.62h40.32a1.39,1.39,0,0,0,1.45-1.31V45.76A1.38,1.38,0,0,0,307.84,44.46Z"/><rect class="cls-1" x="294.27" y="101.08" width="24.68" height="24.67" rx="3"/><path class="cls-2" d="M316,126.75H297.27a4,4,0,0,1-4-4V104.08a4,4,0,0,1,4-4H316a4,4,0,0,1,4,4v18.67A4,4,0,0,1,316,126.75Zm-18.68-24.67a2,2,0,0,0-2,2v18.67a2,2,0,0,0,2,2H316a2,2,0,0,0,2-2V104.08a2,2,0,0,0-2-2Z"/><rect class="cls-1" x="41.33" y="127.17" width="24.67" height="24.68" rx="3"/><path class="cls-2" d="M63,152.84H44.33a4,4,0,0,1-4-4V130.17a4,4,0,0,1,4-4H63a4,4,0,0,1,4,4v18.67A4,4,0,0,1,63,152.84ZM44.33,128.17a2,2,0,0,0-2,2v18.67a2,2,0,0,0,2,2H63a2,2,0,0,0,2-2V130.17a2,2,0,0,0-2-2Z"/><path class="cls-1" d="M312.87,116.63l-3.21-3.22,3.21-3.2a.89.89,0,0,0,0-1.23L311,107.15a.89.89,0,0,0-1.23,0l-3.2,3.21-3.21-3.21a.88.88,0,0,0-1.22,0L300.35,109a.87.87,0,0,0,0,1.23l3.2,3.2-3.2,3.22a.85.85,0,0,0,0,1.21l1.83,1.83a.86.86,0,0,0,1.22,0l3.21-3.2,3.2,3.21a.88.88,0,0,0,1.23,0l1.83-1.83A.86.86,0,0,0,312.87,116.63Z"/><path class="cls-2" d="M310.42,120.93a1.84,1.84,0,0,1-1.31-.55l-2.5-2.5-2.5,2.5a1.91,1.91,0,0,1-2.64,0l-1.83-1.83a1.86,1.86,0,0,1-.55-1.32,1.84,1.84,0,0,1,.55-1.31l2.5-2.51-2.5-2.49a1.87,1.87,0,0,1,0-2.64l1.83-1.83a1.9,1.9,0,0,1,2.64,0l2.5,2.49,2.5-2.49a1.9,1.9,0,0,1,2.63,0l1.84,1.83a1.89,1.89,0,0,1,0,2.63l-2.51,2.5,2.51,2.51a1.83,1.83,0,0,1,.54,1.3,1.86,1.86,0,0,1-.54,1.33l-1.84,1.83A1.86,1.86,0,0,1,310.42,120.93Zm-3.81-5.87,3.81,3.81,1.65-1.64-3.83-3.82,3.83-3.81L310.43,108l-3.82,3.81L302.79,108l-1.64,1.64,3.82,3.81-3.82,3.82,1.64,1.64Z"/><path class="cls-1" d="M60.54,134.91l-2.17-1.75a.53.53,0,0,0-.75.08l-5.93,7.34-2.32-2.11a.54.54,0,0,0-.76,0l-1.87,2.06a.53.53,0,0,0,0,.75l5,4.52a.5.5,0,0,0,.73-.06l1.75-2.19h0l6.39-7.92A.54.54,0,0,0,60.54,134.91Z"/><path class="cls-2" d="M52.08,147h0a1.53,1.53,0,0,1-1-.39l-5-4.52a1.52,1.52,0,0,1-.1-2.16l1.87-2.07a1.59,1.59,0,0,1,2.17-.1l1.54,1.4,5.26-6.52a1.57,1.57,0,0,1,2.16-.23l2.17,1.75a1.54,1.54,0,0,1,.23,2.16L53.25,146.4A1.51,1.51,0,0,1,52.08,147Zm-4.29-6.07L52,144.74l7.53-9.34-1.44-1.17L51.8,142,49,139.52Z"/><path class="cls-1" d="M28.63,100.45a1.08,1.08,0,0,1,1.14,1V131.2a1.08,1.08,0,0,1-1.14,1H17.39a1.08,1.08,0,0,1-1.15-1V101.45a1.08,1.08,0,0,1,1.15-1Z"/><path class="cls-2" d="M28.63,133.2H17.39a2.08,2.08,0,0,1-2.15-2V101.45a2.08,2.08,0,0,1,2.15-2H28.63a2.08,2.08,0,0,1,2.14,2V131.2A2.08,2.08,0,0,1,28.63,133.2Zm-11.38-2,.14,0H28.63a.2.2,0,0,0,.15,0V101.46s-.06,0-.14,0H17.39a.23.23,0,0,0-.16,0v29.69Z"/><rect class="cls-1" x="18.1" y="92.86" width="9.69" height="6.84"/><path class="cls-2" d="M28.79,100.7H17.1V91.86H28.79Zm-9.69-2h7.69V93.86H19.1Z"/><rect class="cls-2" x="19.61" y="95.52" width="2.37" height="1.52"/><rect class="cls-2" x="24.03" y="95.52" width="2.37" height="1.52"/></svg>