<svg id="Layer_1" data-name="Layer 1" xmlns="http://www.w3.org/2000/svg" viewBox="0 0 3000 2000"><defs><style>.cls-1{fill:#ead7b5;}.cls-2{fill:#fff2d2;}.cls-3{fill:#846a45;}.cls-4{fill:#595858;}.cls-5{fill:#e0a882;}.cls-6{fill:#cc9875;}.cls-7{fill:#f1ba93;}.cls-8{fill:#a67d67;}.cls-9{fill:#966956;}.cls-10{fill:#e15254;}.cls-11{fill:#ce4d53;}.cls-12{fill:#c1464f;}.cls-13{fill:#b2404e;}.cls-14{fill:#bc8d6d;}.cls-15{fill:#fff2e9;}.cls-16{fill:#c94342;}.cls-17{fill:#f7e4d6;}.cls-18{fill:#776f6f;}.cls-19{fill:#6d6464;}.cls-20{fill:#eab698;}.cls-21{fill:#d3a188;}.cls-22{fill:#c18e78;}.cls-23{fill:#d8a88f;}.cls-24{fill:#e0cec3;}.cls-25{fill:#c1917c;}.cls-26{fill:#8cb277;}.cls-27{fill:#97c681;}.cls-28{fill:#030a8c;}.cls-29{fill:#a3c1c1;}.cls-30{fill:#95b5b4;}.cls-31{fill:#cea284;}.cls-32{fill:#b5937c;}.cls-33{fill:#474646;}.cls-34{fill:#bf977b;}.cls-35{fill:#a3836d;}.cls-36{fill:#fff;}.cls-37{fill:#6b3f3f;}.cls-38{fill:#f9c6aa;}.cls-39{fill:#898686;}.cls-40{fill:#757575;}.cls-41{fill:#025159;}.cls-42{fill:#e0ac92;}.cls-43{fill:#8a4e4e;}.cls-44{fill:#e0d5ce;}.cls-45{fill:#827c7c;}.cls-46{fill:#ddccc0;}.cls-47{fill:#e0d1c7;}.cls-48{fill:#eed533;}.cls-49{fill:#c6ac3e;}.cls-50{fill:#d04b44;}.cls-51{fill:#b53937;}.cls-52{fill:#fda05b;}.cls-53{fill:#d38753;}.cls-54{fill:#dbc040;}.cls-55{fill:#f4dc76;}.cls-56{fill:#bf403d;}.cls-57{fill:#d85a56;}.cls-58{fill:#e29059;}.cls-59{fill:#f9ae7a;}.cls-60{fill:#684d3e;}.cls-61{fill:#aa6f6f;}.cls-62{fill:#a94543;}.cls-63{fill:#d8a995;}</style></defs><title>store</title><circle class="cls-1" cx="1500" cy="1000" r="812.3"/><path class="cls-2" d="M1282.6,373.2a32.14,32.14,0,0,0,32.1-32.1h0a32.14,32.14,0,0,0-32.1-32.1h-69.3a32.14,32.14,0,0,0-32.1,32.1h0a32.14,32.14,0,0,0,32.1,32.1Z"/><path class="cls-2" d="M1999.7,385.7a32.14,32.14,0,0,0,32.1-32.1h0a32.14,32.14,0,0,0-32.1-32.1h-69.3a32.14,32.14,0,0,0-32.1,32.1h0a32.14,32.14,0,0,0,32.1,32.1Z"/><path class="cls-2" d="M1754.2,288.1a16.09,16.09,0,0,0,16.1-16.1h0a16.09,16.09,0,0,0-16.1-16.1h-34.6a16.09,16.09,0,0,0-16.1,16.1h0a16.09,16.09,0,0,0,16.1,16.1Z"/><path class="cls-2" d="M2393.1,929.9a16.09,16.09,0,0,0,16.1-16.1h0a16.09,16.09,0,0,0-16.1-16.1h-34.6a16.09,16.09,0,0,0-16.1,16.1h0a16.09,16.09,0,0,0,16.1,16.1Z"/><path class="cls-2" d="M1845.7,392.8a19.63,19.63,0,0,0,19.6-19.6h0a19.63,19.63,0,0,0-19.6-19.6H1709a19.63,19.63,0,0,0-19.6,19.6h0a19.63,19.63,0,0,0,19.6,19.6Z"/><path class="cls-2" d="M911.2,809.7A14.72,14.72,0,0,0,925.9,795h0a14.72,14.72,0,0,0-14.7-14.7H630.1A14.72,14.72,0,0,0,615.4,795h0a14.72,14.72,0,0,0,14.7,14.7Z"/><path class="cls-2" d="M1483.3,922.1a14.7,14.7,0,1,0,0-29.4H1202.2a14.7,14.7,0,0,0,0,29.4Z"/><path class="cls-2" d="M2311.1,928.5a14.7,14.7,0,1,0,0-29.4H2030a14.7,14.7,0,0,0,0,29.4Z"/><path class="cls-2" d="M834.6,449H1372a28.12,28.12,0,0,0,28.1-28.1h0a28.12,28.12,0,0,0-28.1-28.1H834.6a28.12,28.12,0,0,0-28.1,28.1h0A28.12,28.12,0,0,0,834.6,449Z"/><path class="cls-2" d="M2361.7,1185.2a28.12,28.12,0,0,0,28.1-28.1h0a28.12,28.12,0,0,0-28.1-28.1H1824.4a28.12,28.12,0,0,0-28.1,28.1h0a28.12,28.12,0,0,0,28.1,28.1Z"/><path class="cls-2" d="M1175.2,1232.5a28.12,28.12,0,0,0,28.1-28.1h0a28.12,28.12,0,0,0-28.1-28.1H637.9a28.12,28.12,0,0,0-28.1,28.1h0a28.12,28.12,0,0,0,28.1,28.1Z"/><path class="cls-2" d="M1672.3,289a17.09,17.09,0,0,0,17.1-17.1h0a17.09,17.09,0,0,0-17.1-17.1h-326a17.09,17.09,0,0,0-17.1,17.1h0a17.09,17.09,0,0,0,17.1,17.1Z"/><path class="cls-2" d="M1120.1,936.7a22.9,22.9,0,0,0,22.9-22.9h0a22.9,22.9,0,0,0-22.9-22.9h-51.2a22.9,22.9,0,0,0-22.9,22.9h0a22.9,22.9,0,0,0,22.9,22.9Z"/><path class="cls-2" d="M557.8,817.9A22.9,22.9,0,0,0,580.7,795h0a22.9,22.9,0,0,0-22.9-22.9H506.6A22.9,22.9,0,0,0,483.7,795h0a22.9,22.9,0,0,0,22.9,22.9Z"/><path class="cls-2" d="M2386.3,1010a22.9,22.9,0,0,0,0-45.8h-51.2a22.9,22.9,0,0,0,0,45.8Z"/><path class="cls-3" d="M2377.6,1824.4a71.4,71.4,0,1,0,0-142.8H622.4a71.4,71.4,0,1,0,0,142.8Z"/><rect class="cls-4" x="1649" y="1269.8" width="452.2" height="24.1"/><rect class="cls-5" x="865.8" y="805.4" width="32.7" height="436.4"/><path class="cls-6" d="M898.5,865.4V771.1H865.8v97.4a84.57,84.57,0,0,0,8.7.5h0A82.46,82.46,0,0,0,898.5,865.4Z"/><rect class="cls-5" x="2101.5" y="805.4" width="32.7" height="514.1"/><path class="cls-7" d="M2090,1616.3a44.11,44.11,0,0,0,44.1-44.1V1285.3H1662.5l-68.1-77.7H865.8v364.6a44.11,44.11,0,0,0,44.1,44.1Z"/><path class="cls-8" d="M2077.5,1681.7a11.65,11.65,0,0,0,11.7-11.7v-53.7H910.8V1670a11.65,11.65,0,0,0,11.7,11.7Z"/><rect class="cls-9" x="910.8" y="1617.5" width="1178.4" height="19"/><path class="cls-10" d="M1182.8,1617.5V1241.8h-317v350.1a25.65,25.65,0,0,0,25.6,25.6Z"/><rect class="cls-11" x="1182.8" y="1241.8" width="317" height="375.7"/><polygon class="cls-12" points="1816.9 1319.5 1630.1 1319.5 1562 1241.8 1499.9 1241.8 1499.9 1616.3 1816.9 1616.3 1816.9 1319.5"/><path class="cls-13" d="M2133.9,1591.9V1319.5h-317v298h291.4A25.65,25.65,0,0,0,2133.9,1591.9Z"/><path class="cls-14" d="M898.5,857.4V763.1H865.8v97.4a84.57,84.57,0,0,0,8.7.5h0A82.46,82.46,0,0,0,898.5,857.4Z"/><path class="cls-6" d="M2134.2,868.5V771.1h-32.7v94.3a83,83,0,0,0,24,3.6h0A84.57,84.57,0,0,0,2134.2,868.5Z"/><path class="cls-14" d="M2134.2,860.5V763.1h-32.7v94.3a83,83,0,0,0,24,3.6h0A84.57,84.57,0,0,0,2134.2,860.5Z"/><polygon class="cls-10" points="2206.9 749.2 1986.9 513.6 1500 513.6 1013.1 513.6 793.1 749.2 1500 749.2 2206.9 749.2"/><polygon class="cls-15" points="2044.1 749.2 1874.8 513.6 1500 513.6 1125.2 513.6 955.9 749.2 1500 749.2 2044.1 749.2"/><polygon class="cls-10" points="1883.2 749.2 1764 513.6 1500 513.6 1236 513.6 1116.8 749.2 1500 749.2 1883.2 749.2"/><polygon class="cls-15" points="1722.2 749.2 1653.1 513.6 1500 513.6 1346.9 513.6 1277.8 749.2 1500 749.2 1722.2 749.2"/><polygon class="cls-10" points="1584.8 749.2 1558.4 513.6 1500 513.6 1441.6 513.6 1415.2 749.2 1500 749.2 1584.8 749.2"/><path class="cls-16" d="M874.5,847.1h0a81.41,81.41,0,0,0,81.4-81.4V749.2H793.1v16.5A81.41,81.41,0,0,0,874.5,847.1Z"/><path class="cls-17" d="M1036.4,847.1a80.45,80.45,0,0,0,80.5-80.5V749.2h-161v17.4a80.45,80.45,0,0,0,80.5,80.5Z"/><path class="cls-16" d="M1277.8,766.6V749.2h-161v17.4a80.5,80.5,0,1,0,161,0Z"/><path class="cls-17" d="M1346.5,847.1a68.75,68.75,0,0,0,68.7-68.7V749.2H1277.8v29.2a68.69,68.69,0,0,0,68.7,68.7Z"/><path class="cls-16" d="M2125.5,847.1a81.41,81.41,0,0,0,81.4-81.4V749.2H2044.2v16.5a81.26,81.26,0,0,0,81.3,81.4Z"/><path class="cls-17" d="M1963.6,847.1a80.45,80.45,0,0,0,80.5-80.5V749.2h-161v17.4a80.58,80.58,0,0,0,80.5,80.5Z"/><path class="cls-16" d="M1802.7,847.1a80.45,80.45,0,0,0,80.5-80.5V749.2h-161v17.4a80.45,80.45,0,0,0,80.5,80.5Z"/><path class="cls-17" d="M1653.5,847.1a68.75,68.75,0,0,0,68.7-68.7V749.2H1584.8v29.2a68.63,68.63,0,0,0,68.7,68.7Z"/><path class="cls-16" d="M1500,847.1h0a84.78,84.78,0,0,0,84.8-84.8V749.1H1415.3v13.2A84.63,84.63,0,0,0,1500,847.1Z"/><path class="cls-18" d="M2025.2,1199.3H1710c31,42.1,89.9,70.5,157.6,70.5S1994.2,1241.4,2025.2,1199.3Z"/><path class="cls-19" d="M2013.9,1212.7c-35.8,28.5-88.1,46.5-146.3,46.5s-110.5-18-146.3-46.5c32.8,34.6,86.1,57.1,146.3,57.1S1981,1247.3,2013.9,1212.7Z"/><path class="cls-18" d="M1726.2,1210.5l2.3-9.9-46.3-10.9a4.47,4.47,0,0,0-5.4,3.3l-.3,1.2a4.47,4.47,0,0,0,3.3,5.4Z"/><path class="cls-18" d="M2055.5,1194.2l-.3-1.2a4.47,4.47,0,0,0-5.4-3.3l-46.3,10.9,2.3,9.9,46.3-10.9A4.46,4.46,0,0,0,2055.5,1194.2Z"/><path class="cls-8" d="M929.5,1485.5h361.1a14.5,14.5,0,0,0,0-29H929.5a14.5,14.5,0,0,0,0,29Z"/><path class="cls-20" d="M1257.9,1499.2a8.28,8.28,0,0,0,8.3-8.3v-5.5H953.8v5.5a8.28,8.28,0,0,0,8.3,8.3Z"/><polygon class="cls-21" points="995.5 1499.2 967.6 1772.8 996.2 1772.8 1024.1 1499.2 995.5 1499.2"/><polygon class="cls-21" points="1252.4 1772.8 1224.5 1499.2 1195.9 1499.2 1223.8 1772.8 1252.4 1772.8"/><polygon class="cls-22" points="995.5 1499.2 994.1 1514.7 1022.7 1514.7 1024.1 1499.2 995.5 1499.2"/><polygon class="cls-22" points="1225.9 1514.7 1224.5 1499.2 1195.9 1499.2 1197.2 1514.7 1225.9 1514.7"/><rect class="cls-23" x="953.8" y="1485.5" width="312.4" height="5"/><rect class="cls-21" x="898.2" y="1587.1" width="16.8" height="189.8"/><polygon class="cls-21" points="726.4 1587.1 699 1776 715.9 1776 743.2 1587.1 726.4 1587.1"/><path class="cls-20" d="M725,1587.1H917.7a8.63,8.63,0,0,0,8.7-8.3,8.35,8.35,0,0,0-8.4-8.5H731.9l-53.4-270.6-8.4,1.7,46.7,279A8.27,8.27,0,0,0,725,1587.1Z"/><path class="cls-17" d="M737.7,1578.7H921.9a16,16,0,0,0,0-32H750.8l-50.1-255.3a16,16,0,1,0-31.4,6.2l52.6,268.2A16.08,16.08,0,0,0,737.7,1578.7Z"/><path class="cls-24" d="M737.7,1578.7H921.9a15.89,15.89,0,0,0,14.6-9.5,16,16,0,0,1-8.7,2.4H736.7a16.58,16.58,0,0,1-16.1-12.6l1.3,6.7A16.07,16.07,0,0,0,737.7,1578.7Z"/><polygon class="cls-25" points="726.4 1587.1 725 1598.5 741.9 1598.5 743.2 1587.1 726.4 1587.1"/><rect class="cls-25" x="898.2" y="1587.1" width="16.8" height="11.4"/><rect class="cls-21" x="1307.8" y="1587.1" width="16.8" height="189.8"/><polygon class="cls-21" points="1523.7 1776 1496.3 1587.1 1479.5 1587.1 1506.8 1776 1523.7 1776"/><path class="cls-20" d="M1497.8,1587.1a8.27,8.27,0,0,0,8.2-6.8l46.7-279-8.4-1.7-53.4,270.6H1304.8a8.35,8.35,0,0,0-8.4,8.5,8.7,8.7,0,0,0,8.7,8.3h192.7Z"/><path class="cls-17" d="M1485.1,1578.7a16,16,0,0,0,15.7-12.9l52.6-268.2a16,16,0,0,0-31.4-6.2l-50.1,255.3H1300.8a16,16,0,0,0,0,32Z"/><path class="cls-24" d="M1485.1,1578.7a16,16,0,0,0,15.7-12.9l1.3-6.7a16.69,16.69,0,0,1-16.1,12.6H1294.9a16.93,16.93,0,0,1-8.7-2.4,16,16,0,0,0,14.6,9.5h184.3Z"/><polygon class="cls-25" points="1496.3 1587.1 1479.5 1587.1 1480.8 1598.5 1497.7 1598.5 1496.3 1587.1"/><rect class="cls-25" x="1307.8" y="1587.1" width="16.8" height="11.4"/><path class="cls-26" d="M1108.8,1435a1.27,1.27,0,0,0,.6.1,2.05,2.05,0,0,0,2.1-1.6c10.9-40-9.2-79.5-10-81.2a2.21,2.21,0,0,0-3.9,2.1c.2.4,20.2,39.7,9.7,78A2,2,0,0,0,1108.8,1435Z"/><path class="cls-27" d="M1101.1,1356.2a16.25,16.25,0,0,0-14.7-21.6,16.36,16.36,0,0,0,1.9,14.5A16,16,0,0,0,1101.1,1356.2Z"/><path class="cls-27" d="M1106.7,1373.4a16.5,16.5,0,0,0-11.9-8.6,16.13,16.13,0,0,0-14,4.4,16.5,16.5,0,0,0,11.9,8.6A16.13,16.13,0,0,0,1106.7,1373.4Z"/><path class="cls-27" d="M1111.4,1397.3a20.46,20.46,0,0,0-14.8-10.7,20.18,20.18,0,0,0-17.4,5.5,20.31,20.31,0,0,0,32.2,5.2Z"/><path class="cls-27" d="M1128.5,1356.7a16.28,16.28,0,0,0-20.8,15.9,16.06,16.06,0,0,0,14.4-2.7A16.27,16.27,0,0,0,1128.5,1356.7Z"/><path class="cls-27" d="M1140.8,1380.4a20.24,20.24,0,0,0-18.2,1.2,20.6,20.6,0,0,0-9.9,15.4,20.3,20.3,0,0,0,28.1-16.6Z"/><rect class="cls-28" x="1085.8" y="1410.3" width="51.1" height="4.2"/><path class="cls-29" d="M1096.9,1456.4h28.8a13,13,0,0,0,11.7-7.3,13.46,13.46,0,0,0,1.1-7.4l-3.4-27.2h-47.8l-3.4,27.2a13.46,13.46,0,0,0,1.1,7.4A13.63,13.63,0,0,0,1096.9,1456.4Z"/><polygon class="cls-30" points="1087.5 1414.6 1087.3 1416 1135.4 1416 1135.2 1414.6 1087.5 1414.6"/><polygon class="cls-31" points="2293.2 1326.9 2028.6 1326.9 1978 1728.5 2242.6 1728.5 2293.2 1326.9"/><polygon class="cls-4" points="2271.5 1344.9 2045.8 1344.9 1999.7 1710.5 2225.5 1710.5 2271.5 1344.9"/><polygon class="cls-32" points="2242.6 1728.5 2344.4 1728.5 2293.2 1326.9 2242.6 1728.5"/><polygon class="cls-33" points="2245.3 1707.3 2325 1707.3 2286.7 1378.3 2245.3 1707.3"/><polygon class="cls-31" points="2006.2 1728.5 1993.2 1777.5 2018.2 1777.5 2031.2 1728.5 2006.2 1728.5"/><polygon class="cls-32" points="2113.3 1728.5 2100.3 1777.5 2125.3 1777.5 2138.3 1728.5 2113.3 1728.5"/><polygon class="cls-31" points="2209.5 1728.5 2184.5 1728.5 2197.5 1777.5 2222.5 1777.5 2209.5 1728.5"/><polygon class="cls-32" points="2318.5 1728.5 2293.5 1728.5 2306.5 1777.5 2331.5 1777.5 2318.5 1728.5"/><polygon class="cls-34" points="2006.2 1728.5 2002.6 1742.2 2027.6 1742.2 2031.2 1728.5 2006.2 1728.5"/><polygon class="cls-35" points="2138.3 1728.5 2113.3 1728.5 2109.6 1742.2 2134.6 1742.2 2138.3 1728.5"/><polygon class="cls-34" points="2209.5 1728.5 2184.5 1728.5 2188.2 1742.2 2213.2 1742.2 2209.5 1728.5"/><polygon class="cls-35" points="2318.2 1728.5 2293.2 1728.5 2296.8 1742.2 2321.8 1742.2 2318.2 1728.5"/><polygon class="cls-36" points="2231.2 1417.3 2060.3 1417.3 2059.1 1427.9 2230.1 1427.9 2231.2 1417.3"/><polygon class="cls-36" points="2227.8 1458 2056.8 1458 2055.7 1468.6 2226.7 1468.6 2227.8 1458"/><polygon class="cls-36" points="2224.4 1498.6 2053.4 1498.6 2052.3 1509.2 2223.3 1509.2 2224.4 1498.6"/><polygon class="cls-36" points="2221 1539.3 2050 1539.3 2048.9 1549.9 2219.8 1549.9 2221 1539.3"/><polygon class="cls-36" points="2217.6 1579.9 2046.6 1579.9 2045.5 1590.6 2216.4 1590.6 2217.6 1579.9"/><polygon class="cls-36" points="2214.1 1620.6 2043.2 1620.6 2042 1631.2 2213 1631.2 2214.1 1620.6"/><rect class="cls-37" x="1468.8" y="944.8" width="101.7" height="87.1"/><path class="cls-38" d="M1655.1,1107a12.1,12.1,0,0,0,6.1,1.6h.4l121-3.8a12.5,12.5,0,0,0-.4-25h-.4l-117.5,3.7-88.9-50a12.56,12.56,0,0,0-12.3,21.9Z"/><rect class="cls-39" x="1799.94" y="1050.12" width="6.5" height="179" transform="translate(-273.37 651.65) rotate(-19.07)"/><path class="cls-40" d="M1798.2,1110.8l-20.2-58.4a4,4,0,0,0-5.1-2.5l-1.1.4a4,4,0,0,0-2.5,5.1l20.2,58.4Z"/><circle class="cls-38" cx="1782.3" cy="1092.3" r="25.9"/><path class="cls-41" d="M1593.6,1084.5l20.5,13.1c13.7-7.6,18.2-34.4,18.2-34.4l-52.1-29a18.53,18.53,0,0,0-9-2.3H1470.3a31.71,31.71,0,0,0-31.7,31.7v144h155V1084.5Z"/><path class="cls-42" d="M1517.7,1049a11.29,11.29,0,0,0,11.3-11.3V1000h-25.7v37.7a11.29,11.29,0,0,0,11.3,11.3Z"/><rect class="cls-15" x="1488" y="1031.8" width="5.9" height="80.4"/><rect class="cls-15" x="1553.8" y="1031.8" width="5.9" height="80.4"/><polygon class="cls-15" points="1593.6 1112.2 1559.7 1090.3 1474.7 1090.3 1438.4 1119.7 1438.6 1207.6 1593.6 1207.6 1593.6 1112.2"/><circle class="cls-38" cx="1662.6" cy="1186.5" r="25.9"/><path class="cls-38" d="M1544.4,1162.2l98.7,33.9a15.81,15.81,0,0,0,5.2.9,16,16,0,0,0,5.2-31.1l-94.9-32.6-83.4-89.9a16,16,0,0,0-23.4,21.8l86.1,92.8A17,17,0,0,0,1544.4,1162.2Z"/><path class="cls-41" d="M1521.5,1088.5l-54.5-56.7s-32.5,2.4-28.4,42.9l41,49.7C1479.6,1124.5,1511,1111.8,1521.5,1088.5Z"/><path class="cls-38" d="M1517.2,1015.9a52.28,52.28,0,0,0,52.3-52.3V913.5a27,27,0,0,0-27-27h-50.6a27,27,0,0,0-27,27v50.1a52.28,52.28,0,0,0,52.3,52.3Z"/><path class="cls-43" d="M1502.3,926.1a42.1,42.1,0,0,0,42.1-42.1H1501a48.27,48.27,0,0,0-48.3,48.3v74.4a40.2,40.2,0,0,0,40.2,40.2h0c-29.1,0-18.2-120.8-18.2-120.8Z"/><path class="cls-43" d="M1546.3,1046.9a35.29,35.29,0,0,0,35.3-35.3V924.7a40.63,40.63,0,0,0-40.6-40.6h0v20.5a22.36,22.36,0,0,0,22.4,22.4C1563.4,926.9,1569.7,1046.1,1546.3,1046.9Z"/><polygon class="cls-44" points="1460.8 1101.6 1438.4 1119.7 1468.3 1110.7 1460.8 1101.6"/><polygon class="cls-41" points="1438.6 1074.7 1449.5 1110.7 1460.8 1101.6 1438.6 1074.7"/><polygon class="cls-41" points="1585.2 1079.6 1593.6 1112.2 1593.6 1084.5 1585.2 1079.6"/><ellipse class="cls-45" cx="924.59" cy="1074.5" rx="14.8" ry="21.5" transform="translate(-226.78 247.59) rotate(-13.6)"/><rect class="cls-45" x="935.49" y="1087.91" width="5.2" height="84.9" transform="translate(-239.53 252.33) rotate(-13.6)"/><ellipse class="cls-45" cx="980.02" cy="1043.62" rx="21.5" ry="14.8" transform="translate(-207.68 1842.96) rotate(-80.74)"/><rect class="cls-45" x="928.39" y="1097.76" width="84.9" height="5.2" transform="translate(-271.39 1881.52) rotate(-80.74)"/><path class="cls-45" d="M948.9,1062.5l-2.7.3a1.11,1.11,0,0,1-1.2-.9l-2.7-24.5a2.16,2.16,0,0,0-4.3.5l2.8,25.5.7,6.2a3.26,3.26,0,0,0,3.6,2.9l1-.1,4.8-.5,4.2-.5,4.8-.5,1-.1a3.26,3.26,0,0,0,2.9-3.6l-.7-6.2-2.8-25.5a2.16,2.16,0,0,0-4.3.5l2.7,24.5a1.11,1.11,0,0,1-.9,1.2l-2.7.3a1.11,1.11,0,0,1-1.2-.9l-2.7-24.5a2.16,2.16,0,1,0-4.3.5l2.7,24.5C949.9,1061.9,949.4,1062.4,948.9,1062.5Z"/><rect class="cls-45" x="954.86" y="1069.12" width="5.2" height="84.9" transform="matrix(0.99, -0.11, 0.11, 0.99, -115.76, 111.31)"/><path class="cls-45" d="M997.9,1057.5a2.12,2.12,0,1,0-4-1.4l-8.5,24.2-2.1,5.9a3.31,3.31,0,0,0,2,4.2l.9.3,4.6,1.6,4,1.4,4.6,1.6.9.3a3.31,3.31,0,0,0,4.2-2l2.1-5.9,8.5-24.2a2.12,2.12,0,1,0-4-1.4l-8.2,23.2a1,1,0,0,1-1.3.6l-2.6-.9a1,1,0,0,1-.6-1.3l8.2-23.2a2.12,2.12,0,1,0-4-1.4l-8.2,23.2a1,1,0,0,1-1.3.6l-2.6-.9a1,1,0,0,1-.6-1.3Z"/><rect class="cls-45" x="937" y="1128.24" width="84.9" height="5.2" transform="translate(-412.42 1679.31) rotate(-70.61)"/><polygon class="cls-17" points="987.7 1207.6 1000.4 1102.2 960.1 1102.2 919.8 1102.2 932.5 1207.6 960.1 1207.6 987.7 1207.6"/><rect class="cls-46" x="917.8" y="1102.2" width="84.5" height="7"/><path class="cls-17" d="M1122.2,1207.6a20.74,20.74,0,0,0,20.7-20.7H1015.2a20.74,20.74,0,0,0,20.7,20.7Z"/><path class="cls-47" d="M1122.2,1207.6a20.74,20.74,0,0,0,19.3-13.1,22.27,22.27,0,0,1-16.8,7.5h-91.1a22.11,22.11,0,0,1-16.8-7.5,20.64,20.64,0,0,0,19.3,13.1Z"/><path class="cls-17" d="M1122.2,1186.9a20.74,20.74,0,0,0,20.7-20.7H1015.2a20.74,20.74,0,0,0,20.7,20.7Z"/><path class="cls-47" d="M1122.2,1186.9a20.74,20.74,0,0,0,19.3-13.1,22.27,22.27,0,0,1-16.8,7.5h-91.1a22.11,22.11,0,0,1-16.8-7.5,20.64,20.64,0,0,0,19.3,13.1Z"/><path class="cls-17" d="M1122.2,1166.2a20.74,20.74,0,0,0,20.7-20.7H1015.2a20.74,20.74,0,0,0,20.7,20.7Z"/><path class="cls-47" d="M1122.2,1166.2a20.74,20.74,0,0,0,19.3-13.1,22.27,22.27,0,0,1-16.8,7.5h-91.1a22.11,22.11,0,0,1-16.8-7.5,20.64,20.64,0,0,0,19.3,13.1Z"/><path class="cls-17" d="M1122.2,1145.5a20.74,20.74,0,0,0,20.7-20.7H1015.2a20.74,20.74,0,0,0,20.7,20.7Z"/><path class="cls-47" d="M1122.2,1145.5a20.74,20.74,0,0,0,19.3-13.1,22.27,22.27,0,0,1-16.8,7.5h-91.1a22.11,22.11,0,0,1-16.8-7.5,20.64,20.64,0,0,0,19.3,13.1Z"/><path class="cls-17" d="M1122.2,1124.8a20.74,20.74,0,0,0,20.7-20.7H1015.2a20.74,20.74,0,0,0,20.7,20.7Z"/><path class="cls-47" d="M1122.2,1124.8a20.74,20.74,0,0,0,19.3-13.1,22.27,22.27,0,0,1-16.8,7.5h-91.1a22.11,22.11,0,0,1-16.8-7.5,20.64,20.64,0,0,0,19.3,13.1Z"/><rect class="cls-48" x="1165.3" y="1119.7" width="47.3" height="87.9"/><rect class="cls-49" x="1163.6" y="1113.6" width="50.5" height="6.2"/><polygon class="cls-48" points="1212 1113.6 1198.3 1083 1188.9 1083 1179.5 1083 1165.8 1113.6 1188.9 1113.6 1212 1113.6"/><rect class="cls-50" x="1222.9" y="1119.7" width="47.3" height="87.9"/><rect class="cls-51" x="1221.3" y="1113.6" width="50.5" height="6.2"/><polygon class="cls-50" points="1256 1083 1246.6 1083 1237.2 1083 1223.5 1113.6 1246.6 1113.6 1269.6 1113.6 1256 1083"/><rect class="cls-52" x="1281" y="1119.7" width="47.3" height="87.9"/><rect class="cls-53" x="1279.4" y="1113.6" width="50.5" height="6.2"/><polygon class="cls-52" points="1314.1 1083 1304.7 1083 1295.3 1083 1281.6 1113.6 1304.7 1113.6 1327.8 1113.6 1314.1 1083"/><rect class="cls-54" x="1199.3" y="1119.7" width="13.3" height="87.9"/><rect class="cls-55" x="1165.3" y="1119.7" width="13.3" height="87.9"/><rect class="cls-56" x="1256.9" y="1119.7" width="13.3" height="87.9"/><rect class="cls-57" x="1222.9" y="1119.7" width="13.3" height="87.9"/><rect class="cls-58" x="1314.6" y="1119.7" width="13.3" height="87.9"/><rect class="cls-59" x="1280.6" y="1119.7" width="13.3" height="87.9"/><path class="cls-60" d="M1496,948.8a10.11,10.11,0,0,0-9.7,7.3,13.65,13.65,0,0,1,9.7-3.9,13.41,13.41,0,0,1,9.7,3.9A10.11,10.11,0,0,0,1496,948.8Z"/><path class="cls-60" d="M1551.2,956.1a10.09,10.09,0,0,0-19.4,0,13.65,13.65,0,0,1,9.7-3.9A13.41,13.41,0,0,1,1551.2,956.1Z"/><path class="cls-61" d="M1485.2,947.2l18.7-3.8a2.29,2.29,0,0,0-.9-4.5l-18.7,3.8a2.31,2.31,0,0,0-1.8,2.7A2.34,2.34,0,0,0,1485.2,947.2Z"/><path class="cls-61" d="M1552.3,947.2a2.29,2.29,0,0,0,.9-4.5l-18.7-3.8a2.29,2.29,0,1,0-.9,4.5Z"/><path class="cls-62" d="M1532.7,985.5a24.16,24.16,0,0,1-27.8,0,14.07,14.07,0,0,0,27.8,0Z"/><path class="cls-63" d="M1515.9,981.5a1.8,1.8,0,0,0,0-3.6h-1a1.8,1.8,0,0,0,0,3.6Z"/><path class="cls-63" d="M1522.6,981.5a1.8,1.8,0,1,0,0-3.6h-1a1.8,1.8,0,0,0,0,3.6Z"/></svg>