<svg id="Layer_1" data-name="Layer 1" xmlns="http://www.w3.org/2000/svg" viewBox="0 0 1400 1000"><defs><style>.cls-1{fill:#d6d6d6;}.cls-2{fill:#605d5d;}.cls-3{fill:#025159;}.cls-4{fill:#7a7878;}.cls-5{fill:#8c0303;}.cls-6{fill:#e5e5e5;}.cls-7{fill:#fff;}.cls-8{fill:#030a8c;}.cls-9{fill:#57bd90;}.cls-10{fill:#8ec9fa;}.cls-11{fill:#ff684a;}</style></defs><title>web-coding</title><path class="cls-1" d="M1029.8,149.6c-2-24.4-23.5-44.6-48-45.5a45.6,45.6,0,0,0-19.6,3.5A45.28,45.28,0,0,0,881.1,97a36.36,36.36,0,0,0-9.9-1.3,37.15,37.15,0,0,0-36,27.8,37.17,37.17,0,0,0-25.4,35.3v.2c.1,11.6,5.5,32.1,21.2,32.1h173.4C1024.5,190,1030.8,161.3,1029.8,149.6Z"/><path class="cls-2" d="M1000.2,225.6,987,212.3a4.1,4.1,0,1,0-5.8,5.8l5.9,5.9H924V179.3a2.48,2.48,0,0,0-2.5-2.5h-3.8a2.48,2.48,0,0,0-2.5,2.5V224H850.6l5.9-5.9a4.1,4.1,0,1,0-5.8-5.8l-13.3,13.3a4.18,4.18,0,0,0-1.2,2.9,4,4,0,0,0,1.2,2.9l13.3,13.3a4.1,4.1,0,1,0,5.8-5.8l-6-6H987.2l-6,6a4.1,4.1,0,1,0,5.8,5.8l13.3-13.3a4.18,4.18,0,0,0,1.2-2.9A4.56,4.56,0,0,0,1000.2,225.6Z"/><path class="cls-2" d="M918.8,152.9A15.2,15.2,0,1,0,934,168.1,15.19,15.19,0,0,0,918.8,152.9Zm0,23.1a7.9,7.9,0,1,1,7.9-7.9A7.92,7.92,0,0,1,918.8,176Z"/><path class="cls-3" d="M1204.2,290.3c-1.8-22.6-21.7-41.1-44.4-42a43.48,43.48,0,0,0-18.1,3.2,41.83,41.83,0,0,0-74.9-9.8,34.63,34.63,0,0,0-42.5,24.5,34.47,34.47,0,0,0-23.5,32.6v.2c.1,10.7,5.1,29.7,19.6,29.7h160.1C1199.3,327.6,1205.1,301.1,1204.2,290.3Z"/><path class="cls-1" d="M864.6,728.3H497.3a9.82,9.82,0,0,0-9.8,9.8V890.4a9.82,9.82,0,0,0,9.8,9.8H864.6a9.82,9.82,0,0,0,9.8-9.8V738.1A9.82,9.82,0,0,0,864.6,728.3Z"/><path class="cls-4" d="M512.3,774.4a3,3,0,0,1-3-3V748.1a3,3,0,0,1,3-3h44.9a3,3,0,0,1,3,3v23.3a3,3,0,0,1-3,3Z"/><path class="cls-5" d="M512.3,809.8a3,3,0,0,1-3-3V783.5a3,3,0,0,1,3-3h25.2a3,3,0,0,1,3,3v23.3a3,3,0,0,1-3,3Z"/><path class="cls-4" d="M551.4,809.8a3,3,0,0,1-3-3V783.5a3,3,0,0,1,3-3h25.2a3,3,0,0,1,3,3v23.3a3,3,0,0,1-3,3Z"/><path class="cls-4" d="M590.5,809.8a3,3,0,0,1-3-3V783.5a3,3,0,0,1,3-3h25.2a3,3,0,0,1,3,3v23.3a3,3,0,0,1-3,3Z"/><path class="cls-4" d="M629.6,809.8a3,3,0,0,1-3-3V783.5a3,3,0,0,1,3-3h25.2a3,3,0,0,1,3,3v23.3a3,3,0,0,1-3,3Z"/><path class="cls-4" d="M668.7,809.8a3,3,0,0,1-3-3V783.5a3,3,0,0,1,3-3h25.2a3,3,0,0,1,3,3v23.3a3,3,0,0,1-3,3Z"/><path class="cls-4" d="M708.1,809.8a3,3,0,0,1-3-3V783.5a3,3,0,0,1,3-3h25.2a3,3,0,0,1,3,3v23.3a3,3,0,0,1-3,3Z"/><path class="cls-4" d="M747.1,809.8a3,3,0,0,1-3-3V783.5a3,3,0,0,1,3-3h25.2a3,3,0,0,1,3,3v23.3a3,3,0,0,1-3,3Z"/><path class="cls-4" d="M583.3,847.3a3,3,0,0,1-3-3V821a3,3,0,0,1,3-3h25.2a3,3,0,0,1,3,3v23.3a3,3,0,0,1-3,3Z"/><path class="cls-4" d="M622.4,847.3a3,3,0,0,1-3-3V821a3,3,0,0,1,3-3h25.2a3,3,0,0,1,3,3v23.3a3,3,0,0,1-3,3Z"/><path class="cls-4" d="M661.5,847.3a3,3,0,0,1-3-3V821a3,3,0,0,1,3-3h25.2a3,3,0,0,1,3,3v23.3a3,3,0,0,1-3,3Z"/><path class="cls-4" d="M700.6,847.3a3,3,0,0,1-3-3V821a3,3,0,0,1,3-3h25.2a3,3,0,0,1,3,3v23.3a3,3,0,0,1-3,3Z"/><path class="cls-4" d="M740,847.3a3,3,0,0,1-3-3V821a3,3,0,0,1,3-3h25.2a3,3,0,0,1,3,3v23.3a3,3,0,0,1-3,3Z"/><path class="cls-4" d="M571.4,774.4a3,3,0,0,1-3-3V748.1a3,3,0,0,1,3-3h25.2a3,3,0,0,1,3,3v23.3a3,3,0,0,1-3,3Z"/><path class="cls-4" d="M610.5,774.4a3,3,0,0,1-3-3V748.1a3,3,0,0,1,3-3h25.2a3,3,0,0,1,3,3v23.3a3,3,0,0,1-3,3Z"/><path class="cls-4" d="M649.6,774.4a3,3,0,0,1-3-3V748.1a3,3,0,0,1,3-3h25.2a3,3,0,0,1,3,3v23.3a3,3,0,0,1-3,3Z"/><path class="cls-4" d="M688.7,774.4a3,3,0,0,1-3-3V748.1a3,3,0,0,1,3-3h25.2a3,3,0,0,1,3,3v23.3a3,3,0,0,1-3,3Z"/><path class="cls-4" d="M728.1,774.4a3,3,0,0,1-3-3V748.1a3,3,0,0,1,3-3h25.2a3,3,0,0,1,3,3v23.3a3,3,0,0,1-3,3Z"/><path class="cls-4" d="M767.2,774.4a3,3,0,0,1-3-3V748.1a3,3,0,0,1,3-3h25.2a3,3,0,0,1,3,3v23.3a3,3,0,0,1-3,3Z"/><path class="cls-4" d="M786.2,809.8a3,3,0,0,1-3-3V783.5a3,3,0,0,1,3-3h25.2a3,3,0,0,1,3,3v23.3a3,3,0,0,1-3,3Z"/><path class="cls-4" d="M512.3,884.4a3,3,0,0,1-3-3V858.1a3,3,0,0,1,3-3h25.2a3,3,0,0,1,3,3v23.3a3,3,0,0,1-3,3Z"/><path class="cls-4" d="M552.2,884.4a3,3,0,0,1-3-3V858.1a3,3,0,0,1,3-3h38.1a3,3,0,0,1,3,3v23.3a3,3,0,0,1-3,3Z"/><path class="cls-5" d="M604.1,884.4a3,3,0,0,1-3-3V858.1a3,3,0,0,1,3-3H771.3a3,3,0,0,1,3,3v23.3a3,3,0,0,1-3,3Z"/><path class="cls-4" d="M512.3,847.3a3,3,0,0,1-3-3V821a3,3,0,0,1,3-3h56.4a3,3,0,0,1,3,3v23.3a3,3,0,0,1-3,3Z"/><path class="cls-5" d="M806.3,774.4a3,3,0,0,1-3-3V748.1a3,3,0,0,1,3-3h45.4a3,3,0,0,1,3,3v23.3a3,3,0,0,1-3,3Z"/><path class="cls-4" d="M826.6,809.8a3,3,0,0,1-3-3V783.5a3,3,0,0,1,3-3h25.2a3,3,0,0,1,3,3v23.3a3,3,0,0,1-3,3Z"/><path class="cls-4" d="M826.6,884.8a3,3,0,0,1-3-3V858.5a3,3,0,0,1,3-3h25.2a3,3,0,0,1,3,3v23.3a3,3,0,0,1-3,3Z"/><path class="cls-4" d="M786.2,884.8a3,3,0,0,1-3-3V858.5a3,3,0,0,1,3-3h25.2a3,3,0,0,1,3,3v23.3a3,3,0,0,1-3,3Z"/><path class="cls-4" d="M779,847.3a3,3,0,0,1-3-3V821a3,3,0,0,1,3-3h72.7a3,3,0,0,1,3,3v23.3a3,3,0,0,1-3,3Z"/><path class="cls-1" d="M547.7,277.8V238l-24.9-4a77.6,77.6,0,0,0-5.2-12.6L532.4,201l-28.2-28-20.4,14.8a77.6,77.6,0,0,0-12.6-5.2l-4-24.9H427.4l-4,24.9a77.6,77.6,0,0,0-12.6,5.2L390.6,173l-28.1,28.1,14.8,20.4a77.6,77.6,0,0,0-5.2,12.6l-24.9,4v39.8l24.9,4a77.6,77.6,0,0,0,5.2,12.6l-14.8,20.4L390.6,343,411,328.2a77.6,77.6,0,0,0,12.6,5.2l4,24.9h39.8l4-24.9a77.6,77.6,0,0,0,12.6-5.2L504.4,343l28.1-28.1-14.8-20.4a77.6,77.6,0,0,0,5.2-12.6ZM447.4,293a35.1,35.1,0,1,1,35.1-35.1A35.08,35.08,0,0,1,447.4,293Z"/><path class="cls-5" d="M651.9,200.8v-21l-13.1-2.1a38.47,38.47,0,0,0-2.8-6.6l7.8-10.8L629,145.5l-10.8,7.8a48.42,48.42,0,0,0-6.6-2.8l-2.1-13.1h-21l-2.1,13.1a38.47,38.47,0,0,0-6.6,2.8L569,145.5l-14.8,14.8,7.8,10.8a48.42,48.42,0,0,0-2.8,6.6l-13.1,2.1v21l13.1,2.1a38.47,38.47,0,0,0,2.8,6.6l-7.8,10.8L569,235.1l10.8-7.8a48.42,48.42,0,0,0,6.6,2.8l2.1,13.1h21l2.1-13.1a38.47,38.47,0,0,0,6.6-2.8l10.8,7.8,14.8-14.8L636,209.5a48.42,48.42,0,0,0,2.8-6.6Zm-52.9,8a18.5,18.5,0,1,1,18.5-18.5A18.52,18.52,0,0,1,599,208.8Z"/><path class="cls-3" d="M562,123.3V105.8l-11-1.7a33.54,33.54,0,0,0-2.3-5.5l6.5-9L542.8,77.2l-9,6.5a37.62,37.62,0,0,0-5.5-2.3l-1.7-11H509.1l-1.7,11a33.54,33.54,0,0,0-5.5,2.3l-9-6.5L480.5,89.6l6.5,9a37.62,37.62,0,0,0-2.3,5.5l-11,1.7v17.5l11,1.7a33.54,33.54,0,0,0,2.3,5.5l-6.5,9,12.4,12.4,9-6.5a37.62,37.62,0,0,0,5.5,2.3l1.7,11h17.5l1.7-11a33.54,33.54,0,0,0,5.5-2.3l9,6.5,12.4-12.4-6.5-9A37.62,37.62,0,0,0,551,125ZM517.8,130a15.5,15.5,0,1,1,15.5-15.5A15.51,15.51,0,0,1,517.8,130Z"/><path class="cls-1" d="M735.9,609.5H626c.4,14.8-3,49.3-42.3,53.9a13.76,13.76,0,0,0-12.3,13.7v.6a13.83,13.83,0,0,0,13.8,13.8H776.8a13.83,13.83,0,0,0,13.8-13.8v-.6a13.84,13.84,0,0,0-12.3-13.7C738.9,658.9,735.5,624.3,735.9,609.5Z"/><path class="cls-6" d="M624.8,625H737a75.33,75.33,0,0,1-1.2-15.4H626A75.82,75.82,0,0,1,624.8,625Z"/><path class="cls-2" d="M889.6,257.6H472.3a31.75,31.75,0,0,0-31.8,31.8V577.3a31.75,31.75,0,0,0,31.8,31.8H889.5a31.75,31.75,0,0,0,31.8-31.8V289.4A31.73,31.73,0,0,0,889.6,257.6Z"/><path class="cls-1" d="M440.5,549.1v28.3a31.75,31.75,0,0,0,31.8,31.8H889.5a31.75,31.75,0,0,0,31.8-31.8V549.1Z"/><path class="cls-7" d="M886.7,525.5H475.2a14.72,14.72,0,0,1-14.7-14.7v-214a14.72,14.72,0,0,1,14.7-14.7H886.8a14.72,14.72,0,0,1,14.7,14.7v214A14.75,14.75,0,0,1,886.7,525.5Z"/><circle class="cls-2" cx="680.9" cy="581.4" r="15.6"/><rect class="cls-2" x="495.3" y="306" width="384.6" height="199.8"/><rect class="cls-6" x="495.3" y="306" width="384.6" height="34.7"/><circle class="cls-3" cx="517.9" cy="323.7" r="7.1" transform="translate(115.42 783.06) rotate(-80.78)"/><circle class="cls-5" cx="550.4" cy="323.7" r="7.1"/><circle class="cls-8" cx="583.8" cy="323.7" r="7.1"/><rect class="cls-5" x="560.9" y="375" width="70.4" height="5.9"/><rect class="cls-5" x="560.9" y="457.3" width="70.4" height="5.9"/><rect class="cls-3" x="567.3" y="387.6" width="88" height="5.9"/><rect class="cls-3" x="567.3" y="442.3" width="80.2" height="5.9"/><rect class="cls-8" x="653.5" y="442.3" width="20" height="5.9"/><rect class="cls-8" x="567.3" y="402.4" width="98.9" height="5.9"/><rect class="cls-3" x="567.3" y="415.7" width="88" height="5.9"/><rect class="cls-5" x="567.3" y="429.3" width="106.4" height="5.9"/><rect class="cls-5" x="662" y="415.7" width="25.6" height="5.9"/><rect class="cls-8" x="672.9" y="402.4" width="75.8" height="5.9"/><rect class="cls-3" x="660.1" y="387.6" width="38.3" height="5.9"/><path class="cls-9" d="M575.4,369.6l-9.4-5.8v-2.1l9.4-5.8v3l-6.5,3.8,6.5,3.9Z"/><path class="cls-9" d="M587.7,352.9l-7.3,19.5H577l7.3-19.5Z"/><path class="cls-9" d="M589.3,366.6l6.5-3.9-6.5-3.8v-3l9.4,5.8v2.1l-9.4,5.8Z"/><path class="cls-9" d="M575.4,488.4l-9.4-5.8v-2.1l9.4-5.8v3l-6.5,3.8,6.5,3.9Z"/><path class="cls-9" d="M587.7,471.7l-7.3,19.5H577l7.3-19.5Z"/><path class="cls-9" d="M589.3,485.4l6.5-3.9-6.5-3.8v-3l9.4,5.8v2.1l-9.4,5.8Z"/><rect class="cls-5" x="542.2" y="353.9" width="5.1" height="139.7"/><circle class="cls-8" cx="525.5" cy="365.7" r="5.3"/><circle class="cls-8" cx="525.5" cy="388.3" r="5.3"/><circle class="cls-8" cx="525.5" cy="410.9" r="5.3"/><circle class="cls-8" cx="525.5" cy="433.5" r="5.3"/><circle class="cls-8" cx="525.5" cy="456.1" r="5.3"/><circle class="cls-8" cx="525.5" cy="478.7" r="5.3"/><rect class="cls-1" x="155.6" y="413.2" width="234.3" height="158.3"/><rect class="cls-2" x="155.6" y="413.2" width="234.3" height="33.6"/><path class="cls-10" d="M246.6,534.4l-35.4-21.9v-7.8l35.4-21.8v11.3l-24.5,14.4,24.5,14.5Z"/><path class="cls-10" d="M293,471.4l-27.4,73.5H252.7l27.4-73.5Z"/><path class="cls-10" d="M299,523.1l24.6-14.5L299,494.1V482.8l35.4,21.8v7.8l-35.4,22Z"/><path class="cls-1" d="M981.4,714.5H953.3a36.53,36.53,0,0,0-36.4,36.4v80.2a36.53,36.53,0,0,0,36.4,36.4h28.1a36.53,36.53,0,0,0,36.4-36.4V750.9A36.4,36.4,0,0,0,981.4,714.5Z"/><path class="cls-7" d="M971.1,734.4h-7.5a4.12,4.12,0,0,0-4.1,4.1v39.4a4.12,4.12,0,0,0,4.1,4.1h7.5a4.12,4.12,0,0,0,4.1-4.1V738.5A4.06,4.06,0,0,0,971.1,734.4Z"/><path class="cls-1" d="M392.7,635.2H279.4a17.2,17.2,0,0,0-17.2,17.2V846.9a17.2,17.2,0,0,0,17.2,17.2H392.8A17.2,17.2,0,0,0,410,846.9V652.4A17.35,17.35,0,0,0,392.7,635.2Z"/><path class="cls-7" d="M272.3,664.6V817.3a8,8,0,0,0,8,8H391.8a8,8,0,0,0,8-8V664.6a8,8,0,0,0-8-8H280.3A8.09,8.09,0,0,0,272.3,664.6Z"/><circle class="cls-2" cx="336" cy="845.6" r="10.8"/><path class="cls-3" d="M371.2,719.7V705.8l-8.7-1.4a33.83,33.83,0,0,0-1.8-4.4l5.2-7.2-9.9-9.9-7.2,5.2a33.83,33.83,0,0,0-4.4-1.8l-1.4-8.7H329.1l-1.4,8.7a33.83,33.83,0,0,0-4.4,1.8l-7.2-5.2-9.9,9.9,5.2,7.2a33.83,33.83,0,0,0-1.8,4.4l-8.7,1.4v13.9l8.7,1.4a33.83,33.83,0,0,0,1.8,4.4l-5.2,7.2,9.9,9.9,7.2-5.2a33.83,33.83,0,0,0,4.4,1.8l1.4,8.7H343l1.4-8.7a33.83,33.83,0,0,0,4.4-1.8l7.2,5.2,9.9-9.9-5.2-7.2a33.83,33.83,0,0,0,1.8-4.4Zm-35.2,10a17,17,0,1,1,17-17A17,17,0,0,1,336,729.7Z"/><circle class="cls-5" cx="336.01" cy="712.8" r="7.9" transform="translate(-434.93 876.01) rotate(-76.71)"/><path class="cls-3" d="M375.1,764.6H297a4.23,4.23,0,0,0-4.2,4.2h0A4.23,4.23,0,0,0,297,773h78.2a4.23,4.23,0,0,0,4.2-4.2h0A4.38,4.38,0,0,0,375.1,764.6Z"/><path class="cls-5" d="M362.5,783.8H309.6a4.23,4.23,0,0,0-4.2,4.2h0a4.23,4.23,0,0,0,4.2,4.2h52.9a4.23,4.23,0,0,0,4.2-4.2h0A4.23,4.23,0,0,0,362.5,783.8Z"/><path class="cls-3" d="M371.3,802.3H300.7a4.23,4.23,0,0,0-4.2,4.2h0a4.23,4.23,0,0,0,4.2,4.2h70.6a4.23,4.23,0,0,0,4.2-4.2h0A4.23,4.23,0,0,0,371.3,802.3Z"/><rect class="cls-7" x="1000.4" y="366.9" width="238.5" height="272.7"/><rect class="cls-2" x="1000.4" y="366.9" width="238.5" height="42.6"/><rect class="cls-11" x="1029.4" y="433.2" width="17.1" height="15.4"/><rect class="cls-11" x="1029.4" y="462.1" width="17.1" height="15.4"/><rect class="cls-10" x="1029.4" y="490.9" width="17.1" height="15.4"/><rect class="cls-11" x="1029.4" y="519.8" width="17.1" height="15.4"/><rect class="cls-10" x="1029.4" y="548.6" width="17.1" height="15.4"/><rect class="cls-10" x="1029.4" y="577.4" width="17.1" height="15.4"/><rect class="cls-11" x="1029.4" y="606.3" width="17.1" height="15.4"/><rect class="cls-2" x="1071.8" y="433.2" width="51.3" height="15.4"/><rect class="cls-11" x="1071.8" y="459.4" width="72.2" height="15.4"/><rect class="cls-11" x="1071.8" y="508" width="80.5" height="15.4"/><rect class="cls-2" x="1071.8" y="533.5" width="34" height="15.4"/><rect class="cls-11" x="1154.9" y="459.4" width="20.2" height="15.4"/><rect class="cls-10" x="1071.8" y="483.2" width="90.4" height="15.4"/><rect class="cls-10" x="1175.8" y="483.2" width="25.3" height="15.4"/><rect class="cls-2" x="1134" y="433.2" width="13.1" height="15.4"/><rect class="cls-11" x="1071.8" y="556.3" width="75.9" height="15.4"/><rect class="cls-10" x="1071.8" y="582.5" width="56" height="15.4"/><rect class="cls-10" x="1140.3" y="582.5" width="29" height="15.4"/><rect class="cls-11" x="1071.8" y="606.3" width="104.7" height="15.4"/><rect class="cls-11" x="1162.3" y="556.3" width="23.2" height="15.4"/><rect class="cls-2" x="1058" y="427" width="6.3" height="201.7"/><path class="cls-3" d="M229.4,284.2h0a8.51,8.51,0,0,1-12,0L193,259.8a8.51,8.51,0,0,1,0-12h0a8.51,8.51,0,0,1,12,0l24.4,24.4A8.51,8.51,0,0,1,229.4,284.2Z"/><path class="cls-3" d="M229,305.9h0a8.51,8.51,0,0,1,0,12l-24.4,24.4a8.51,8.51,0,0,1-12,0h0a8.51,8.51,0,0,1,0-12L217,305.9A8.51,8.51,0,0,1,229,305.9Z"/><path class="cls-3" d="M250.7,306.3h0a8.51,8.51,0,0,1,12,0l24.4,24.4a8.51,8.51,0,0,1,0,12h0a8.51,8.51,0,0,1-12,0l-24.4-24.4A8.51,8.51,0,0,1,250.7,306.3Z"/><path class="cls-3" d="M251.1,284.6h0a8.51,8.51,0,0,1,0-12l24.4-24.4a8.51,8.51,0,0,1,12,0h0a8.51,8.51,0,0,1,0,12l-24.4,24.4A8.51,8.51,0,0,1,251.1,284.6Z"/><path class="cls-1" d="M1164.8,152.5h0a5,5,0,0,1-7,0l-14.2-14.2a5,5,0,0,1,0-7h0a5,5,0,0,1,7,0l14.2,14.2A4.83,4.83,0,0,1,1164.8,152.5Z"/><path class="cls-1" d="M1164.6,165.1h0a5,5,0,0,1,0,7l-14.2,14.2a5,5,0,0,1-7,0h0a5,5,0,0,1,0-7l14.2-14.2A5,5,0,0,1,1164.6,165.1Z"/><path class="cls-1" d="M1177.2,165.3h0a5,5,0,0,1,7,0l14.2,14.2a5,5,0,0,1,0,7h0a5,5,0,0,1-7,0l-14.2-14.2A5,5,0,0,1,1177.2,165.3Z"/><path class="cls-1" d="M1177.5,152.7h0a5,5,0,0,1,0-7l14.2-14.2a5,5,0,0,1,7,0h0a5,5,0,0,1,0,7l-14.2,14.2A5,5,0,0,1,1177.5,152.7Z"/><path class="cls-1" d="M376.4,106.2h0a3.22,3.22,0,0,1-3.2,3.2H360.3a3.22,3.22,0,0,1-3.2-3.2h0a3.22,3.22,0,0,1,3.2-3.2h12.9A3.22,3.22,0,0,1,376.4,106.2Z"/><path class="cls-1" d="M382,112.1h0a3.22,3.22,0,0,1,3.2,3.2v12.9a3.22,3.22,0,0,1-3.2,3.2h0a3.22,3.22,0,0,1-3.2-3.2V115.3A3.22,3.22,0,0,1,382,112.1Z"/><path class="cls-1" d="M387.9,106.4h0a3.22,3.22,0,0,1,3.2-3.2H404a3.22,3.22,0,0,1,3.2,3.2h0a3.22,3.22,0,0,1-3.2,3.2H391.1A3.16,3.16,0,0,1,387.9,106.4Z"/><path class="cls-1" d="M382.2,100.6h0a3.22,3.22,0,0,1-3.2-3.2V84.5a3.22,3.22,0,0,1,3.2-3.2h0a3.22,3.22,0,0,1,3.2,3.2V97.4A3.22,3.22,0,0,1,382.2,100.6Z"/><path class="cls-1" d="M164.3,701.9h0a4.23,4.23,0,0,1-4.2,4.2H142.8a4.23,4.23,0,0,1-4.2-4.2h0a4.23,4.23,0,0,1,4.2-4.2H160A4.25,4.25,0,0,1,164.3,701.9Z"/><path class="cls-1" d="M171.8,709.7h0a4.23,4.23,0,0,1,4.2,4.2v17.3a4.23,4.23,0,0,1-4.2,4.2h0a4.23,4.23,0,0,1-4.2-4.2V714A4.25,4.25,0,0,1,171.8,709.7Z"/><path class="cls-1" d="M179.6,702.2h0a4.23,4.23,0,0,1,4.2-4.2h17.3a4.23,4.23,0,0,1,4.2,4.2h0a4.23,4.23,0,0,1-4.2,4.2H183.8A4.23,4.23,0,0,1,179.6,702.2Z"/><path class="cls-1" d="M172.1,694.4h0a4.23,4.23,0,0,1-4.2-4.2V672.9a4.23,4.23,0,0,1,4.2-4.2h0a4.23,4.23,0,0,1,4.2,4.2v17.3A4.23,4.23,0,0,1,172.1,694.4Z"/><path class="cls-1" d="M1232.8,827.3h0a2.69,2.69,0,0,1-2.7,2.7h-10.8a2.69,2.69,0,0,1-2.7-2.7h0a2.69,2.69,0,0,1,2.7-2.7h10.8A2.82,2.82,0,0,1,1232.8,827.3Z"/><path class="cls-1" d="M1237.6,832.2h0a2.69,2.69,0,0,1,2.7,2.7v10.8a2.69,2.69,0,0,1-2.7,2.7h0a2.69,2.69,0,0,1-2.7-2.7V834.9A2.69,2.69,0,0,1,1237.6,832.2Z"/><path class="cls-1" d="M1242.5,827.5h0a2.69,2.69,0,0,1,2.7-2.7H1256a2.69,2.69,0,0,1,2.7,2.7h0a2.69,2.69,0,0,1-2.7,2.7h-10.8A2.69,2.69,0,0,1,1242.5,827.5Z"/><path class="cls-1" d="M1237.7,822.6h0a2.69,2.69,0,0,1-2.7-2.7V809.1a2.69,2.69,0,0,1,2.7-2.7h0a2.69,2.69,0,0,1,2.7,2.7V820A2.67,2.67,0,0,1,1237.7,822.6Z"/><path class="cls-1" d="M735.1,183.1h0a4.91,4.91,0,0,1-4.9,4.9H710.4a4.91,4.91,0,0,1-4.9-4.9h0a4.91,4.91,0,0,1,4.9-4.9h19.8A4.91,4.91,0,0,1,735.1,183.1Z"/><path class="cls-1" d="M743.8,192.1h0a4.91,4.91,0,0,1,4.9,4.9v19.8a4.91,4.91,0,0,1-4.9,4.9h0a4.91,4.91,0,0,1-4.9-4.9V197A4.84,4.84,0,0,1,743.8,192.1Z"/><path class="cls-1" d="M752.7,183.4h0a4.91,4.91,0,0,1,4.9-4.9h19.8a4.91,4.91,0,0,1,4.9,4.9h0a4.91,4.91,0,0,1-4.9,4.9H757.6A4.91,4.91,0,0,1,752.7,183.4Z"/><path class="cls-1" d="M744.1,174.5h0a4.91,4.91,0,0,1-4.9-4.9V149.8a4.91,4.91,0,0,1,4.9-4.9h0a4.91,4.91,0,0,1,4.9,4.9v19.8A5,5,0,0,1,744.1,174.5Z"/><path class="cls-3" d="M935.9,659.9h0a3.92,3.92,0,0,1,0,5.5l-11.3,11.3a3.92,3.92,0,0,1-5.5,0h0a3.92,3.92,0,0,1,0-5.5l11.3-11.3A3.92,3.92,0,0,1,935.9,659.9Z"/><path class="cls-3" d="M945.9,660.1h0a3.92,3.92,0,0,1,5.5,0l11.3,11.3a3.92,3.92,0,0,1,0,5.5h0a3.92,3.92,0,0,1-5.5,0l-11.3-11.3A3.75,3.75,0,0,1,945.9,660.1Z"/><path class="cls-3" d="M946,650.1h0a3.92,3.92,0,0,1,0-5.5l11.3-11.3a3.92,3.92,0,0,1,5.5,0h0a3.92,3.92,0,0,1,0,5.5l-11.3,11.3A3.92,3.92,0,0,1,946,650.1Z"/><path class="cls-3" d="M936,649.9h0a3.92,3.92,0,0,1-5.5,0l-11.3-11.3a3.92,3.92,0,0,1,0-5.5h0a3.92,3.92,0,0,1,5.5,0L936,644.4A3.75,3.75,0,0,1,936,649.9Z"/><path class="cls-5" d="M1153.2,732.4V718.2h-10.4a42.94,42.94,0,0,0-7.6-18.1l7.3-7.3-10.1-10.1-7.4,7.4a41.81,41.81,0,0,0-18.2-7.4V672.4h-14.2v10.4a42.94,42.94,0,0,0-18.1,7.6l-7.3-7.3-10.1,10.1,7.4,7.4a41.81,41.81,0,0,0-7.4,18.2h-10.3V733h10.4a42.94,42.94,0,0,0,7.6,18.1l-7.3,7.3,10.1,10.1,7.4-7.4a41.81,41.81,0,0,0,18.2,7.4v10.3h14.2V768.4a42.94,42.94,0,0,0,18.1-7.6l7.3,7.3,10.1-10.1-7.4-7.4a41.81,41.81,0,0,0,7.4-18.2ZM1100,748.9a23.45,23.45,0,1,1,23.4-23.5A23.43,23.43,0,0,1,1100,748.9Z"/><path class="cls-3" d="M1178.7,816.4v-9.9h-7.2a30,30,0,0,0-5.3-12.6l5.1-5.1-7-7-5.1,5.1a31.23,31.23,0,0,0-12.6-5.2v-7.2h-9.9v7.2a30,30,0,0,0-12.6,5.3l-5.1-5.1-7,7,5.1,5.1a31.23,31.23,0,0,0-5.2,12.6h-7.2v9.9h7.2a30,30,0,0,0,5.3,12.6l-5.1,5.1,7,7,5.1-5.1a31.23,31.23,0,0,0,12.6,5.2v7.2h9.9v-7.2a30,30,0,0,0,12.6-5.3l5.1,5.1,7-7-5.1-5.1a31.23,31.23,0,0,0,5.2-12.6Zm-37,11.5a16.3,16.3,0,1,1,16.3-16.3A16.3,16.3,0,0,1,1141.7,827.9Z"/><path class="cls-1" d="M1214.1,752.5v-8.3h-6a25.84,25.84,0,0,0-4.4-10.5l4.2-4.2-5.8-5.8-4.3,4.3a24.91,24.91,0,0,0-10.5-4.3v-6H1179v6a25.84,25.84,0,0,0-10.5,4.4l-4.2-4.2-5.8,5.8,4.3,4.3a24.91,24.91,0,0,0-4.3,10.5h-6v8.3h6a25.84,25.84,0,0,0,4.4,10.5l-4.2,4.2,5.8,5.8,4.3-4.3a24.91,24.91,0,0,0,10.5,4.3v6h8.3v-6a25.84,25.84,0,0,0,10.5-4.4l4.2,4.2,5.8-5.8-4.3-4.3a24.91,24.91,0,0,0,4.3-10.5Zm-30.8,9.6a13.6,13.6,0,1,1,13.6-13.6A13.61,13.61,0,0,1,1183.3,762.1Z"/><path class="cls-5" d="M264.8,149.1A20.9,20.9,0,1,0,285.7,170,20.89,20.89,0,0,0,264.8,149.1Zm0,32.3a11.3,11.3,0,1,1,11.3-11.3A11.29,11.29,0,0,1,264.8,181.4Z"/><path class="cls-5" d="M1254.1,669.2a18.8,18.8,0,1,0,18.8,18.8A18.78,18.78,0,0,0,1254.1,669.2Zm0,28.9a10.2,10.2,0,1,1,10.2-10.2A10.24,10.24,0,0,1,1254.1,698.1Z"/><path class="cls-3" d="M479.9,654a14.3,14.3,0,1,0,14.3,14.3A14.3,14.3,0,0,0,479.9,654Zm0,22a7.7,7.7,0,1,1,7.7-7.7A7.7,7.7,0,0,1,479.9,676Z"/><path class="cls-5" d="M200.9,789.6a14.3,14.3,0,1,0,14.3,14.3A14.3,14.3,0,0,0,200.9,789.6Zm0,22.1a7.8,7.8,0,1,1,7.8-7.8A7.81,7.81,0,0,1,200.9,811.7Z"/></svg>