<svg id="Layer_1" data-name="Layer 1" xmlns="http://www.w3.org/2000/svg" viewBox="0 0 335.99 235.19"><defs><style>.cls-1,.cls-10{fill:#2b5a5f;}.cls-1{opacity:0.48;}.cls-12,.cls-2{fill:#3d3d3d;}.cls-13,.cls-15,.cls-2,.cls-3,.cls-4,.cls-5{fill-rule:evenodd;}.cls-3{fill:#e8e9e8;}.cls-4{fill:#c3c4c3;}.cls-5{fill:#dbdbdb;}.cls-15,.cls-6{fill:#fff;}.cls-7{fill:#42ade6;}.cls-8{fill:#258ace;}.cls-9{fill:#3b5166;}.cls-11{fill:#adfdf4;}.cls-13{fill:#546b85;}.cls-14{opacity:0.2;}</style></defs><title>web-promotion</title><path class="cls-1" d="M263.6,164.8H244.51V71.24a5.1,5.1,0,0,0-5.1-5.1H104.48a5.1,5.1,0,0,0-5.09,5.1V164.8H80.29a7.66,7.66,0,0,0,1.38,4.4h0a6.55,6.55,0,0,0,.52.66l.06.08c.18.19.35.37.54.54l.08.07a7.3,7.3,0,0,0,1.41,1l0,0c.23.12.46.22.7.32l.22.08.57.19.27.07.59.11.25,0a8.29,8.29,0,0,0,.87.06H256.11a8.1,8.1,0,0,0,.86-.06l.26,0,.59-.11.27-.07.56-.19.23-.08c.23-.1.46-.2.68-.32l.06,0a7.55,7.55,0,0,0,1.4-1l.08-.07a6.88,6.88,0,0,0,.54-.54l.07-.08A7.71,7.71,0,0,0,263.6,164.8Z"/><polygon class="cls-1" points="191.61 53.13 200.51 46.42 232.48 46.42 232.48 15.03 184.35 15.03 184.35 46.42 191.61 46.42 191.61 53.13"/><polygon class="cls-1" points="241.32 186.86 241.32 180.15 232.41 186.86 94.04 186.86 94.04 218.26 248.57 218.26 248.57 186.86 241.32 186.86"/><polygon class="cls-1" points="141.1 44.99 150 51.7 150 44.99 157.25 44.99 157.25 13.6 109.13 13.6 109.13 44.99 141.1 44.99"/><polygon class="cls-1" points="320.28 46.87 320.28 37.66 259.63 37.66 259.63 46.87 259.63 111.24 320.28 111.24 320.28 46.87"/><polygon class="cls-1" points="80.24 48.31 80.24 39.1 19.59 39.1 19.59 48.31 19.59 112.67 80.24 112.67 80.24 48.31"/><path class="cls-1" d="M63.43,181.17V163.88L49.29,148.57H17.88v60.3H63.43v-4.74a11.48,11.48,0,0,0,0-23Z"/><path class="cls-1" d="M326.16,185.15a3,3,0,0,0-4.27,0l-2.13,2.13-4.18,4.18V167.24l-14.15-15.31H270v60.29h45.56V200l8.44-8.45,2.14-2.14A3,3,0,0,0,326.16,185.15Z"/><path class="cls-2" d="M168.36,158.93H93.89V65.37A5.09,5.09,0,0,1,99,60.28H233.92A5.09,5.09,0,0,1,239,65.37v93.56Z"/><path class="cls-3" d="M258.11,158.93a7.57,7.57,0,0,1-7.49,7.64H82.29a7.56,7.56,0,0,1-7.49-7.64Z"/><path class="cls-4" d="M76.17,163.33a7.44,7.44,0,0,0,6.12,3.24H250.62a7.41,7.41,0,0,0,6.11-3.24Z"/><path class="cls-5" d="M99.27,152.84V66.38H233.64v86.46Z"/><rect class="cls-6" x="178.86" y="12.17" width="48.13" height="31.4"/><polyline class="cls-6" points="186.12 43.56 186.12 50.27 195.02 43.56"/><rect class="cls-7" x="183.68" y="17.34" width="12.26" height="12.16"/><rect class="cls-8" x="183.68" y="34.55" width="3.58" height="3.55"/><rect class="cls-7" x="200.39" y="17.34" width="21.78" height="3.55"/><rect class="cls-9" x="200.39" y="25.94" width="21.78" height="3.55"/><rect class="cls-8" x="190.83" y="34.55" width="31.34" height="3.55"/><rect class="cls-6" x="88.54" y="184" width="154.54" height="31.4"/><polyline class="cls-6" points="235.82 184 235.83 177.29 226.92 184"/><rect class="cls-7" x="226.01" y="198.06" width="12.26" height="12.16"/><rect class="cls-8" x="213.48" y="189.46" width="25.05" height="3.55"/><rect class="cls-8" x="179.12" y="189.46" width="30.5" height="3.55"/><rect class="cls-7" x="191.34" y="206.67" width="30.18" height="3.55"/><rect class="cls-7" x="96.37" y="206.67" width="22.81" height="3.55"/><rect class="cls-7" x="124.73" y="206.67" width="24.6" height="3.55"/><rect class="cls-7" x="136.11" y="197.92" width="13.22" height="3.55"/><rect class="cls-9" x="191.34" y="198.06" width="30.18" height="3.55"/><rect class="cls-8" x="136.11" y="189.45" width="38.26" height="3.55"/><rect class="cls-8" x="96.38" y="189.45" width="33.24" height="12.16"/><rect class="cls-8" x="153.81" y="198.06" width="33.24" height="12.16"/><rect class="cls-6" x="103.64" y="10.73" width="48.13" height="31.4"/><polyline class="cls-6" points="144.51 42.13 144.51 48.84 135.6 42.13"/><rect class="cls-7" x="143.37" y="15.91" width="3.58" height="3.55"/><rect class="cls-9" x="143.37" y="24.51" width="3.58" height="3.55"/><rect class="cls-8" x="143.37" y="33.12" width="3.58" height="3.55"/><rect class="cls-7" x="108.45" y="15.91" width="31.34" height="3.55"/><rect class="cls-9" x="108.45" y="24.51" width="38.5" height="12.16"/><rect class="cls-6" x="254.13" y="34.8" width="60.66" height="73.57"/><rect class="cls-10" x="254.13" y="34.8" width="60.66" height="9.21"/><path class="cls-11" d="M264.68,39.19a2.1,2.1,0,1,1-2.09-2.1A2.1,2.1,0,0,1,264.68,39.19Z"/><path class="cls-11" d="M272.22,39.19a2.09,2.09,0,1,1-2.09-2.1A2.09,2.09,0,0,1,272.22,39.19Z"/><path class="cls-11" d="M279.77,39.19a2.1,2.1,0,1,1-2.1-2.1A2.1,2.1,0,0,1,279.77,39.19Z"/><path class="cls-11" d="M308.74,39.19a2.1,2.1,0,1,1-2.1-2.1A2.1,2.1,0,0,1,308.74,39.19Z"/><rect class="cls-6" x="14.1" y="36.23" width="60.66" height="73.57"/><rect class="cls-10" x="14.1" y="36.23" width="60.66" height="9.21"/><path class="cls-11" d="M24.64,40.62a2.1,2.1,0,1,1-2.09-2.1A2.09,2.09,0,0,1,24.64,40.62Z"/><path class="cls-11" d="M32.19,40.62a2.1,2.1,0,1,1-2.1-2.1A2.09,2.09,0,0,1,32.19,40.62Z"/><path class="cls-11" d="M39.73,40.62a2.1,2.1,0,1,1-2.1-2.1A2.09,2.09,0,0,1,39.73,40.62Z"/><path class="cls-11" d="M70.72,39.1A2.1,2.1,0,1,1,68.63,37,2.1,2.1,0,0,1,70.72,39.1Z"/><polygon class="cls-6" points="12.38 206 57.94 206 57.94 161.02 43.79 145.71 12.38 145.71 12.38 206"/><polygon class="cls-12" points="43.74 145.71 43.74 161.02 57.94 161.02 43.79 145.71 43.74 145.71"/><path class="cls-12" d="M26.82,82.25a2.78,2.78,0,0,0,2.78-2.78,2.85,2.85,0,0,0-.28-1.19h0l7.41-7.41h0a2.67,2.67,0,0,0,1.19.28,2.76,2.76,0,0,0,1.92-.78l6.44,3.22c0,.12,0,.23,0,.34A2.78,2.78,0,0,0,49,76.7a2.73,2.73,0,0,0,2-.82,2.76,2.76,0,0,0,.81-2,2.79,2.79,0,0,0-.28-1.21s.06,0,.08-.06L59,63.46a2.85,2.85,0,0,0,1.19.28,2.78,2.78,0,0,0,2-4.74,2.85,2.85,0,0,0-3.93,0,2.76,2.76,0,0,0-.81,2,2.71,2.71,0,0,0,.28,1.2s-.06,0-.08.07l-7.36,9.2a2.84,2.84,0,0,0-3.1.49L40.67,68.7c0-.11,0-.22,0-.33a2.74,2.74,0,0,0-.81-2,2.85,2.85,0,0,0-3.93,0,2.78,2.78,0,0,0-.81,2,2.7,2.7,0,0,0,.28,1.19h0L28,77l0,0a2.85,2.85,0,0,0-3.15.52,2.78,2.78,0,0,0,2,4.74Z"/><path class="cls-12" d="M64.77,93.36h-.92v-25a.93.93,0,0,0-.93-.93H57.37a.93.93,0,0,0-.93.93v25h-3.7v-12a.92.92,0,0,0-.93-.93H46.26a.93.93,0,0,0-.93.93v12h-3.7V75.77a.92.92,0,0,0-.93-.92H35.15a.93.93,0,0,0-.93.92V93.36h-3.7V86.88A.93.93,0,0,0,29.6,86H24a.93.93,0,0,0-.92.93v6.48h-.93a.93.93,0,1,0,0,1.85H64.77a.93.93,0,1,0,0-1.85Z"/><circle class="cls-6" cx="166.99" cy="109.15" r="30.88" transform="translate(28.2 252.46) rotate(-79.09)"/><path class="cls-12" d="M305.84,93.92h-.93V63.25a.93.93,0,0,0-.93-.93H298.4a.93.93,0,0,0-.93.93V93.92h-3.71V72.55a.93.93,0,0,0-.93-.93h-5.58a.93.93,0,0,0-.93.93V93.92H282.6V81.84a.93.93,0,0,0-.93-.93H276.1a.93.93,0,0,0-.93.93V93.92h-3.72V89.28a.92.92,0,0,0-.93-.93H265a.92.92,0,0,0-.93.93v4.64h-.93a.93.93,0,0,0,0,1.86h42.75a.93.93,0,1,0,0-1.86Z"/><path class="cls-12" d="M265,86.49a.94.94,0,0,0,.6-.23l37.5-32.14v3.56a.93.93,0,0,0,1.86,0V52.1a.79.79,0,0,0,0-.13.65.65,0,0,0,0-.19.91.91,0,0,0-.09-.17,1.05,1.05,0,0,0-.07-.11l0,0a1.67,1.67,0,0,0-.16-.12l-.13-.09-.17,0a.58.58,0,0,0-.18,0H298.4a.93.93,0,0,0,0,1.86h3.07L264.34,84.85a.93.93,0,0,0-.1,1.31A.92.92,0,0,0,265,86.49Z"/><polygon class="cls-13" points="123.74 101.53 115.24 110.08 123.8 118.58 126.22 116.14 120.11 110.07 126.19 103.96 123.74 101.53"/><polygon class="cls-13" points="209.29 121.33 217.79 112.78 209.23 104.28 206.81 106.73 212.91 112.79 206.84 118.91 209.29 121.33"/><path class="cls-8" d="M176.18,77.87a1,1,0,0,0-.29-.08,31.83,31.83,0,0,0-9.15-1.32,32.69,32.69,0,1,0,31.41,41.71.14.14,0,0,0,0-.06,1.05,1.05,0,0,0,.06-.24,31.79,31.79,0,0,0,1.2-8.73A32.74,32.74,0,0,0,176.18,77.87Zm-22,34.44c-8-4.55-9.3-11.14-7.92-15.4.79-2.48.69-4.25-.26-5.35a2.27,2.27,0,0,1-.42-2.55c1.2-2.67,7.33-3.66,10.9-3.66a20.68,20.68,0,0,1,3.14.23c2.87.48,12.33,2.34,13.47,6.93.49,2-.56,4-3.12,5.9a11.34,11.34,0,0,0-2.89,3.53c-1,1.67-2.16,3.56-4.83,3.56a7.63,7.63,0,0,1-2.26-.38,1.51,1.51,0,0,0-1.65.63,1.24,1.24,0,0,0,.12,1.27c.12.2.3.42.41.42a1.73,1.73,0,0,0,.56-.18,2.09,2.09,0,0,1,.9-.23,1.55,1.55,0,0,1,1.16.57,1.64,1.64,0,0,1,.2,1.47,2.79,2.79,0,0,0,.05,1.42h0a3,3,0,0,1,2.4.86,2.73,2.73,0,0,1,.5,2.24,2.09,2.09,0,0,1,.74.48,1.56,1.56,0,0,1,.41,1.73,1.53,1.53,0,0,1-1.46.93,2.42,2.42,0,0,1-1.73-.81C161.28,115.65,158.84,115,154.15,112.31Zm31.86,10c-.62.94-1.13,1.8-1.62,2.63a32.64,32.64,0,0,1-5.69,7.49c-3.13,3.12-3.69,3.41-6.16,4-.82.19-1.81.42-3.34.9-1.1.35-1.68.58-1.93.69a1.73,1.73,0,0,1-.65.15,1.37,1.37,0,0,1-1.31-1,1.48,1.48,0,0,1,.6-1.58c1-.69,3.23-2.76,3.47-7.15,0-.45.08-1.28.11-2a4,4,0,0,1-1,.16,4.78,4.78,0,0,1-3.18-1.45c-2.18-2-2.56-2.36-2.31-3.32a1.65,1.65,0,0,1,1.29-1.15c.29-.06.48-.12.59-.94a.53.53,0,0,1,0-.16,19.8,19.8,0,0,1,4.71-7.91,4.74,4.74,0,0,1,3.47-1.6c2.85,0,5.42,2.65,7.51,4.76.42.43.81.84,1.17,1.18a6.84,6.84,0,0,0,2.57,1.34c1,.32,2.12.7,2.51,1.84A3.65,3.65,0,0,1,186,122.28Zm6.24-4.29c-3.58-3-1.55-7.38-.07-10.59.18-.41.37-.81.53-1.19.52-1.17-.07-2.27-1.05-4A10.93,10.93,0,0,1,190,97.81c-.11-1.29-3.72-3.08-6.1-4.25a23.21,23.21,0,0,1-5.48-3.26c-2.79-2.64-4-7.43-4.13-10.17,1,.26,1.9.56,2.81.9a30,30,0,0,1,19.65,28.12,29.61,29.61,0,0,1-1,7.81c-.23.88-.52,1.74-.83,2.59A7.66,7.66,0,0,1,192.25,118Z"/><circle class="cls-12" cx="57.59" cy="189.78" r="11.5" transform="translate(-67.8 36.12) rotate(-22.33)"/><path class="cls-6" d="M53.75,195.12a1.51,1.51,0,0,1-1.06-.44,1.49,1.49,0,0,1,0-2.12l7.66-7.67A1.5,1.5,0,0,1,62.48,187l-7.67,7.67A1.51,1.51,0,0,1,53.75,195.12Z"/><path class="cls-6" d="M61.41,195.12a1.53,1.53,0,0,1-1.06-.44L52.69,187a1.49,1.49,0,0,1,0-2.12,1.51,1.51,0,0,1,2.12,0l7.66,7.67a1.5,1.5,0,0,1-1.06,2.56Z"/><polygon class="cls-6" points="264.53 209.36 310.08 209.36 310.08 164.37 295.94 149.06 264.53 149.06 264.53 209.36"/><polygon class="cls-12" points="295.88 149.06 295.88 164.37 310.08 164.37 295.94 149.06 295.88 149.06"/><path class="cls-6" d="M305.89,198.47a1.48,1.48,0,0,1-1.06-.44,1.51,1.51,0,0,1,0-2.12l7.67-7.66a1.5,1.5,0,0,1,2.12,2.12L307,198A1.45,1.45,0,0,1,305.89,198.47Z"/><polygon class="cls-12" points="304.31 202.91 298.62 204.33 300.04 198.64 314.26 184.41 318.53 188.68 304.31 202.91"/><path class="cls-8" d="M318.53,188.68l2.13-2.13a3,3,0,0,0-4.26-4.27l-2.14,2.14"/><g class="cls-14"><path class="cls-15" d="M99.27,152.84V66.38H233.64"/></g></svg>