<svg id="Layer_1" data-name="Layer 1" xmlns="http://www.w3.org/2000/svg" viewBox="0 0 1200 800"><defs><style>.cls-1{fill:#acacac;}.cls-2{fill:#c7c7c7;}.cls-3{fill:#373737;}.cls-4{fill:#fff4d2;}.cls-5{fill:#ffca1e;}.cls-6{fill:#fff;}.cls-7{fill:#bf213e;}.cls-8{fill:#025159;}.cls-9{fill:#726f6e;}.cls-10{fill:#0d0d0d;}</style></defs><title>web-maintenance</title><path class="cls-1" d="M560.63,656.63V606H429.38v50.63a37.51,37.51,0,0,1-22.27,34.27L345,718.5H645l-62.11-27.6A37.5,37.5,0,0,1,560.63,656.63Z"/><rect class="cls-2" x="345" y="718.5" width="300" height="15"/><path class="cls-3" d="M222.93,166H767.07A27.93,27.93,0,0,1,795,193.93V556a0,0,0,0,1,0,0H195a0,0,0,0,1,0,0V193.93A27.93,27.93,0,0,1,222.93,166Z"/><rect class="cls-4" x="235" y="206" width="520" height="310"/><rect class="cls-5" x="265" y="319" width="276" height="172"/><polygon class="cls-3" points="316.34 319 281.81 319 265 335.81 265 370.34 316.34 319"/><polygon class="cls-3" points="541 439.66 541 405.13 455.13 491 489.66 491 541 439.66"/><polygon class="cls-3" points="386.06 491 420.6 491 541 370.6 541 336.06 386.06 491"/><polygon class="cls-3" points="317 491 351.53 491 523.53 319 489 319 317 491"/><polygon class="cls-3" points="524.19 491 541 491 541 474.19 524.19 491"/><polygon class="cls-3" points="454.47 319 419.94 319 265 473.94 265 491 282.47 491 454.47 319"/><polygon class="cls-3" points="385.4 319 350.87 319 265 404.87 265 439.4 385.4 319"/><rect class="cls-6" x="265" y="231" width="276" height="48"/><polygon class="cls-3" points="266.2 234 263.8 234 263.8 229.8 268 229.8 268 232.2 266.2 232.2 266.2 234"/><path class="cls-3" d="M266.2,270h-2.4v-6h2.4Zm0-12h-2.4v-6h2.4Zm0-12h-2.4v-6h2.4Z"/><polygon class="cls-3" points="268 280.2 263.8 280.2 263.8 276 266.2 276 266.2 277.8 268 277.8 268 280.2"/><path class="cls-3" d="M532,280.2h-6v-2.4h6Zm-12,0h-6v-2.4h6Zm-12,0h-6v-2.4h6Zm-12,0h-6v-2.4h6Zm-12,0h-6v-2.4h6Zm-12,0h-6v-2.4h6Zm-12,0h-6v-2.4h6Zm-12,0h-6v-2.4h6Zm-12,0h-6v-2.4h6Zm-12,0h-6v-2.4h6Zm-12,0h-6v-2.4h6Zm-12,0h-6v-2.4h6Zm-12,0h-6v-2.4h6Zm-12,0h-6v-2.4h6Zm-12,0h-6v-2.4h6Zm-12,0h-6v-2.4h6Zm-12,0h-6v-2.4h6Zm-12,0h-6v-2.4h6Zm-12,0h-6v-2.4h6Zm-12,0h-6v-2.4h6Zm-12,0h-6v-2.4h6Zm-12,0h-6v-2.4h6Z"/><polygon class="cls-3" points="542.2 280.2 538 280.2 538 277.8 539.8 277.8 539.8 276 542.2 276 542.2 280.2"/><path class="cls-3" d="M542.2,270h-2.4v-6h2.4Zm0-12h-2.4v-6h2.4Zm0-12h-2.4v-6h2.4Z"/><polygon class="cls-3" points="542.2 234 539.8 234 539.8 232.2 538 232.2 538 229.8 542.2 229.8 542.2 234"/><path class="cls-3" d="M532,232.2h-6v-2.4h6Zm-12,0h-6v-2.4h6Zm-12,0h-6v-2.4h6Zm-12,0h-6v-2.4h6Zm-12,0h-6v-2.4h6Zm-12,0h-6v-2.4h6Zm-12,0h-6v-2.4h6Zm-12,0h-6v-2.4h6Zm-12,0h-6v-2.4h6Zm-12,0h-6v-2.4h6Zm-12,0h-6v-2.4h6Zm-12,0h-6v-2.4h6Zm-12,0h-6v-2.4h6Zm-12,0h-6v-2.4h6Zm-12,0h-6v-2.4h6Zm-12,0h-6v-2.4h6Zm-12,0h-6v-2.4h6Zm-12,0h-6v-2.4h6Zm-12,0h-6v-2.4h6Zm-12,0h-6v-2.4h6Zm-12,0h-6v-2.4h6Zm-12,0h-6v-2.4h6Z"/><path class="cls-2" d="M765,616H225a30,30,0,0,1-30-30V556H795v30A30,30,0,0,1,765,616Z"/><rect class="cls-7" x="571" y="441" width="154" height="50" transform="translate(1296 932) rotate(180)"/><path class="cls-3" d="M604.2,372.74,647,308.53a1.24,1.24,0,0,1,2,0l42.8,64.21,2-1.34L651,307.2a3.74,3.74,0,0,0-6,0l-42.8,64.2Z"/><rect class="cls-8" x="571" y="361" width="154" height="50"/><polygon class="cls-8" points="574 412.2 569.8 412.2 569.8 408 572.2 408 572.2 409.8 574 409.8 574 412.2"/><path class="cls-8" d="M716.08,412.2h-5.92v-2.4h5.92Zm-11.84,0h-5.92v-2.4h5.92Zm-11.84,0h-5.92v-2.4h5.92Zm-11.84,0h-5.92v-2.4h5.92Zm-11.84,0H662.8v-2.4h5.92Zm-11.84,0H651v-2.4h5.92Zm-11.84,0h-5.92v-2.4H645Zm-11.84,0h-5.92v-2.4h5.92Zm-11.84,0h-5.92v-2.4h5.92Zm-11.84,0H603.6v-2.4h5.92Zm-11.84,0h-5.92v-2.4h5.92Zm-11.84,0h-5.92v-2.4h5.92Z"/><polygon class="cls-8" points="726.2 412.2 722 412.2 722 409.8 723.8 409.8 723.8 408 726.2 408 726.2 412.2"/><path class="cls-8" d="M726.2,401.71h-2.4v-6.28h2.4Zm0-12.57h-2.4v-6.28h2.4Zm0-12.57h-2.4v-6.28h2.4Z"/><polygon class="cls-8" points="726.2 364 723.8 364 723.8 362.2 722 362.2 722 359.8 726.2 359.8 726.2 364"/><path class="cls-8" d="M716.08,362.2h-5.92v-2.4h5.92Zm-11.84,0h-5.92v-2.4h5.92Zm-11.84,0h-5.92v-2.4h5.92Zm-11.84,0h-5.92v-2.4h5.92Zm-11.84,0H662.8v-2.4h5.92Zm-11.84,0H651v-2.4h5.92Zm-11.84,0h-5.92v-2.4H645Zm-11.84,0h-5.92v-2.4h5.92Zm-11.84,0h-5.92v-2.4h5.92Zm-11.84,0H603.6v-2.4h5.92Zm-11.84,0h-5.92v-2.4h5.92Zm-11.84,0h-5.92v-2.4h5.92Z"/><polygon class="cls-8" points="572.2 364 569.8 364 569.8 359.8 574 359.8 574 362.2 572.2 362.2 572.2 364"/><path class="cls-8" d="M572.2,401.71h-2.4v-6.28h2.4Zm0-12.57h-2.4v-6.28h2.4Zm0-12.57h-2.4v-6.28h2.4Z"/><path class="cls-9" d="M648,309.67a14.4,14.4,0,0,0,2.4-28.6v-9.94h-4.8v14.54H648a9.6,9.6,0,1,1-9.6,9.6h-4.8A14.42,14.42,0,0,0,648,309.67Z"/><rect class="cls-3" x="636" y="246" width="24" height="25" transform="translate(1296 517) rotate(180)"/><rect class="cls-3" x="636" y="198" width="2.4" height="48" transform="translate(1274.4 444) rotate(180)"/><rect class="cls-3" x="657.6" y="198" width="2.4" height="48" transform="translate(1317.6 444) rotate(180)"/><rect class="cls-6" x="275" y="329" width="256" height="152"/><polygon class="cls-10" points="551.31 143.36 550.69 141.04 902.18 46.71 902.61 46.97 1061.61 141.17 1060.39 143.23 901.82 49.29 551.31 143.36"/><path class="cls-7" d="M929,702H875V216h54Zm-48-6h42V222H881Z"/><rect class="cls-7" x="868.06" y="672" width="67.88" height="6" transform="translate(-213.11 835.51) rotate(-45)"/><rect class="cls-7" x="878" y="648" width="48" height="6"/><rect class="cls-7" x="868.06" y="624" width="67.88" height="6" transform="translate(-179.17 821.45) rotate(-45)"/><rect class="cls-7" x="878" y="600" width="48" height="6"/><rect class="cls-7" x="868.06" y="576" width="67.88" height="6" transform="translate(-145.23 807.4) rotate(-45)"/><rect class="cls-7" x="878" y="552" width="48" height="6"/><rect class="cls-7" x="868.06" y="528" width="67.88" height="6" transform="translate(-111.28 793.34) rotate(-45)"/><rect class="cls-7" x="878" y="504" width="48" height="6"/><rect class="cls-7" x="868.06" y="480" width="67.88" height="6" transform="translate(-77.34 779.28) rotate(-45)"/><rect class="cls-7" x="878" y="456" width="48" height="6"/><rect class="cls-7" x="868.06" y="432" width="67.88" height="6" transform="translate(-43.4 765.22) rotate(-45)"/><rect class="cls-7" x="878" y="408" width="48" height="6"/><rect class="cls-7" x="868.06" y="384" width="67.88" height="6" transform="translate(-9.46 751.16) rotate(-45)"/><rect class="cls-7" x="878" y="360" width="48" height="6"/><rect class="cls-7" x="868.06" y="336" width="67.88" height="6" transform="translate(24.48 737.1) rotate(-45)"/><rect class="cls-7" x="878" y="312" width="48" height="6"/><rect class="cls-7" x="868.06" y="288" width="67.88" height="6" transform="translate(58.42 723.04) rotate(-45)"/><rect class="cls-7" x="878" y="264" width="48" height="6"/><rect class="cls-7" x="868.06" y="240" width="67.88" height="6" transform="translate(92.36 708.98) rotate(-45)"/><rect class="cls-7" x="878" y="216" width="48" height="6"/><rect class="cls-7" x="844.54" y="88.36" width="90" height="6" transform="translate(571.06 926.95) rotate(-75)"/><rect class="cls-7" x="911.46" y="46.36" width="6" height="90" transform="translate(7.51 239.79) rotate(-15)"/><rect class="cls-7" x="878" y="129.61" width="48" height="6"/><polygon class="cls-7" points="914.74 91.63 916.53 98.32 880.12 134.73 878.23 132.83 879.94 126.42 914.74 91.63"/><polygon class="cls-7" points="889.26 91.63 914.74 91.63 916.34 97.63 887.66 97.63 889.26 91.63"/><rect class="cls-7" x="830" y="189" width="54" height="6"/><rect class="cls-7" x="830" y="141" width="54" height="6"/><path class="cls-7" d="M938,141h198v54H938Zm192,6H944v42h186Z"/><rect class="cls-7" x="1075.06" y="165" width="67.88" height="6" transform="translate(206.02 833.39) rotate(-45)"/><rect class="cls-7" x="1082" y="144" width="6" height="48"/><rect class="cls-7" x="1027.06" y="165" width="67.88" height="6" transform="translate(191.97 799.45) rotate(-45)"/><rect class="cls-7" x="1034" y="144" width="6" height="48"/><rect class="cls-7" x="979.06" y="165" width="67.88" height="6" transform="translate(177.91 765.51) rotate(-45)"/><rect class="cls-7" x="986" y="144" width="6" height="48"/><rect class="cls-7" x="931.06" y="165" width="67.88" height="6" transform="translate(163.85 731.56) rotate(-45)"/><rect class="cls-7" x="938" y="144" width="6" height="48"/><rect class="cls-10" x="1031" y="138" width="60" height="60"/><rect class="cls-10" x="842" y="702" width="120" height="24" transform="translate(1804 1428) rotate(180)"/><path class="cls-7" d="M896,126h48a0,0,0,0,1,0,0v84a0,0,0,0,1,0,0H860a0,0,0,0,1,0,0V162A36,36,0,0,1,896,126Z"/><path class="cls-7" d="M896,138h24a0,0,0,0,1,0,0v48a0,0,0,0,1,0,0H872a0,0,0,0,1,0,0V162A24,24,0,0,1,896,138Z"/><path class="cls-7" d="M896,138h24a0,0,0,0,1,0,0v48a0,0,0,0,1,0,0H872a0,0,0,0,1,0,0V162A24,24,0,0,1,896,138Z"/><rect class="cls-7" x="854" y="210" width="96" height="12" transform="translate(1804 432) rotate(180)"/><path class="cls-10" d="M893,48a9,9,0,1,1,9,9A9,9,0,0,1,893,48Z"/><path class="cls-7" d="M872,162a23.94,23.94,0,0,1,12-20.77L920,162v24h-6.43L872,162Z"/><polygon class="cls-7" points="872 186 872 170.78 898.35 186 872 186"/><rect class="cls-7" x="805.06" y="165" width="67.88" height="6" transform="translate(126.94 642.47) rotate(-45)"/><rect class="cls-7" x="812" y="144" width="6" height="48"/><rect class="cls-7" x="757.06" y="165" width="67.88" height="6" transform="translate(112.88 608.53) rotate(-45)"/><rect class="cls-7" x="764" y="144" width="6" height="48"/><rect class="cls-7" x="709.06" y="165" width="67.88" height="6" transform="translate(98.83 574.59) rotate(-45)"/><rect class="cls-7" x="716" y="144" width="6" height="48"/><rect class="cls-7" x="661.06" y="165" width="67.88" height="6" transform="translate(84.77 540.65) rotate(-45)"/><rect class="cls-7" x="668" y="144" width="6" height="48"/><rect class="cls-7" x="613.06" y="165" width="67.88" height="6" transform="translate(70.71 506.7) rotate(-45)"/><rect class="cls-7" x="620" y="144" width="6" height="48"/><rect class="cls-7" x="565.06" y="165" width="67.88" height="6" transform="translate(56.65 472.76) rotate(-45)"/><rect class="cls-7" x="572" y="144" width="6" height="48"/><path class="cls-7" d="M525.76,141l-48,48v6H866V141ZM524,151.24V189H486.24ZM860,189H530V147H860Z"/><rect class="cls-7" x="517.06" y="165" width="67.88" height="6" transform="translate(42.59 438.82) rotate(-45)"/><circle class="cls-10" cx="854" cy="738" r="12"/><circle class="cls-10" cx="918" cy="738" r="12"/><circle class="cls-10" cx="886" cy="738" r="12"/><circle class="cls-10" cx="950" cy="738" r="12"/></svg>