<svg id="Layer_1" data-name="Layer 1" xmlns="http://www.w3.org/2000/svg" viewBox="0 0 1400 1400"><defs><style>.cls-1{fill:#031e6c;}.cls-2{fill:#5880db;}.cls-3{fill:#041d5b;}.cls-4{fill:#92d7fe;}.cls-5{fill:#4367c7;}.cls-6{fill:#355db7;}.cls-7{fill:#f2f2f2;}.cls-8{fill:#fff;}.cls-9{fill:#77bdfb;}.cls-10{fill:#030a8c;}.cls-11{fill:#025159;}.cls-12{fill:#bf213e;}.cls-13{fill:#8c0303;}.cls-14{fill:#e9b488;}.cls-15{fill:#fefbf0;}.cls-16{fill:#713d22;}.cls-17{fill:#713d23;}.cls-18{isolation:isolate;}.cls-19{fill:#2cc4a7;}.cls-20{fill:#a78264;}.cls-21{fill:#dce5fe;}.cls-22{fill:#a9d6ff;}.cls-23{fill:#0d0d0d;}.cls-24{fill:#313747;}.cls-25{fill:#232935;}.cls-26{fill:#e54897;}.cls-27{fill:#dcf8ff;}.cls-28{fill:#e5ac45;}.cls-29{fill:#f2c05b;}.cls-30{fill:#ec8659;}</style></defs><title>web-development</title><polygon class="cls-1" points="940.11 1147.56 939.94 1207.84 1014.49 1250.88 1014.66 1190.6 940.11 1147.56"/><polygon class="cls-2" points="940.11 1147.56 960.18 1135.9 1034.73 1178.94 1014.66 1190.6 940.11 1147.56"/><polygon class="cls-3" points="1014.66 1190.6 1034.73 1178.94 1034.56 1239.22 1014.49 1250.88 1014.66 1190.6"/><polygon class="cls-4" points="951.53 1140.92 950.47 1141.54 1025.02 1184.58 1026.08 1183.96 951.53 1140.92"/><polygon class="cls-5" points="940.11 1147.56 940.06 1166.02 940.11 1166.01 1014.61 1209.02 1014.66 1190.6 940.11 1147.56"/><polygon class="cls-6" points="1014.66 1209.05 1034.68 1197.42 1034.73 1178.94 1014.66 1190.6 1014.61 1209.1 1014.66 1209.05"/><path class="cls-3" d="M1014.5,1247.56v3.32l0,0v-3.25Z"/><polygon class="cls-4" points="1025.02 1244.76 1026.08 1244.14 1026.08 1183.96 1025.02 1184.58 1025.02 1244.76"/><path class="cls-1" d="M994.5,1154.13a9.28,9.28,0,0,1,4.2,7.28l0,9.56-3-1.74,0-9.56a2.67,2.67,0,0,0-1.2-2.08l-17.42-10.06c-.66-.38-1.21-.07-1.21.69l0,9.56-3-1.74,0-9.56c0-2.67,1.9-3.75,4.23-2.41Z"/><path class="cls-1" d="M998.24,1152l-17.42-10.06a3,3,0,0,0-3-.29l-3.74,2.18a3,3,0,0,1,3,.29l2.48,1.43-3.35,2a.85.85,0,0,0-.35.77l0,9.56,3.75-2.18,0-9.55a1.09,1.09,0,0,1,.09-.47l14.8,8.55a9.28,9.28,0,0,1,4.2,7.28l0,9.56,3.74-2.18,0-9.56A9.26,9.26,0,0,0,998.24,1152Z"/><path class="cls-7" d="M522.22,1008.15l-1.49-649.46-14.1-8.19,1.5,649.46c0,6.82,2.42,11.62,6.3,13.87l14.1,8.19C524.65,1019.77,522.24,1015,522.22,1008.15Z"/><path class="cls-8" d="M520.73,358.69l.14,49.46L872.73,205l1.36,600c0,13.71-9.61,30.43-21.55,37.31L543.9,1020.52c-11.93,6.89-21.64,1.35-21.68-12.37Z"/><path class="cls-9" d="M858.64,196.81l-337.82,195-.09-33.16c0-13.72,9.6-30.43,21.54-37.32L850.91,143.18c6-3.47,11.44-3.79,15.37-1.5l-14.09-8.2c-3.93-2.28-9.37-2-15.38,1.51L528.17,313.18c-11.93,6.89-21.58,23.6-21.54,37.32l.14,49.46,14.1,8.19L872.73,205Z"/><path class="cls-5" d="M850.91,143.18c11.93-6.89,21.64-1.36,21.68,12.36l.14,49.47L520.87,408.15l-.14-49.46c0-13.72,9.6-30.43,21.54-37.32Z"/><path class="cls-10" d="M782.7,211.14c4.14-2.39,7.5-.46,7.52,4.29a16.46,16.46,0,0,1-7.47,12.93c-4.13,2.39-7.5.47-7.52-4.28A16.51,16.51,0,0,1,782.7,211.14Z"/><path class="cls-11" d="M808.24,196.4c4.14-2.39,7.5-.47,7.52,4.28a16.43,16.43,0,0,1-7.47,12.93c-4.14,2.39-7.51.48-7.52-4.27A16.48,16.48,0,0,1,808.24,196.4Z"/><path class="cls-12" d="M833.78,181.65c4.14-2.39,7.51-.47,7.52,4.29a16.46,16.46,0,0,1-7.47,12.93c-4.14,2.39-7.51.48-7.52-4.28A16.48,16.48,0,0,1,833.78,181.65Z"/><polygon class="cls-7" points="683.82 549.7 684.24 699.76 553.65 775.16 553.23 625.1 683.82 549.7"/><polygon class="cls-7" points="683.29 363.88 683.72 513.94 553.13 589.34 552.7 439.28 683.29 363.88"/><polygon class="cls-7" points="842.98 271.69 843.41 421.74 712.82 497.14 712.39 347.08 842.98 271.69"/><polygon class="cls-7" points="843.51 457.5 843.93 607.56 713.35 682.96 712.92 532.9 843.51 457.5"/><polygon class="cls-7" points="684.34 735.52 684.77 885.58 554.18 960.97 553.75 810.92 684.34 735.52"/><polygon class="cls-7" points="844.03 643.33 844.46 793.38 713.87 868.77 713.45 718.72 844.03 643.33"/><path class="cls-1" d="M902.23,441.49c5.53-3.19,10-.63,10,5.71l.58,205.26c0,6.35-4.45,14.09-10,17.28L663.24,808.09c-5.52,3.19-10,.63-10-5.72l-.58-205.26c0-6.34,4.44-14.07,10-17.26Z"/><path class="cls-8" d="M907.27,447.22a4.07,4.07,0,0,0-.4-2.09h-.15a4.28,4.28,0,0,0-2,.7L665.09,584.18c-4,2.3-7.48,8.34-7.46,12.92l.07,25.83L907.36,478.79Z"/><path class="cls-8" d="M887.89,570c1.45-.84,2.62-.17,2.62,1.49a5.75,5.75,0,0,1-2.6,4.52l-67,38.67c-1.44.83-2.61.16-2.62-1.5a5.73,5.73,0,0,1,2.61-4.51Z"/><path class="cls-8" d="M887.81,543.42c1.45-.84,2.62-.16,2.63,1.49a5.75,5.75,0,0,1-2.61,4.52l-67,38.68c-1.44.83-2.62.15-2.62-1.5a5.74,5.74,0,0,1,2.6-4.52Z"/><path class="cls-8" d="M810.39,614.69c1.44-.83,2.62-.17,2.63,1.5a5.79,5.79,0,0,1-2.61,4.51l-32.28,18.63c-1.44.83-2.61.17-2.62-1.49a5.75,5.75,0,0,1,2.61-4.52Z"/><path class="cls-12" d="M835.76,586.09c1.45-.84,2.62-.16,2.63,1.49a5.75,5.75,0,0,1-2.61,4.52l-57.69,33.31c-1.44.83-2.61.15-2.62-1.5a5.75,5.75,0,0,1,2.61-4.52Z"/><path class="cls-8" d="M767.77,639.29c1.45-.83,2.63-.16,2.63,1.5a5.73,5.73,0,0,1-2.61,4.51l-13.76,8c-1.45.83-2.62.17-2.62-1.49a5.74,5.74,0,0,1,2.6-4.52Z"/><path class="cls-4" d="M888.55,647.68c1.44-.83,2.62-.17,2.63,1.5a5.79,5.79,0,0,1-2.61,4.51L683.29,772.2c-1.44.83-2.61.17-2.62-1.49a5.75,5.75,0,0,1,2.61-4.52Z"/><path class="cls-11" d="M835.69,559.57c1.45-.84,2.62-.17,2.62,1.48a5.71,5.71,0,0,1-2.61,4.52L778,598.88c-1.44.83-2.62.16-2.62-1.5a5.72,5.72,0,0,1,2.6-4.51Z"/><path class="cls-4" d="M888.51,634.91c1.45-.84,2.63-.17,2.63,1.49a5.76,5.76,0,0,1-2.61,4.51L683.26,759.43c-1.45.83-2.62.16-2.62-1.49a5.72,5.72,0,0,1,2.6-4.52Z"/><path class="cls-4" d="M888.48,622.13c1.44-.83,2.62-.17,2.62,1.49a5.71,5.71,0,0,1-2.61,4.52L683.22,746.66c-1.44.83-2.61.16-2.62-1.5a5.75,5.75,0,0,1,2.6-4.51Z"/><path class="cls-13" d="M768,651.81c1.44-.83,2.61-.16,2.62,1.5a5.75,5.75,0,0,1-2.6,4.51l-51.71,29.85c-1.45.84-2.62.17-2.62-1.49a5.75,5.75,0,0,1,2.6-4.52Z"/><path class="cls-4" d="M888.44,609.36c1.44-.83,2.62-.17,2.63,1.49a5.76,5.76,0,0,1-2.61,4.52L683.19,733.88c-1.45.84-2.62.17-2.62-1.5a5.75,5.75,0,0,1,2.6-4.51Z"/><path class="cls-4" d="M888.4,596.59c1.45-.84,2.63-.17,2.63,1.49a5.78,5.78,0,0,1-2.61,4.52L683.15,721.11c-1.44.83-2.62.16-2.62-1.5a5.74,5.74,0,0,1,2.6-4.51Z"/><path class="cls-11" d="M767.87,625.28c1.45-.83,2.62-.16,2.62,1.5a5.75,5.75,0,0,1-2.6,4.52l-51.71,29.85c-1.44.83-2.61.16-2.62-1.5a5.73,5.73,0,0,1,2.61-4.51Z"/><path class="cls-13" d="M706.68,687.18c1.45-.83,2.62-.17,2.63,1.5a5.75,5.75,0,0,1-2.61,4.51l-23.59,13.62c-1.44.84-2.62.17-2.62-1.49a5.74,5.74,0,0,1,2.6-4.52Z"/><path class="cls-8" d="M744.67,652.64c1.44-.84,2.61-.17,2.62,1.5a5.73,5.73,0,0,1-2.61,4.5l-61.61,35.58c-1.44.83-2.61.16-2.62-1.5a5.73,5.73,0,0,1,2.61-4.51Z"/><path class="cls-11" d="M767.8,598.76c1.44-.83,2.61-.16,2.62,1.49a5.75,5.75,0,0,1-2.6,4.52l-51.71,29.85c-1.45.84-2.62.17-2.62-1.5a5.75,5.75,0,0,1,2.6-4.51Z"/><path class="cls-11" d="M706.61,660.65c1.45-.83,2.62-.16,2.62,1.5a5.74,5.74,0,0,1-2.61,4.52L683,680.29c-1.44.83-2.61.16-2.62-1.5a5.76,5.76,0,0,1,2.61-4.52Z"/><path class="cls-13" d="M744.59,626.11c1.45-.84,2.62-.16,2.62,1.5a5.74,5.74,0,0,1-2.6,4.51L683,667.69c-1.45.84-2.62.16-2.62-1.5a5.74,5.74,0,0,1,2.6-4.51Z"/><path class="cls-12" d="M744.52,599.59c1.44-.84,2.61-.17,2.62,1.5a5.73,5.73,0,0,1-2.61,4.5l-61.61,35.58c-1.44.83-2.61.16-2.62-1.5a5.73,5.73,0,0,1,2.61-4.51Z"/><path class="cls-8" d="M810.32,588.16c1.44-.83,2.62-.16,2.62,1.5a5.74,5.74,0,0,1-2.61,4.52l-32.27,18.63c-1.44.83-2.62.16-2.62-1.5a5.75,5.75,0,0,1,2.6-4.52Z"/><path class="cls-8" d="M810.24,561.64c1.44-.83,2.62-.17,2.63,1.5a5.79,5.79,0,0,1-2.61,4.51L778,586.28c-1.44.83-2.61.17-2.62-1.49a5.75,5.75,0,0,1,2.61-4.52Z"/><path class="cls-12" d="M888.37,555.71c1.16-.66,2.1-.12,2.1,1.21v1.19a4.64,4.64,0,0,1-2.09,3.63L846.18,586.1c-1.16.68-2.1.14-2.11-1.2v-1.19a4.63,4.63,0,0,1,2.09-3.63Z"/><path class="cls-12" d="M767.62,586.24c1.45-.83,2.62-.16,2.63,1.5a5.73,5.73,0,0,1-2.61,4.51l-13.77,8c-1.44.83-2.61.17-2.62-1.49a5.75,5.75,0,0,1,2.61-4.52Z"/><path class="cls-14" d="M751.1,802.11a189.54,189.54,0,0,1-28.82-24.54s-9.08-.55-14.58-4.68-5.5-4.4-6.32-6.33-2.2-6.87-2.2-6.87-6.6-2.2-8.53-5.23,3.58-2.75,7.7-1.1S712.1,760,712.1,760s11,4.4,14.31,6.6,31.35,17.61,31.35,17.61Z"/><path class="cls-15" d="M789.61,974.77s-12-1.13-19.11-1.88c0,0-6-1-6.36,4.56s3,9.66,12.73,14.52l12.74,5.61s4.82,3.36,9.31,3.36,7.85-1.49,8.23-4.86v-28.8Z"/><path class="cls-15" d="M813.64,958s-12-1.14-19.11-1.88c0,0-6-1-6.35,4.55s3,9.66,12.73,14.52l12.73,5.61s4.83,3.36,9.32,3.36,7.85-1.49,8.22-4.86V950.46Z"/><path class="cls-11" d="M776.85,837.52l-3.74-.74S772,862.21,775,880.9s4.87,35.91,9.35,57.22a132.24,132.24,0,0,1,2.25,39.27,9.53,9.53,0,0,0,7.1,9.35c7.48,2.24,13.47-4.86,13.47-4.86s-1.13-58.72-1.5-66.2-4.11-20.19-4.11-20.19a87.92,87.92,0,0,1,7.1,21.69V964.3s.75,6,10.1,7.11,12.44-7.48,12.44-7.48v-40s-1.41-12.78-3-24.53a105,105,0,0,1,.13-29.47c2-13.32,4.13-32.33,2.88-43.23C829.21,826.3,776.85,837.52,776.85,837.52Z"/><path class="cls-14" d="M781,701.77V716s-1.5,13.09,6.73,13.09v11.22h20.57V728l-17.58-29.17-9.83-2.62Z"/><path class="cls-16" d="M781,701.77s1.12,0,2.61,2.25a27.62,27.62,0,0,1,2.62,6.73s2.25-.38,3.37,3l1.12,3.36s6.36,1.87,8.23,6,4.86,5.61,9.35,4.86c0,0,4.48-.75,7.48-7.85s4.86-17.58-1.87-25.43-10.85-9-21.69-9S777.24,697.37,781,701.77Z"/><path class="cls-10" d="M794.56,737.3s-8.73,2.24-21.07,12.71-22.44,34-22.44,34-4.86,9.35-2.24,15c0,0,3,5.61,7.1,5.61s12.82-9.72,15.39-13.08,4.43-5.61,4.43-5.61.75,11.21,0,18.69-2.62,32.17-2.62,32.17.16,16.82,7.75,23.93,19.93.37,29.65-3.74,16.46-10.84,18.7-14.58,3-22.44,0-32.91-5.24-23.19-3-34.78,7.48-25.43,2.24-37.4S808.82,729.85,794.56,737.3Z"/><path class="cls-1" d="M675.38,590.23c2.42-1.39,4.39-.27,4.4,2.52a9.64,9.64,0,0,1-4.37,7.57c-2.43,1.4-4.4.28-4.41-2.5A9.64,9.64,0,0,1,675.38,590.23Z"/><path class="cls-1" d="M690.34,581.6c2.43-1.4,4.4-.28,4.41,2.51a9.65,9.65,0,0,1-4.38,7.57c-2.42,1.4-4.4.28-4.4-2.5A9.62,9.62,0,0,1,690.34,581.6Z"/><path class="cls-1" d="M705.31,573c2.42-1.4,4.4-.28,4.4,2.51a9.62,9.62,0,0,1-4.37,7.57c-2.43,1.4-4.4.28-4.41-2.5A9.61,9.61,0,0,1,705.31,573Z"/><path class="cls-12" d="M578.2,490.32C576.44,521.09,555,557,528.63,572.18s-47.94,4.2-49.87-24.45L487,543c1.9,23.43,19.81,32.33,41.59,19.76s39.59-42.1,41.35-67.64Z"/><path class="cls-11" d="M528.3,457.61c26.33-15.19,48-4.19,49.88,24.45l-8.26,4.76c-1.89-23.43-19.81-32.33-41.59-19.76S488.75,509.16,487,534.7l-8.25,4.77C480.5,508.7,502,472.81,528.3,457.61Z"/><path class="cls-12" d="M662.81,380c8.7-5,16.88-7.18,24-6.79l-4.47,10.55c-5.82-.2-12.47,1.61-19.52,5.68-23,13.28-41.57,45.46-41.5,71.87,0,15.35,6.39,25.37,16.19,28.47l-4.46,10.56c-12.07-3.51-19.9-15.6-20-34.28C613,434.39,635.28,395.85,662.81,380Z"/><path class="cls-11" d="M692.87,374.18c12.07,3.51,19.9,15.6,20,34.28.09,31.63-22.15,70.16-49.68,86.06-8.71,5-16.89,7.18-24,6.79l4.46-10.55c5.83.2,12.47-1.61,19.53-5.69,23-13.27,41.57-45.45,41.49-71.87,0-15.35-6.38-25.36-16.19-28.46Z"/><path class="cls-12" d="M352.51,620.63c1.9,23.42,19.81,32.33,41.59,19.75,13-7.48,24.52-21,32.12-36l6.82,1.43c-9.1,18.42-23.14,35-38.91,44.07-26.33,15.2-47.95,4.2-49.87-24.44Z"/><path class="cls-5" d="M393.8,535.27c27.53-15.89,49.92-3.13,50,28.5,0,10.54-2.42,21.85-6.72,32.83l-6.82-1.43a75.36,75.36,0,0,0,5.32-26.65c-.07-26.42-18.77-37.08-41.76-23.8-21.78,12.57-39.59,42.1-41.34,67.64l-8.26,4.76C346,586.35,367.48,550.47,393.8,535.27Z"/><path class="cls-14" d="M523.06,830l-1.45-.08v-6.14s0,1.08-4.33,5.24-4.35,10.83-4.35,10.83v23l7.89-1.63V835.55s3.37-.87,4.07-2.8l0-.06A2,2,0,0,0,523.06,830Z"/><path class="cls-15" d="M462.61,1054s-9.09,3.7-12.45,11.77c0,0-.73,10.43,9.9,22.21s15,14.92,18.86,12-1.85-24.42-1.85-24.42l-3-10.77Z"/><path class="cls-15" d="M492.66,1096l2.58,1.34s11.11,12.12,14.47,16.15,4.71,6.4,3.7,10.44c0,0-3,5-15.62,1.34s-23.41-19.85-23.41-19.85-2-3.7,4-8.08Z"/><path class="cls-1" d="M509,920.7s4,23.89,9.76,43.74,4.71,35.67,0,40.38-23.56,36.68-29.61,43.07-13.8,20.53-13.8,20.53-12.11-2-12.78-14.47c0,0,11.75-25.41,24.72-41S502,992.37,502,992.37s-17.28-27.72-19.85-43.74,5.21-24.23,5.21-24.23Z"/><path class="cls-1" d="M464.49,927.42s-6.26,15.49-3.9,32.65S473,1013,473,1013a116.73,116.73,0,0,0-2.36,35.92c1.95,18.69,7.74,48.45,7.74,48.45s9.76,5.72,16.82,0c0,0-4.71-65.95-5-73.69a43.28,43.28,0,0,1,2.46-15.14s6.29-39.7,4.94-45.76-8.41-42.06-8.41-42.06Z"/><path class="cls-12" d="M490.2,837.69s7.48-1.45,11,1.92,6.52,10.55,8.88,17.38,2.36,9.53,2.36,9.53v-7.4s5,1,8.41,1.35v24.22s-1,7.07-5.72,6.73-9.59-7.4-9.59-7.4.84,21.54,3.87,27.26a64.42,64.42,0,0,1,4,8.75s-6.39,14.8-19.51,14.8-31-8.08-31-8.08,6.26-11.44,6.83-18.84c0,0-1.78,2.69-6.83-3.7s-10.57-29.73-8.75-42.73c0,0,1.34-7.59,17.5-16.49C471.69,845,490.08,846.76,490.2,837.69Z"/><path class="cls-14" d="M499.62,896.79s7-5.77,10.27-7.94,8-2.54,10.93-9.58,10.19-8.13,9.65-11.93-10.84-2.16-14.27,0-5.06,10-11.57,13.59-8.67,4.12-8.67,4.12S493.16,892.45,499.62,896.79Z"/><path class="cls-14" d="M499.62,806.63s3.7,13.46,3,22.21-1.48,10.77-1.48,10.77a20.87,20.87,0,0,1-8.62,0v13.45s-3,5.05-8.75,3.71S471.69,845,471.69,845a15.63,15.63,0,0,0,5.05-13.18s-5.39,1.07-6.73-6,3.36-7.74,7.4-2.69C477.41,823.12,495.58,817.06,499.62,806.63Z"/><path class="cls-17" d="M499.57,806.84l.05-.21a10.94,10.94,0,0,0-6.73-9.42c-6.73-3-21.2-3.37-27.59,6s-2.69,17.39-3.37,28.55-3,15.87-10.77,19.91-7.73,26.92,3.37,28.26,31.14-14.13,31.72-32.64a55.29,55.29,0,0,1,7.21-25.22A59.42,59.42,0,0,0,499.57,806.84Z"/><path class="cls-5" d="M997.27,162.41c3.52-2,6.37-.4,6.38,3.64l.51,181.12a14,14,0,0,1-6.34,11L750.9,500.71c-3.51,2-6.36.4-6.38-3.64L744,316a14,14,0,0,1,6.34-11Z"/><path class="cls-8" d="M749,315.94a9.18,9.18,0,0,1,3.84-6.64l245.8-141.91.51,179.8a9,9,0,0,1-3.84,6.63L749.52,495.74Z"/><path class="cls-12" d="M749.41,455.59l.11,40.15,245.8-141.92a9,9,0,0,0,3.84-6.63l-.1-35.73Z"/><path class="cls-12" d="M857,288.08a4.24,4.24,0,0,1,3.19-.61l34.53,9.37c2.93.79,2.94,5.81,0,10L860.41,356a10.35,10.35,0,0,1-3.19,3.06c-2.79,1.62-5.42.59-5.43-3.08l-.08-29.26-.08-29.26A11.88,11.88,0,0,1,857,288.08Z"/><path class="cls-13" d="M975.82,341.81c2.31-1.33,4.18-.26,4.18,2.39a9.15,9.15,0,0,1-4.15,7.19L772.75,468.65c-2.3,1.33-4.18.27-4.19-2.38a9.19,9.19,0,0,1,4.16-7.2Z"/><path class="cls-8" d="M883.53,400.68a3.23,3.23,0,0,0-4.84-2.79l-106,61.18a9.19,9.19,0,0,0-4.16,7.2c0,2.65,1.89,3.71,4.19,2.38l107.3-61.95a7,7,0,0,0,3.48-6Z"/><path class="cls-8" d="M879.53,393.7c4.13-2.39,7.49-.48,7.5,4.27a16.39,16.39,0,0,1-7.45,12.91c-4.13,2.39-7.49.47-7.5-4.27A16.39,16.39,0,0,1,879.53,393.7Z"/><path class="cls-14" d="M987.66,759s-8.23-.33-12.45-3.73-6.12-5.49-6.9-10.23,1.45-7.39,3.12-7.81,6,6.87,7.73,7.27-1.31-3.61.91-5.09,7.8,7.93,16.57,13.74S987.66,759,987.66,759Z"/><path class="cls-14" d="M939.21,777.24s-8.24-.34-12.46-3.74-6.12-5.49-6.9-10.23,1.45-7.39,3.12-7.8,6,6.86,7.73,7.26-1.31-3.61.91-5.09,7.8,7.93,16.57,13.75S939.21,777.24,939.21,777.24Z"/><path class="cls-11" d="M972.69,741s-3.28,8.41-5.21,22.87l-1.93,14.46-16.69-9.66s-10.3,2.47-10,11.58c0,0,18.09,13,24.06,16.6s9.72,7.79,14.81,2,9.34-25.1,9.22-27.46S972.69,741,972.69,741Z"/><g class="cls-18"><path class="cls-8" d="M1010.21,716.42c10.45,6,10.5,15.8.12,21.84L980.2,755.77c-10.38,6-27.25,6-37.7,0l-30.33-17.51c-10.44-6-10.5-15.81-.12-21.84l30.13-17.51c10.38-6,27.26-6,37.7,0Z"/><path class="cls-7" d="M1010.33,738.26,980.2,755.77c-10.38,6-27.25,6-37.7,0l-30.33-17.51c-5.25-3-7.88-7-7.87-11l-.06,22.06c0,4,2.61,8,7.87,11l30.33,17.51c10.44,6,27.32,6,37.7,0l30.13-17.51c5.16-3,7.74-6.92,7.75-10.85l.06-22.06C1018.07,731.34,1015.49,735.26,1010.33,738.26Z"/></g><path class="cls-8" d="M988.43,971.65l-4.88,1.08s-11.4-7.05-16.82-1.08c0,0-3.44,3.58,10.85,10.85,13.85,7,19.85,7,19.85,7s7.65-2.63,6.74-21.16h-11.4Z"/><polygon class="cls-19" points="993.96 700.51 989.38 703.17 989.34 716.78 993.92 714.12 993.96 700.51"/><polygon class="cls-11" points="936.41 703.17 931.8 700.51 931.76 714.12 936.37 716.78 936.41 703.17"/><path class="cls-11" d="M949.66,726.08a1.1,1.1,0,0,1,0-.18l0-.2c0-.05,0-.11,0-.17a1.05,1.05,0,0,1,0-.19,1.21,1.21,0,0,1,.05-.18l.06-.19a.87.87,0,0,1,.07-.17,1.19,1.19,0,0,1,.08-.2.89.89,0,0,1,.08-.17l.1-.2.09-.16.15-.24.09-.14.19-.26.08-.11c.11-.13.22-.27.34-.4a.94.94,0,0,0,.1-.1l.3-.3.15-.14.19-.16.18-.15.21-.17.2-.15.22-.15.21-.15.25-.15.3-.19.61-.33.18-.09.5-.23.16-.08.67-.27.11,0,.58-.2.24-.08.32-.1.28-.08.33-.08.28-.07.34-.08.28-.06.35-.07.26,0q.38-.08.75-.12l.11,0,.66-.08.26,0,.42,0h.27l.45,0h1.56c.42,0,.85,0,1.27.07h0c.42,0,.85.08,1.27.14l.11,0,.53.08.23,0,.41.08.21.05.45.1.24.06.41.11.22.06.63.2.11,0,.7.26.15.06.88.38.08,0,.88.46c2.61,1.51,3.92,3.5,3.91,5.48l0-13.61c0-2-1.3-4-3.92-5.48-.28-.16-.57-.31-.87-.46l-.08,0c-.29-.14-.58-.26-.88-.38l-.08,0-.07,0-.7-.26-.11,0-.63-.2-.1,0-.12,0-.41-.11-.24-.06-.45-.1-.17,0h0l-.41-.08-.23,0-.53-.08-.1,0h0c-.42-.06-.85-.11-1.28-.14h0c-.42,0-.84-.06-1.26-.07h-1.56l-.45,0h-.27l-.43,0h-.25l-.66.08-.11,0q-.37,0-.75.12H959l-.19,0-.35.06-.28.07-.34.07-.28.07-.33.09-.28.08-.32.1-.14,0-.1,0-.32.11,0-11.19,0-3.76L956,705v1.34l-.24.09-.12,0-.66.27-.17.08-.49.23-.18.09-.61.33-.16.1-.15.09-.24.15-.21.15-.22.15-.2.15-.21.16-.18.16-.19.16-.08.07a.46.46,0,0,0-.07.07l-.3.3-.1.1c-.12.13-.23.27-.34.4l0,0-.06.09-.19.26-.1.14-.14.24,0,.06s0,.07-.05.1a1.24,1.24,0,0,0-.1.2,1.19,1.19,0,0,0-.08.16l-.09.21,0,.09,0,.08-.06.19-.06.17c0,.07,0,.13,0,.2l0,.1s0,.05,0,.07l0,.2a1.1,1.1,0,0,0,0,.18c0,.06,0,.13,0,.2a.37.37,0,0,1,0,.11v.12l0,13.61c0-.08,0-.15,0-.23S949.65,726.14,949.66,726.08Z"/><path class="cls-13" d="M993.63,716.88c-.09.23-.19.46-.29.69l-.05.11c-.1.22-.21.44-.32.66a.75.75,0,0,0-.07.12c-.12.23-.25.45-.39.68v0c-.14.21-.28.43-.43.64l-.1.14c-.15.21-.3.42-.47.63l-.12.14-.43.51c-.05.07-.11.13-.17.2s-.31.34-.48.5l-.12.14c-.22.22-.45.44-.69.65l0,5.35-5,2.88-4.61-2.66c-.5.19-1,.36-1.51.52l-.48.16-.83.24a5.08,5.08,0,0,1-.52.15l-.86.23-.51.13-1,.23-.39.09-1.39.27-.86.14-.43.07-1.3.19v3.76H956.27l0-3.76-1-.14-.94-.15-.51-.08-1.09-.21-.34-.07c-.5-.1-1-.21-1.49-.33l-.4-.1-1.1-.29-.48-.14-1-.3-.43-.14c-.46-.15-.91-.3-1.36-.47l-4.58,2.66L936.5,728l0-5.3a16.43,16.43,0,0,1-3.5-4.32,12.12,12.12,0,0,1-.71-1.51h-6.49l-.05-7.88,0,13.61,0,7.88h6.14l0,8.5,9.64,5.56,4.58-2.66c.45.17.9.32,1.36.48l.44.13,1,.3.24.07.25.07,1.09.29.4.1,1.49.34h0l.29.05,1.09.21.51.08c.31.06.63.11.94.15l.26,0,.71.1,0,3.76h13.6V744.3l1.26-.17.43-.08.82-.13h0c.47-.08.93-.18,1.39-.27l.39-.09,1-.23.51-.13.86-.22.53-.15.82-.25.29-.09.19-.07c.51-.16,1-.33,1.51-.52l4.61,2.66,9.58-5.56,0-8.5h6l0-13.61Z"/><path class="cls-12" d="M993.63,716.88h6.49l0-7.88h-6.5a15.47,15.47,0,0,0-4.2-5.83l4.58-2.66-9.65-5.57-4.57,2.66a46.29,46.29,0,0,0-10.1-2.42l0-3.76H956l0,3.76A45.8,45.8,0,0,0,946,697.6l-4.61-2.66-9.58,5.57,4.61,2.66a15.06,15.06,0,0,0-4.14,5.83h-6.5l.05,7.88h6.49a15.4,15.4,0,0,0,4.21,5.83l-4.58,2.66,9.64,5.57,4.58-2.66a46.06,46.06,0,0,0,10.09,2.42l0,3.76h13.6l0-3.76a45.75,45.75,0,0,0,10.07-2.42l4.61,2.66,9.58-5.57-4.61-2.66A15.28,15.28,0,0,0,993.63,716.88Zm-21.26,1.5c-5.17,3-13.58,3-18.78,0s-5.23-7.87-.06-10.88,13.57-3,18.77,0S977.53,715.37,972.37,718.38Z"/><path class="cls-8" d="M1008.44,957.16l-4.88,1.09s-11.39-7-16.82-1.09c0,0-3.43,3.58,10.85,10.86,13.85,7.05,19.85,7.05,19.85,7.05s7.65-2.63,6.74-21.16h-11.39Z"/><path class="cls-1" d="M980.17,815.92l-6.93.54s-6.63,29.84,3.46,68.37,6.85,87.9,6.85,87.9,3.25,6,8.68,6,9.22-4.88,11.94-10.31V957.54s4.88,6,10.85,6a12.66,12.66,0,0,0,9.22-3.8V909.25s-1.62-16.82-3.79-28.22,7.59-39.61,5.42-57.52C1025.87,823.51,998,809.4,980.17,815.92Z"/><path class="cls-14" d="M981.38,690.57s-2.72,21.7,0,25.5,13.56,0,13.56,0V728s3.8,4.88,8.68,3.26,8.69-6.52,8.69-6.52V704.14Z"/><path class="cls-11" d="M994.94,728s-19,7-22.25,13-1.08,12.89,0,23.54,4.89,44.29.55,51.89c0,0,6.51,10.31,16.28,16.28s14.1,7,22.79,2.71a37.86,37.86,0,0,0,13.56-11.94s10.31-73.25,5.43-86.82-8.36-13.07-19-11.94A98.79,98.79,0,0,0,994.94,728Z"/><path class="cls-11" d="M1021.15,722.82s-3.29,8.41-5.21,22.87L1014,760.14l-16.69-9.65s-10.3,2.47-10,11.58c0,0,18.1,13,24.07,16.6s9.72,7.79,14.81,2,9.34-25.1,9.22-27.47S1021.15,722.82,1021.15,722.82Z"/><path class="cls-17" d="M989,697.62s-5.42-2.17-7.59-7-1.63-14.65,10.85-16.28,24.42,6,27.67,14.11,2.17,15.52,8.69,22.68,26,12.59,27.13,27.78-15.2,32-28.76,23.34-27.85-24.44-25-42.88S989,697.62,989,697.62Z"/><polygon class="cls-8" points="853.7 999.55 817.05 1019.41 857.81 1050.71 894.46 1030.84 853.7 999.55"/><path class="cls-14" d="M851.64,1054.07a64.47,64.47,0,0,1-8.87-2.18c-3.16-1.18-8.51-5.73-9.1-7.51s-1.39-9.11,0-10.69,6.52,4,8.6,5.74l2.08,1.78s-1.58-4.75-1.18-5.94,2.77-1.38,5.54,1.59,10.09,9.49,10.09,9.49Z"/><path class="cls-1" d="M899.9,1245.7,898,1247a28,28,0,0,1-9.64-.64c-5.14-1.29-10.92-1-10,3.85s9.32,8.68,12.85,10.28,10.6,3.86,11.57,5.14,2.57,3.22,8,1.93,5.7-3.53,5.7-3.53V1244.1Z"/><path class="cls-1" d="M931.39,1230.6s-6.43-3.21-8.68-2.89-4.81,3.86,0,9,6.75,7.39,8.68,11.24,3.21,6.75,7.71,6.43a13.07,13.07,0,0,0,3.72-.88,7.36,7.36,0,0,0,4.68-6.88v-10.26l-13.76-6.4Z"/><path class="cls-20" d="M887.05,1122l-1.48,4.89s.52,28.53,5,49.09,7.39,71,7.39,71,1,4.82,7.06,5.14,12.21-3.53,12.21-3.53,1-29.88,0-47.55-2-28.27.43-37.27c0,0,2.14,19.6,5.36,31.48s6.1,32.77,7.39,41.77c0,0,1.28,5.78,6.1,5.78s6.43-1,9.64-4.82c0,0,1.6-28.59,1.28-41.12s-7.07-29.88-7.07-29.88,1.61-45.27,1-57.51-22.17-20.88-22.17-20.88Z"/><path class="cls-14" d="M893.16,965.88v23.45s-.32,8,2.89,9.32,7.07,0,7.07,0v7.06s9.31,1.93,16.7-3.53v-7.39L908.26,971S896.37,963.63,893.16,965.88Z"/><path class="cls-1" d="M903.12,1005.71s-10.28,3.86-16.39,9.64-5.46,16.71-6.1,25.38a110.63,110.63,0,0,1-1.93,14.46s-16.71-10-18.63-10.6c0,0-10.61,2.25-8,12.53,0,0,12.86,9,19.92,13.81s13.5,9,18,9c0,0-1.6,9-4.49,19.92s-1.93,26-1.93,26,11.57,6.43,21.85,5.46,14.45-4.18,14.45-4.18l4.82-19.27v16.06s11.89-5.78,16.71-14.46c0,0-.64-18-1.93-24.09s7.39-28.92,10-37.91-3.53-37.59-6.1-43.37-12.85-11.25-23.46-6.11Z"/><path class="cls-17" d="M893.16,965.88a9.46,9.46,0,0,1,4.5-8.68c5.14-3.21,14.45-3.53,20.88,0s11.24,8.68,10.6,19.6-9.32,19.6-9.32,19.6-3.53,1-10.92-6.75-9.15-17.71-10.92-20.88A5.25,5.25,0,0,0,893.16,965.88Z"/><polygon class="cls-8" points="565.61 624.86 565.86 711.77 501.23 749.09 490.09 768.37 478.89 761.98 414.26 799.3 414.01 712.39 565.61 624.86"/><polygon class="cls-21" points="414.26 799.3 406.89 795.02 406.64 708.11 414.01 712.39 414.26 799.3"/><polygon class="cls-21" points="414.01 712.39 406.64 708.11 558.25 620.58 565.61 624.86 414.01 712.39"/><path class="cls-22" d="M433.33,740.45l113.19-64.76a5.58,5.58,0,0,0,2.51-4.34c0-1.61-1.13-2.26-2.52-1.47L433.34,734.63a5.59,5.59,0,0,0-2.53,4.35C430.81,740.59,431.94,741.24,433.33,740.45Z"/><path class="cls-22" d="M433.3,729.69l113.17-64.75a5.58,5.58,0,0,0,2.53-4.35c0-1.6-1.13-2.26-2.53-1.46L433.29,723.88a5.58,5.58,0,0,0-2.51,4.35C430.78,729.83,431.91,730.48,433.3,729.69Z"/><path class="cls-22" d="M433.36,751.21l113.17-64.75a5.59,5.59,0,0,0,2.53-4.35c0-1.61-1.13-2.26-2.52-1.47L433.37,745.39a5.58,5.58,0,0,0-2.53,4.35C430.84,751.35,432,752,433.36,751.21Z"/><path class="cls-22" d="M546.57,691.4,433.38,756.16a5.58,5.58,0,0,0-2.51,4.34c0,1.6,1.13,2.26,2.52,1.46l113.19-64.75a5.58,5.58,0,0,0,2.51-4.35C549.09,691.26,548,690.61,546.57,691.4Z"/><polygon class="cls-12" points="594.54 852.39 594.74 922.74 583.63 929.15 583.43 858.81 594.54 852.39"/><polygon class="cls-11" points="613.43 796.5 613.76 911.76 603.31 917.79 602.99 802.53 613.43 796.5"/><polygon class="cls-23" points="636.67 799.18 636.95 898.37 624.65 905.47 624.37 806.28 636.67 799.18"/><polygon class="cls-5" points="654.97 845.44 655.09 887.9 643.98 894.31 643.86 851.86 654.97 845.44"/><polygon class="cls-7" points="607.73 1078.46 607.61 1079.1 665.11 1045.91 748.76 1094.52 752.78 1091.19 755.11 1090.56 755.11 1098.21 688.84 1136.47 598.84 1084.17 598.84 1076.81 607.73 1078.46"/><polygon class="cls-8" points="598.84 1076.81 688.84 1129.11 755.11 1090.85 665.11 1038.55 598.84 1076.81"/><polygon class="cls-22" points="681.46 1119.07 737.79 1086.55 741.83 1088.89 685.5 1121.41 681.46 1119.07"/><polygon class="cls-22" points="672.8 1114.03 729.13 1081.51 733.16 1083.85 676.83 1116.38 672.8 1114.03"/><polygon class="cls-22" points="664.13 1108.99 720.46 1076.47 724.49 1078.82 668.16 1111.34 664.13 1108.99"/><polygon class="cls-22" points="655.46 1103.96 711.79 1071.43 715.82 1073.78 659.49 1106.3 655.46 1103.96"/><polygon class="cls-22" points="646.79 1098.92 703.12 1066.4 707.16 1068.74 650.83 1101.26 646.79 1098.92"/><polygon class="cls-22" points="638.13 1093.88 694.45 1061.36 698.49 1063.7 642.16 1096.23 638.13 1093.88"/><polygon class="cls-22" points="629.46 1088.84 685.78 1056.32 689.82 1058.67 633.49 1091.19 629.46 1088.84"/><polygon class="cls-22" points="620.79 1083.81 677.12 1051.29 681.15 1053.63 624.82 1086.15 620.79 1083.81"/><polygon class="cls-22" points="616.15 1081.12 612.12 1078.77 668.45 1046.25 672.48 1048.59 616.15 1081.12"/><polygon class="cls-7" points="607.73 1066.91 607.61 1067.56 665.11 1034.36 748.76 1082.97 752.78 1079.64 755.11 1079.02 755.11 1086.66 688.84 1124.93 598.84 1072.62 598.84 1065.26 607.73 1066.91"/><polygon class="cls-8" points="598.84 1065.26 688.84 1117.57 755.11 1079.3 665.11 1027 598.84 1065.26"/><polygon class="cls-22" points="681.46 1107.52 737.79 1075 741.83 1077.34 685.5 1109.87 681.46 1107.52"/><polygon class="cls-22" points="672.8 1102.48 729.13 1069.96 733.16 1072.31 676.83 1104.83 672.8 1102.48"/><polygon class="cls-22" points="664.13 1097.45 720.46 1064.92 724.49 1067.27 668.16 1099.79 664.13 1097.45"/><polygon class="cls-22" points="655.46 1092.41 711.79 1059.89 715.82 1062.23 659.49 1094.75 655.46 1092.41"/><polygon class="cls-22" points="646.79 1087.37 703.12 1054.85 707.16 1057.2 650.83 1089.72 646.79 1087.37"/><polygon class="cls-22" points="638.13 1082.34 694.45 1049.81 698.49 1052.16 642.16 1084.68 638.13 1082.34"/><polygon class="cls-22" points="629.46 1077.3 685.78 1044.78 689.82 1047.12 633.49 1079.64 629.46 1077.3"/><polygon class="cls-22" points="620.79 1072.26 677.12 1039.74 681.15 1042.08 624.82 1074.61 620.79 1072.26"/><polygon class="cls-22" points="616.15 1069.57 612.12 1067.22 668.45 1034.7 672.48 1037.05 616.15 1069.57"/><polygon class="cls-7" points="607.73 1055.36 607.61 1056.01 665.11 1022.81 748.76 1071.42 752.78 1068.1 755.11 1067.47 755.11 1075.12 688.84 1113.38 598.84 1061.08 598.84 1053.72 607.73 1055.36"/><polygon class="cls-8" points="598.84 1053.72 688.84 1106.02 755.11 1067.76 665.11 1015.46 598.84 1053.72"/><polygon class="cls-22" points="681.46 1095.97 737.79 1063.45 741.83 1065.8 685.5 1098.32 681.46 1095.97"/><polygon class="cls-22" points="672.8 1090.94 729.13 1058.42 733.16 1060.76 676.83 1093.28 672.8 1090.94"/><polygon class="cls-22" points="664.13 1085.9 720.46 1053.38 724.49 1055.72 668.16 1088.25 664.13 1085.9"/><polygon class="cls-22" points="655.46 1080.86 711.79 1048.34 715.82 1050.68 659.49 1083.21 655.46 1080.86"/><polygon class="cls-22" points="646.79 1075.83 703.12 1043.3 707.16 1045.65 650.83 1078.17 646.79 1075.83"/><polygon class="cls-22" points="638.13 1070.79 694.45 1038.27 698.49 1040.61 642.16 1073.13 638.13 1070.79"/><polygon class="cls-22" points="629.46 1065.75 685.78 1033.23 689.82 1035.58 633.49 1068.1 629.46 1065.75"/><polygon class="cls-22" points="620.79 1060.71 677.12 1028.19 681.15 1030.54 624.82 1063.06 620.79 1060.71"/><polygon class="cls-22" points="616.15 1058.02 612.12 1055.68 668.45 1023.15 672.48 1025.5 616.15 1058.02"/><polygon class="cls-7" points="607.73 1043.82 607.61 1044.46 665.11 1011.27 748.76 1059.88 752.78 1056.55 755.11 1055.92 755.11 1063.57 688.84 1101.83 598.84 1049.53 598.84 1042.17 607.73 1043.82"/><polygon class="cls-8" points="598.84 1042.17 688.84 1094.47 755.11 1056.21 665.11 1003.91 598.84 1042.17"/><polygon class="cls-22" points="681.46 1084.43 737.79 1051.91 741.83 1054.25 685.5 1086.77 681.46 1084.43"/><polygon class="cls-22" points="672.8 1079.39 729.13 1046.87 733.16 1049.21 676.83 1081.73 672.8 1079.39"/><polygon class="cls-22" points="664.13 1074.35 720.46 1041.83 724.49 1044.18 668.16 1076.7 664.13 1074.35"/><polygon class="cls-22" points="655.46 1069.32 711.79 1036.8 715.82 1039.14 659.49 1071.66 655.46 1069.32"/><polygon class="cls-22" points="646.79 1064.28 703.12 1031.76 707.16 1034.1 650.83 1066.62 646.79 1064.28"/><polygon class="cls-22" points="638.13 1059.24 694.45 1026.72 698.49 1029.06 642.16 1061.59 638.13 1059.24"/><polygon class="cls-22" points="629.46 1054.2 685.78 1021.68 689.82 1024.03 633.49 1056.55 629.46 1054.2"/><polygon class="cls-22" points="620.79 1049.17 677.12 1016.65 681.15 1018.99 624.82 1051.51 620.79 1049.17"/><polygon class="cls-22" points="616.15 1046.47 612.12 1044.13 668.45 1011.61 672.48 1013.95 616.15 1046.47"/><polygon class="cls-7" points="607.73 1032.27 607.61 1032.92 665.11 999.72 748.76 1048.33 752.78 1045 755.11 1044.38 755.11 1052.02 688.84 1090.29 598.84 1037.98 598.84 1030.62 607.73 1032.27"/><polygon class="cls-8" points="598.84 1030.62 688.84 1082.93 755.11 1044.66 665.11 992.36 598.84 1030.62"/><polygon class="cls-22" points="681.46 1072.88 737.79 1040.36 741.83 1042.7 685.5 1075.22 681.46 1072.88"/><polygon class="cls-22" points="672.8 1067.85 729.13 1035.32 733.16 1037.67 676.83 1070.19 672.8 1067.85"/><polygon class="cls-22" points="664.13 1062.81 720.46 1030.29 724.49 1032.63 668.16 1065.15 664.13 1062.81"/><polygon class="cls-22" points="655.46 1057.77 711.79 1025.25 715.82 1027.59 659.49 1060.11 655.46 1057.77"/><polygon class="cls-22" points="646.79 1052.73 703.12 1020.21 707.16 1022.56 650.83 1055.08 646.79 1052.73"/><polygon class="cls-22" points="638.13 1047.7 694.45 1015.17 698.49 1017.52 642.16 1050.04 638.13 1047.7"/><polygon class="cls-22" points="629.46 1042.66 685.78 1010.14 689.82 1012.48 633.49 1045 629.46 1042.66"/><polygon class="cls-22" points="620.79 1037.62 677.12 1005.1 681.15 1007.44 624.82 1039.96 620.79 1037.62"/><polygon class="cls-22" points="616.15 1034.93 612.12 1032.58 668.45 1000.06 672.48 1002.41 616.15 1034.93"/><polygon class="cls-7" points="607.73 1020.72 607.61 1021.37 665.11 988.17 748.76 1036.79 752.78 1033.46 755.11 1032.83 755.11 1040.48 688.84 1078.74 598.84 1026.44 598.84 1019.08 607.73 1020.72"/><polygon class="cls-8" points="598.84 1019.08 688.84 1071.38 755.11 1033.12 665.11 980.82 598.84 1019.08"/><polygon class="cls-22" points="681.46 1061.34 737.79 1028.81 741.83 1031.16 685.5 1063.68 681.46 1061.34"/><polygon class="cls-22" points="672.8 1056.3 729.13 1023.78 733.16 1026.12 676.83 1058.64 672.8 1056.3"/><polygon class="cls-22" points="664.13 1051.26 720.46 1018.74 724.49 1021.08 668.16 1053.61 664.13 1051.26"/><polygon class="cls-22" points="655.46 1046.22 711.79 1013.7 715.82 1016.05 659.49 1048.57 655.46 1046.22"/><polygon class="cls-22" points="646.79 1041.19 703.12 1008.66 707.16 1011.01 650.83 1043.53 646.79 1041.19"/><polygon class="cls-22" points="638.13 1036.15 694.45 1003.63 698.49 1005.97 642.16 1038.49 638.13 1036.15"/><polygon class="cls-22" points="629.46 1031.11 685.78 998.59 689.82 1000.93 633.49 1033.46 629.46 1031.11"/><polygon class="cls-22" points="620.79 1026.08 677.12 993.55 681.15 995.9 624.82 1028.42 620.79 1026.08"/><polygon class="cls-22" points="616.15 1023.38 612.12 1021.04 668.45 988.51 672.48 990.86 616.15 1023.38"/><path class="cls-24" d="M716.55,1020.16a10.83,10.83,0,0,1,.25,2.28,10.32,10.32,0,0,1-.28,2.29h5.65l0-4.57Z"/><polygon class="cls-25" points="716.52 1024.73 716.53 1030.34 722.19 1030.34 722.17 1024.73 716.52 1024.73"/><polygon class="cls-12" points="722.16 1025.91 722.18 1031.52 781.65 1031.52 781.63 1025.91 722.16 1025.91"/><polygon class="cls-12" points="722.2 1018.98 722.2 1020.16 722.17 1024.73 722.16 1025.91 781.63 1025.91 781.67 1018.98 722.2 1018.98"/><path class="cls-26" d="M687.41,1039.41c8.09,0,15.42-1.9,20.74-5,4.44-2.56,7.47-5.94,8.37-9.71a10.32,10.32,0,0,0,.28-2.29v5.62a10.3,10.3,0,0,1-.27,2.28c-.9,3.77-3.94,7.15-8.37,9.71-5.32,3.07-12.65,5-20.74,5-16.18,0-29.25-7.59-29.2-17v-5.62C658.16,1031.81,671.24,1039.41,687.41,1039.41Z"/><path class="cls-27" d="M670.54,1012.58c-4.37,2.53-7.09,6-7.11,9.86s2.66,7.34,7,9.86a37.46,37.46,0,0,0,34,0c4.37-2.52,7.09-6,7.11-9.86s-2.65-7.33-7-9.86a37.54,37.54,0,0,0-34,0Z"/><path class="cls-12" d="M658.22,1022.44c-.06,9.37,13,17,29.19,17,8.09,0,15.42-1.9,20.74-5,4.44-2.56,7.47-5.94,8.37-9.71a10.32,10.32,0,0,0,.28-2.29,10.83,10.83,0,0,0-.25-2.28c-1.88-8.29-14.11-14.68-28.95-14.68-8.09,0-15.42,1.9-20.74,5S658.24,1017.76,658.22,1022.44Zm5.21,0c0-3.85,2.74-7.33,7.11-9.86a37.56,37.56,0,0,1,34.05,0c4.34,2.53,7,6,7,9.86s-2.74,7.34-7.11,9.86a37.46,37.46,0,0,1-34,0C666.09,1029.78,663.41,1026.29,663.43,1022.44Z"/><path class="cls-8" d="M686.6,1036.37a37,37,0,0,1-11.87-2.09l33.27-19.2a10.32,10.32,0,0,1,3.57,6.88Z"/><path class="cls-8" d="M694.61,1009.1a30.76,30.76,0,0,1,9.71,3.34l-34.15,19.71a14.89,14.89,0,0,1-5.72-5.64Z"/><path class="cls-28" d="M913.7,887.15l0,.39c0,.11,0,.22,0,.34l-.06.38c0,.11-.05.22-.08.34a2.49,2.49,0,0,1-.09.37l-.09.34c0,.12-.08.24-.13.37l-.12.33c0,.13-.11.26-.17.39a3,3,0,0,1-.15.32l-.19.38-.18.31c-.08.15-.18.31-.28.46s-.11.18-.18.27a5.6,5.6,0,0,1-.36.49,1.77,1.77,0,0,1-.16.22c-.2.26-.43.52-.66.77l-.19.2c-.18.19-.38.38-.58.57a3.45,3.45,0,0,1-.28.26l-.37.33-.35.29-.4.31-.38.29-.43.3-.41.28-.46.29c-.2.12-.39.25-.6.36-.55.33-1.13.62-1.72.91l-.47.22c-.53.25-1.08.48-1.63.7l-.23.09c-.59.23-1.21.43-1.83.63l-1.32.37c-.33.1-.66.19-1,.27s-.94.21-1.42.31-.68.15-1,.21l-.43.06c-.58.1-1.17.18-1.77.26l-.52.06-1,.08c-.57.05-1.15.09-1.72.12l-1.11,0h-1.4l-1.17,0c-.44,0-.87,0-1.3-.07l-1.18-.09-1.28-.15-1.14-.16-1.35-.23-1.06-.22q-.81-.18-1.59-.39l-1-.27-.53-.17c-.53-.16-1-.34-1.56-.53L874,899c-.47-.18-.91-.38-1.36-.58-.22-.09-.45-.18-.66-.28-.65-.31-1.27-.63-1.88-1-3.46-2-5.74-4.43-6.81-7a8.92,8.92,0,0,1-.73-3.55l0,7.19c0,3.82,2.51,7.64,7.55,10.55.61.35,1.23.67,1.88,1,.21.1.44.19.66.28.38.17.75.35,1.15.51l.21.07.44.16c.51.19,1,.37,1.55.53l.54.17.36.11.66.16c.52.14,1.05.28,1.58.39l.43.11.64.11,1.35.23.54.1.6.06c.43.06.85.11,1.28.15l.61.07.57,0,1.3.07.64,0h2.62l.42,0c.57,0,1.15-.07,1.72-.11l.7-.05.33,0,.52-.06c.6-.07,1.19-.16,1.77-.25l.43-.07.21,0,.82-.17c.48-.1,1-.19,1.42-.3l1-.27c.44-.12.89-.24,1.32-.38l.28-.08c.53-.17,1-.36,1.55-.55l.23-.09c.55-.22,1.1-.45,1.63-.7l.47-.22c.59-.29,1.17-.58,1.72-.9l.32-.19.28-.18.46-.29.41-.28.43-.3.38-.29.4-.31.35-.29.37-.32c.05-.05.11-.09.15-.14l.13-.12c.2-.19.4-.39.58-.58l.19-.19q.35-.39.66-.78l0,0,.13-.18c.13-.17.25-.33.36-.5s.12-.18.18-.27.19-.3.28-.46l.08-.12.1-.19.19-.38a3,3,0,0,0,.15-.32c.06-.13.12-.26.17-.39s.05-.12.07-.17,0-.11,0-.16.09-.25.13-.37l.09-.34a2.49,2.49,0,0,0,.09-.37,1.94,1.94,0,0,0,0-.2l0-.14.06-.38c0-.12,0-.23,0-.34l0-.38c0-.08,0-.15,0-.23v-.22l0-7.2C913.71,886.85,913.7,887,913.7,887.15Z"/><path class="cls-29" d="M906.17,876.16c10,5.79,10.06,15.16.11,20.94s-26.13,5.79-36.15,0-10.06-15.16-.11-21S896.15,870.38,906.17,876.16Z"/><path class="cls-30" d="M896.5,885.1c2.21,1.28,2.53,3.26.22,5.18l2.52,1.46-2.41,1.4-2.36-1.36a17.89,17.89,0,0,1-5.22,1.81l-2.15-2.1a16,16,0,0,0,5.14-1.74c1.4-.81,1.82-1.68.84-2.25s-2.33-.43-4.75.27c-3.52,1-6.55,1.34-8.94,0-2.17-1.26-2.37-3.12-.25-5l-2.36-1.36,2.42-1.4,2.17,1.25a15.71,15.71,0,0,1,4.37-1.59l2.08,2a14.58,14.58,0,0,0-4.37,1.57c-1.59.92-1.42,1.62-.73,2s2.18.27,5.08-.49C891.75,883.72,894.28,883.82,896.5,885.1Z"/><path class="cls-28" d="M947.47,915.05l0,.38c0,.11,0,.23,0,.34l-.06.38c0,.11-.05.23-.07.34l-.09.37c0,.12-.07.23-.1.34l-.12.37c0,.11-.08.22-.13.33s-.1.26-.16.39l-.15.32-.2.39-.17.3c-.09.16-.19.31-.28.46l-.18.27-.36.5-.16.21c-.21.26-.43.52-.67.78l-.18.19c-.19.19-.38.39-.58.58a3.45,3.45,0,0,0-.28.26l-.37.32-.35.29-.41.32-.37.28-.44.31-.4.27-.47.29-.59.37c-.56.32-1.14.62-1.73.9l-.47.22c-.53.25-1.07.48-1.63.7l-.22.09c-.6.23-1.21.43-1.84.63-.43.14-.87.26-1.31.38l-1,.27c-.46.11-.94.2-1.42.3l-1,.21-.43.07c-.59.09-1.18.18-1.77.25l-.52.06-1,.09c-.58,0-1.15.09-1.73.11l-1.11,0h-1.4l-1.17,0-1.29-.07-1.19-.1L916.5,929l-1.15-.17-1.35-.23-1.06-.22c-.54-.11-1.06-.25-1.59-.38l-1-.28-.54-.16q-.79-.25-1.56-.54l-.44-.16c-.46-.18-.91-.38-1.36-.57l-.66-.29c-.64-.31-1.27-.63-1.87-1-3.47-2-5.74-4.43-6.82-7a9.05,9.05,0,0,1-.73-3.54l0,7.19c0,3.81,2.5,7.63,7.55,10.54.6.35,1.23.67,1.87,1l.66.29,1.15.5.21.07.44.17c.51.18,1,.36,1.56.53l.54.16.36.12.65.16c.53.14,1,.27,1.59.39l.42.1.64.11q.67.13,1.35.24l.54.09.61.07,1.27.14.61.07.57,0,1.3.07c.22,0,.43,0,.65,0h.52c.47,0,.93,0,1.4,0h.7l.41,0c.58,0,1.15-.06,1.72-.11l.7-.05.34,0,.52-.06c.59-.07,1.18-.16,1.76-.25l.44-.07.2,0c.28-.05.55-.12.82-.18.48-.09,1-.19,1.42-.3s.67-.18,1-.27.89-.24,1.32-.38l.28-.08c.53-.17,1.05-.35,1.56-.55l.22-.09c.56-.22,1.1-.45,1.63-.69l.47-.23c.59-.28,1.17-.58,1.73-.9l.31-.19c.1,0,.18-.12.28-.17l.46-.3.41-.27.43-.31.38-.28.41-.32.35-.29.37-.32.15-.13a.8.8,0,0,1,.13-.13c.2-.19.39-.38.58-.58l.18-.19c.24-.26.46-.52.67-.78l0,0,.14-.18.36-.5.18-.27.28-.45s0-.09.07-.13a1.62,1.62,0,0,0,.1-.18l.2-.39.15-.32c.06-.13.11-.26.16-.39s.05-.11.07-.17l.06-.16.12-.37c0-.11.07-.22.1-.34l.09-.37a1.46,1.46,0,0,1,0-.2c0-.05,0-.09,0-.14l.06-.38c0-.11,0-.22,0-.34l0-.38a1.79,1.79,0,0,1,0-.23v-.22l0-7.19C947.49,914.75,947.48,914.9,947.47,915.05Z"/><path class="cls-29" d="M940,904.06c10,5.78,10.06,15.15.11,20.94s-26.14,5.78-36.15,0-10.07-15.16-.12-20.94S929.93,898.27,940,904.06Z"/><path class="cls-30" d="M930.28,913c2.2,1.27,2.53,3.25.21,5.18l2.52,1.45L930.6,921l-2.35-1.36a18.09,18.09,0,0,1-5.22,1.81l-2.16-2.09a16.29,16.29,0,0,0,5.15-1.75c1.4-.81,1.82-1.68.83-2.25s-2.33-.42-4.74.27c-3.53,1-6.56,1.34-9,0-2.17-1.25-2.36-3.12-.25-5l-2.35-1.36,2.41-1.4,2.17,1.25a16,16,0,0,1,4.37-1.59l2.08,2a14.76,14.76,0,0,0-4.37,1.58c-1.58.92-1.41,1.61-.73,2s2.19.28,5.08-.48C925.52,911.62,928.05,911.71,930.28,913Z"/><path class="cls-28" d="M956.5,887.15l0,.39c0,.11,0,.22,0,.34l-.06.38c0,.11,0,.22-.07.34s-.06.25-.1.37l-.09.34c0,.12-.08.24-.13.37l-.12.33c-.05.13-.11.26-.17.39a3,3,0,0,1-.15.32c-.06.13-.12.25-.19.38l-.18.31c-.08.15-.18.31-.28.46l-.17.27c-.12.17-.24.33-.37.49a1.77,1.77,0,0,1-.16.22c-.2.26-.43.52-.66.77l-.19.2c-.18.19-.38.38-.58.57a3.45,3.45,0,0,1-.28.26l-.37.33-.35.29-.4.31-.38.29-.43.3-.41.28-.46.29c-.2.12-.39.25-.6.36-.55.33-1.13.62-1.72.91l-.47.22c-.53.25-1.08.48-1.63.7L945,899c-.6.23-1.22.43-1.84.63l-1.32.37c-.33.1-.66.19-1,.27s-.94.21-1.42.31l-1,.21-.44.06c-.58.1-1.17.18-1.77.26l-.52.06-1,.08c-.57.05-1.15.09-1.72.12l-1.11,0h-1.4l-1.17,0c-.44,0-.87,0-1.3-.07l-1.18-.09-1.28-.15-1.14-.16-1.35-.23-1.06-.22q-.81-.18-1.59-.39l-1-.27-.53-.17c-.53-.16-1.05-.34-1.56-.53l-.44-.16c-.47-.18-.91-.38-1.36-.58-.22-.09-.45-.18-.66-.28-.65-.31-1.27-.63-1.88-1-3.46-2-5.74-4.43-6.81-7a8.92,8.92,0,0,1-.73-3.55l0,7.19c0,3.82,2.5,7.64,7.54,10.55.61.35,1.23.67,1.88,1,.21.1.44.19.66.28.38.17.76.35,1.15.51l.21.07.44.16c.51.19,1,.37,1.55.53l.54.17.36.11.66.16c.52.14,1,.28,1.59.39l.42.11.64.11,1.35.23.54.1.6.06c.43.06.85.11,1.28.15l.61.07.57,0,1.3.07.64,0h2.62l.42,0c.57,0,1.15-.07,1.72-.11l.7-.05.33,0,.52-.06c.6-.07,1.19-.16,1.77-.25l.43-.07.21,0,.82-.17c.48-.1.95-.19,1.42-.3l1-.27c.44-.12.89-.24,1.32-.38l.28-.08c.53-.17,1-.36,1.55-.55l.23-.09c.55-.22,1.1-.45,1.63-.7l.47-.22c.59-.29,1.17-.58,1.72-.9l.32-.19.28-.18.46-.29.41-.28.43-.3.38-.29.4-.31.35-.29.37-.32c0-.05.11-.09.15-.14l.13-.12.58-.58.19-.19c.23-.26.46-.52.66-.78l0,0,.13-.18c.13-.17.25-.33.36-.5s.12-.18.18-.27.19-.3.28-.46l.08-.12.1-.19c.06-.12.13-.25.19-.38s.11-.22.16-.32l.16-.39c0-.06,0-.12.07-.17s0-.11.05-.16.09-.25.13-.37l.09-.34c0-.12.07-.25.1-.37s0-.14,0-.2l0-.14.06-.38c0-.12,0-.23,0-.34l0-.38c0-.08,0-.15,0-.23s0-.15,0-.22l0-7.2C956.52,886.85,956.5,887,956.5,887.15Z"/><path class="cls-29" d="M949,876.16c10,5.79,10.06,15.16.12,20.94s-26.14,5.79-36.16,0-10.06-15.16-.11-21S939,870.38,949,876.16Z"/><path class="cls-30" d="M939.3,885.1c2.21,1.28,2.54,3.26.22,5.18l2.52,1.46-2.41,1.4-2.36-1.36a17.89,17.89,0,0,1-5.22,1.81l-2.15-2.1a16,16,0,0,0,5.14-1.74c1.4-.81,1.82-1.68.84-2.25s-2.33-.43-4.75.27c-3.52,1-6.55,1.34-8.94,0-2.17-1.26-2.37-3.12-.25-5l-2.35-1.36L922,880l2.17,1.25a15.71,15.71,0,0,1,4.37-1.59l2.08,2a14.58,14.58,0,0,0-4.37,1.57c-1.59.92-1.42,1.62-.73,2s2.18.27,5.08-.49C934.55,883.72,937.08,883.82,939.3,885.1Z"/><path class="cls-28" d="M936.71,875.93c0,.13,0,.26,0,.39s0,.23-.05.34a2.71,2.71,0,0,1-.06.38c0,.11,0,.23-.07.34a2.49,2.49,0,0,1-.09.37c0,.11-.06.23-.1.34a2.65,2.65,0,0,1-.12.37l-.12.33-.17.39-.15.32c-.06.13-.13.26-.2.38a3.07,3.07,0,0,1-.17.31c-.09.16-.18.31-.28.46s-.11.18-.18.27-.23.33-.36.5l-.16.21c-.21.26-.43.52-.66.77l-.19.2-.58.58-.28.26-.37.32-.35.29-.4.32-.38.28-.43.3-.41.28-.47.29c-.19.13-.38.25-.59.37-.55.32-1.13.61-1.72.9l-.47.22c-.53.25-1.08.48-1.64.7l-.22.09c-.59.23-1.21.43-1.83.63-.43.14-.88.25-1.32.38l-1,.27c-.47.11-1,.2-1.42.3s-.68.15-1,.21l-.43.07c-.58.09-1.17.18-1.77.25l-.52.06c-.34,0-.69.06-1,.08-.57.05-1.15.09-1.73.12-.36,0-.73,0-1.1,0h-1.4l-1.18,0-1.29-.06L907,890c-.43,0-.85-.09-1.28-.15s-.76-.1-1.14-.16l-1.36-.23-1.06-.22c-.53-.11-1.06-.25-1.58-.39-.34-.09-.69-.17-1-.27l-.54-.17c-.52-.16-1-.34-1.55-.53l-.45-.16c-.46-.18-.9-.38-1.35-.57l-.66-.29c-.65-.31-1.28-.63-1.88-1-3.46-2-5.74-4.43-6.82-7a9.06,9.06,0,0,1-.73-3.55l0,7.2c0,3.81,2.51,7.63,7.55,10.54.6.35,1.23.67,1.88,1l.66.29c.38.17.75.34,1.15.5l.2.07.45.17,1.55.53.54.16.36.11c.21.07.44.11.66.17.52.13,1,.27,1.58.38l.43.11.63.11,1.36.23.54.1.6.07,1.28.14.6.07c.19,0,.39,0,.58,0l1.29.07.65,0h.52c.47,0,.94,0,1.41,0h.69l.41,0c.58,0,1.15-.07,1.73-.11l.7,0,.33,0,.52-.06c.59-.07,1.18-.16,1.77-.25l.43-.07.21,0c.28,0,.54-.12.82-.18.47-.1,1-.19,1.42-.3s.66-.18,1-.27.88-.24,1.32-.38l.28-.08c.53-.17,1-.35,1.55-.55l.23-.09c.55-.22,1.1-.45,1.63-.7l.47-.22c.59-.28,1.17-.58,1.72-.9l.31-.19.28-.17.47-.3.41-.28.43-.3.38-.28.4-.32.35-.29.37-.32.15-.14.13-.12.58-.58.19-.19q.35-.39.66-.78l0,0,.13-.18c.13-.17.25-.33.36-.5l.18-.27c.1-.15.19-.3.28-.45l.08-.13.09-.19c.07-.12.14-.25.2-.38l.15-.32.17-.39c0-.06.05-.11.07-.17s0-.11,0-.16.09-.25.12-.37a3.37,3.37,0,0,0,.1-.34,2.49,2.49,0,0,0,.09-.37,1.46,1.46,0,0,0,0-.2.68.68,0,0,0,0-.14,2.5,2.5,0,0,0,.06-.38c0-.11,0-.23,0-.34s0-.25,0-.38a1.79,1.79,0,0,0,0-.23v-.22l0-7.19C936.73,875.63,936.72,875.78,936.71,875.93Z"/><path class="cls-29" d="M929.19,864.94c10,5.79,10.06,15.16.11,20.95s-26.13,5.78-36.15,0S883.08,870.73,893,865,919.17,859.16,929.19,864.94Z"/><path class="cls-30" d="M919.52,873.88c2.21,1.28,2.53,3.26.22,5.19l2.52,1.45-2.42,1.4-2.35-1.36a17.89,17.89,0,0,1-5.22,1.81l-2.15-2.1a16,16,0,0,0,5.14-1.74c1.4-.81,1.82-1.68.84-2.25s-2.33-.43-4.75.27c-3.52,1-6.55,1.34-8.94,0-2.17-1.26-2.37-3.12-.25-5l-2.36-1.36,2.42-1.4,2.16,1.25a15.87,15.87,0,0,1,4.38-1.59l2.08,2a14.57,14.57,0,0,0-4.37,1.58c-1.59.92-1.42,1.61-.73,2s2.18.28,5.08-.48C914.77,872.5,917.3,872.6,919.52,873.88Z"/><path class="cls-28" d="M934,863.12l0,.38c0,.12,0,.23,0,.34l-.06.38c0,.12-.05.23-.07.34l-.09.37c0,.12-.07.23-.1.34l-.12.37c0,.11-.08.22-.13.33s-.1.26-.16.39l-.15.32c-.06.13-.13.26-.2.39l-.17.31-.28.45-.18.27-.36.5-.16.21c-.21.26-.43.52-.67.78l-.18.19-.58.58-.28.26-.37.32-.35.29-.41.32-.37.28-.44.31-.4.27-.47.3-.59.36c-.56.32-1.14.62-1.73.9l-.47.22c-.53.25-1.07.48-1.63.7l-.22.09c-.6.23-1.21.44-1.84.63-.43.14-.87.26-1.31.38s-.67.19-1,.27-.94.21-1.42.3-.68.15-1,.21l-.43.07c-.59.09-1.18.18-1.77.25l-.52.06-1,.09c-.58,0-1.15.09-1.73.11l-1.11,0c-.47,0-.93,0-1.4,0l-1.17,0-1.29-.07-1.19-.1-1.27-.14-1.15-.16q-.68-.1-1.35-.24l-1.06-.21c-.54-.12-1.06-.25-1.59-.39l-1-.28-.54-.16c-.53-.17-1-.35-1.56-.53l-.44-.17c-.46-.18-.91-.37-1.36-.57l-.66-.29c-.64-.31-1.27-.63-1.87-1-3.47-2-5.74-4.43-6.82-7a9.14,9.14,0,0,1-.73-3.55l0,7.19c0,3.81,2.5,7.63,7.55,10.54.6.35,1.23.68,1.87,1l.66.29,1.15.5.21.08.44.16c.51.19,1,.36,1.56.53l.54.17.36.11.65.16c.53.14,1,.27,1.59.39l.42.1.64.11,1.35.24.54.09.61.07,1.27.14.61.07.57,0,1.3.07c.22,0,.43,0,.65,0h.52c.47,0,.93,0,1.4,0h.7l.41,0c.58,0,1.15-.06,1.72-.11.24,0,.47,0,.7,0l.34,0,.52-.06c.59-.07,1.18-.15,1.76-.25l.44-.07.2,0c.28,0,.55-.12.82-.18.48-.09,1-.19,1.42-.3s.67-.18,1-.27.89-.24,1.32-.38l.28-.08c.53-.17,1-.35,1.56-.55l.22-.09c.56-.21,1.1-.45,1.63-.69l.47-.23c.59-.28,1.17-.58,1.73-.9l.31-.19a2.61,2.61,0,0,0,.28-.17l.46-.3.41-.27.43-.31.38-.28.41-.32.35-.29.37-.32.15-.13.13-.13.58-.58.18-.19c.24-.26.46-.51.67-.78l0,0,.14-.18.36-.5.18-.27.28-.45s.05-.08.07-.13a1.62,1.62,0,0,0,.1-.18c.07-.13.13-.26.2-.38l.15-.33c.06-.13.11-.26.16-.39s0-.11.07-.17l.06-.16.12-.37c0-.11.07-.22.1-.33l.09-.38a1.46,1.46,0,0,1,0-.2s0-.09,0-.14l.06-.38c0-.11,0-.22,0-.33l0-.39a1.79,1.79,0,0,1,0-.23v-.22l0-7.19C934,862.82,934,863,934,863.12Z"/><path class="cls-29" d="M926.46,852.13c10,5.78,10.06,15.16.11,20.94s-26.14,5.78-36.15,0-10.07-15.16-.12-20.94S916.44,846.34,926.46,852.13Z"/><path class="cls-30" d="M916.79,861.07c2.2,1.27,2.53,3.25.21,5.18l2.52,1.45-2.41,1.41-2.35-1.36a18.39,18.39,0,0,1-5.22,1.81l-2.16-2.1a16.29,16.29,0,0,0,5.15-1.75c1.4-.81,1.82-1.68.83-2.25s-2.33-.42-4.74.27c-3.53,1-6.56,1.34-9,0-2.17-1.25-2.36-3.12-.25-5l-2.35-1.35,2.41-1.41,2.17,1.26a16.12,16.12,0,0,1,4.37-1.6l2.08,2a14.76,14.76,0,0,0-4.37,1.58c-1.58.92-1.41,1.61-.73,2s2.19.28,5.08-.48C912,859.69,914.56,859.78,916.79,861.07Z"/><path class="cls-28" d="M934,855.08l0,.39c0,.11,0,.22,0,.33l-.06.38c0,.12-.05.23-.07.34l-.09.38c0,.11-.07.22-.1.33l-.12.37c0,.11-.08.22-.13.33s-.1.26-.16.39l-.15.32c-.06.13-.13.26-.2.39l-.17.31-.28.45-.18.27-.36.5a1.77,1.77,0,0,0-.16.22c-.21.26-.43.51-.67.77l-.18.19-.58.58-.28.26-.37.32-.35.29-.41.32-.37.28-.44.31-.4.27-.47.3-.59.36c-.56.32-1.14.62-1.73.9l-.47.23c-.53.24-1.07.48-1.63.69l-.22.09c-.6.23-1.21.44-1.84.63-.43.14-.87.26-1.31.38s-.67.19-1,.27-.94.21-1.42.3l-1,.21-.43.07c-.59.1-1.18.18-1.77.25l-.52.06-1,.09c-.58,0-1.15.09-1.73.11l-1.11,0h-1.4l-1.17,0-1.29-.07-1.19-.1L903,869l-1.15-.16-1.35-.24-1.06-.21c-.54-.12-1.06-.25-1.59-.39l-1-.27-.54-.17c-.53-.17-1-.34-1.56-.53l-.44-.16c-.46-.18-.91-.38-1.36-.58l-.66-.29c-.64-.3-1.27-.63-1.87-1-3.47-2-5.74-4.43-6.82-7a9.14,9.14,0,0,1-.73-3.55l0,7.19c0,3.81,2.5,7.63,7.55,10.54.6.35,1.23.68,1.87,1l.66.29c.38.17.76.35,1.15.5l.21.08.44.16c.51.19,1,.36,1.56.53l.54.17.36.11.65.16c.53.14,1,.27,1.59.39l.42.1c.21,0,.43.07.64.11q.68.13,1.35.24l.54.09.61.07,1.27.14.61.07.57,0,1.3.07.65,0H910l.41,0c.58,0,1.15-.07,1.72-.12.24,0,.47,0,.7,0l.34,0,.52-.06c.59-.07,1.18-.15,1.76-.25l.44-.07.2,0c.28,0,.55-.12.82-.18.48-.09,1-.19,1.42-.3s.67-.18,1-.27l1.32-.37.28-.09q.79-.25,1.56-.54l.22-.1c.56-.21,1.1-.45,1.63-.69l.47-.22c.59-.29,1.17-.59,1.73-.91l.31-.18.28-.18.46-.3.41-.27.43-.3.38-.29.41-.31.35-.3.37-.32.15-.13a1.59,1.59,0,0,1,.13-.13c.2-.19.39-.38.58-.58l.18-.19c.24-.25.46-.51.67-.77,0,0,0,0,0,0l.14-.18.36-.49.18-.28.28-.45.07-.12.1-.19c.07-.13.13-.26.2-.38l.15-.33c.06-.13.11-.26.16-.38l.07-.18.06-.15.12-.38c0-.11.07-.22.1-.33l.09-.38a1.94,1.94,0,0,1,0-.2s0-.09,0-.13l.06-.39c0-.11,0-.22,0-.33l0-.39a1.64,1.64,0,0,1,0-.22v-.23l0-7.19C934,854.78,934,854.93,934,855.08Z"/><path class="cls-29" d="M926.46,844.09c10,5.78,10.06,15.16.11,20.94s-26.14,5.79-36.15,0-10.07-15.16-.12-20.94S916.44,838.3,926.46,844.09Z"/><path class="cls-30" d="M916.79,853c2.2,1.27,2.53,3.25.21,5.18l2.52,1.46-2.41,1.4-2.35-1.36a18.39,18.39,0,0,1-5.22,1.81l-2.16-2.1a16,16,0,0,0,5.15-1.75c1.4-.81,1.82-1.68.83-2.24s-2.33-.43-4.74.26c-3.53,1-6.56,1.34-9,0-2.17-1.25-2.36-3.11-.25-4.94l-2.35-1.36,2.41-1.41,2.17,1.26a16.12,16.12,0,0,1,4.37-1.6l2.08,2a14.39,14.39,0,0,0-4.37,1.57c-1.58.92-1.41,1.62-.73,2s2.19.28,5.08-.48C912,851.65,914.56,851.74,916.79,853Z"/><path class="cls-28" d="M945.4,847.14l0,.39c0,.11,0,.22,0,.33l-.06.39c0,.11,0,.22-.07.34l-.09.37c0,.11-.07.22-.1.34s-.08.24-.13.37-.08.22-.12.33-.11.25-.16.38l-.15.33c-.07.12-.13.25-.2.38l-.17.31c-.09.15-.19.3-.29.45a2.61,2.61,0,0,1-.17.28l-.36.49-.17.22a9.3,9.3,0,0,1-.66.77l-.19.2c-.18.19-.37.38-.58.57l-.27.26L941,855l-.36.3-.4.31-.38.29-.43.3-.41.28-.46.29-.59.36c-.56.32-1.14.62-1.73.91l-.47.22c-.53.24-1.07.48-1.63.7l-.22.09c-.6.22-1.22.43-1.84.63l-1.32.37c-.33.09-.66.19-1,.27s-.94.21-1.42.31l-1,.2-.44.07c-.58.1-1.17.18-1.76.25l-.53.07-1,.08c-.57,0-1.14.09-1.72.12l-1.11,0h-1.4l-1.17,0-1.3-.07c-.39,0-.79-.06-1.18-.1s-.85-.08-1.28-.14l-1.14-.16q-.67-.1-1.35-.24c-.36-.06-.71-.13-1.06-.21q-.81-.18-1.59-.39l-1-.27-.53-.17c-.53-.16-1.05-.34-1.56-.53l-.44-.16c-.47-.18-.91-.38-1.36-.58-.22-.1-.45-.18-.66-.29-.65-.3-1.27-.63-1.87-1-3.47-2-5.74-4.44-6.82-7a9,9,0,0,1-.73-3.55l0,7.19c0,3.82,2.5,7.64,7.54,10.55.61.34,1.23.67,1.88,1,.21.1.44.19.66.28.38.17.76.35,1.15.5l.21.08.44.16c.51.19,1,.37,1.56.53l.53.17.36.11.66.16q.78.21,1.59.39c.14,0,.28.08.42.1s.43.08.64.12l1.35.23.54.1.6.06,1.28.15c.2,0,.4.05.61.06l.57,0c.43,0,.86.06,1.3.07l.65,0h2.61l.42,0c.57,0,1.15-.07,1.72-.12l.7,0,.33,0,.52-.07c.6-.07,1.19-.15,1.77-.25l.44-.06.2,0,.82-.17c.48-.1.95-.19,1.42-.31s.67-.17,1-.27l1.32-.37.28-.08c.53-.17,1-.36,1.56-.55l.22-.09c.56-.22,1.1-.45,1.63-.7l.47-.22c.59-.29,1.17-.58,1.73-.91l.31-.18.28-.18.46-.29.41-.28.43-.3.38-.29.4-.31.36-.29.36-.33.16-.13.12-.13c.21-.19.4-.38.58-.57l.19-.2c.23-.25.46-.51.66-.77l0,0,.14-.19.36-.49c.06-.09.12-.18.17-.27s.2-.31.28-.46l.08-.12c0-.06.06-.13.1-.19s.13-.25.19-.38.11-.22.16-.33.11-.25.16-.38l.07-.18a.88.88,0,0,0,.05-.15c0-.13.09-.25.13-.37s.07-.23.1-.34l.09-.37a1.6,1.6,0,0,1,.05-.21.59.59,0,0,1,0-.13l.06-.39c0-.11,0-.22,0-.33l0-.39c0-.07,0-.15,0-.22a1.77,1.77,0,0,0,0-.23l0-7.19C945.42,846.84,945.41,847,945.4,847.14Z"/><path class="cls-29" d="M937.87,836.15c10,5.78,10.07,15.16.12,20.94s-26.14,5.79-36.15,0-10.07-15.17-.12-21S927.85,830.37,937.87,836.15Z"/><path class="cls-30" d="M928.21,845.09c2.2,1.27,2.53,3.26.21,5.18l2.52,1.46-2.41,1.4-2.36-1.36a18.19,18.19,0,0,1-5.22,1.81l-2.15-2.1a16.13,16.13,0,0,0,5.14-1.74c1.4-.82,1.82-1.68.84-2.25s-2.33-.43-4.75.27c-3.52,1-6.55,1.33-8.94,0-2.17-1.25-2.36-3.11-.25-4.94l-2.35-1.36,2.41-1.4,2.17,1.25a16.12,16.12,0,0,1,4.37-1.6l2.08,2a14.39,14.39,0,0,0-4.37,1.57c-1.58.92-1.41,1.62-.73,2s2.18.28,5.08-.48C923.45,843.71,926,843.81,928.21,845.09Z"/><g class="cls-18"><path class="cls-13" d="M517.55,286.07c-10.46-6.08-25-5.22-40.95,4-31.79,18.35-57.47,62.83-57.37,99.35,0,18.14,6.46,30.91,16.79,36.91l26.39,15.34c-10.33-6-16.73-18.77-16.79-36.91-.1-36.53,25.58-81,57.37-99.35,16-9.24,30.49-10.1,41-4Z"/><path class="cls-12" d="M503,305.43c31.79-18.36,57.64-3.63,57.74,32.89s-25.58,81-57.36,99.36-57.64,3.62-57.75-32.9S471.2,323.78,503,305.43Z"/></g><g class="cls-18"><path class="cls-8" d="M520.58,333.73c8.69-5,17.15-1.53,17.76,11.39.69,14.53-13.74,37.88-29.29,60a10.82,10.82,0,0,1-3.35,3.2,4.54,4.54,0,0,1-3.31.69c-15.74-3.82-30.4-10.18-29.95-25.38.41-13.61,8.85-27,17.6-32a15.83,15.83,0,0,1,5.14-1.95c6.87-1.18,9.63,2.37,10.12,3.1a43.57,43.57,0,0,1,10-14.83A26.33,26.33,0,0,1,520.58,333.73Z"/></g></svg>